<svg height="846" viewBox="0 0 1200 846" width="1200" xmlns="http://www.w3.org/2000/svg">
<rect fill="#ffffff" height="846" width="1200" x="0" y="0"/>
<text fill="#111111" font-family="monospace" font-size="18" x="44" y="36">
Isoform architecture: TP53 panel 'tp53_isoforms_v1' on grch38_tp53
</text>
<text fill="#4b5563" font-family="monospace" font-size="12" x="44" y="58">
genomic span 6624..25760 | isoforms=7 | protein max=393 aa
</text>
<text fill="#111827" font-family="monospace" font-size="13" x="44" y="88">
A) transcript / exon architecture (coordinate-true)
</text>
<line stroke="#6b7280" stroke-width="1" x1="340" x2="1156" y1="98" y2="98"/>
<text fill="#4b5563" font-family="monospace" font-size="10" text-anchor="start" x="340" y="94">
6624 bp
</text>
<text fill="#4b5563" font-family="monospace" font-size="10" text-anchor="end" x="1156" y="94">
25760 bp
</text>
<text fill="#111827" font-family="monospace" font-size="10" text-anchor="end" x="328" y="129.5">
p53alpha (ENST00000269305)
</text>
<line stroke="#6b7280" stroke-width="1.2" x1="394.96286" x2="434.06366" y1="126" y2="126"/>
<line stroke="#6b7280" stroke-width="1.2" x1="438.66876" x2="558.828" y1="126" y2="126"/>
<line stroke="#6b7280" stroke-width="1.2" x1="562.026" x2="565.90625" y1="126" y2="126"/>
<line stroke="#6b7280" stroke-width="1.2" x1="571.7905" x2="586.3734" y1="126" y2="126"/>
<line stroke="#6b7280" stroke-width="1.2" x1="591.10645" x2="615.28326" y1="126" y2="126"/>
<line stroke="#6b7280" stroke-width="1.2" x1="620.1442" x2="623.5554" y1="126" y2="126"/>
<line stroke="#6b7280" stroke-width="1.2" x1="631.4438" x2="663.67957" y1="126" y2="126"/>
<line stroke="#6b7280" stroke-width="1.2" x1="675.6188" x2="680.2239" y1="126" y2="126"/>
<line stroke="#6b7280" stroke-width="1.2" x1="681.2046" x2="686.15076" y1="126" y2="126"/>
<line stroke="#6b7280" stroke-width="1.2" x1="690.5427" x2="1149.0498" y1="126" y2="126"/>
<rect fill="#2563eb" fill-opacity="0.85" height="15" stroke="#1f2937" stroke-width="0.5" width="54.110046" x="340.81015" y="118.5"/>
<rect fill="#2563eb" fill-opacity="0.85" height="15" stroke="#1f2937" stroke-width="0.5" width="4.519806" x="434.1063" y="118.5"/>
<rect fill="#2563eb" fill-opacity="0.85" height="15" stroke="#1f2937" stroke-width="0.5" width="3.112732" x="558.87067" y="118.5"/>
<rect fill="#2563eb" fill-opacity="0.85" height="15" stroke="#1f2937" stroke-width="0.5" width="5.7990723" x="565.94885" y="118.5"/>
<rect fill="#2563eb" fill-opacity="0.85" height="15" stroke="#1f2937" stroke-width="0.5" width="4.647705" x="586.4161" y="118.5"/>
<rect fill="#2563eb" fill-opacity="0.85" height="15" stroke="#1f2937" stroke-width="0.5" width="4.775635" x="615.3259" y="118.5"/>
<rect fill="#2563eb" fill-opacity="0.85" height="15" stroke="#1f2937" stroke-width="0.5" width="7.8031616" x="623.598" y="118.5"/>
<rect fill="#2563eb" fill-opacity="0.85" height="15" stroke="#1f2937" stroke-width="0.5" width="11.853882" x="663.7222" y="118.5"/>
<rect fill="#2563eb" fill-opacity="0.85" height="15" stroke="#1f2937" stroke-width="0.5" width="1" x="680.2665" y="118.5"/>
<rect fill="#2563eb" fill-opacity="0.85" height="15" stroke="#1f2937" stroke-width="0.5" width="4.3065796" x="686.1935" y="118.5"/>
<rect fill="#2563eb" fill-opacity="0.85" height="15" stroke="#1f2937" stroke-width="0.5" width="4.8183594" x="1149.0923" y="118.5"/>
<text fill="#374151" font-family="monospace" font-size="9" x="1162" y="129">
TA=full
</text>
<text fill="#111827" font-family="monospace" font-size="10" text-anchor="end" x="328" y="163.5">
p53beta (ENST00000420246)
</text>
<line stroke="#6b7280" stroke-width="1.2" x1="394.96286" x2="434.06366" y1="160" y2="160"/>
<line stroke="#6b7280" stroke-width="1.2" x1="438.66876" x2="544.84216" y1="160" y2="160"/>
<line stroke="#6b7280" stroke-width="1.2" x1="550.5559" x2="558.828" y1="160" y2="160"/>
<line stroke="#6b7280" stroke-width="1.2" x1="562.026" x2="565.90625" y1="160" y2="160"/>
<line stroke="#6b7280" stroke-width="1.2" x1="571.7905" x2="586.3734" y1="160" y2="160"/>
<line stroke="#6b7280" stroke-width="1.2" x1="591.10645" x2="615.28326" y1="160" y2="160"/>
<line stroke="#6b7280" stroke-width="1.2" x1="620.1442" x2="623.5554" y1="160" y2="160"/>
<line stroke="#6b7280" stroke-width="1.2" x1="631.4438" x2="663.67957" y1="160" y2="160"/>
<line stroke="#6b7280" stroke-width="1.2" x1="675.6188" x2="680.2239" y1="160" y2="160"/>
<line stroke="#6b7280" stroke-width="1.2" x1="681.2046" x2="686.15076" y1="160" y2="160"/>
<line stroke="#6b7280" stroke-width="1.2" x1="690.5427" x2="1149.0498" y1="160" y2="160"/>
<rect fill="#2563eb" fill-opacity="0.85" height="15" stroke="#1f2937" stroke-width="0.5" width="54.83493" x="340.08527" y="152.5"/>
<rect fill="#2563eb" fill-opacity="0.85" height="15" stroke="#1f2937" stroke-width="0.5" width="4.519806" x="434.1063" y="152.5"/>
<rect fill="#2563eb" fill-opacity="0.85" height="15" stroke="#1f2937" stroke-width="0.5" width="5.628479" x="544.88477" y="152.5"/>
<rect fill="#2563eb" fill-opacity="0.85" height="15" stroke="#1f2937" stroke-width="0.5" width="3.112732" x="558.87067" y="152.5"/>
<rect fill="#2563eb" fill-opacity="0.85" height="15" stroke="#1f2937" stroke-width="0.5" width="5.7990723" x="565.94885" y="152.5"/>
<rect fill="#2563eb" fill-opacity="0.85" height="15" stroke="#1f2937" stroke-width="0.5" width="4.647705" x="586.4161" y="152.5"/>
<rect fill="#2563eb" fill-opacity="0.85" height="15" stroke="#1f2937" stroke-width="0.5" width="4.775635" x="615.3259" y="152.5"/>
<rect fill="#2563eb" fill-opacity="0.85" height="15" stroke="#1f2937" stroke-width="0.5" width="7.8031616" x="623.598" y="152.5"/>
<rect fill="#2563eb" fill-opacity="0.85" height="15" stroke="#1f2937" stroke-width="0.5" width="11.853882" x="663.7222" y="152.5"/>
<rect fill="#2563eb" fill-opacity="0.85" height="15" stroke="#1f2937" stroke-width="0.5" width="1" x="680.2665" y="152.5"/>
<rect fill="#2563eb" fill-opacity="0.85" height="15" stroke="#1f2937" stroke-width="0.5" width="4.3065796" x="686.1935" y="152.5"/>
<rect fill="#2563eb" fill-opacity="0.85" height="15" stroke="#1f2937" stroke-width="0.5" width="6.86499" x="1149.0923" y="152.5"/>
<text fill="#374151" font-family="monospace" font-size="9" x="1162" y="163">
TA=full
</text>
<text fill="#111827" font-family="monospace" font-size="10" text-anchor="end" x="328" y="197.5">
p53gamma (ENST00000455263)
</text>
<line stroke="#6b7280" stroke-width="1.2" x1="394.96286" x2="434.06366" y1="194" y2="194"/>
<line stroke="#6b7280" stroke-width="1.2" x1="438.66876" x2="544.84216" y1="194" y2="194"/>
<line stroke="#6b7280" stroke-width="1.2" x1="547.4432" x2="558.828" y1="194" y2="194"/>
<line stroke="#6b7280" stroke-width="1.2" x1="562.026" x2="565.90625" y1="194" y2="194"/>
<line stroke="#6b7280" stroke-width="1.2" x1="571.7905" x2="586.3734" y1="194" y2="194"/>
<line stroke="#6b7280" stroke-width="1.2" x1="591.10645" x2="615.28326" y1="194" y2="194"/>
<line stroke="#6b7280" stroke-width="1.2" x1="620.1442" x2="623.5554" y1="194" y2="194"/>
<line stroke="#6b7280" stroke-width="1.2" x1="631.4438" x2="663.67957" y1="194" y2="194"/>
<line stroke="#6b7280" stroke-width="1.2" x1="675.6188" x2="680.2239" y1="194" y2="194"/>
<line stroke="#6b7280" stroke-width="1.2" x1="681.2046" x2="686.15076" y1="194" y2="194"/>
<line stroke="#6b7280" stroke-width="1.2" x1="690.5427" x2="1149.0498" y1="194" y2="194"/>
<rect fill="#2563eb" fill-opacity="0.85" height="15" stroke="#1f2937" stroke-width="0.5" width="54.83493" x="340.08527" y="186.5"/>
<rect fill="#2563eb" fill-opacity="0.85" height="15" stroke="#1f2937" stroke-width="0.5" width="4.519806" x="434.1063" y="186.5"/>
<rect fill="#2563eb" fill-opacity="0.85" height="15" stroke="#1f2937" stroke-width="0.5" width="2.515747" x="544.88477" y="186.5"/>
<rect fill="#2563eb" fill-opacity="0.85" height="15" stroke="#1f2937" stroke-width="0.5" width="3.112732" x="558.87067" y="186.5"/>
<rect fill="#2563eb" fill-opacity="0.85" height="15" stroke="#1f2937" stroke-width="0.5" width="5.7990723" x="565.94885" y="186.5"/>
<rect fill="#2563eb" fill-opacity="0.85" height="15" stroke="#1f2937" stroke-width="0.5" width="4.647705" x="586.4161" y="186.5"/>
<rect fill="#2563eb" fill-opacity="0.85" height="15" stroke="#1f2937" stroke-width="0.5" width="4.775635" x="615.3259" y="186.5"/>
<rect fill="#2563eb" fill-opacity="0.85" height="15" stroke="#1f2937" stroke-width="0.5" width="7.8031616" x="623.598" y="186.5"/>
<rect fill="#2563eb" fill-opacity="0.85" height="15" stroke="#1f2937" stroke-width="0.5" width="11.853882" x="663.7222" y="186.5"/>
<rect fill="#2563eb" fill-opacity="0.85" height="15" stroke="#1f2937" stroke-width="0.5" width="1" x="680.2665" y="186.5"/>
<rect fill="#2563eb" fill-opacity="0.85" height="15" stroke="#1f2937" stroke-width="0.5" width="4.3065796" x="686.1935" y="186.5"/>
<rect fill="#2563eb" fill-opacity="0.85" height="15" stroke="#1f2937" stroke-width="0.5" width="6.86499" x="1149.0923" y="186.5"/>
<text fill="#374151" font-family="monospace" font-size="9" x="1162" y="197">
TA=full
</text>
<text fill="#111827" font-family="monospace" font-size="10" text-anchor="end" x="328" y="231.5">
delta40p53 (ENST00000610623)
</text>
<line stroke="#6b7280" stroke-width="1.2" x1="394.96286" x2="434.06366" y1="228" y2="228"/>
<line stroke="#6b7280" stroke-width="1.2" x1="438.66876" x2="544.84216" y1="228" y2="228"/>
<line stroke="#6b7280" stroke-width="1.2" x1="547.4432" x2="558.828" y1="228" y2="228"/>
<line stroke="#6b7280" stroke-width="1.2" x1="562.026" x2="565.90625" y1="228" y2="228"/>
<line stroke="#6b7280" stroke-width="1.2" x1="571.7905" x2="586.3734" y1="228" y2="228"/>
<line stroke="#6b7280" stroke-width="1.2" x1="591.10645" x2="615.28326" y1="228" y2="228"/>
<line stroke="#6b7280" stroke-width="1.2" x1="620.1442" x2="623.5554" y1="228" y2="228"/>
<rect fill="#2563eb" fill-opacity="0.85" height="15" stroke="#1f2937" stroke-width="0.5" width="54.920197" x="340" y="220.5"/>
<rect fill="#2563eb" fill-opacity="0.85" height="15" stroke="#1f2937" stroke-width="0.5" width="4.519806" x="434.1063" y="220.5"/>
<rect fill="#2563eb" fill-opacity="0.85" height="15" stroke="#1f2937" stroke-width="0.5" width="2.515747" x="544.88477" y="220.5"/>
<rect fill="#2563eb" fill-opacity="0.85" height="15" stroke="#1f2937" stroke-width="0.5" width="3.112732" x="558.87067" y="220.5"/>
<rect fill="#2563eb" fill-opacity="0.85" height="15" stroke="#1f2937" stroke-width="0.5" width="5.7990723" x="565.94885" y="220.5"/>
<rect fill="#2563eb" fill-opacity="0.85" height="15" stroke="#1f2937" stroke-width="0.5" width="4.647705" x="586.4161" y="220.5"/>
<rect fill="#2563eb" fill-opacity="0.85" height="15" stroke="#1f2937" stroke-width="0.5" width="4.775635" x="615.3259" y="220.5"/>
<rect fill="#2563eb" fill-opacity="0.85" height="15" stroke="#1f2937" stroke-width="0.5" width="18.761597" x="623.598" y="220.5"/>
<text fill="#374151" font-family="monospace" font-size="9" x="1162" y="231">
TA=partial
</text>
<text fill="#111827" font-family="monospace" font-size="10" text-anchor="end" x="328" y="265.5">
delta133p53 (ENST00000504290)
</text>
<line stroke="#6b7280" stroke-width="1.2" x1="394.96286" x2="434.06366" y1="262" y2="262"/>
<line stroke="#6b7280" stroke-width="1.2" x1="438.66876" x2="544.84216" y1="262" y2="262"/>
<line stroke="#6b7280" stroke-width="1.2" x1="547.4432" x2="558.828" y1="262" y2="262"/>
<line stroke="#6b7280" stroke-width="1.2" x1="562.026" x2="565.90625" y1="262" y2="262"/>
<line stroke="#6b7280" stroke-width="1.2" x1="571.7905" x2="586.3734" y1="262" y2="262"/>
<line stroke="#6b7280" stroke-width="1.2" x1="591.10645" x2="615.28326" y1="262" y2="262"/>
<line stroke="#6b7280" stroke-width="1.2" x1="620.1442" x2="623.5554" y1="262" y2="262"/>
<rect fill="#2563eb" fill-opacity="0.85" height="15" stroke="#1f2937" stroke-width="0.5" width="54.920197" x="340" y="254.5"/>
<rect fill="#2563eb" fill-opacity="0.85" height="15" stroke="#1f2937" stroke-width="0.5" width="4.519806" x="434.1063" y="254.5"/>
<rect fill="#2563eb" fill-opacity="0.85" height="15" stroke="#1f2937" stroke-width="0.5" width="2.515747" x="544.88477" y="254.5"/>
<rect fill="#2563eb" fill-opacity="0.85" height="15" stroke="#1f2937" stroke-width="0.5" width="3.112732" x="558.87067" y="254.5"/>
<rect fill="#2563eb" fill-opacity="0.85" height="15" stroke="#1f2937" stroke-width="0.5" width="5.7990723" x="565.94885" y="254.5"/>
<rect fill="#2563eb" fill-opacity="0.85" height="15" stroke="#1f2937" stroke-width="0.5" width="4.647705" x="586.4161" y="254.5"/>
<rect fill="#2563eb" fill-opacity="0.85" height="15" stroke="#1f2937" stroke-width="0.5" width="4.775635" x="615.3259" y="254.5"/>
<rect fill="#2563eb" fill-opacity="0.85" height="15" stroke="#1f2937" stroke-width="0.5" width="18.761597" x="623.598" y="254.5"/>
<text fill="#374151" font-family="monospace" font-size="9" x="1162" y="265">
TA=none
</text>
<text fill="#111827" font-family="monospace" font-size="10" text-anchor="end" x="328" y="299.5">
delta133p53beta (ENST00000610538)
</text>
<line stroke="#6b7280" stroke-width="1.2" x1="394.96286" x2="434.06366" y1="296" y2="296"/>
<line stroke="#6b7280" stroke-width="1.2" x1="438.66876" x2="544.84216" y1="296" y2="296"/>
<line stroke="#6b7280" stroke-width="1.2" x1="547.4432" x2="558.828" y1="296" y2="296"/>
<line stroke="#6b7280" stroke-width="1.2" x1="562.026" x2="565.90625" y1="296" y2="296"/>
<line stroke="#6b7280" stroke-width="1.2" x1="571.7905" x2="586.3734" y1="296" y2="296"/>
<line stroke="#6b7280" stroke-width="1.2" x1="591.10645" x2="615.28326" y1="296" y2="296"/>
<line stroke="#6b7280" stroke-width="1.2" x1="620.1442" x2="623.5554" y1="296" y2="296"/>
<line stroke="#6b7280" stroke-width="1.2" x1="631.4438" x2="663.67957" y1="296" y2="296"/>
<line stroke="#6b7280" stroke-width="1.2" x1="675.6188" x2="680.2239" y1="296" y2="296"/>
<line stroke="#6b7280" stroke-width="1.2" x1="681.2046" x2="686.15076" y1="296" y2="296"/>
<line stroke="#6b7280" stroke-width="1.2" x1="690.5427" x2="1149.0498" y1="296" y2="296"/>
<rect fill="#2563eb" fill-opacity="0.85" height="15" stroke="#1f2937" stroke-width="0.5" width="54.83493" x="340.08527" y="288.5"/>
<rect fill="#2563eb" fill-opacity="0.85" height="15" stroke="#1f2937" stroke-width="0.5" width="4.519806" x="434.1063" y="288.5"/>
<rect fill="#2563eb" fill-opacity="0.85" height="15" stroke="#1f2937" stroke-width="0.5" width="2.515747" x="544.88477" y="288.5"/>
<rect fill="#2563eb" fill-opacity="0.85" height="15" stroke="#1f2937" stroke-width="0.5" width="3.112732" x="558.87067" y="288.5"/>
<rect fill="#2563eb" fill-opacity="0.85" height="15" stroke="#1f2937" stroke-width="0.5" width="5.7990723" x="565.94885" y="288.5"/>
<rect fill="#2563eb" fill-opacity="0.85" height="15" stroke="#1f2937" stroke-width="0.5" width="4.647705" x="586.4161" y="288.5"/>
<rect fill="#2563eb" fill-opacity="0.85" height="15" stroke="#1f2937" stroke-width="0.5" width="4.775635" x="615.3259" y="288.5"/>
<rect fill="#2563eb" fill-opacity="0.85" height="15" stroke="#1f2937" stroke-width="0.5" width="7.8031616" x="623.598" y="288.5"/>
<rect fill="#2563eb" fill-opacity="0.85" height="15" stroke="#1f2937" stroke-width="0.5" width="11.853882" x="663.7222" y="288.5"/>
<rect fill="#2563eb" fill-opacity="0.85" height="15" stroke="#1f2937" stroke-width="0.5" width="1" x="680.2665" y="288.5"/>
<rect fill="#2563eb" fill-opacity="0.85" height="15" stroke="#1f2937" stroke-width="0.5" width="4.3065796" x="686.1935" y="288.5"/>
<rect fill="#2563eb" fill-opacity="0.85" height="15" stroke="#1f2937" stroke-width="0.5" width="4.4345703" x="1149.0923" y="288.5"/>
<text fill="#374151" font-family="monospace" font-size="9" x="1162" y="299">
TA=none
</text>
<text fill="#111827" font-family="monospace" font-size="10" text-anchor="end" x="328" y="333.5">
delta160p53 (ENST00000618944)
</text>
<line stroke="#6b7280" stroke-width="1.2" x1="394.96286" x2="434.06366" y1="330" y2="330"/>
<line stroke="#6b7280" stroke-width="1.2" x1="438.66876" x2="544.84216" y1="330" y2="330"/>
<line stroke="#6b7280" stroke-width="1.2" x1="550.5559" x2="558.828" y1="330" y2="330"/>
<line stroke="#6b7280" stroke-width="1.2" x1="562.026" x2="565.90625" y1="330" y2="330"/>
<line stroke="#6b7280" stroke-width="1.2" x1="571.7905" x2="586.3734" y1="330" y2="330"/>
<line stroke="#6b7280" stroke-width="1.2" x1="591.10645" x2="615.28326" y1="330" y2="330"/>
<line stroke="#6b7280" stroke-width="1.2" x1="620.1442" x2="623.5554" y1="330" y2="330"/>
<rect fill="#2563eb" fill-opacity="0.85" height="15" stroke="#1f2937" stroke-width="0.5" width="54.920197" x="340" y="322.5"/>
<rect fill="#2563eb" fill-opacity="0.85" height="15" stroke="#1f2937" stroke-width="0.5" width="4.519806" x="434.1063" y="322.5"/>
<rect fill="#2563eb" fill-opacity="0.85" height="15" stroke="#1f2937" stroke-width="0.5" width="5.628479" x="544.88477" y="322.5"/>
<rect fill="#2563eb" fill-opacity="0.85" height="15" stroke="#1f2937" stroke-width="0.5" width="3.112732" x="558.87067" y="322.5"/>
<rect fill="#2563eb" fill-opacity="0.85" height="15" stroke="#1f2937" stroke-width="0.5" width="5.7990723" x="565.94885" y="322.5"/>
<rect fill="#2563eb" fill-opacity="0.85" height="15" stroke="#1f2937" stroke-width="0.5" width="4.647705" x="586.4161" y="322.5"/>
<rect fill="#2563eb" fill-opacity="0.85" height="15" stroke="#1f2937" stroke-width="0.5" width="4.775635" x="615.3259" y="322.5"/>
<rect fill="#2563eb" fill-opacity="0.85" height="15" stroke="#1f2937" stroke-width="0.5" width="18.761597" x="623.598" y="322.5"/>
<text fill="#374151" font-family="monospace" font-size="9" x="1162" y="333">
TA=none
</text>
<text fill="#111827" font-family="monospace" font-size="13" x="44" y="402">
B) protein domain architecture
</text>
<line stroke="#6b7280" stroke-width="1" x1="340" x2="1156" y1="420" y2="420"/>
<text fill="#4b5563" font-family="monospace" font-size="10" text-anchor="start" x="340" y="416">
1 aa
</text>
<text fill="#4b5563" font-family="monospace" font-size="10" text-anchor="end" x="1156" y="416">
393 aa
</text>
<text fill="#111827" font-family="monospace" font-size="10" text-anchor="end" x="328" y="449.5">
p53alpha
</text>
<line stroke="#94a3b8" stroke-width="2" x1="340" x2="1153.9236" y1="446" y2="446"/>
<rect fill="#ef4444" fill-opacity="0.82" height="14" stroke="#1f2937" stroke-width="0.5" width="80.97711" x="340" y="439"/>
<text fill="#334155" font-family="monospace" font-size="8" x="342" y="437">
TAD1
</text>
<rect fill="#f97316" fill-opacity="0.82" height="14" stroke="#1f2937" stroke-width="0.5" width="41.526703" x="423.05344" y="439"/>
<text fill="#334155" font-family="monospace" font-size="8" x="425.05344" y="437">
TAD2
</text>
<rect fill="#f59e0b" fill-opacity="0.82" height="14" stroke="#1f2937" stroke-width="0.5" width="70.59543" x="468.73282" y="439"/>
<text fill="#334155" font-family="monospace" font-size="8" x="470.73282" y="437">
PRR
</text>
<rect fill="#2563eb" fill-opacity="0.82" height="14" stroke="#1f2937" stroke-width="0.5" width="394.50378" x="549.70996" y="439"/>
<text fill="#334155" font-family="monospace" font-size="8" x="551.70996" y="437">
DBD
</text>
<rect fill="#16a34a" fill-opacity="0.82" height="14" stroke="#1f2937" stroke-width="0.5" width="18.687012" x="994.04584" y="439"/>
<text fill="#334155" font-family="monospace" font-size="8" x="996.04584" y="437">
NLS
</text>
<rect fill="#0f766e" fill-opacity="0.82" height="14" stroke="#1f2937" stroke-width="0.5" width="64.366455" x="1010.6565" y="439"/>
<text fill="#334155" font-family="monospace" font-size="8" x="1012.6565" y="437">
OD
</text>
<rect fill="#6b7280" fill-opacity="0.82" height="14" stroke="#1f2937" stroke-width="0.5" width="76.82434" x="1077.0992" y="439"/>
<text fill="#334155" font-family="monospace" font-size="8" x="1079.0992" y="437">
CTD
</text>
<text fill="#374151" font-family="monospace" font-size="9" x="1162" y="449">
TA=full
</text>
<text fill="#111827" font-family="monospace" font-size="10" text-anchor="end" x="328" y="483.5">
p53beta
</text>
<line stroke="#94a3b8" stroke-width="2" x1="340" x2="1045.9542" y1="480" y2="480"/>
<rect fill="#ef4444" fill-opacity="0.82" height="14" stroke="#1f2937" stroke-width="0.5" width="80.97711" x="340" y="473"/>
<text fill="#334155" font-family="monospace" font-size="8" x="342" y="471">
TAD1
</text>
<rect fill="#f97316" fill-opacity="0.82" height="14" stroke="#1f2937" stroke-width="0.5" width="41.526703" x="423.05344" y="473"/>
<text fill="#334155" font-family="monospace" font-size="8" x="425.05344" y="471">
TAD2
</text>
<rect fill="#f59e0b" fill-opacity="0.82" height="14" stroke="#1f2937" stroke-width="0.5" width="70.59543" x="468.73282" y="473"/>
<text fill="#334155" font-family="monospace" font-size="8" x="470.73282" y="471">
PRR
</text>
<rect fill="#2563eb" fill-opacity="0.82" height="14" stroke="#1f2937" stroke-width="0.5" width="394.50378" x="549.70996" y="473"/>
<text fill="#334155" font-family="monospace" font-size="8" x="551.70996" y="471">
DBD
</text>
<rect fill="#6b7280" fill-opacity="0.82" height="14" stroke="#1f2937" stroke-width="0.5" width="99.664185" x="946.29004" y="473"/>
<text fill="#334155" font-family="monospace" font-size="8" x="948.29004" y="471">
beta_tail
</text>
<text fill="#374151" font-family="monospace" font-size="9" x="1162" y="483">
TA=full
</text>
<text fill="#111827" font-family="monospace" font-size="10" text-anchor="end" x="328" y="517.5">
p53gamma
</text>
<line stroke="#94a3b8" stroke-width="2" x1="340" x2="1037.6489" y1="514" y2="514"/>
<rect fill="#ef4444" fill-opacity="0.82" height="14" stroke="#1f2937" stroke-width="0.5" width="80.97711" x="340" y="507"/>
<text fill="#334155" font-family="monospace" font-size="8" x="342" y="505">
TAD1
</text>
<rect fill="#f97316" fill-opacity="0.82" height="14" stroke="#1f2937" stroke-width="0.5" width="41.526703" x="423.05344" y="507"/>
<text fill="#334155" font-family="monospace" font-size="8" x="425.05344" y="505">
TAD2
</text>
<rect fill="#f59e0b" fill-opacity="0.82" height="14" stroke="#1f2937" stroke-width="0.5" width="70.59543" x="468.73282" y="507"/>
<text fill="#334155" font-family="monospace" font-size="8" x="470.73282" y="505">
PRR
</text>
<rect fill="#2563eb" fill-opacity="0.82" height="14" stroke="#1f2937" stroke-width="0.5" width="394.50378" x="549.70996" y="507"/>
<text fill="#334155" font-family="monospace" font-size="8" x="551.70996" y="505">
DBD
</text>
<rect fill="#6b7280" fill-opacity="0.82" height="14" stroke="#1f2937" stroke-width="0.5" width="91.35889" x="946.29004" y="507"/>
<text fill="#334155" font-family="monospace" font-size="8" x="948.29004" y="505">
gamma_tail
</text>
<text fill="#374151" font-family="monospace" font-size="9" x="1162" y="517">
TA=full
</text>
<text fill="#111827" font-family="monospace" font-size="10" text-anchor="end" x="328" y="551.5">
delta40p53
</text>
<line stroke="#94a3b8" stroke-width="2" x1="340" x2="1070.8702" y1="548" y2="548"/>
<rect fill="#2563eb" fill-opacity="0.82" height="14" stroke="#1f2937" stroke-width="0.5" width="477.55725" x="466.6565" y="541"/>
<text fill="#334155" font-family="monospace" font-size="8" x="468.6565" y="539">
DBD
</text>
<rect fill="#16a34a" fill-opacity="0.82" height="14" stroke="#1f2937" stroke-width="0.5" width="18.687012" x="994.04584" y="541"/>
<text fill="#334155" font-family="monospace" font-size="8" x="996.04584" y="539">
NLS
</text>
<rect fill="#0f766e" fill-opacity="0.82" height="14" stroke="#1f2937" stroke-width="0.5" width="64.366455" x="1010.6565" y="541"/>
<text fill="#334155" font-family="monospace" font-size="8" x="1012.6565" y="539">
OD
</text>
<text fill="#374151" font-family="monospace" font-size="9" x="1162" y="551">
TA=partial
</text>
<text fill="#111827" font-family="monospace" font-size="10" text-anchor="end" x="328" y="585.5">
delta133p53
</text>
<line stroke="#94a3b8" stroke-width="2" x1="340" x2="877.771" y1="582" y2="582"/>
<rect fill="#2563eb" fill-opacity="0.82" height="14" stroke="#1f2937" stroke-width="0.5" width="330.13745" x="614.0763" y="575"/>
<text fill="#334155" font-family="monospace" font-size="8" x="616.0763" y="573">
partial_DBD
</text>
<rect fill="#16a34a" fill-opacity="0.82" height="14" stroke="#1f2937" stroke-width="0.5" width="18.687012" x="994.04584" y="575"/>
<text fill="#334155" font-family="monospace" font-size="8" x="996.04584" y="573">
NLS
</text>
<rect fill="#0f766e" fill-opacity="0.82" height="14" stroke="#1f2937" stroke-width="0.5" width="64.366455" x="1010.6565" y="575"/>
<text fill="#334155" font-family="monospace" font-size="8" x="1012.6565" y="573">
OD
</text>
<text fill="#374151" font-family="monospace" font-size="9" x="1162" y="585">
TA=none
</text>
<text fill="#111827" font-family="monospace" font-size="10" text-anchor="end" x="328" y="619.5">
delta133p53beta
</text>
<line stroke="#94a3b8" stroke-width="2" x1="340" x2="852.855" y1="616" y2="616"/>
<rect fill="#2563eb" fill-opacity="0.82" height="14" stroke="#1f2937" stroke-width="0.5" width="330.13745" x="614.0763" y="609"/>
<text fill="#334155" font-family="monospace" font-size="8" x="616.0763" y="607">
partial_DBD
</text>
<rect fill="#6b7280" fill-opacity="0.82" height="14" stroke="#1f2937" stroke-width="0.5" width="99.664185" x="946.29004" y="609"/>
<text fill="#334155" font-family="monospace" font-size="8" x="948.29004" y="607">
beta_tail
</text>
<text fill="#374151" font-family="monospace" font-size="9" x="1162" y="619">
TA=none
</text>
<text fill="#111827" font-family="monospace" font-size="10" text-anchor="end" x="328" y="653.5">
delta160p53
</text>
<line stroke="#94a3b8" stroke-width="2" x1="340" x2="821.70996" y1="650" y2="650"/>
<rect fill="#2563eb" fill-opacity="0.82" height="14" stroke="#1f2937" stroke-width="0.5" width="274.07635" x="670.1374" y="643"/>
<text fill="#334155" font-family="monospace" font-size="8" x="672.1374" y="641">
partial_DBD
</text>
<rect fill="#16a34a" fill-opacity="0.82" height="14" stroke="#1f2937" stroke-width="0.5" width="18.687012" x="994.04584" y="643"/>
<text fill="#334155" font-family="monospace" font-size="8" x="996.04584" y="641">
NLS
</text>
<rect fill="#0f766e" fill-opacity="0.82" height="14" stroke="#1f2937" stroke-width="0.5" width="64.366455" x="1010.6565" y="643"/>
<text fill="#334155" font-family="monospace" font-size="8" x="1012.6565" y="641">
OD
</text>
<text fill="#374151" font-family="monospace" font-size="9" x="1162" y="653">
TA=none
</text>
<text fill="#334155" font-family="monospace" font-size="10" x="44" y="726">
panel source: Curated TP53 isoform panel inspired by DCD Figure-1 style transcript/protein architecture
</text>
<text fill="#374151" font-family="monospace" font-size="11" x="44" y="782">
Isoform architecture view: top panel shows transcript/exon structure on genomic coordinates, bottom panel shows per-isoform protein-domain
</text>
<text fill="#374151" font-family="monospace" font-size="11" x="44" y="796">
architecture on amino-acid coordinates. Row order is shared across both panels.
</text>
</svg>