<svg height="846" viewBox="0 0 1200 846" width="1200" xmlns="http://www.w3.org/2000/svg">
<rect fill="#ffffff" height="846" width="1200" x="0" y="0"/>
<text fill="#111111" font-family="monospace" font-size="18" x="44" y="36">
Isoform architecture: TP53 panel 'tp53_isoforms_v1' on grch38_tp53
</text>
<text fill="#4b5563" font-family="monospace" font-size="12" x="44" y="58">
genomic span 6624..25760 | isoforms=7 | protein max=393 aa
</text>
<text fill="#4b5563" font-family="monospace" font-size="11" x="44" y="74">
display orientation: transcript 5'-&gt;3' left-to-right (dominant strand -)
</text>
<text fill="#111827" font-family="monospace" font-size="13" x="44" y="88">
A) transcript / exon architecture (coordinate-true)
</text>
<line stroke="#6b7280" stroke-width="1" x1="340" x2="1156" y1="98" y2="98"/>
<text fill="#4b5563" font-family="monospace" font-size="10" text-anchor="start" x="340" y="94">
25760 bp
</text>
<text fill="#4b5563" font-family="monospace" font-size="10" text-anchor="end" x="1156" y="94">
6624 bp
</text>
<text fill="#111827" font-family="monospace" font-size="10" text-anchor="end" x="328" y="129.5">
TAp53α (ENST00000269305)
</text>
<line stroke="#6b7280" stroke-width="1.2" x1="1061.8937" x2="1100.9945" y1="126" y2="126"/>
<line stroke="#6b7280" stroke-width="1.2" x1="937.12933" x2="1057.2886" y1="126" y2="126"/>
<line stroke="#6b7280" stroke-width="1.2" x1="930.0511" x2="933.93134" y1="126" y2="126"/>
<line stroke="#6b7280" stroke-width="1.2" x1="909.584" x2="924.1668" y1="126" y2="126"/>
<line stroke="#6b7280" stroke-width="1.2" x1="880.6741" x2="904.8509" y1="126" y2="126"/>
<line stroke="#6b7280" stroke-width="1.2" x1="872.4019" x2="875.8131" y1="126" y2="126"/>
<line stroke="#6b7280" stroke-width="1.2" x1="832.27783" x2="864.51355" y1="126" y2="126"/>
<line stroke="#6b7280" stroke-width="1.2" x1="815.7335" x2="820.3386" y1="126" y2="126"/>
<line stroke="#6b7280" stroke-width="1.2" x1="809.8065" x2="814.7528" y1="126" y2="126"/>
<line stroke="#6b7280" stroke-width="1.2" x1="346.90765" x2="805.4147" y1="126" y2="126"/>
<rect fill="#2563eb" fill-opacity="0.85" height="15" stroke="#1f2937" stroke-width="0.5" width="54.110107" x="1101.0371" y="118.5"/>
<rect fill="#2563eb" fill-opacity="0.85" height="15" stroke="#1f2937" stroke-width="0.5" width="4.5197754" x="1057.3313" y="118.5"/>
<rect fill="#2563eb" fill-opacity="0.85" height="15" stroke="#1f2937" stroke-width="0.5" width="3.112793" x="933.97394" y="118.5"/>
<rect fill="#2563eb" fill-opacity="0.85" height="15" stroke="#1f2937" stroke-width="0.5" width="5.7990723" x="924.2094" y="118.5"/>
<rect fill="#2563eb" fill-opacity="0.85" height="15" stroke="#1f2937" stroke-width="0.5" width="4.647766" x="904.89355" y="118.5"/>
<rect fill="#2563eb" fill-opacity="0.85" height="15" stroke="#1f2937" stroke-width="0.5" width="4.775696" x="875.8558" y="118.5"/>
<rect fill="#2563eb" fill-opacity="0.85" height="15" stroke="#1f2937" stroke-width="0.5" width="7.8031006" x="864.5562" y="118.5"/>
<rect fill="#2563eb" fill-opacity="0.85" height="15" stroke="#1f2937" stroke-width="0.5" width="11.853882" x="820.3812" y="118.5"/>
<rect fill="#2563eb" fill-opacity="0.85" height="15" stroke="#1f2937" stroke-width="0.5" width="1" x="814.7954" y="118.5"/>
<rect fill="#2563eb" fill-opacity="0.85" height="15" stroke="#1f2937" stroke-width="0.5" width="4.3066406" x="805.4573" y="118.5"/>
<rect fill="#2563eb" fill-opacity="0.85" height="15" stroke="#1f2937" stroke-width="0.5" width="4.8182983" x="342.04672" y="118.5"/>
<text fill="#374151" font-family="monospace" font-size="9" x="1162" y="129">
TA=full
</text>
<text fill="#111827" font-family="monospace" font-size="10" text-anchor="end" x="328" y="163.5">
TAp53β (ENST00000420246)
</text>
<line stroke="#6b7280" stroke-width="1.2" x1="1061.8937" x2="1100.9945" y1="160" y2="160"/>
<line stroke="#6b7280" stroke-width="1.2" x1="951.11523" x2="1057.2886" y1="160" y2="160"/>
<line stroke="#6b7280" stroke-width="1.2" x1="937.12933" x2="945.4015" y1="160" y2="160"/>
<line stroke="#6b7280" stroke-width="1.2" x1="930.0511" x2="933.93134" y1="160" y2="160"/>
<line stroke="#6b7280" stroke-width="1.2" x1="909.584" x2="924.1668" y1="160" y2="160"/>
<line stroke="#6b7280" stroke-width="1.2" x1="880.6741" x2="904.8509" y1="160" y2="160"/>
<line stroke="#6b7280" stroke-width="1.2" x1="872.4019" x2="875.8131" y1="160" y2="160"/>
<line stroke="#6b7280" stroke-width="1.2" x1="832.27783" x2="864.51355" y1="160" y2="160"/>
<line stroke="#6b7280" stroke-width="1.2" x1="815.7335" x2="820.3386" y1="160" y2="160"/>
<line stroke="#6b7280" stroke-width="1.2" x1="809.8065" x2="814.7528" y1="160" y2="160"/>
<line stroke="#6b7280" stroke-width="1.2" x1="346.90765" x2="805.4147" y1="160" y2="160"/>
<rect fill="#2563eb" fill-opacity="0.85" height="15" stroke="#1f2937" stroke-width="0.5" width="54.83496" x="1101.0371" y="152.5"/>
<rect fill="#2563eb" fill-opacity="0.85" height="15" stroke="#1f2937" stroke-width="0.5" width="4.5197754" x="1057.3313" y="152.5"/>
<rect fill="#2563eb" fill-opacity="0.85" height="15" stroke="#1f2937" stroke-width="0.5" width="5.628479" x="945.4441" y="152.5"/>
<rect fill="#2563eb" fill-opacity="0.85" height="15" stroke="#1f2937" stroke-width="0.5" width="3.112793" x="933.97394" y="152.5"/>
<rect fill="#2563eb" fill-opacity="0.85" height="15" stroke="#1f2937" stroke-width="0.5" width="5.7990723" x="924.2094" y="152.5"/>
<rect fill="#2563eb" fill-opacity="0.85" height="15" stroke="#1f2937" stroke-width="0.5" width="4.647766" x="904.89355" y="152.5"/>
<rect fill="#2563eb" fill-opacity="0.85" height="15" stroke="#1f2937" stroke-width="0.5" width="4.775696" x="875.8558" y="152.5"/>
<rect fill="#2563eb" fill-opacity="0.85" height="15" stroke="#1f2937" stroke-width="0.5" width="7.8031006" x="864.5562" y="152.5"/>
<rect fill="#2563eb" fill-opacity="0.85" height="15" stroke="#1f2937" stroke-width="0.5" width="11.853882" x="820.3812" y="152.5"/>
<rect fill="#2563eb" fill-opacity="0.85" height="15" stroke="#1f2937" stroke-width="0.5" width="1" x="814.7954" y="152.5"/>
<rect fill="#2563eb" fill-opacity="0.85" height="15" stroke="#1f2937" stroke-width="0.5" width="4.3066406" x="805.4573" y="152.5"/>
<rect fill="#2563eb" fill-opacity="0.85" height="15" stroke="#1f2937" stroke-width="0.5" width="6.8650208" x="340" y="152.5"/>
<text fill="#374151" font-family="monospace" font-size="9" x="1162" y="163">
TA=full
</text>
<text fill="#111827" font-family="monospace" font-size="10" text-anchor="end" x="328" y="197.5">
TAp53γ (ENST00000455263)
</text>
<line stroke="#6b7280" stroke-width="1.2" x1="1061.8937" x2="1100.9945" y1="194" y2="194"/>
<line stroke="#6b7280" stroke-width="1.2" x1="951.11523" x2="1057.2886" y1="194" y2="194"/>
<line stroke="#6b7280" stroke-width="1.2" x1="937.12933" x2="948.5142" y1="194" y2="194"/>
<line stroke="#6b7280" stroke-width="1.2" x1="930.0511" x2="933.93134" y1="194" y2="194"/>
<line stroke="#6b7280" stroke-width="1.2" x1="909.584" x2="924.1668" y1="194" y2="194"/>
<line stroke="#6b7280" stroke-width="1.2" x1="880.6741" x2="904.8509" y1="194" y2="194"/>
<line stroke="#6b7280" stroke-width="1.2" x1="872.4019" x2="875.8131" y1="194" y2="194"/>
<line stroke="#6b7280" stroke-width="1.2" x1="832.27783" x2="864.51355" y1="194" y2="194"/>
<line stroke="#6b7280" stroke-width="1.2" x1="815.7335" x2="820.3386" y1="194" y2="194"/>
<line stroke="#6b7280" stroke-width="1.2" x1="809.8065" x2="814.7528" y1="194" y2="194"/>
<line stroke="#6b7280" stroke-width="1.2" x1="346.90765" x2="805.4147" y1="194" y2="194"/>
<rect fill="#2563eb" fill-opacity="0.85" height="15" stroke="#1f2937" stroke-width="0.5" width="54.83496" x="1101.0371" y="186.5"/>
<rect fill="#2563eb" fill-opacity="0.85" height="15" stroke="#1f2937" stroke-width="0.5" width="4.5197754" x="1057.3313" y="186.5"/>
<rect fill="#2563eb" fill-opacity="0.85" height="15" stroke="#1f2937" stroke-width="0.5" width="2.515747" x="948.5568" y="186.5"/>
<rect fill="#2563eb" fill-opacity="0.85" height="15" stroke="#1f2937" stroke-width="0.5" width="3.112793" x="933.97394" y="186.5"/>
<rect fill="#2563eb" fill-opacity="0.85" height="15" stroke="#1f2937" stroke-width="0.5" width="5.7990723" x="924.2094" y="186.5"/>
<rect fill="#2563eb" fill-opacity="0.85" height="15" stroke="#1f2937" stroke-width="0.5" width="4.647766" x="904.89355" y="186.5"/>
<rect fill="#2563eb" fill-opacity="0.85" height="15" stroke="#1f2937" stroke-width="0.5" width="4.775696" x="875.8558" y="186.5"/>
<rect fill="#2563eb" fill-opacity="0.85" height="15" stroke="#1f2937" stroke-width="0.5" width="7.8031006" x="864.5562" y="186.5"/>
<rect fill="#2563eb" fill-opacity="0.85" height="15" stroke="#1f2937" stroke-width="0.5" width="11.853882" x="820.3812" y="186.5"/>
<rect fill="#2563eb" fill-opacity="0.85" height="15" stroke="#1f2937" stroke-width="0.5" width="1" x="814.7954" y="186.5"/>
<rect fill="#2563eb" fill-opacity="0.85" height="15" stroke="#1f2937" stroke-width="0.5" width="4.3066406" x="805.4573" y="186.5"/>
<rect fill="#2563eb" fill-opacity="0.85" height="15" stroke="#1f2937" stroke-width="0.5" width="6.8650208" x="340" y="186.5"/>
<text fill="#374151" font-family="monospace" font-size="9" x="1162" y="197">
TA=full
</text>
<text fill="#111827" font-family="monospace" font-size="10" text-anchor="end" x="328" y="231.5">
Δ40p53α (ENST00000610623)
</text>
<line stroke="#6b7280" stroke-width="1.2" x1="1061.8937" x2="1100.9945" y1="228" y2="228"/>
<line stroke="#6b7280" stroke-width="1.2" x1="951.11523" x2="1057.2886" y1="228" y2="228"/>
<line stroke="#6b7280" stroke-width="1.2" x1="937.12933" x2="948.5142" y1="228" y2="228"/>
<line stroke="#6b7280" stroke-width="1.2" x1="930.0511" x2="933.93134" y1="228" y2="228"/>
<line stroke="#6b7280" stroke-width="1.2" x1="909.584" x2="924.1668" y1="228" y2="228"/>
<line stroke="#6b7280" stroke-width="1.2" x1="880.6741" x2="904.8509" y1="228" y2="228"/>
<line stroke="#6b7280" stroke-width="1.2" x1="872.4019" x2="875.8131" y1="228" y2="228"/>
<rect fill="#2563eb" fill-opacity="0.85" height="15" stroke="#1f2937" stroke-width="0.5" width="54.920166" x="1101.0371" y="220.5"/>
<rect fill="#2563eb" fill-opacity="0.85" height="15" stroke="#1f2937" stroke-width="0.5" width="4.5197754" x="1057.3313" y="220.5"/>
<rect fill="#2563eb" fill-opacity="0.85" height="15" stroke="#1f2937" stroke-width="0.5" width="2.515747" x="948.5568" y="220.5"/>
<rect fill="#2563eb" fill-opacity="0.85" height="15" stroke="#1f2937" stroke-width="0.5" width="3.112793" x="933.97394" y="220.5"/>
<rect fill="#2563eb" fill-opacity="0.85" height="15" stroke="#1f2937" stroke-width="0.5" width="5.7990723" x="924.2094" y="220.5"/>
<rect fill="#2563eb" fill-opacity="0.85" height="15" stroke="#1f2937" stroke-width="0.5" width="4.647766" x="904.89355" y="220.5"/>
<rect fill="#2563eb" fill-opacity="0.85" height="15" stroke="#1f2937" stroke-width="0.5" width="4.775696" x="875.8558" y="220.5"/>
<rect fill="#2563eb" fill-opacity="0.85" height="15" stroke="#1f2937" stroke-width="0.5" width="18.761536" x="853.5978" y="220.5"/>
<text fill="#374151" font-family="monospace" font-size="9" x="1162" y="231">
TA=partial
</text>
<text fill="#111827" font-family="monospace" font-size="10" text-anchor="end" x="328" y="265.5">
Δ133p53α (ENST00000504290)
</text>
<line stroke="#6b7280" stroke-width="1.2" x1="1061.8937" x2="1100.9945" y1="262" y2="262"/>
<line stroke="#6b7280" stroke-width="1.2" x1="951.11523" x2="1057.2886" y1="262" y2="262"/>
<line stroke="#6b7280" stroke-width="1.2" x1="937.12933" x2="948.5142" y1="262" y2="262"/>
<line stroke="#6b7280" stroke-width="1.2" x1="930.0511" x2="933.93134" y1="262" y2="262"/>
<line stroke="#6b7280" stroke-width="1.2" x1="909.584" x2="924.1668" y1="262" y2="262"/>
<line stroke="#6b7280" stroke-width="1.2" x1="880.6741" x2="904.8509" y1="262" y2="262"/>
<line stroke="#6b7280" stroke-width="1.2" x1="872.4019" x2="875.8131" y1="262" y2="262"/>
<rect fill="#2563eb" fill-opacity="0.85" height="15" stroke="#1f2937" stroke-width="0.5" width="54.920166" x="1101.0371" y="254.5"/>
<rect fill="#2563eb" fill-opacity="0.85" height="15" stroke="#1f2937" stroke-width="0.5" width="4.5197754" x="1057.3313" y="254.5"/>
<rect fill="#2563eb" fill-opacity="0.85" height="15" stroke="#1f2937" stroke-width="0.5" width="2.515747" x="948.5568" y="254.5"/>
<rect fill="#2563eb" fill-opacity="0.85" height="15" stroke="#1f2937" stroke-width="0.5" width="3.112793" x="933.97394" y="254.5"/>
<rect fill="#2563eb" fill-opacity="0.85" height="15" stroke="#1f2937" stroke-width="0.5" width="5.7990723" x="924.2094" y="254.5"/>
<rect fill="#2563eb" fill-opacity="0.85" height="15" stroke="#1f2937" stroke-width="0.5" width="4.647766" x="904.89355" y="254.5"/>
<rect fill="#2563eb" fill-opacity="0.85" height="15" stroke="#1f2937" stroke-width="0.5" width="4.775696" x="875.8558" y="254.5"/>
<rect fill="#2563eb" fill-opacity="0.85" height="15" stroke="#1f2937" stroke-width="0.5" width="18.761536" x="853.5978" y="254.5"/>
<text fill="#374151" font-family="monospace" font-size="9" x="1162" y="265">
TA=none
</text>
<text fill="#111827" font-family="monospace" font-size="10" text-anchor="end" x="328" y="299.5">
Δ133p53β (ENST00000610538)
</text>
<line stroke="#6b7280" stroke-width="1.2" x1="1061.8937" x2="1100.9945" y1="296" y2="296"/>
<line stroke="#6b7280" stroke-width="1.2" x1="951.11523" x2="1057.2886" y1="296" y2="296"/>
<line stroke="#6b7280" stroke-width="1.2" x1="937.12933" x2="948.5142" y1="296" y2="296"/>
<line stroke="#6b7280" stroke-width="1.2" x1="930.0511" x2="933.93134" y1="296" y2="296"/>
<line stroke="#6b7280" stroke-width="1.2" x1="909.584" x2="924.1668" y1="296" y2="296"/>
<line stroke="#6b7280" stroke-width="1.2" x1="880.6741" x2="904.8509" y1="296" y2="296"/>
<line stroke="#6b7280" stroke-width="1.2" x1="872.4019" x2="875.8131" y1="296" y2="296"/>
<line stroke="#6b7280" stroke-width="1.2" x1="832.27783" x2="864.51355" y1="296" y2="296"/>
<line stroke="#6b7280" stroke-width="1.2" x1="815.7335" x2="820.3386" y1="296" y2="296"/>
<line stroke="#6b7280" stroke-width="1.2" x1="809.8065" x2="814.7528" y1="296" y2="296"/>
<line stroke="#6b7280" stroke-width="1.2" x1="346.90765" x2="805.4147" y1="296" y2="296"/>
<rect fill="#2563eb" fill-opacity="0.85" height="15" stroke="#1f2937" stroke-width="0.5" width="54.83496" x="1101.0371" y="288.5"/>
<rect fill="#2563eb" fill-opacity="0.85" height="15" stroke="#1f2937" stroke-width="0.5" width="4.5197754" x="1057.3313" y="288.5"/>
<rect fill="#2563eb" fill-opacity="0.85" height="15" stroke="#1f2937" stroke-width="0.5" width="2.515747" x="948.5568" y="288.5"/>
<rect fill="#2563eb" fill-opacity="0.85" height="15" stroke="#1f2937" stroke-width="0.5" width="3.112793" x="933.97394" y="288.5"/>
<rect fill="#2563eb" fill-opacity="0.85" height="15" stroke="#1f2937" stroke-width="0.5" width="5.7990723" x="924.2094" y="288.5"/>
<rect fill="#2563eb" fill-opacity="0.85" height="15" stroke="#1f2937" stroke-width="0.5" width="4.647766" x="904.89355" y="288.5"/>
<rect fill="#2563eb" fill-opacity="0.85" height="15" stroke="#1f2937" stroke-width="0.5" width="4.775696" x="875.8558" y="288.5"/>
<rect fill="#2563eb" fill-opacity="0.85" height="15" stroke="#1f2937" stroke-width="0.5" width="7.8031006" x="864.5562" y="288.5"/>
<rect fill="#2563eb" fill-opacity="0.85" height="15" stroke="#1f2937" stroke-width="0.5" width="11.853882" x="820.3812" y="288.5"/>
<rect fill="#2563eb" fill-opacity="0.85" height="15" stroke="#1f2937" stroke-width="0.5" width="1" x="814.7954" y="288.5"/>
<rect fill="#2563eb" fill-opacity="0.85" height="15" stroke="#1f2937" stroke-width="0.5" width="4.3066406" x="805.4573" y="288.5"/>
<rect fill="#2563eb" fill-opacity="0.85" height="15" stroke="#1f2937" stroke-width="0.5" width="4.43454" x="342.43048" y="288.5"/>
<text fill="#374151" font-family="monospace" font-size="9" x="1162" y="299">
TA=none
</text>
<text fill="#111827" font-family="monospace" font-size="10" text-anchor="end" x="328" y="333.5">
Δ160p53α (ENST00000618944)
</text>
<line stroke="#6b7280" stroke-width="1.2" x1="1061.8937" x2="1100.9945" y1="330" y2="330"/>
<line stroke="#6b7280" stroke-width="1.2" x1="951.11523" x2="1057.2886" y1="330" y2="330"/>
<line stroke="#6b7280" stroke-width="1.2" x1="937.12933" x2="945.4015" y1="330" y2="330"/>
<line stroke="#6b7280" stroke-width="1.2" x1="930.0511" x2="933.93134" y1="330" y2="330"/>
<line stroke="#6b7280" stroke-width="1.2" x1="909.584" x2="924.1668" y1="330" y2="330"/>
<line stroke="#6b7280" stroke-width="1.2" x1="880.6741" x2="904.8509" y1="330" y2="330"/>
<line stroke="#6b7280" stroke-width="1.2" x1="872.4019" x2="875.8131" y1="330" y2="330"/>
<rect fill="#2563eb" fill-opacity="0.85" height="15" stroke="#1f2937" stroke-width="0.5" width="54.920166" x="1101.0371" y="322.5"/>
<rect fill="#2563eb" fill-opacity="0.85" height="15" stroke="#1f2937" stroke-width="0.5" width="4.5197754" x="1057.3313" y="322.5"/>
<rect fill="#2563eb" fill-opacity="0.85" height="15" stroke="#1f2937" stroke-width="0.5" width="5.628479" x="945.4441" y="322.5"/>
<rect fill="#2563eb" fill-opacity="0.85" height="15" stroke="#1f2937" stroke-width="0.5" width="3.112793" x="933.97394" y="322.5"/>
<rect fill="#2563eb" fill-opacity="0.85" height="15" stroke="#1f2937" stroke-width="0.5" width="5.7990723" x="924.2094" y="322.5"/>
<rect fill="#2563eb" fill-opacity="0.85" height="15" stroke="#1f2937" stroke-width="0.5" width="4.647766" x="904.89355" y="322.5"/>
<rect fill="#2563eb" fill-opacity="0.85" height="15" stroke="#1f2937" stroke-width="0.5" width="4.775696" x="875.8558" y="322.5"/>
<rect fill="#2563eb" fill-opacity="0.85" height="15" stroke="#1f2937" stroke-width="0.5" width="18.761536" x="853.5978" y="322.5"/>
<text fill="#374151" font-family="monospace" font-size="9" x="1162" y="333">
TA=none
</text>
<text fill="#111827" font-family="monospace" font-size="13" x="44" y="402">
B) protein domain architecture
</text>
<line stroke="#6b7280" stroke-width="1" x1="340" x2="1156" y1="420" y2="420"/>
<text fill="#4b5563" font-family="monospace" font-size="10" text-anchor="start" x="340" y="416">
1 aa
</text>
<text fill="#4b5563" font-family="monospace" font-size="10" text-anchor="end" x="1156" y="416">
393 aa
</text>
<text fill="#111827" font-family="monospace" font-size="10" text-anchor="end" x="328" y="449.5">
TAp53α
</text>
<line stroke="#94a3b8" stroke-width="2" x1="340" x2="1153.9236" y1="446" y2="446"/>
<rect fill="#ef4444" fill-opacity="0.82" height="14" stroke="#1f2937" stroke-width="0.5" width="80.97711" x="340" y="439"/>
<text fill="#334155" font-family="monospace" font-size="8" x="342" y="437">
TAD1
</text>
<rect fill="#f97316" fill-opacity="0.82" height="14" stroke="#1f2937" stroke-width="0.5" width="41.526703" x="423.05344" y="439"/>
<text fill="#334155" font-family="monospace" font-size="8" x="425.05344" y="437">
TAD2
</text>
<rect fill="#f59e0b" fill-opacity="0.82" height="14" stroke="#1f2937" stroke-width="0.5" width="70.59543" x="468.73282" y="439"/>
<text fill="#334155" font-family="monospace" font-size="8" x="470.73282" y="437">
PRR
</text>
<rect fill="#2563eb" fill-opacity="0.82" height="14" stroke="#1f2937" stroke-width="0.5" width="394.50378" x="549.70996" y="439"/>
<text fill="#334155" font-family="monospace" font-size="8" x="551.70996" y="437">
DBD
</text>
<rect fill="#16a34a" fill-opacity="0.82" height="14" stroke="#1f2937" stroke-width="0.5" width="18.687012" x="994.04584" y="439"/>
<text fill="#334155" font-family="monospace" font-size="8" x="996.04584" y="437">
NLS
</text>
<rect fill="#0f766e" fill-opacity="0.82" height="14" stroke="#1f2937" stroke-width="0.5" width="64.366455" x="1010.6565" y="439"/>
<text fill="#334155" font-family="monospace" font-size="8" x="1012.6565" y="437">
OD
</text>
<rect fill="#6b7280" fill-opacity="0.82" height="14" stroke="#1f2937" stroke-width="0.5" width="76.82434" x="1077.0992" y="439"/>
<text fill="#334155" font-family="monospace" font-size="8" x="1079.0992" y="437">
CTD
</text>
<text fill="#374151" font-family="monospace" font-size="9" x="1162" y="449">
TA=full
</text>
<text fill="#111827" font-family="monospace" font-size="10" text-anchor="end" x="328" y="483.5">
TAp53β
</text>
<line stroke="#94a3b8" stroke-width="2" x1="340" x2="1045.9542" y1="480" y2="480"/>
<rect fill="#ef4444" fill-opacity="0.82" height="14" stroke="#1f2937" stroke-width="0.5" width="80.97711" x="340" y="473"/>
<text fill="#334155" font-family="monospace" font-size="8" x="342" y="471">
TAD1
</text>
<rect fill="#f97316" fill-opacity="0.82" height="14" stroke="#1f2937" stroke-width="0.5" width="41.526703" x="423.05344" y="473"/>
<text fill="#334155" font-family="monospace" font-size="8" x="425.05344" y="471">
TAD2
</text>
<rect fill="#f59e0b" fill-opacity="0.82" height="14" stroke="#1f2937" stroke-width="0.5" width="70.59543" x="468.73282" y="473"/>
<text fill="#334155" font-family="monospace" font-size="8" x="470.73282" y="471">
PRR
</text>
<rect fill="#2563eb" fill-opacity="0.82" height="14" stroke="#1f2937" stroke-width="0.5" width="394.50378" x="549.70996" y="473"/>
<text fill="#334155" font-family="monospace" font-size="8" x="551.70996" y="471">
DBD
</text>
<rect fill="#6b7280" fill-opacity="0.82" height="14" stroke="#1f2937" stroke-width="0.5" width="99.664185" x="946.29004" y="473"/>
<text fill="#334155" font-family="monospace" font-size="8" x="948.29004" y="471">
β-tail
</text>
<text fill="#374151" font-family="monospace" font-size="9" x="1162" y="483">
TA=full
</text>
<text fill="#111827" font-family="monospace" font-size="10" text-anchor="end" x="328" y="517.5">
TAp53γ
</text>
<line stroke="#94a3b8" stroke-width="2" x1="340" x2="1037.6489" y1="514" y2="514"/>
<rect fill="#ef4444" fill-opacity="0.82" height="14" stroke="#1f2937" stroke-width="0.5" width="80.97711" x="340" y="507"/>
<text fill="#334155" font-family="monospace" font-size="8" x="342" y="505">
TAD1
</text>
<rect fill="#f97316" fill-opacity="0.82" height="14" stroke="#1f2937" stroke-width="0.5" width="41.526703" x="423.05344" y="507"/>
<text fill="#334155" font-family="monospace" font-size="8" x="425.05344" y="505">
TAD2
</text>
<rect fill="#f59e0b" fill-opacity="0.82" height="14" stroke="#1f2937" stroke-width="0.5" width="70.59543" x="468.73282" y="507"/>
<text fill="#334155" font-family="monospace" font-size="8" x="470.73282" y="505">
PRR
</text>
<rect fill="#2563eb" fill-opacity="0.82" height="14" stroke="#1f2937" stroke-width="0.5" width="394.50378" x="549.70996" y="507"/>
<text fill="#334155" font-family="monospace" font-size="8" x="551.70996" y="505">
DBD
</text>
<rect fill="#6b7280" fill-opacity="0.82" height="14" stroke="#1f2937" stroke-width="0.5" width="91.35889" x="946.29004" y="507"/>
<text fill="#334155" font-family="monospace" font-size="8" x="948.29004" y="505">
γ-tail
</text>
<text fill="#374151" font-family="monospace" font-size="9" x="1162" y="517">
TA=full
</text>
<text fill="#111827" font-family="monospace" font-size="10" text-anchor="end" x="328" y="551.5">
Δ40p53α
</text>
<line stroke="#94a3b8" stroke-width="2" x1="340" x2="1070.8702" y1="548" y2="548"/>
<rect fill="#2563eb" fill-opacity="0.82" height="14" stroke="#1f2937" stroke-width="0.5" width="477.55725" x="466.6565" y="541"/>
<text fill="#334155" font-family="monospace" font-size="8" x="468.6565" y="539">
DBD
</text>
<rect fill="#16a34a" fill-opacity="0.82" height="14" stroke="#1f2937" stroke-width="0.5" width="18.687012" x="994.04584" y="541"/>
<text fill="#334155" font-family="monospace" font-size="8" x="996.04584" y="539">
NLS
</text>
<rect fill="#0f766e" fill-opacity="0.82" height="14" stroke="#1f2937" stroke-width="0.5" width="64.366455" x="1010.6565" y="541"/>
<text fill="#334155" font-family="monospace" font-size="8" x="1012.6565" y="539">
OD
</text>
<text fill="#374151" font-family="monospace" font-size="9" x="1162" y="551">
TA=partial
</text>
<text fill="#111827" font-family="monospace" font-size="10" text-anchor="end" x="328" y="585.5">
Δ133p53α
</text>
<line stroke="#94a3b8" stroke-width="2" x1="340" x2="877.771" y1="582" y2="582"/>
<rect fill="#2563eb" fill-opacity="0.82" height="14" stroke="#1f2937" stroke-width="0.5" width="330.13745" x="614.0763" y="575"/>
<text fill="#334155" font-family="monospace" font-size="8" x="616.0763" y="573">
partial_DBD
</text>
<rect fill="#16a34a" fill-opacity="0.82" height="14" stroke="#1f2937" stroke-width="0.5" width="18.687012" x="994.04584" y="575"/>
<text fill="#334155" font-family="monospace" font-size="8" x="996.04584" y="573">
NLS
</text>
<rect fill="#0f766e" fill-opacity="0.82" height="14" stroke="#1f2937" stroke-width="0.5" width="64.366455" x="1010.6565" y="575"/>
<text fill="#334155" font-family="monospace" font-size="8" x="1012.6565" y="573">
OD
</text>
<text fill="#374151" font-family="monospace" font-size="9" x="1162" y="585">
TA=none
</text>
<text fill="#111827" font-family="monospace" font-size="10" text-anchor="end" x="328" y="619.5">
Δ133p53β
</text>
<line stroke="#94a3b8" stroke-width="2" x1="340" x2="852.855" y1="616" y2="616"/>
<rect fill="#2563eb" fill-opacity="0.82" height="14" stroke="#1f2937" stroke-width="0.5" width="330.13745" x="614.0763" y="609"/>
<text fill="#334155" font-family="monospace" font-size="8" x="616.0763" y="607">
partial_DBD
</text>
<rect fill="#6b7280" fill-opacity="0.82" height="14" stroke="#1f2937" stroke-width="0.5" width="99.664185" x="946.29004" y="609"/>
<text fill="#334155" font-family="monospace" font-size="8" x="948.29004" y="607">
β-tail
</text>
<text fill="#374151" font-family="monospace" font-size="9" x="1162" y="619">
TA=none
</text>
<text fill="#111827" font-family="monospace" font-size="10" text-anchor="end" x="328" y="653.5">
Δ160p53α
</text>
<line stroke="#94a3b8" stroke-width="2" x1="340" x2="821.70996" y1="650" y2="650"/>
<rect fill="#2563eb" fill-opacity="0.82" height="14" stroke="#1f2937" stroke-width="0.5" width="274.07635" x="670.1374" y="643"/>
<text fill="#334155" font-family="monospace" font-size="8" x="672.1374" y="641">
partial_DBD
</text>
<rect fill="#16a34a" fill-opacity="0.82" height="14" stroke="#1f2937" stroke-width="0.5" width="18.687012" x="994.04584" y="643"/>
<text fill="#334155" font-family="monospace" font-size="8" x="996.04584" y="641">
NLS
</text>
<rect fill="#0f766e" fill-opacity="0.82" height="14" stroke="#1f2937" stroke-width="0.5" width="64.366455" x="1010.6565" y="643"/>
<text fill="#334155" font-family="monospace" font-size="8" x="1012.6565" y="641">
OD
</text>
<text fill="#374151" font-family="monospace" font-size="9" x="1162" y="653">
TA=none
</text>
<text fill="#334155" font-family="monospace" font-size="10" x="44" y="726">
panel source: Curated TP53 isoform panel inspired by DCD Figure-1 style transcript/protein architecture
</text>
<text fill="#374151" font-family="monospace" font-size="11" x="44" y="782">
Isoform architecture view: top panel shows transcript/exon structure on genomic coordinates with 5'-&gt;3' orientation left-to-right
</text>
<text fill="#374151" font-family="monospace" font-size="11" x="44" y="796">
(strand-aware axis), bottom panel shows per-isoform protein-domain architecture on amino-acid coordinates. Row order is shared across both
</text>
<text fill="#374151" font-family="monospace" font-size="11" x="44" y="810">
panels.
</text>
</svg>