<svg height="846" viewBox="0 0 1200 846" width="1200" xmlns="http://www.w3.org/2000/svg">
<rect fill="#ffffff" height="846" width="1200" x="0" y="0"/>
<text fill="#111111" font-family="monospace" font-size="18" x="44" y="36">
Isoform architecture: TP53 panel 'tp53_isoforms_v1' on grch38_tp53
</text>
<text fill="#4b5563" font-family="monospace" font-size="12" x="44" y="58">
genomic span 7834..14816 | isoforms=7 | protein max=393 aa
</text>
<text fill="#4b5563" font-family="monospace" font-size="11" x="44" y="74">
display orientation: transcript 5'-&gt;3' left-to-right (dominant strand -) | top-panel geometry: cds
</text>
<text fill="#111827" font-family="monospace" font-size="13" x="44" y="88">
A) transcript exons (faint) + CDS (solid) architecture (coordinate-true)
</text>
<line stroke="#6b7280" stroke-width="1" x1="340" x2="1156" y1="98" y2="98"/>
<text fill="#4b5563" font-family="monospace" font-size="10" text-anchor="start" x="340" y="94">
14816 bp
</text>
<text fill="#4b5563" font-family="monospace" font-size="10" text-anchor="end" x="1156" y="94">
7834 bp
</text>
<text fill="#111827" font-family="monospace" font-size="10" text-anchor="end" x="328" y="129.5">
TAp53α (ENST00000269305)
</text>
<line stroke="#6b7280" stroke-width="1.2" x1="1039.4954" x2="1146.6516" y1="126" y2="126"/>
<line stroke="#6b7280" stroke-width="1.2" x1="697.57697" x2="1026.875" y1="126" y2="126"/>
<line stroke="#6b7280" stroke-width="1.2" x1="678.179" x2="688.8128" y1="126" y2="126"/>
<line stroke="#6b7280" stroke-width="1.2" x1="622.0885" x2="662.053" y1="126" y2="126"/>
<line stroke="#6b7280" stroke-width="1.2" x1="542.86066" x2="609.11755" y1="126" y2="126"/>
<line stroke="#6b7280" stroke-width="1.2" x1="520.19073" x2="529.5392" y1="126" y2="126"/>
<line stroke="#6b7280" stroke-width="1.2" x1="410.22998" x2="498.5725" y1="126" y2="126"/>
<line stroke="#6b7280" stroke-width="1.2" x1="364.89017" x2="377.51053" y1="126" y2="126"/>
<line stroke="#6b7280" stroke-width="1.2" x1="348.64728" x2="362.20248" y1="126" y2="126"/>
<rect fill="#93c5fd" fill-opacity="0.25" height="15" stroke="#60a5fa" stroke-width="0.35" width="9.114624" x="1146.7684" y="118.5"/>
<rect fill="#93c5fd" fill-opacity="0.25" height="15" stroke="#60a5fa" stroke-width="0.35" width="12.386597" x="1026.9918" y="118.5"/>
<rect fill="#93c5fd" fill-opacity="0.25" height="15" stroke="#60a5fa" stroke-width="0.35" width="8.5303955" x="688.9297" y="118.5"/>
<rect fill="#93c5fd" fill-opacity="0.25" height="15" stroke="#60a5fa" stroke-width="0.35" width="15.892334" x="662.1698" y="118.5"/>
<rect fill="#93c5fd" fill-opacity="0.25" height="15" stroke="#60a5fa" stroke-width="0.35" width="12.737244" x="609.23444" y="118.5"/>
<rect fill="#93c5fd" fill-opacity="0.25" height="15" stroke="#60a5fa" stroke-width="0.35" width="13.087769" x="529.656" y="118.5"/>
<rect fill="#93c5fd" fill-opacity="0.25" height="15" stroke="#60a5fa" stroke-width="0.35" width="21.384521" x="498.6894" y="118.5"/>
<rect fill="#93c5fd" fill-opacity="0.25" height="15" stroke="#60a5fa" stroke-width="0.35" width="32.48575" x="377.62738" y="118.5"/>
<rect fill="#93c5fd" fill-opacity="0.25" height="15" stroke="#60a5fa" stroke-width="0.35" width="2.4539795" x="362.31934" y="118.5"/>
<rect fill="#93c5fd" fill-opacity="0.25" height="15" stroke="#60a5fa" stroke-width="0.35" width="8.530426" x="340" y="118.5"/>
<rect fill="#2563eb" fill-opacity="0.85" height="15" stroke="#1f2937" stroke-width="0.5" width="9.114624" x="1146.7684" y="118.5"/>
<rect fill="#2563eb" fill-opacity="0.85" height="15" stroke="#1f2937" stroke-width="0.5" width="12.386597" x="1026.9918" y="118.5"/>
<rect fill="#2563eb" fill-opacity="0.85" height="15" stroke="#1f2937" stroke-width="0.5" width="8.5303955" x="688.9297" y="118.5"/>
<rect fill="#2563eb" fill-opacity="0.85" height="15" stroke="#1f2937" stroke-width="0.5" width="15.892334" x="662.1698" y="118.5"/>
<rect fill="#2563eb" fill-opacity="0.85" height="15" stroke="#1f2937" stroke-width="0.5" width="12.737244" x="609.23444" y="118.5"/>
<rect fill="#2563eb" fill-opacity="0.85" height="15" stroke="#1f2937" stroke-width="0.5" width="13.087769" x="529.656" y="118.5"/>
<rect fill="#2563eb" fill-opacity="0.85" height="15" stroke="#1f2937" stroke-width="0.5" width="21.384521" x="498.6894" y="118.5"/>
<rect fill="#2563eb" fill-opacity="0.85" height="15" stroke="#1f2937" stroke-width="0.5" width="32.48575" x="377.62738" y="118.5"/>
<rect fill="#2563eb" fill-opacity="0.85" height="15" stroke="#1f2937" stroke-width="0.5" width="2.4539795" x="362.31934" y="118.5"/>
<rect fill="#2563eb" fill-opacity="0.85" height="15" stroke="#1f2937" stroke-width="0.5" width="8.530426" x="340" y="118.5"/>
<text fill="#374151" font-family="monospace" font-size="9" x="1162" y="129">
TA=full
</text>
<text fill="#111827" font-family="monospace" font-size="10" text-anchor="end" x="328" y="163.5">
TAp53β (ENST00000420246)
</text>
<line stroke="#6b7280" stroke-width="1.2" x1="697.57697" x2="720.2469" y1="160" y2="160"/>
<line stroke="#6b7280" stroke-width="1.2" x1="678.179" x2="688.8128" y1="160" y2="160"/>
<line stroke="#6b7280" stroke-width="1.2" x1="622.0885" x2="662.053" y1="160" y2="160"/>
<line stroke="#6b7280" stroke-width="1.2" x1="542.86066" x2="609.11755" y1="160" y2="160"/>
<line stroke="#6b7280" stroke-width="1.2" x1="520.19073" x2="529.5392" y1="160" y2="160"/>
<line stroke="#6b7280" stroke-width="1.2" x1="410.22998" x2="498.5725" y1="160" y2="160"/>
<line stroke="#6b7280" stroke-width="1.2" x1="364.89017" x2="377.51053" y1="160" y2="160"/>
<line stroke="#6b7280" stroke-width="1.2" x1="348.64728" x2="362.20248" y1="160" y2="160"/>
<rect fill="#93c5fd" fill-opacity="0.25" height="15" stroke="#60a5fa" stroke-width="0.35" width="9.114624" x="1146.7684" y="152.5"/>
<rect fill="#93c5fd" fill-opacity="0.25" height="15" stroke="#60a5fa" stroke-width="0.35" width="12.386597" x="1026.9918" y="152.5"/>
<rect fill="#93c5fd" fill-opacity="0.25" height="15" stroke="#60a5fa" stroke-width="0.35" width="15.424866" x="720.3638" y="152.5"/>
<rect fill="#93c5fd" fill-opacity="0.25" height="15" stroke="#60a5fa" stroke-width="0.35" width="8.5303955" x="688.9297" y="152.5"/>
<rect fill="#93c5fd" fill-opacity="0.25" height="15" stroke="#60a5fa" stroke-width="0.35" width="15.892334" x="662.1698" y="152.5"/>
<rect fill="#93c5fd" fill-opacity="0.25" height="15" stroke="#60a5fa" stroke-width="0.35" width="12.737244" x="609.23444" y="152.5"/>
<rect fill="#93c5fd" fill-opacity="0.25" height="15" stroke="#60a5fa" stroke-width="0.35" width="13.087769" x="529.656" y="152.5"/>
<rect fill="#93c5fd" fill-opacity="0.25" height="15" stroke="#60a5fa" stroke-width="0.35" width="21.384521" x="498.6894" y="152.5"/>
<rect fill="#93c5fd" fill-opacity="0.25" height="15" stroke="#60a5fa" stroke-width="0.35" width="32.48575" x="377.62738" y="152.5"/>
<rect fill="#93c5fd" fill-opacity="0.25" height="15" stroke="#60a5fa" stroke-width="0.35" width="2.4539795" x="362.31934" y="152.5"/>
<rect fill="#93c5fd" fill-opacity="0.25" height="15" stroke="#60a5fa" stroke-width="0.35" width="8.530426" x="340" y="152.5"/>
<rect fill="#2563eb" fill-opacity="0.85" height="15" stroke="#1f2937" stroke-width="0.5" width="3.388794" x="720.3638" y="152.5"/>
<rect fill="#2563eb" fill-opacity="0.85" height="15" stroke="#1f2937" stroke-width="0.5" width="8.5303955" x="688.9297" y="152.5"/>
<rect fill="#2563eb" fill-opacity="0.85" height="15" stroke="#1f2937" stroke-width="0.5" width="15.892334" x="662.1698" y="152.5"/>
<rect fill="#2563eb" fill-opacity="0.85" height="15" stroke="#1f2937" stroke-width="0.5" width="12.737244" x="609.23444" y="152.5"/>
<rect fill="#2563eb" fill-opacity="0.85" height="15" stroke="#1f2937" stroke-width="0.5" width="13.087769" x="529.656" y="152.5"/>
<rect fill="#2563eb" fill-opacity="0.85" height="15" stroke="#1f2937" stroke-width="0.5" width="21.384521" x="498.6894" y="152.5"/>
<rect fill="#2563eb" fill-opacity="0.85" height="15" stroke="#1f2937" stroke-width="0.5" width="32.48575" x="377.62738" y="152.5"/>
<rect fill="#2563eb" fill-opacity="0.85" height="15" stroke="#1f2937" stroke-width="0.5" width="2.4539795" x="362.31934" y="152.5"/>
<rect fill="#2563eb" fill-opacity="0.85" height="15" stroke="#1f2937" stroke-width="0.5" width="8.530426" x="340" y="152.5"/>
<text fill="#374151" font-family="monospace" font-size="9" x="1162" y="163">
TA=full
</text>
<text fill="#111827" font-family="monospace" font-size="10" text-anchor="end" x="328" y="197.5">
TAp53γ (ENST00000455263)
</text>
<line stroke="#6b7280" stroke-width="1.2" x1="697.57697" x2="728.77734" y1="194" y2="194"/>
<line stroke="#6b7280" stroke-width="1.2" x1="678.179" x2="688.8128" y1="194" y2="194"/>
<line stroke="#6b7280" stroke-width="1.2" x1="622.0885" x2="662.053" y1="194" y2="194"/>
<line stroke="#6b7280" stroke-width="1.2" x1="542.86066" x2="609.11755" y1="194" y2="194"/>
<line stroke="#6b7280" stroke-width="1.2" x1="520.19073" x2="529.5392" y1="194" y2="194"/>
<line stroke="#6b7280" stroke-width="1.2" x1="410.22998" x2="498.5725" y1="194" y2="194"/>
<line stroke="#6b7280" stroke-width="1.2" x1="364.89017" x2="377.51053" y1="194" y2="194"/>
<line stroke="#6b7280" stroke-width="1.2" x1="348.64728" x2="362.20248" y1="194" y2="194"/>
<rect fill="#93c5fd" fill-opacity="0.25" height="15" stroke="#60a5fa" stroke-width="0.35" width="9.114624" x="1146.7684" y="186.5"/>
<rect fill="#93c5fd" fill-opacity="0.25" height="15" stroke="#60a5fa" stroke-width="0.35" width="12.386597" x="1026.9918" y="186.5"/>
<rect fill="#93c5fd" fill-opacity="0.25" height="15" stroke="#60a5fa" stroke-width="0.35" width="6.89447" x="728.89417" y="186.5"/>
<rect fill="#93c5fd" fill-opacity="0.25" height="15" stroke="#60a5fa" stroke-width="0.35" width="8.5303955" x="688.9297" y="186.5"/>
<rect fill="#93c5fd" fill-opacity="0.25" height="15" stroke="#60a5fa" stroke-width="0.35" width="15.892334" x="662.1698" y="186.5"/>
<rect fill="#93c5fd" fill-opacity="0.25" height="15" stroke="#60a5fa" stroke-width="0.35" width="12.737244" x="609.23444" y="186.5"/>
<rect fill="#93c5fd" fill-opacity="0.25" height="15" stroke="#60a5fa" stroke-width="0.35" width="13.087769" x="529.656" y="186.5"/>
<rect fill="#93c5fd" fill-opacity="0.25" height="15" stroke="#60a5fa" stroke-width="0.35" width="21.384521" x="498.6894" y="186.5"/>
<rect fill="#93c5fd" fill-opacity="0.25" height="15" stroke="#60a5fa" stroke-width="0.35" width="32.48575" x="377.62738" y="186.5"/>
<rect fill="#93c5fd" fill-opacity="0.25" height="15" stroke="#60a5fa" stroke-width="0.35" width="2.4539795" x="362.31934" y="186.5"/>
<rect fill="#93c5fd" fill-opacity="0.25" height="15" stroke="#60a5fa" stroke-width="0.35" width="8.530426" x="340" y="186.5"/>
<rect fill="#2563eb" fill-opacity="0.85" height="15" stroke="#1f2937" stroke-width="0.5" width="5.1416016" x="728.89417" y="186.5"/>
<rect fill="#2563eb" fill-opacity="0.85" height="15" stroke="#1f2937" stroke-width="0.5" width="8.5303955" x="688.9297" y="186.5"/>
<rect fill="#2563eb" fill-opacity="0.85" height="15" stroke="#1f2937" stroke-width="0.5" width="15.892334" x="662.1698" y="186.5"/>
<rect fill="#2563eb" fill-opacity="0.85" height="15" stroke="#1f2937" stroke-width="0.5" width="12.737244" x="609.23444" y="186.5"/>
<rect fill="#2563eb" fill-opacity="0.85" height="15" stroke="#1f2937" stroke-width="0.5" width="13.087769" x="529.656" y="186.5"/>
<rect fill="#2563eb" fill-opacity="0.85" height="15" stroke="#1f2937" stroke-width="0.5" width="21.384521" x="498.6894" y="186.5"/>
<rect fill="#2563eb" fill-opacity="0.85" height="15" stroke="#1f2937" stroke-width="0.5" width="32.48575" x="377.62738" y="186.5"/>
<rect fill="#2563eb" fill-opacity="0.85" height="15" stroke="#1f2937" stroke-width="0.5" width="2.4539795" x="362.31934" y="186.5"/>
<rect fill="#2563eb" fill-opacity="0.85" height="15" stroke="#1f2937" stroke-width="0.5" width="8.530426" x="340" y="186.5"/>
<text fill="#374151" font-family="monospace" font-size="9" x="1162" y="197">
TA=full
</text>
<text fill="#111827" font-family="monospace" font-size="10" text-anchor="end" x="328" y="231.5">
Δ40p53α (ENST00000610292)
</text>
<line stroke="#6b7280" stroke-width="1.2" x1="1039.4954" x2="1146.6516" y1="228" y2="228"/>
<line stroke="#6b7280" stroke-width="1.2" x1="697.57697" x2="1026.875" y1="228" y2="228"/>
<line stroke="#6b7280" stroke-width="1.2" x1="678.179" x2="688.8128" y1="228" y2="228"/>
<line stroke="#6b7280" stroke-width="1.2" x1="622.0885" x2="662.053" y1="228" y2="228"/>
<line stroke="#6b7280" stroke-width="1.2" x1="542.86066" x2="609.11755" y1="228" y2="228"/>
<line stroke="#6b7280" stroke-width="1.2" x1="520.19073" x2="529.5392" y1="228" y2="228"/>
<line stroke="#6b7280" stroke-width="1.2" x1="410.22998" x2="498.5725" y1="228" y2="228"/>
<rect fill="#93c5fd" fill-opacity="0.25" height="15" stroke="#60a5fa" stroke-width="0.35" width="9.114624" x="1146.7684" y="220.5"/>
<rect fill="#93c5fd" fill-opacity="0.25" height="15" stroke="#60a5fa" stroke-width="0.35" width="12.386597" x="1026.9918" y="220.5"/>
<rect fill="#93c5fd" fill-opacity="0.25" height="15" stroke="#60a5fa" stroke-width="0.35" width="8.5303955" x="688.9297" y="220.5"/>
<rect fill="#93c5fd" fill-opacity="0.25" height="15" stroke="#60a5fa" stroke-width="0.35" width="15.892334" x="662.1698" y="220.5"/>
<rect fill="#93c5fd" fill-opacity="0.25" height="15" stroke="#60a5fa" stroke-width="0.35" width="12.737244" x="609.23444" y="220.5"/>
<rect fill="#93c5fd" fill-opacity="0.25" height="15" stroke="#60a5fa" stroke-width="0.35" width="13.087769" x="529.656" y="220.5"/>
<rect fill="#93c5fd" fill-opacity="0.25" height="15" stroke="#60a5fa" stroke-width="0.35" width="21.384521" x="498.6894" y="220.5"/>
<rect fill="#93c5fd" fill-opacity="0.25" height="15" stroke="#60a5fa" stroke-width="0.35" width="32.48575" x="377.62738" y="220.5"/>
<rect fill="#93c5fd" fill-opacity="0.25" height="15" stroke="#60a5fa" stroke-width="0.35" width="24.773315" x="340" y="220.5"/>
<rect fill="#2563eb" fill-opacity="0.85" height="15" stroke="#1f2937" stroke-width="0.5" width="9.114624" x="1146.7684" y="220.5"/>
<rect fill="#2563eb" fill-opacity="0.85" height="15" stroke="#1f2937" stroke-width="0.5" width="12.386597" x="1026.9918" y="220.5"/>
<rect fill="#2563eb" fill-opacity="0.85" height="15" stroke="#1f2937" stroke-width="0.5" width="8.5303955" x="688.9297" y="220.5"/>
<rect fill="#2563eb" fill-opacity="0.85" height="15" stroke="#1f2937" stroke-width="0.5" width="15.892334" x="662.1698" y="220.5"/>
<rect fill="#2563eb" fill-opacity="0.85" height="15" stroke="#1f2937" stroke-width="0.5" width="12.737244" x="609.23444" y="220.5"/>
<rect fill="#2563eb" fill-opacity="0.85" height="15" stroke="#1f2937" stroke-width="0.5" width="13.087769" x="529.656" y="220.5"/>
<rect fill="#2563eb" fill-opacity="0.85" height="15" stroke="#1f2937" stroke-width="0.5" width="21.384521" x="498.6894" y="220.5"/>
<rect fill="#2563eb" fill-opacity="0.85" height="15" stroke="#1f2937" stroke-width="0.5" width="30.0318" x="380.08133" y="220.5"/>
<text fill="#374151" font-family="monospace" font-size="9" x="1162" y="231">
TA=partial
</text>
<text fill="#111827" font-family="monospace" font-size="10" text-anchor="end" x="328" y="265.5">
Δ133p53α (ENST00000504937)
</text>
<line stroke="#6b7280" stroke-width="1.2" x1="1039.4954" x2="1146.6516" y1="262" y2="262"/>
<line stroke="#6b7280" stroke-width="1.2" x1="697.57697" x2="1026.875" y1="262" y2="262"/>
<line stroke="#6b7280" stroke-width="1.2" x1="678.179" x2="688.8128" y1="262" y2="262"/>
<line stroke="#6b7280" stroke-width="1.2" x1="622.0885" x2="662.053" y1="262" y2="262"/>
<line stroke="#6b7280" stroke-width="1.2" x1="542.86066" x2="609.11755" y1="262" y2="262"/>
<line stroke="#6b7280" stroke-width="1.2" x1="520.19073" x2="529.5392" y1="262" y2="262"/>
<rect fill="#93c5fd" fill-opacity="0.25" height="15" stroke="#60a5fa" stroke-width="0.35" width="9.114624" x="1146.7684" y="254.5"/>
<rect fill="#93c5fd" fill-opacity="0.25" height="15" stroke="#60a5fa" stroke-width="0.35" width="12.386597" x="1026.9918" y="254.5"/>
<rect fill="#93c5fd" fill-opacity="0.25" height="15" stroke="#60a5fa" stroke-width="0.35" width="8.5303955" x="688.9297" y="254.5"/>
<rect fill="#93c5fd" fill-opacity="0.25" height="15" stroke="#60a5fa" stroke-width="0.35" width="15.892334" x="662.1698" y="254.5"/>
<rect fill="#93c5fd" fill-opacity="0.25" height="15" stroke="#60a5fa" stroke-width="0.35" width="12.737244" x="609.23444" y="254.5"/>
<rect fill="#93c5fd" fill-opacity="0.25" height="15" stroke="#60a5fa" stroke-width="0.35" width="13.087769" x="529.656" y="254.5"/>
<rect fill="#93c5fd" fill-opacity="0.25" height="15" stroke="#60a5fa" stroke-width="0.35" width="51.41632" x="468.6576" y="254.5"/>
<rect fill="#2563eb" fill-opacity="0.85" height="15" stroke="#1f2937" stroke-width="0.5" width="9.114624" x="1146.7684" y="254.5"/>
<rect fill="#2563eb" fill-opacity="0.85" height="15" stroke="#1f2937" stroke-width="0.5" width="12.386597" x="1026.9918" y="254.5"/>
<rect fill="#2563eb" fill-opacity="0.85" height="15" stroke="#1f2937" stroke-width="0.5" width="8.5303955" x="688.9297" y="254.5"/>
<rect fill="#2563eb" fill-opacity="0.85" height="15" stroke="#1f2937" stroke-width="0.5" width="15.892334" x="662.1698" y="254.5"/>
<rect fill="#2563eb" fill-opacity="0.85" height="15" stroke="#1f2937" stroke-width="0.5" width="12.737244" x="609.23444" y="254.5"/>
<rect fill="#2563eb" fill-opacity="0.85" height="15" stroke="#1f2937" stroke-width="0.5" width="13.087769" x="529.656" y="254.5"/>
<rect fill="#2563eb" fill-opacity="0.85" height="15" stroke="#1f2937" stroke-width="0.5" width="18.930573" x="501.14334" y="254.5"/>
<text fill="#374151" font-family="monospace" font-size="9" x="1162" y="265">
TA=none
</text>
<text fill="#111827" font-family="monospace" font-size="10" text-anchor="end" x="328" y="299.5">
Δ133p53β (ENST00000510385)
</text>
<line stroke="#6b7280" stroke-width="1.2" x1="697.57697" x2="720.2469" y1="296" y2="296"/>
<line stroke="#6b7280" stroke-width="1.2" x1="678.179" x2="688.8128" y1="296" y2="296"/>
<line stroke="#6b7280" stroke-width="1.2" x1="622.0885" x2="662.053" y1="296" y2="296"/>
<line stroke="#6b7280" stroke-width="1.2" x1="542.86066" x2="609.11755" y1="296" y2="296"/>
<line stroke="#6b7280" stroke-width="1.2" x1="520.19073" x2="529.5392" y1="296" y2="296"/>
<rect fill="#93c5fd" fill-opacity="0.25" height="15" stroke="#60a5fa" stroke-width="0.35" width="9.114624" x="1146.7684" y="288.5"/>
<rect fill="#93c5fd" fill-opacity="0.25" height="15" stroke="#60a5fa" stroke-width="0.35" width="12.386597" x="1026.9918" y="288.5"/>
<rect fill="#93c5fd" fill-opacity="0.25" height="15" stroke="#60a5fa" stroke-width="0.35" width="15.424866" x="720.3638" y="288.5"/>
<rect fill="#93c5fd" fill-opacity="0.25" height="15" stroke="#60a5fa" stroke-width="0.35" width="8.5303955" x="688.9297" y="288.5"/>
<rect fill="#93c5fd" fill-opacity="0.25" height="15" stroke="#60a5fa" stroke-width="0.35" width="15.892334" x="662.1698" y="288.5"/>
<rect fill="#93c5fd" fill-opacity="0.25" height="15" stroke="#60a5fa" stroke-width="0.35" width="12.737244" x="609.23444" y="288.5"/>
<rect fill="#93c5fd" fill-opacity="0.25" height="15" stroke="#60a5fa" stroke-width="0.35" width="13.087769" x="529.656" y="288.5"/>
<rect fill="#93c5fd" fill-opacity="0.25" height="15" stroke="#60a5fa" stroke-width="0.35" width="51.41632" x="468.6576" y="288.5"/>
<rect fill="#2563eb" fill-opacity="0.85" height="15" stroke="#1f2937" stroke-width="0.5" width="3.388794" x="720.3638" y="288.5"/>
<rect fill="#2563eb" fill-opacity="0.85" height="15" stroke="#1f2937" stroke-width="0.5" width="8.5303955" x="688.9297" y="288.5"/>
<rect fill="#2563eb" fill-opacity="0.85" height="15" stroke="#1f2937" stroke-width="0.5" width="15.892334" x="662.1698" y="288.5"/>
<rect fill="#2563eb" fill-opacity="0.85" height="15" stroke="#1f2937" stroke-width="0.5" width="12.737244" x="609.23444" y="288.5"/>
<rect fill="#2563eb" fill-opacity="0.85" height="15" stroke="#1f2937" stroke-width="0.5" width="13.087769" x="529.656" y="288.5"/>
<rect fill="#2563eb" fill-opacity="0.85" height="15" stroke="#1f2937" stroke-width="0.5" width="18.930573" x="501.14334" y="288.5"/>
<text fill="#374151" font-family="monospace" font-size="9" x="1162" y="299">
TA=none
</text>
<text fill="#111827" font-family="monospace" font-size="10" text-anchor="end" x="328" y="333.5">
Δ160p53α (ENST00000619186)
</text>
<line stroke="#6b7280" stroke-width="1.2" x1="1039.4954" x2="1146.6516" y1="330" y2="330"/>
<line stroke="#6b7280" stroke-width="1.2" x1="697.57697" x2="1026.875" y1="330" y2="330"/>
<line stroke="#6b7280" stroke-width="1.2" x1="678.179" x2="688.8128" y1="330" y2="330"/>
<line stroke="#6b7280" stroke-width="1.2" x1="622.0885" x2="662.053" y1="330" y2="330"/>
<line stroke="#6b7280" stroke-width="1.2" x1="542.86066" x2="609.11755" y1="330" y2="330"/>
<line stroke="#6b7280" stroke-width="1.2" x1="520.19073" x2="529.5392" y1="330" y2="330"/>
<rect fill="#93c5fd" fill-opacity="0.25" height="15" stroke="#60a5fa" stroke-width="0.35" width="9.114624" x="1146.7684" y="322.5"/>
<rect fill="#93c5fd" fill-opacity="0.25" height="15" stroke="#60a5fa" stroke-width="0.35" width="12.386597" x="1026.9918" y="322.5"/>
<rect fill="#93c5fd" fill-opacity="0.25" height="15" stroke="#60a5fa" stroke-width="0.35" width="8.5303955" x="688.9297" y="322.5"/>
<rect fill="#93c5fd" fill-opacity="0.25" height="15" stroke="#60a5fa" stroke-width="0.35" width="15.892334" x="662.1698" y="322.5"/>
<rect fill="#93c5fd" fill-opacity="0.25" height="15" stroke="#60a5fa" stroke-width="0.35" width="12.737244" x="609.23444" y="322.5"/>
<rect fill="#93c5fd" fill-opacity="0.25" height="15" stroke="#60a5fa" stroke-width="0.35" width="13.087769" x="529.656" y="322.5"/>
<rect fill="#93c5fd" fill-opacity="0.25" height="15" stroke="#60a5fa" stroke-width="0.35" width="51.41632" x="468.6576" y="322.5"/>
<rect fill="#2563eb" fill-opacity="0.85" height="15" stroke="#1f2937" stroke-width="0.5" width="9.114624" x="1146.7684" y="322.5"/>
<rect fill="#2563eb" fill-opacity="0.85" height="15" stroke="#1f2937" stroke-width="0.5" width="12.386597" x="1026.9918" y="322.5"/>
<rect fill="#2563eb" fill-opacity="0.85" height="15" stroke="#1f2937" stroke-width="0.5" width="8.5303955" x="688.9297" y="322.5"/>
<rect fill="#2563eb" fill-opacity="0.85" height="15" stroke="#1f2937" stroke-width="0.5" width="15.892334" x="662.1698" y="322.5"/>
<rect fill="#2563eb" fill-opacity="0.85" height="15" stroke="#1f2937" stroke-width="0.5" width="12.737244" x="609.23444" y="322.5"/>
<rect fill="#2563eb" fill-opacity="0.85" height="15" stroke="#1f2937" stroke-width="0.5" width="13.087769" x="529.656" y="322.5"/>
<rect fill="#2563eb" fill-opacity="0.85" height="15" stroke="#1f2937" stroke-width="0.5" width="9.465271" x="510.60864" y="322.5"/>
<text fill="#374151" font-family="monospace" font-size="9" x="1162" y="333">
TA=none
</text>
<text fill="#4b5563" font-family="monospace" font-size="10" x="44" y="370">
genome boundary rail
</text>
<line stroke="#6b7280" stroke-width="1" x1="340" x2="1155.883" y1="366" y2="366"/>
<line stroke="#6b7280" stroke-opacity="0.8" stroke-width="0.8" x1="1155.883" x2="1155.883" y1="363" y2="369"/>
<line stroke="#6b7280" stroke-opacity="0.8" stroke-width="0.8" x1="1155.883" x2="1155.883" y1="363" y2="369"/>
<line stroke="#6b7280" stroke-opacity="0.8" stroke-width="0.8" x1="1155.883" x2="1155.883" y1="363" y2="369"/>
<line stroke="#6b7280" stroke-opacity="0.8" stroke-width="0.8" x1="1146.7684" x2="1146.7684" y1="363" y2="369"/>
<line stroke="#6b7280" stroke-opacity="0.8" stroke-width="0.8" x1="1039.3784" x2="1039.3784" y1="363" y2="369"/>
<line stroke="#6b7280" stroke-opacity="0.8" stroke-width="0.8" x1="1026.9918" x2="1026.9918" y1="363" y2="369"/>
<line stroke="#6b7280" stroke-opacity="0.8" stroke-width="0.8" x1="735.78864" x2="735.78864" y1="363" y2="369"/>
<line stroke="#6b7280" stroke-opacity="0.8" stroke-width="0.8" x1="728.89417" x2="728.89417" y1="363" y2="369"/>
<line stroke="#6b7280" stroke-opacity="0.8" stroke-width="0.8" x1="720.3638" x2="720.3638" y1="363" y2="369"/>
<line stroke="#6b7280" stroke-opacity="0.8" stroke-width="0.8" x1="697.4601" x2="697.4601" y1="363" y2="369"/>
<line stroke="#6b7280" stroke-opacity="0.8" stroke-width="0.8" x1="688.9297" x2="688.9297" y1="363" y2="369"/>
<line stroke="#6b7280" stroke-opacity="0.8" stroke-width="0.8" x1="678.06213" x2="678.06213" y1="363" y2="369"/>
<line stroke="#6b7280" stroke-opacity="0.8" stroke-width="0.8" x1="662.1698" x2="662.1698" y1="363" y2="369"/>
<line stroke="#6b7280" stroke-opacity="0.8" stroke-width="0.8" x1="621.9717" x2="621.9717" y1="363" y2="369"/>
<line stroke="#6b7280" stroke-opacity="0.8" stroke-width="0.8" x1="609.23444" x2="609.23444" y1="363" y2="369"/>
<line stroke="#6b7280" stroke-opacity="0.8" stroke-width="0.8" x1="542.7438" x2="542.7438" y1="363" y2="369"/>
<line stroke="#6b7280" stroke-opacity="0.8" stroke-width="0.8" x1="529.656" x2="529.656" y1="363" y2="369"/>
<line stroke="#6b7280" stroke-opacity="0.8" stroke-width="0.8" x1="520.0739" x2="520.0739" y1="363" y2="369"/>
<line stroke="#6b7280" stroke-opacity="0.8" stroke-width="0.8" x1="498.6894" x2="498.6894" y1="363" y2="369"/>
<line stroke="#6b7280" stroke-opacity="0.8" stroke-width="0.8" x1="468.6576" x2="468.6576" y1="363" y2="369"/>
<line stroke="#6b7280" stroke-opacity="0.8" stroke-width="0.8" x1="410.11313" x2="410.11313" y1="363" y2="369"/>
<line stroke="#6b7280" stroke-opacity="0.8" stroke-width="0.8" x1="377.62738" x2="377.62738" y1="363" y2="369"/>
<line stroke="#6b7280" stroke-opacity="0.8" stroke-width="0.8" x1="364.77332" x2="364.77332" y1="363" y2="369"/>
<line stroke="#6b7280" stroke-opacity="0.8" stroke-width="0.8" x1="362.31934" x2="362.31934" y1="363" y2="369"/>
<line stroke="#6b7280" stroke-opacity="0.8" stroke-width="0.8" x1="348.53043" x2="348.53043" y1="363" y2="369"/>
<line stroke="#6b7280" stroke-opacity="0.8" stroke-width="0.8" x1="340" x2="340" y1="363" y2="369"/>
<line stroke="#6b7280" stroke-opacity="0.8" stroke-width="0.8" x1="340" x2="340" y1="363" y2="369"/>
<line stroke="#6b7280" stroke-opacity="0.8" stroke-width="0.8" x1="340" x2="340" y1="363" y2="369"/>
<line stroke="#6b7280" stroke-opacity="0.8" stroke-width="0.8" x1="340" x2="340" y1="363" y2="369"/>
<line stroke="#6b7280" stroke-opacity="0.8" stroke-width="0.8" x1="340" x2="340" y1="363" y2="369"/>
<path d="M340,366.5 L348.53043,366.5 L389.83206,420.5 L340,420.5 z" fill="#64748b" fill-opacity="0.22" stroke="#475569" stroke-opacity="0.18" stroke-width="0.3"/>
<path d="M362.31934,366.5 L364.77332,366.5 L405.6877,420.5 L389.83206,420.5 z" fill="#64748b" fill-opacity="0.22" stroke="#475569" stroke-opacity="0.18" stroke-width="0.3"/>
<path d="M377.62738,366.5 L410.11313,366.5 L598.84985,420.5 L406.44275,420.5 z" fill="#64748b" fill-opacity="0.22" stroke="#475569" stroke-opacity="0.18" stroke-width="0.3"/>
<path d="M379.96448,366.5 L410.11313,366.5 L599.542,420.5 L420.9771,420.5 z" fill="#64748b" fill-opacity="0.14"/>
<path d="M498.6894,366.5 L520.0739,366.5 L725.51013,420.5 L599.542,420.5 z" fill="#64748b" fill-opacity="0.26" stroke="#475569" stroke-opacity="0.18" stroke-width="0.3"/>
<path d="M501.0265,366.5 L520.0739,366.5 L726.1985,420.5 L614.0763,420.5 z" fill="#64748b" fill-opacity="0.18" stroke="#475569" stroke-opacity="0.18" stroke-width="0.3"/>
<path d="M510.49176,366.5 L520.0739,366.5 L726.1985,420.5 L670.1374,420.5 z" fill="#64748b" fill-opacity="0.14"/>
<path d="M529.656,366.5 L542.7438,366.5 L804.401,420.5 L726.1985,420.5 z" fill="#64748b" fill-opacity="0.38" stroke="#475569" stroke-opacity="0.18" stroke-width="0.3"/>
<path d="M609.23444,366.5 L621.9717,366.5 L879.1678,420.5 L805.09924,420.5 z" fill="#64748b" fill-opacity="0.38" stroke="#475569" stroke-opacity="0.18" stroke-width="0.3"/>
<path d="M662.1698,366.5 L678.06213,366.5 L974.6616,420.5 L879.8473,420.5 z" fill="#64748b" fill-opacity="0.38" stroke="#475569" stroke-opacity="0.18" stroke-width="0.3"/>
<path d="M688.9297,366.5 L697.4601,366.5 L1026.5657,420.5 L975.35876,420.5 z" fill="#64748b" fill-opacity="0.38" stroke="#475569" stroke-opacity="0.18" stroke-width="0.3"/>
<path d="M720.3638,366.5 L723.75256,366.5 L1047.3384,420.5 L1027.2672,420.5 z" fill="#64748b" fill-opacity="0.18" stroke="#475569" stroke-opacity="0.18" stroke-width="0.3"/>
<path d="M728.89417,366.5 L734.03577,366.5 L1057.7201,420.5 L1027.2672,420.5 z" fill="#64748b" fill-opacity="0.14"/>
<path d="M1026.9918,366.5 L1039.3784,366.5 L1099.2598,420.5 L1027.2672,420.5 z" fill="#64748b" fill-opacity="0.26" stroke="#475569" stroke-opacity="0.18" stroke-width="0.3"/>
<path d="M1146.7684,366.5 L1155.883,366.5 L1153.9236,420.5 L1099.939,420.5 z" fill="#64748b" fill-opacity="0.26" stroke="#475569" stroke-opacity="0.18" stroke-width="0.3"/>
<text fill="#111827" font-family="monospace" font-size="13" x="44" y="402">
B) protein domain architecture
</text>
<line stroke="#6b7280" stroke-width="1" x1="340" x2="1156" y1="420" y2="420"/>
<text fill="#4b5563" font-family="monospace" font-size="10" text-anchor="start" x="340" y="416">
1 aa
</text>
<text fill="#4b5563" font-family="monospace" font-size="10" text-anchor="end" x="1156" y="416">
393 aa
</text>
<text fill="#111827" font-family="monospace" font-size="10" text-anchor="end" x="328" y="449.5">
TAp53α
</text>
<line stroke="#94a3b8" stroke-width="2" x1="340" x2="1153.9236" y1="446" y2="446"/>
<rect fill="#ef4444" fill-opacity="0.82" height="14" stroke="#1f2937" stroke-width="0.5" width="80.97711" x="340" y="439"/>
<text fill="#334155" font-family="monospace" font-size="8" x="342" y="437">
TAD1
</text>
<rect fill="#f97316" fill-opacity="0.82" height="14" stroke="#1f2937" stroke-width="0.5" width="41.526703" x="423.05344" y="439"/>
<text fill="#334155" font-family="monospace" font-size="8" x="425.05344" y="437">
TAD2
</text>
<rect fill="#f59e0b" fill-opacity="0.82" height="14" stroke="#1f2937" stroke-width="0.5" width="70.59543" x="468.73282" y="439"/>
<text fill="#334155" font-family="monospace" font-size="8" x="470.73282" y="437">
PRR
</text>
<rect fill="#2563eb" fill-opacity="0.82" height="14" stroke="#1f2937" stroke-width="0.5" width="394.50378" x="549.70996" y="439"/>
<text fill="#334155" font-family="monospace" font-size="8" x="551.70996" y="437">
DBD
</text>
<rect fill="#16a34a" fill-opacity="0.82" height="14" stroke="#1f2937" stroke-width="0.5" width="18.687012" x="994.04584" y="439"/>
<text fill="#334155" font-family="monospace" font-size="8" x="996.04584" y="437">
NLS
</text>
<rect fill="#0f766e" fill-opacity="0.82" height="14" stroke="#1f2937" stroke-width="0.5" width="64.366455" x="1010.6565" y="439"/>
<text fill="#334155" font-family="monospace" font-size="8" x="1012.6565" y="437">
OD
</text>
<rect fill="#6b7280" fill-opacity="0.82" height="14" stroke="#1f2937" stroke-width="0.5" width="76.82434" x="1077.0992" y="439"/>
<text fill="#334155" font-family="monospace" font-size="8" x="1079.0992" y="437">
CTD
</text>
<text fill="#374151" font-family="monospace" font-size="9" x="1162" y="449">
TA=full
</text>
<text fill="#111827" font-family="monospace" font-size="10" text-anchor="end" x="328" y="483.5">
TAp53β
</text>
<line stroke="#94a3b8" stroke-width="2" x1="340" x2="1045.9542" y1="480" y2="480"/>
<rect fill="#ef4444" fill-opacity="0.82" height="14" stroke="#1f2937" stroke-width="0.5" width="80.97711" x="340" y="473"/>
<text fill="#334155" font-family="monospace" font-size="8" x="342" y="471">
TAD1
</text>
<rect fill="#f97316" fill-opacity="0.82" height="14" stroke="#1f2937" stroke-width="0.5" width="41.526703" x="423.05344" y="473"/>
<text fill="#334155" font-family="monospace" font-size="8" x="425.05344" y="471">
TAD2
</text>
<rect fill="#f59e0b" fill-opacity="0.82" height="14" stroke="#1f2937" stroke-width="0.5" width="70.59543" x="468.73282" y="473"/>
<text fill="#334155" font-family="monospace" font-size="8" x="470.73282" y="471">
PRR
</text>
<rect fill="#2563eb" fill-opacity="0.82" height="14" stroke="#1f2937" stroke-width="0.5" width="394.50378" x="549.70996" y="473"/>
<text fill="#334155" font-family="monospace" font-size="8" x="551.70996" y="471">
DBD
</text>
<rect fill="#6b7280" fill-opacity="0.82" height="14" stroke="#1f2937" stroke-width="0.5" width="99.664185" x="946.29004" y="473"/>
<text fill="#334155" font-family="monospace" font-size="8" x="948.29004" y="471">
β-tail
</text>
<text fill="#374151" font-family="monospace" font-size="9" x="1162" y="483">
TA=full
</text>
<text fill="#111827" font-family="monospace" font-size="10" text-anchor="end" x="328" y="517.5">
TAp53γ
</text>
<line stroke="#94a3b8" stroke-width="2" x1="340" x2="1056.3359" y1="514" y2="514"/>
<rect fill="#ef4444" fill-opacity="0.82" height="14" stroke="#1f2937" stroke-width="0.5" width="80.97711" x="340" y="507"/>
<text fill="#334155" font-family="monospace" font-size="8" x="342" y="505">
TAD1
</text>
<rect fill="#f97316" fill-opacity="0.82" height="14" stroke="#1f2937" stroke-width="0.5" width="41.526703" x="423.05344" y="507"/>
<text fill="#334155" font-family="monospace" font-size="8" x="425.05344" y="505">
TAD2
</text>
<rect fill="#f59e0b" fill-opacity="0.82" height="14" stroke="#1f2937" stroke-width="0.5" width="70.59543" x="468.73282" y="507"/>
<text fill="#334155" font-family="monospace" font-size="8" x="470.73282" y="505">
PRR
</text>
<rect fill="#2563eb" fill-opacity="0.82" height="14" stroke="#1f2937" stroke-width="0.5" width="394.50378" x="549.70996" y="507"/>
<text fill="#334155" font-family="monospace" font-size="8" x="551.70996" y="505">
DBD
</text>
<rect fill="#6b7280" fill-opacity="0.82" height="14" stroke="#1f2937" stroke-width="0.5" width="110.0459" x="946.29004" y="507"/>
<text fill="#334155" font-family="monospace" font-size="8" x="948.29004" y="505">
γ-tail
</text>
<text fill="#374151" font-family="monospace" font-size="9" x="1162" y="517">
TA=full
</text>
<text fill="#111827" font-family="monospace" font-size="10" text-anchor="end" x="328" y="551.5">
Δ40p53α
</text>
<line stroke="#94a3b8" stroke-width="2" x1="420.9771" x2="1153.9236" y1="548" y2="548"/>
<rect fill="#f97316" fill-opacity="0.82" height="14" stroke="#1f2937" stroke-width="0.5" width="41.526703" x="423.05344" y="541"/>
<text fill="#334155" font-family="monospace" font-size="8" x="425.05344" y="539">
TAD2
</text>
<rect fill="#f59e0b" fill-opacity="0.82" height="14" stroke="#1f2937" stroke-width="0.5" width="70.59543" x="468.73282" y="541"/>
<text fill="#334155" font-family="monospace" font-size="8" x="470.73282" y="539">
PRR
</text>
<rect fill="#2563eb" fill-opacity="0.82" height="14" stroke="#1f2937" stroke-width="0.5" width="394.50378" x="549.70996" y="541"/>
<text fill="#334155" font-family="monospace" font-size="8" x="551.70996" y="539">
DBD
</text>
<rect fill="#16a34a" fill-opacity="0.82" height="14" stroke="#1f2937" stroke-width="0.5" width="18.687012" x="994.04584" y="541"/>
<text fill="#334155" font-family="monospace" font-size="8" x="996.04584" y="539">
NLS
</text>
<rect fill="#0f766e" fill-opacity="0.82" height="14" stroke="#1f2937" stroke-width="0.5" width="64.366455" x="1010.6565" y="541"/>
<text fill="#334155" font-family="monospace" font-size="8" x="1012.6565" y="539">
OD
</text>
<rect fill="#6b7280" fill-opacity="0.82" height="14" stroke="#1f2937" stroke-width="0.5" width="76.82434" x="1077.0992" y="541"/>
<text fill="#334155" font-family="monospace" font-size="8" x="1079.0992" y="539">
CTD
</text>
<text fill="#374151" font-family="monospace" font-size="9" x="1162" y="551">
TA=partial
</text>
<text fill="#111827" font-family="monospace" font-size="10" text-anchor="end" x="328" y="585.5">
Δ133p53α
</text>
<line stroke="#94a3b8" stroke-width="2" x1="614.0763" x2="1153.9236" y1="582" y2="582"/>
<rect fill="#2563eb" fill-opacity="0.82" height="14" stroke="#1f2937" stroke-width="0.5" width="330.13745" x="614.0763" y="575"/>
<text fill="#334155" font-family="monospace" font-size="8" x="616.0763" y="573">
DBD
</text>
<rect fill="#16a34a" fill-opacity="0.82" height="14" stroke="#1f2937" stroke-width="0.5" width="18.687012" x="994.04584" y="575"/>
<text fill="#334155" font-family="monospace" font-size="8" x="996.04584" y="573">
NLS
</text>
<rect fill="#0f766e" fill-opacity="0.82" height="14" stroke="#1f2937" stroke-width="0.5" width="64.366455" x="1010.6565" y="575"/>
<text fill="#334155" font-family="monospace" font-size="8" x="1012.6565" y="573">
OD
</text>
<rect fill="#6b7280" fill-opacity="0.82" height="14" stroke="#1f2937" stroke-width="0.5" width="76.82434" x="1077.0992" y="575"/>
<text fill="#334155" font-family="monospace" font-size="8" x="1079.0992" y="573">
CTD
</text>
<text fill="#374151" font-family="monospace" font-size="9" x="1162" y="585">
TA=none
</text>
<text fill="#111827" font-family="monospace" font-size="10" text-anchor="end" x="328" y="619.5">
Δ133p53β
</text>
<line stroke="#94a3b8" stroke-width="2" x1="614.0763" x2="1045.9542" y1="616" y2="616"/>
<rect fill="#2563eb" fill-opacity="0.82" height="14" stroke="#1f2937" stroke-width="0.5" width="330.13745" x="614.0763" y="609"/>
<text fill="#334155" font-family="monospace" font-size="8" x="616.0763" y="607">
DBD
</text>
<rect fill="#6b7280" fill-opacity="0.82" height="14" stroke="#1f2937" stroke-width="0.5" width="99.664185" x="946.29004" y="609"/>
<text fill="#334155" font-family="monospace" font-size="8" x="948.29004" y="607">
β-tail
</text>
<text fill="#374151" font-family="monospace" font-size="9" x="1162" y="619">
TA=none
</text>
<text fill="#111827" font-family="monospace" font-size="10" text-anchor="end" x="328" y="653.5">
Δ160p53α
</text>
<line stroke="#94a3b8" stroke-width="2" x1="670.1374" x2="1153.9236" y1="650" y2="650"/>
<rect fill="#2563eb" fill-opacity="0.82" height="14" stroke="#1f2937" stroke-width="0.5" width="274.07635" x="670.1374" y="643"/>
<text fill="#334155" font-family="monospace" font-size="8" x="672.1374" y="641">
DBD
</text>
<rect fill="#16a34a" fill-opacity="0.82" height="14" stroke="#1f2937" stroke-width="0.5" width="18.687012" x="994.04584" y="643"/>
<text fill="#334155" font-family="monospace" font-size="8" x="996.04584" y="641">
NLS
</text>
<rect fill="#0f766e" fill-opacity="0.82" height="14" stroke="#1f2937" stroke-width="0.5" width="64.366455" x="1010.6565" y="643"/>
<text fill="#334155" font-family="monospace" font-size="8" x="1012.6565" y="641">
OD
</text>
<rect fill="#6b7280" fill-opacity="0.82" height="14" stroke="#1f2937" stroke-width="0.5" width="76.82434" x="1077.0992" y="643"/>
<text fill="#334155" font-family="monospace" font-size="8" x="1079.0992" y="641">
CTD
</text>
<text fill="#374151" font-family="monospace" font-size="9" x="1162" y="653">
TA=none
</text>
<text fill="#334155" font-family="monospace" font-size="10" x="44" y="726">
panel source: Curated TP53 isoform panel inspired by DCD Figure-1 style transcript/protein architecture
</text>
<text fill="#374151" font-family="monospace" font-size="11" x="44" y="782">
Isoform architecture view: top panel shows transcript/exon or transcript/CDS structure on genomic coordinates with 5'-&gt;3' orientation
</text>
<text fill="#374151" font-family="monospace" font-size="11" x="44" y="796">
left-to-right (strand-aware axis), bottom panel shows per-isoform protein-domain architecture on amino-acid coordinates. Row order is shared
</text>
<text fill="#374151" font-family="monospace" font-size="11" x="44" y="810">
across both panels; CDS-to-protein guide lines indicate which coding segments contribute to which amino-acid spans.
</text>
</svg>