<svg xmlns="http://www.w3.org/2000/svg" width="1708" height="486" viewBox="0 0 1708 486" role="img" aria-labelledby="title desc" data-protocol-id="gibson.multi_insert_dynamic"><title id="title">GENtle Protocol Cartoon: Gibson Multi-Insert Assembly</title><desc id="desc">Five-step Gibson mechanism with 2 inserts and 3 junctions.</desc><defs><linearGradient id="pc_bg" x1="0" y1="0" x2="1" y2="1"><stop offset="0%" stop-color="#f5fbff"/><stop offset="100%" stop-color="#edf8f5"/></linearGradient><linearGradient id="pc_panel" x1="0" y1="0" x2="0" y2="1"><stop offset="0%" stop-color="#ffffff"/><stop offset="100%" stop-color="#f6fafb"/></linearGradient><marker id="pc_arrow" markerWidth="12" markerHeight="12" refX="9" refY="6" orient="auto"><path d="M1,1 L11,6 L1,11 Z" fill="#4e6d78"/></marker><style>.pc_title { font: 700 36px 'Avenir Next', 'Trebuchet MS', 'Segoe UI', sans-serif; fill: #0f2a36; }.pc_sub { font: 500 18px 'Avenir Next', 'Trebuchet MS', 'Segoe UI', sans-serif; fill: #36535d; }.pc_panel_title { font: 700 21px 'Avenir Next', 'Trebuchet MS', 'Segoe UI', sans-serif; fill: #123746; }.pc_panel_sub { font: 600 13px 'Avenir Next', 'Trebuchet MS', 'Segoe UI', sans-serif; fill: #3f5f68; }.pc_caption { font: 500 13px 'Avenir Next', 'Trebuchet MS', 'Segoe UI', sans-serif; fill: #466570; }.pc_mol_label { font: 600 13px 'Avenir Next', 'Trebuchet MS', 'Segoe UI', sans-serif; fill: #2d4f5b; }.pc_end_label { font: 600 11px 'Avenir Next', 'Trebuchet MS', 'Segoe UI', sans-serif; fill: #375965; }.pc_feature_marker_text { font: 700 10px 'Avenir Next', 'Trebuchet MS', 'Segoe UI', sans-serif; fill: #ffffff; }.pc_step_num { font: 700 13px 'Avenir Next', 'Trebuchet MS', 'Segoe UI', sans-serif; fill: #ffffff; }.pc_box { fill: url(#pc_panel); stroke: #c8dde3; stroke-width: 2; }.pc_link { stroke: #4e6d78; stroke-width: 3.2; marker-end: url(#pc_arrow); fill: none; }</style></defs><rect x="0" y="0" width="1708" height="486" fill="url(#pc_bg)"/><rect x="14" y="14" width="1680" height="458" rx="22" fill="none" stroke="#d4e4e8" stroke-width="2"/><text x="36.0" y="66.0" class="pc_title">GENtle Protocol Cartoon: Gibson Multi-Insert Assembly</text><text x="36.0" y="94.0" class="pc_sub">Five-step Gibson mechanism with 2 inserts and 3 junctions.</text><rect class="pc_box" x="36.0" y="114.0" width="308.0" height="324.0" rx="18" data-event-id="context" data-action="Context"/><circle cx="60.0" cy="138.0" r="12" fill="#2b8ea8"/><text x="60.0" y="138.5" class="pc_step_num" text-anchor="middle" dominant-baseline="middle">1</text><text x="82.0" y="144.0" class="pc_panel_title">Context</text><text x="54.0" y="166.0" class="pc_panel_sub">Context</text><text x="54.0" y="186.0" class="pc_caption">The opened destination and 2 insert</text><text x="54.0" y="202.0" class="pc_caption">fragment(s) are configured with one ordered</text><text x="54.0" y="218.0" class="pc_caption">chain of 3 Gibson junctions.</text><g data-molecule-id="destination_left_context" data-topology="linear"><text x="52.0" y="240.0" class="pc_mol_label">gibson_...ion_pgex left arm</text><text x="326.0" y="288.0" class="pc_end_label" text-anchor="end">blunt</text><rect x="104.4" y="254.0" width="136.9" height="8" fill="#f2c84b"/><rect x="241.3" y="254.0" width="34.2" height="8" fill="#58b05c"/><rect x="104.4" y="265.0" width="136.9" height="8" fill="#f2c84b"/><rect x="241.3" y="265.0" width="34.2" height="8" fill="#58b05c"/><path d="M 104.8 253.2 L 97.4 255.4 L 104.8 257.8 L 97.4 260.2 L 104.8 262.8 Z" fill="url(#pc_bg)"/><path d="M 104.8 264.2 L 97.4 266.4 L 104.8 268.8 L 97.4 271.2 L 104.8 273.8 Z" fill="url(#pc_bg)"/><circle cx="84.4" cy="260.0" r="1.5" fill="#88a3ad"/><circle cx="90.4" cy="262.6" r="1.5" fill="#88a3ad"/><circle cx="96.4" cy="265.2" r="1.5" fill="#88a3ad"/></g><g data-molecule-id="insert_1_context" data-topology="linear"><text x="52.0" y="292.7" class="pc_mol_label">gibson_insert_demo</text><text x="52.0" y="340.7" class="pc_end_label" text-anchor="start">blunt</text><text x="326.0" y="340.7" class="pc_end_label" text-anchor="end">blunt</text><rect x="104.4" y="306.7" width="23.8" height="8" fill="#58b05c"/><rect x="128.3" y="306.7" width="99.6" height="8" fill="#4e8bd8"/><rect x="227.9" y="306.7" width="47.7" height="8" fill="#f29d38"/><rect x="104.4" y="317.7" width="23.8" height="8" fill="#58b05c"/><rect x="128.3" y="317.7" width="99.6" height="8" fill="#4e8bd8"/><rect x="227.9" y="317.7" width="47.7" height="8" fill="#f29d38"/></g><g data-molecule-id="insert_2_context" data-topology="linear"><text x="52.0" y="345.3" class="pc_mol_label">gibson_...t_insert</text><text x="52.0" y="393.3" class="pc_end_label" text-anchor="start">blunt</text><text x="326.0" y="393.3" class="pc_end_label" text-anchor="end">blunt</text><rect x="104.4" y="359.3" width="46.5" height="8" fill="#f29d38"/><rect x="150.9" y="359.3" width="97.2" height="8" fill="#f08a39"/><rect x="248.1" y="359.3" width="27.5" height="8" fill="#4ba3a1"/><rect x="104.4" y="370.3" width="46.5" height="8" fill="#f29d38"/><rect x="150.9" y="370.3" width="97.2" height="8" fill="#f08a39"/><rect x="248.1" y="370.3" width="27.5" height="8" fill="#4ba3a1"/></g><g data-molecule-id="destination_right_context" data-topology="linear"><text x="52.0" y="398.0" class="pc_mol_label">gibson_...ion_pgex right arm</text><text x="52.0" y="446.0" class="pc_end_label" text-anchor="start">blunt</text><rect x="104.4" y="412.0" width="39.0" height="8" fill="#4ba3a1"/><rect x="143.5" y="412.0" width="132.1" height="8" fill="#f2c84b"/><rect x="104.4" y="423.0" width="39.0" height="8" fill="#4ba3a1"/><rect x="143.5" y="423.0" width="132.1" height="8" fill="#f2c84b"/><path d="M 275.2 411.2 L 282.6 413.4 L 275.2 415.8 L 282.6 418.2 L 275.2 420.8 Z" fill="url(#pc_bg)"/><path d="M 275.2 422.2 L 282.6 424.4 L 275.2 426.8 L 282.6 429.2 L 275.2 431.8 Z" fill="url(#pc_bg)"/><circle cx="295.6" cy="418.0" r="1.5" fill="#88a3ad"/><circle cx="289.6" cy="420.6" r="1.5" fill="#88a3ad"/><circle cx="283.6" cy="423.2" r="1.5" fill="#88a3ad"/></g><path d="M 348.0 289.0 L 362.0 289.0" class="pc_link"/><rect class="pc_box" x="368.0" y="114.0" width="308.0" height="324.0" rx="18" data-event-id="chew_back" data-action="5&apos; Exonuclease"/><circle cx="392.0" cy="138.0" r="12" fill="#2b8ea8"/><text x="392.0" y="138.5" class="pc_step_num" text-anchor="middle" dominant-baseline="middle">2</text><text x="414.0" y="144.0" class="pc_panel_title">Chew-back</text><text x="386.0" y="166.0" class="pc_panel_sub">5&apos; Exonuclease</text><text x="386.0" y="186.0" class="pc_caption">A 5&apos; exonuclease exposes complementary 3&apos;</text><text x="386.0" y="202.0" class="pc_caption">overhangs at every destination/insert junction</text><text x="386.0" y="218.0" class="pc_caption">so the whole chain can anneal in one reaction.</text><g data-molecule-id="destination_left_chewed" data-topology="linear"><text x="384.0" y="240.0" class="pc_mol_label">Left arm (chewed)</text><text x="658.0" y="288.0" class="pc_end_label" text-anchor="end">3&apos; 30nt</text><rect x="436.4" y="254.0" width="160.4" height="8" fill="#f2c84b"/><rect x="596.8" y="254.0" width="36.8" height="8" fill="#58b05c"/><rect x="436.4" y="265.0" width="147.0" height="8" fill="#f2c84b"/><path d="M 436.8 253.2 L 429.4 255.4 L 436.8 257.8 L 429.4 260.2 L 436.8 262.8 Z" fill="url(#pc_bg)"/><path d="M 436.8 264.2 L 429.4 266.4 L 436.8 268.8 L 429.4 271.2 L 436.8 273.8 Z" fill="url(#pc_bg)"/><circle cx="416.4" cy="260.0" r="1.5" fill="#88a3ad"/><circle cx="422.4" cy="262.6" r="1.5" fill="#88a3ad"/><circle cx="428.4" cy="265.2" r="1.5" fill="#88a3ad"/></g><g data-molecule-id="insert_1_chewed" data-topology="linear"><text x="384.0" y="292.7" class="pc_mol_label">gibson_insert_demo (chewed)</text><text x="384.0" y="340.7" class="pc_end_label" text-anchor="start">3&apos; 30nt</text><text x="658.0" y="340.7" class="pc_end_label" text-anchor="end">3&apos; 52nt</text><rect x="448.9" y="306.7" width="128.2" height="8" fill="#4e8bd8"/><rect x="577.1" y="306.7" width="56.4" height="8" fill="#f29d38"/><rect x="410.4" y="317.7" width="28.2" height="8" fill="#58b05c"/><rect x="438.7" y="317.7" width="128.2" height="8" fill="#4e8bd8"/></g><g data-molecule-id="insert_2_chewed" data-topology="linear"><text x="384.0" y="345.3" class="pc_mol_label">gibson_...t_insert (chewed)</text><text x="384.0" y="393.3" class="pc_end_label" text-anchor="start">3&apos; 52nt</text><text x="658.0" y="393.3" class="pc_end_label" text-anchor="end">3&apos; 34nt</text><rect x="475.6" y="359.3" width="125.3" height="8" fill="#f08a39"/><rect x="601.0" y="359.3" width="32.6" height="8" fill="#4ba3a1"/><rect x="410.4" y="370.3" width="55.2" height="8" fill="#f29d38"/><rect x="465.6" y="370.3" width="125.3" height="8" fill="#f08a39"/></g><g data-molecule-id="destination_right_chewed" data-topology="linear"><text x="384.0" y="398.0" class="pc_mol_label">Right arm (chewed)</text><text x="384.0" y="446.0" class="pc_end_label" text-anchor="start">3&apos; 34nt</text><rect x="465.4" y="412.0" width="142.2" height="8" fill="#f2c84b"/><rect x="410.4" y="423.0" width="42.0" height="8" fill="#4ba3a1"/><rect x="452.4" y="423.0" width="155.1" height="8" fill="#f2c84b"/><path d="M 607.2 411.2 L 614.6 413.4 L 607.2 415.8 L 614.6 418.2 L 607.2 420.8 Z" fill="url(#pc_bg)"/><path d="M 607.2 422.2 L 614.6 424.4 L 607.2 426.8 L 614.6 429.2 L 607.2 431.8 Z" fill="url(#pc_bg)"/><circle cx="627.6" cy="418.0" r="1.5" fill="#88a3ad"/><circle cx="621.6" cy="420.6" r="1.5" fill="#88a3ad"/><circle cx="615.6" cy="423.2" r="1.5" fill="#88a3ad"/></g><path d="M 680.0 289.0 L 694.0 289.0" class="pc_link"/><rect class="pc_box" x="700.0" y="114.0" width="308.0" height="324.0" rx="18" data-event-id="anneal" data-action="Anneal"/><circle cx="724.0" cy="138.0" r="12" fill="#2b8ea8"/><text x="724.0" y="138.5" class="pc_step_num" text-anchor="middle" dominant-baseline="middle">3</text><text x="746.0" y="144.0" class="pc_panel_title">Anneal</text><text x="718.0" y="166.0" class="pc_panel_sub">Anneal</text><text x="718.0" y="186.0" class="pc_caption">All junctions anneal across the ordered</text><text x="718.0" y="202.0" class="pc_caption">fragment chain, bringing the opened</text><text x="718.0" y="218.0" class="pc_caption">destination and all inserts into one</text><g data-molecule-id="assembled_chain" data-topology="linear"><text x="716.0" y="240.0" class="pc_mol_label">Assembled chain</text><rect x="768.4" y="254.0" width="32.9" height="8" fill="#f2c84b"/><rect x="801.3" y="254.0" width="7.5" height="8" fill="#58b05c"/><rect x="811.6" y="254.0" width="34.2" height="8" fill="#4e8bd8"/><rect x="845.8" y="254.0" width="15.1" height="8" fill="#f29d38"/><rect x="863.6" y="254.0" width="34.2" height="8" fill="#f08a39"/><rect x="897.8" y="254.0" width="8.9" height="8" fill="#4ba3a1"/><rect x="909.4" y="254.0" width="30.1" height="8" fill="#f2c84b"/><rect x="768.4" y="265.0" width="30.1" height="8" fill="#f2c84b"/><rect x="801.3" y="265.0" width="7.5" height="8" fill="#58b05c"/><rect x="808.8" y="265.0" width="34.2" height="8" fill="#4e8bd8"/><rect x="845.8" y="265.0" width="15.1" height="8" fill="#f29d38"/><rect x="860.8" y="265.0" width="34.2" height="8" fill="#f08a39"/><rect x="897.8" y="265.0" width="8.9" height="8" fill="#4ba3a1"/><rect x="906.7" y="265.0" width="32.9" height="8" fill="#f2c84b"/><path d="M 768.8 253.2 L 761.4 255.4 L 768.8 257.8 L 761.4 260.2 L 768.8 262.8 Z" fill="url(#pc_bg)"/><path d="M 768.8 264.2 L 761.4 266.4 L 768.8 268.8 L 761.4 271.2 L 768.8 273.8 Z" fill="url(#pc_bg)"/><circle cx="748.4" cy="260.0" r="1.5" fill="#88a3ad"/><circle cx="754.4" cy="262.6" r="1.5" fill="#88a3ad"/><circle cx="760.4" cy="265.2" r="1.5" fill="#88a3ad"/><path d="M 939.2 253.2 L 946.6 255.4 L 939.2 257.8 L 946.6 260.2 L 939.2 262.8 Z" fill="url(#pc_bg)"/><path d="M 939.2 264.2 L 946.6 266.4 L 939.2 268.8 L 946.6 271.2 L 939.2 273.8 Z" fill="url(#pc_bg)"/><circle cx="959.6" cy="260.0" r="1.5" fill="#88a3ad"/><circle cx="953.6" cy="262.6" r="1.5" fill="#88a3ad"/><circle cx="947.6" cy="265.2" r="1.5" fill="#88a3ad"/></g><path d="M 1012.0 289.0 L 1026.0 289.0" class="pc_link"/><rect class="pc_box" x="1032.0" y="114.0" width="308.0" height="324.0" rx="18" data-event-id="extend" data-action="Extend"/><circle cx="1056.0" cy="138.0" r="12" fill="#2b8ea8"/><text x="1056.0" y="138.5" class="pc_step_num" text-anchor="middle" dominant-baseline="middle">4</text><text x="1078.0" y="144.0" class="pc_panel_title">Extend</text><text x="1050.0" y="166.0" class="pc_panel_sub">Extend</text><text x="1050.0" y="186.0" class="pc_caption">DNA polymerase fills the remaining</text><text x="1050.0" y="202.0" class="pc_caption">single-stranded gaps across the assembled</text><text x="1050.0" y="218.0" class="pc_caption">chain, leaving one nick on each repaired</text><g data-molecule-id="extended_chain" data-topology="linear"><text x="1048.0" y="240.0" class="pc_mol_label">Extended chain</text><rect x="1100.4" y="254.0" width="32.9" height="8" fill="#f2c84b"/><rect x="1133.3" y="254.0" width="7.5" height="8" fill="#58b05c"/><rect x="1140.8" y="254.0" width="37.0" height="8" fill="#4e8bd8"/><rect x="1177.8" y="254.0" width="15.1" height="8" fill="#f29d38"/><rect x="1192.8" y="254.0" width="37.0" height="8" fill="#f08a39"/><rect x="1229.8" y="254.0" width="8.9" height="8" fill="#4ba3a1"/><rect x="1238.7" y="254.0" width="32.9" height="8" fill="#f2c84b"/><rect x="1100.4" y="265.0" width="32.9" height="8" fill="#f2c84b"/><rect x="1133.3" y="265.0" width="7.5" height="8" fill="#58b05c"/><rect x="1140.8" y="265.0" width="37.0" height="8" fill="#4e8bd8"/><rect x="1177.8" y="265.0" width="15.1" height="8" fill="#f29d38"/><rect x="1192.8" y="265.0" width="37.0" height="8" fill="#f08a39"/><rect x="1229.8" y="265.0" width="8.9" height="8" fill="#4ba3a1"/><rect x="1238.7" y="265.0" width="32.9" height="8" fill="#f2c84b"/><rect x="1142.4" y="254.0" width="2.4" height="8" rx="1.0" fill="url(#pc_bg)"/><rect x="1194.4" y="254.0" width="2.4" height="8" rx="1.0" fill="url(#pc_bg)"/><rect x="1240.2" y="254.0" width="2.4" height="8" rx="1.0" fill="url(#pc_bg)"/><rect x="1129.4" y="265.0" width="2.4" height="8" rx="1.0" fill="url(#pc_bg)"/><rect x="1173.8" y="265.0" width="2.4" height="8" rx="1.0" fill="url(#pc_bg)"/><rect x="1225.9" y="265.0" width="2.4" height="8" rx="1.0" fill="url(#pc_bg)"/><path d="M 1100.8 253.2 L 1093.4 255.4 L 1100.8 257.8 L 1093.4 260.2 L 1100.8 262.8 Z" fill="url(#pc_bg)"/><path d="M 1100.8 264.2 L 1093.4 266.4 L 1100.8 268.8 L 1093.4 271.2 L 1100.8 273.8 Z" fill="url(#pc_bg)"/><circle cx="1080.4" cy="260.0" r="1.5" fill="#88a3ad"/><circle cx="1086.4" cy="262.6" r="1.5" fill="#88a3ad"/><circle cx="1092.4" cy="265.2" r="1.5" fill="#88a3ad"/><path d="M 1271.2 253.2 L 1278.6 255.4 L 1271.2 257.8 L 1278.6 260.2 L 1271.2 262.8 Z" fill="url(#pc_bg)"/><path d="M 1271.2 264.2 L 1278.6 266.4 L 1271.2 268.8 L 1278.6 271.2 L 1271.2 273.8 Z" fill="url(#pc_bg)"/><circle cx="1291.6" cy="260.0" r="1.5" fill="#88a3ad"/><circle cx="1285.6" cy="262.6" r="1.5" fill="#88a3ad"/><circle cx="1279.6" cy="265.2" r="1.5" fill="#88a3ad"/></g><path d="M 1344.0 289.0 L 1358.0 289.0" class="pc_link"/><rect class="pc_box" x="1364.0" y="114.0" width="308.0" height="324.0" rx="18" data-event-id="seal" data-action="Seal"/><circle cx="1388.0" cy="138.0" r="12" fill="#2b8ea8"/><text x="1388.0" y="138.5" class="pc_step_num" text-anchor="middle" dominant-baseline="middle">5</text><text x="1410.0" y="144.0" class="pc_panel_title">Seal</text><text x="1382.0" y="166.0" class="pc_panel_sub">Seal</text><text x="1382.0" y="186.0" class="pc_caption">DNA ligase seals the remaining nicks, leaving</text><text x="1382.0" y="202.0" class="pc_caption">one continuous destination-insert product.</text><g data-molecule-id="sealed_chain" data-topology="linear"><text x="1380.0" y="240.0" class="pc_mol_label">Sealed chain</text><rect x="1432.4" y="254.0" width="32.9" height="8" fill="#f2c84b"/><rect x="1465.3" y="254.0" width="7.5" height="8" fill="#58b05c"/><rect x="1472.8" y="254.0" width="37.0" height="8" fill="#4e8bd8"/><rect x="1509.8" y="254.0" width="15.1" height="8" fill="#f29d38"/><rect x="1524.8" y="254.0" width="37.0" height="8" fill="#f08a39"/><rect x="1561.8" y="254.0" width="8.9" height="8" fill="#4ba3a1"/><rect x="1570.7" y="254.0" width="32.9" height="8" fill="#f2c84b"/><rect x="1432.4" y="265.0" width="32.9" height="8" fill="#f2c84b"/><rect x="1465.3" y="265.0" width="7.5" height="8" fill="#58b05c"/><rect x="1472.8" y="265.0" width="37.0" height="8" fill="#4e8bd8"/><rect x="1509.8" y="265.0" width="15.1" height="8" fill="#f29d38"/><rect x="1524.8" y="265.0" width="37.0" height="8" fill="#f08a39"/><rect x="1561.8" y="265.0" width="8.9" height="8" fill="#4ba3a1"/><rect x="1570.7" y="265.0" width="32.9" height="8" fill="#f2c84b"/><path d="M 1432.8 253.2 L 1425.4 255.4 L 1432.8 257.8 L 1425.4 260.2 L 1432.8 262.8 Z" fill="url(#pc_bg)"/><path d="M 1432.8 264.2 L 1425.4 266.4 L 1432.8 268.8 L 1425.4 271.2 L 1432.8 273.8 Z" fill="url(#pc_bg)"/><circle cx="1412.4" cy="260.0" r="1.5" fill="#88a3ad"/><circle cx="1418.4" cy="262.6" r="1.5" fill="#88a3ad"/><circle cx="1424.4" cy="265.2" r="1.5" fill="#88a3ad"/><path d="M 1603.2 253.2 L 1610.6 255.4 L 1603.2 257.8 L 1610.6 260.2 L 1603.2 262.8 Z" fill="url(#pc_bg)"/><path d="M 1603.2 264.2 L 1610.6 266.4 L 1603.2 268.8 L 1610.6 271.2 L 1603.2 273.8 Z" fill="url(#pc_bg)"/><circle cx="1623.6" cy="260.0" r="1.5" fill="#88a3ad"/><circle cx="1617.6" cy="262.6" r="1.5" fill="#88a3ad"/><circle cx="1611.6" cy="265.2" r="1.5" fill="#88a3ad"/></g><text x="36.0" y="470.0" class="pc_caption">Model: event-sequence abstraction (features + overhangs + topology) | deterministic SVG export.</text></svg>