<svg xmlns="http://www.w3.org/2000/svg" width="254.8mm" height="71.8mm" viewBox="0 0 254.8 71.8" data-rack-isometric-template="cell_culture_6_well_plate" data-rack-id="cell-culture-6well" data-rack-front-top-clearance-mm="4.2"><rect x="0" y="0" width="100%" height="100%" fill="#ffffff"/><text x="8.0" y="4.8" font-family="monospace" font-size="4.0" font-weight="700" fill="#173042">GENtle rack isometric sketch</text><polygon points="8.00,35.36 135.80,35.36 176.84,8.00 49.04,8.00" fill="#f8fafc" stroke="#64748b" stroke-width="0.6"/><polygon points="8.00,35.36 135.80,35.36 135.80,47.84 8.00,47.84" fill="#e5e7eb" stroke="#64748b" stroke-width="0.6"/><polygon points="135.80,35.36 176.84,8.00 176.84,20.48 135.80,47.84" fill="#d1d5db" stroke="#64748b" stroke-width="0.6"/><rect x="9.40" y="36.56" width="125.00" height="7.20" rx="1.2" ry="1.2" fill="#f8fafc" fill-opacity="0.94" stroke="#64748b" stroke-width="0.35"/><text x="10.80" y="39.56" font-family="monospace" font-size="2.75" font-weight="700" fill="#475569">cell-culture-6well</text><text x="10.80" y="42.46" font-family="monospace" font-size="2.15" fill="#475569">1 arrangement | 6 / 6 occupied</text><text x="32.90" y="36.76" text-anchor="middle" font-family="monospace" font-size="2.4" fill="#475569">1</text><text x="71.90" y="36.76" text-anchor="middle" font-family="monospace" font-size="2.4" fill="#475569">2</text><text x="110.90" y="36.76" text-anchor="middle" font-family="monospace" font-size="2.4" fill="#475569">3</text><text x="16.37" y="29.25" text-anchor="end" font-family="monospace" font-size="2.4" fill="#475569">A</text><text x="35.09" y="16.77" text-anchor="end" font-family="monospace" font-size="2.4" fill="#475569">B</text><ellipse data-rack-cell-culture-opening="1" cx="43.27" cy="28.45" rx="14.62" ry="8.35" fill="#eef2f7" stroke="#94a3b8" stroke-width="0.36"/><ellipse data-rack-cell-culture-recess="1" cx="43.27" cy="29.12" rx="11.99" ry="5.68" fill="#ffffff" fill-opacity="0.82" stroke="#cbd5e1" stroke-width="0.24"/><ellipse data-rack-cell-culture-well="1" data-rack-cell-culture-medium="1" cx="43.27" cy="29.12" rx="9.06" ry="3.84" fill="#f4b6c2" fill-opacity="0.54" stroke="#173042" stroke-opacity="0.36" stroke-width="0.24"/><circle data-rack-cell-culture-arrangement-marker="1" cx="47.26" cy="27.83" r="0.69" fill="#be123c" fill-opacity="0.78"/><path d="M 38.01 28.14 C 41.64 26.37, 44.90 26.37, 48.34 28.06" fill="none" stroke="#ffffff" stroke-opacity="0.42" stroke-width="0.34" stroke-linecap="round"/><ellipse data-rack-cell-culture-opening="1" cx="82.27" cy="28.45" rx="14.62" ry="8.35" fill="#eef2f7" stroke="#94a3b8" stroke-width="0.36"/><ellipse data-rack-cell-culture-recess="1" cx="82.27" cy="29.12" rx="11.99" ry="5.68" fill="#ffffff" fill-opacity="0.82" stroke="#cbd5e1" stroke-width="0.24"/><ellipse data-rack-cell-culture-well="1" data-rack-cell-culture-medium="1" cx="82.27" cy="29.12" rx="9.06" ry="3.84" fill="#f4b6c2" fill-opacity="0.54" stroke="#173042" stroke-opacity="0.36" stroke-width="0.24"/><circle data-rack-cell-culture-arrangement-marker="1" cx="86.26" cy="27.83" r="0.69" fill="#be123c" fill-opacity="0.78"/><path d="M 77.01 28.14 C 80.64 26.37, 83.90 26.37, 87.34 28.06" fill="none" stroke="#ffffff" stroke-opacity="0.42" stroke-width="0.34" stroke-linecap="round"/><ellipse data-rack-cell-culture-opening="1" cx="121.27" cy="28.45" rx="14.62" ry="8.35" fill="#eef2f7" stroke="#94a3b8" stroke-width="0.36"/><ellipse data-rack-cell-culture-recess="1" cx="121.27" cy="29.12" rx="11.99" ry="5.68" fill="#ffffff" fill-opacity="0.82" stroke="#cbd5e1" stroke-width="0.24"/><ellipse data-rack-cell-culture-well="1" data-rack-cell-culture-medium="1" cx="121.27" cy="29.12" rx="9.06" ry="3.84" fill="#f4b6c2" fill-opacity="0.54" stroke="#173042" stroke-opacity="0.36" stroke-width="0.24"/><circle data-rack-cell-culture-arrangement-marker="1" cx="125.26" cy="27.83" r="0.69" fill="#be123c" fill-opacity="0.78"/><path d="M 116.01 28.14 C 119.64 26.37, 122.90 26.37, 126.34 28.06" fill="none" stroke="#ffffff" stroke-opacity="0.42" stroke-width="0.34" stroke-linecap="round"/><ellipse data-rack-cell-culture-opening="1" cx="61.99" cy="15.97" rx="14.62" ry="8.35" fill="#eef2f7" stroke="#94a3b8" stroke-width="0.36"/><ellipse data-rack-cell-culture-recess="1" cx="61.99" cy="16.64" rx="11.99" ry="5.68" fill="#ffffff" fill-opacity="0.82" stroke="#cbd5e1" stroke-width="0.24"/><ellipse data-rack-cell-culture-well="1" data-rack-cell-culture-medium="1" cx="61.99" cy="16.64" rx="9.06" ry="3.84" fill="#f4b6c2" fill-opacity="0.54" stroke="#173042" stroke-opacity="0.36" stroke-width="0.24"/><circle data-rack-cell-culture-arrangement-marker="1" cx="65.98" cy="15.35" r="0.69" fill="#be123c" fill-opacity="0.78"/><path d="M 56.73 15.66 C 60.36 13.89, 63.62 13.89, 67.06 15.58" fill="none" stroke="#ffffff" stroke-opacity="0.42" stroke-width="0.34" stroke-linecap="round"/><ellipse data-rack-cell-culture-opening="1" cx="100.99" cy="15.97" rx="14.62" ry="8.35" fill="#eef2f7" stroke="#94a3b8" stroke-width="0.36"/><ellipse data-rack-cell-culture-recess="1" cx="100.99" cy="16.64" rx="11.99" ry="5.68" fill="#ffffff" fill-opacity="0.82" stroke="#cbd5e1" stroke-width="0.24"/><ellipse data-rack-cell-culture-well="1" data-rack-cell-culture-medium="1" cx="100.99" cy="16.64" rx="9.06" ry="3.84" fill="#f4b6c2" fill-opacity="0.54" stroke="#173042" stroke-opacity="0.36" stroke-width="0.24"/><circle data-rack-cell-culture-arrangement-marker="1" cx="104.98" cy="15.35" r="0.69" fill="#be123c" fill-opacity="0.78"/><path d="M 95.73 15.66 C 99.36 13.89, 102.62 13.89, 106.06 15.58" fill="none" stroke="#ffffff" stroke-opacity="0.42" stroke-width="0.34" stroke-linecap="round"/><ellipse data-rack-cell-culture-opening="1" cx="139.99" cy="15.97" rx="14.62" ry="8.35" fill="#eef2f7" stroke="#94a3b8" stroke-width="0.36"/><ellipse data-rack-cell-culture-recess="1" cx="139.99" cy="16.64" rx="11.99" ry="5.68" fill="#ffffff" fill-opacity="0.82" stroke="#cbd5e1" stroke-width="0.24"/><ellipse data-rack-cell-culture-well="1" data-rack-cell-culture-medium="1" cx="139.99" cy="16.64" rx="9.06" ry="3.84" fill="#f4b6c2" fill-opacity="0.54" stroke="#173042" stroke-opacity="0.36" stroke-width="0.24"/><circle data-rack-cell-culture-arrangement-marker="1" cx="143.98" cy="15.35" r="0.69" fill="#be123c" fill-opacity="0.78"/><path d="M 134.73 15.66 C 138.36 13.89, 141.62 13.89, 145.06 15.58" fill="none" stroke="#ffffff" stroke-opacity="0.42" stroke-width="0.34" stroke-linecap="round"/><text x="184.84" y="16.00" font-family="monospace" font-size="3.0" font-weight="700" fill="#173042">Occupancy</text><rect x="184.84" y="17.00" width="4.0" height="4.0" rx="1.0" ry="1.0" fill="#be123c"/><text x="190.84" y="20.00" font-family="monospace" font-size="2.5" fill="#334155">6-well cell-culture compa…</text><text x="8.00" y="67.84" font-family="monospace" font-size="2.4" fill="#64748b">template=cell_culture_6_well_plate | family=cell_culture | positions=6</text></svg>