<svg xmlns="http://www.w3.org/2000/svg" width="259.2mm" height="63.0mm" viewBox="0 0 259.2 63.0" data-rack-isometric-template="cell_culture_plate" data-rack-id="cell-culture-6well" data-rack-front-top-clearance-mm="4.0"><rect x="0" y="0" width="100%" height="100%" fill="#ffffff"/><text x="8.0" y="4.8" font-family="monospace" font-size="4.0" font-weight="700" fill="#173042">GENtle rack isometric sketch</text><polygon points="8.00,35.87 139.40,35.87 181.21,8.00 49.81,8.00" fill="#fff7ed" stroke="#9a3412" stroke-width="0.6"/><polygon points="8.00,35.87 139.40,35.87 139.40,38.99 8.00,38.99" fill="#fed7aa" stroke="#9a3412" stroke-width="0.6"/><polygon points="139.40,35.87 181.21,8.00 181.21,11.12 139.40,38.99" fill="#fdba74" stroke="#9a3412" stroke-width="0.6"/><rect x="9.40" y="37.07" width="128.60" height="7.20" rx="1.2" ry="1.2" fill="#ea580c" fill-opacity="0.94" stroke="#9a3412" stroke-width="0.35"/><text x="10.80" y="40.07" font-family="monospace" font-size="2.75" font-weight="700" fill="#fff7ed">cell-culture-6well</text><text x="10.80" y="42.97" font-family="monospace" font-size="2.15" fill="#fff7ed">1 arrangement | 6 / 6 occupied</text><text x="34.60" y="37.27" text-anchor="middle" font-family="monospace" font-size="2.4" fill="#475569">1</text><text x="73.70" y="37.27" text-anchor="middle" font-family="monospace" font-size="2.4" fill="#475569">2</text><text x="112.80" y="37.27" text-anchor="middle" font-family="monospace" font-size="2.4" fill="#475569">3</text><text x="16.27" y="29.82" text-anchor="end" font-family="monospace" font-size="2.4" fill="#475569">A</text><text x="35.04" y="17.31" text-anchor="end" font-family="monospace" font-size="2.4" fill="#475569">B</text><ellipse data-rack-cell-culture-opening="1" cx="44.87" cy="29.02" rx="14.62" ry="8.35" fill="#eef2f7" stroke="#94a3b8" stroke-width="0.36"/><ellipse data-rack-cell-culture-recess="1" cx="44.87" cy="29.69" rx="11.99" ry="5.68" fill="#ffffff" fill-opacity="0.82" stroke="#cbd5e1" stroke-width="0.24"/><ellipse data-rack-cell-culture-well="1" data-rack-cell-culture-medium="1" cx="44.87" cy="29.69" rx="9.06" ry="3.84" fill="#f4b6c2" fill-opacity="0.54" stroke="#173042" stroke-opacity="0.36" stroke-width="0.24"/><circle data-rack-cell-culture-arrangement-marker="1" cx="48.86" cy="28.41" r="0.69" fill="#be123c" fill-opacity="0.78"/><path d="M 39.62 28.72 C 43.24 26.95, 46.50 26.95, 49.95 28.64" fill="none" stroke="#ffffff" stroke-opacity="0.42" stroke-width="0.34" stroke-linecap="round"/><ellipse data-rack-cell-culture-opening="1" cx="83.97" cy="29.02" rx="14.62" ry="8.35" fill="#eef2f7" stroke="#94a3b8" stroke-width="0.36"/><ellipse data-rack-cell-culture-recess="1" cx="83.97" cy="29.69" rx="11.99" ry="5.68" fill="#ffffff" fill-opacity="0.82" stroke="#cbd5e1" stroke-width="0.24"/><ellipse data-rack-cell-culture-well="1" data-rack-cell-culture-medium="1" cx="83.97" cy="29.69" rx="9.06" ry="3.84" fill="#f4b6c2" fill-opacity="0.54" stroke="#173042" stroke-opacity="0.36" stroke-width="0.24"/><circle data-rack-cell-culture-arrangement-marker="1" cx="87.96" cy="28.41" r="0.69" fill="#be123c" fill-opacity="0.78"/><path d="M 78.72 28.72 C 82.34 26.95, 85.60 26.95, 89.05 28.64" fill="none" stroke="#ffffff" stroke-opacity="0.42" stroke-width="0.34" stroke-linecap="round"/><ellipse data-rack-cell-culture-opening="1" cx="123.07" cy="29.02" rx="14.62" ry="8.35" fill="#eef2f7" stroke="#94a3b8" stroke-width="0.36"/><ellipse data-rack-cell-culture-recess="1" cx="123.07" cy="29.69" rx="11.99" ry="5.68" fill="#ffffff" fill-opacity="0.82" stroke="#cbd5e1" stroke-width="0.24"/><ellipse data-rack-cell-culture-well="1" data-rack-cell-culture-medium="1" cx="123.07" cy="29.69" rx="9.06" ry="3.84" fill="#f4b6c2" fill-opacity="0.54" stroke="#173042" stroke-opacity="0.36" stroke-width="0.24"/><circle data-rack-cell-culture-arrangement-marker="1" cx="127.06" cy="28.41" r="0.69" fill="#be123c" fill-opacity="0.78"/><path d="M 117.82 28.72 C 121.44 26.95, 124.70 26.95, 128.15 28.64" fill="none" stroke="#ffffff" stroke-opacity="0.42" stroke-width="0.34" stroke-linecap="round"/><ellipse data-rack-cell-culture-opening="1" cx="63.64" cy="16.51" rx="14.62" ry="8.35" fill="#eef2f7" stroke="#94a3b8" stroke-width="0.36"/><ellipse data-rack-cell-culture-recess="1" cx="63.64" cy="17.18" rx="11.99" ry="5.68" fill="#ffffff" fill-opacity="0.82" stroke="#cbd5e1" stroke-width="0.24"/><ellipse data-rack-cell-culture-well="1" data-rack-cell-culture-medium="1" cx="63.64" cy="17.18" rx="9.06" ry="3.84" fill="#f4b6c2" fill-opacity="0.54" stroke="#173042" stroke-opacity="0.36" stroke-width="0.24"/><circle data-rack-cell-culture-arrangement-marker="1" cx="67.63" cy="15.90" r="0.69" fill="#be123c" fill-opacity="0.78"/><path d="M 58.38 16.20 C 62.01 14.44, 65.27 14.44, 68.71 16.13" fill="none" stroke="#ffffff" stroke-opacity="0.42" stroke-width="0.34" stroke-linecap="round"/><ellipse data-rack-cell-culture-opening="1" cx="102.74" cy="16.51" rx="14.62" ry="8.35" fill="#eef2f7" stroke="#94a3b8" stroke-width="0.36"/><ellipse data-rack-cell-culture-recess="1" cx="102.74" cy="17.18" rx="11.99" ry="5.68" fill="#ffffff" fill-opacity="0.82" stroke="#cbd5e1" stroke-width="0.24"/><ellipse data-rack-cell-culture-well="1" data-rack-cell-culture-medium="1" cx="102.74" cy="17.18" rx="9.06" ry="3.84" fill="#f4b6c2" fill-opacity="0.54" stroke="#173042" stroke-opacity="0.36" stroke-width="0.24"/><circle data-rack-cell-culture-arrangement-marker="1" cx="106.73" cy="15.90" r="0.69" fill="#be123c" fill-opacity="0.78"/><path d="M 97.48 16.20 C 101.11 14.44, 104.37 14.44, 107.81 16.13" fill="none" stroke="#ffffff" stroke-opacity="0.42" stroke-width="0.34" stroke-linecap="round"/><ellipse data-rack-cell-culture-opening="1" cx="141.84" cy="16.51" rx="14.62" ry="8.35" fill="#eef2f7" stroke="#94a3b8" stroke-width="0.36"/><ellipse data-rack-cell-culture-recess="1" cx="141.84" cy="17.18" rx="11.99" ry="5.68" fill="#ffffff" fill-opacity="0.82" stroke="#cbd5e1" stroke-width="0.24"/><ellipse data-rack-cell-culture-well="1" data-rack-cell-culture-medium="1" cx="141.84" cy="17.18" rx="9.06" ry="3.84" fill="#f4b6c2" fill-opacity="0.54" stroke="#173042" stroke-opacity="0.36" stroke-width="0.24"/><circle data-rack-cell-culture-arrangement-marker="1" cx="145.83" cy="15.90" r="0.69" fill="#be123c" fill-opacity="0.78"/><path d="M 136.58 16.20 C 140.21 14.44, 143.47 14.44, 146.91 16.13" fill="none" stroke="#ffffff" stroke-opacity="0.42" stroke-width="0.34" stroke-linecap="round"/><text x="189.21" y="16.00" font-family="monospace" font-size="3.0" font-weight="700" fill="#173042">Occupancy</text><rect x="189.21" y="17.00" width="4.0" height="4.0" rx="1.0" ry="1.0" fill="#be123c"/><text x="195.21" y="20.00" font-family="monospace" font-size="2.5" fill="#334155">6-well cell-culture compa…</text><text x="8.00" y="58.99" font-family="monospace" font-size="2.4" fill="#64748b">template=cell_culture_plate | family=cell_culture | positions=6</text></svg>