<svg xmlns="http://www.w3.org/2000/svg" width="205.5mm" height="67.5mm" viewBox="0 0 205.5 67.5" data-rack-isometric-template="pipetting_pcr_tube_rack" data-rack-id="rack-1"><rect x="0" y="0" width="100%" height="100%" fill="#ffffff"/><text x="8.0" y="4.8" font-family="monospace" font-size="4.0" font-weight="700" fill="#173042">GENtle rack isometric sketch</text><polygon points="8.00,29.50 95.20,29.50 127.46,8.00 40.26,8.00" fill="#e7f6f2" stroke="#115e59" stroke-width="0.6"/><polygon points="8.00,29.50 95.20,29.50 95.20,43.54 8.00,43.54" fill="#b8dfd5" stroke="#115e59" stroke-width="0.6"/><polygon points="95.20,29.50 127.46,8.00 127.46,22.04 95.20,43.54" fill="#8ecaba" stroke="#115e59" stroke-width="0.6"/><rect x="9.40" y="30.70" width="84.40" height="7.20" rx="1.2" ry="1.2" fill="#0f766e" fill-opacity="0.94" stroke="#115e59" stroke-width="0.35"/><text x="10.80" y="33.70" font-family="monospace" font-size="2.75" font-weight="700" fill="#f8fafc">rack-1</text><text x="10.80" y="36.60" font-family="monospace" font-size="2.15" fill="#f8fafc">1 arrangement | 5 / 24 occupied</text><text x="16.60" y="30.90" text-anchor="middle" font-family="monospace" font-size="2.4" fill="#475569">1</text><text x="30.60" y="30.90" text-anchor="middle" font-family="monospace" font-size="2.4" fill="#475569">2</text><text x="44.60" y="30.90" text-anchor="middle" font-family="monospace" font-size="2.4" fill="#475569">3</text><text x="58.60" y="30.90" text-anchor="middle" font-family="monospace" font-size="2.4" fill="#475569">4</text><text x="72.60" y="30.90" text-anchor="middle" font-family="monospace" font-size="2.4" fill="#475569">5</text><text x="86.60" y="30.90" text-anchor="middle" font-family="monospace" font-size="2.4" fill="#475569">6</text><text x="13.97" y="24.99" text-anchor="end" font-family="monospace" font-size="2.4" fill="#475569">A</text><text x="20.69" y="20.51" text-anchor="end" font-family="monospace" font-size="2.4" fill="#475569">B</text><text x="27.41" y="16.03" text-anchor="end" font-family="monospace" font-size="2.4" fill="#475569">C</text><text x="34.13" y="11.55" text-anchor="end" font-family="monospace" font-size="2.4" fill="#475569">D</text><ellipse cx="24.57" cy="24.19" rx="3.86" ry="2.21" fill="#ffffff" stroke="#475569" stroke-width="0.35"/><ellipse cx="24.57" cy="24.59" rx="3.25" ry="2.03" fill="#0f172a" fill-opacity="0.12"/><rect x="21.32" y="20.19" width="6.49" height="4.00" fill="#b45309" fill-opacity="0.92"/><ellipse cx="24.57" cy="20.19" rx="3.25" ry="2.03" fill="#f59e0b" stroke="#92400e" stroke-width="0.25"/><path d="M 22.78 20.24 C 23.92 18.77, 25.05 18.77, 25.87 20.24" fill="none" stroke="#ffffff" stroke-opacity="0.35" stroke-width="0.25"/><ellipse cx="38.57" cy="24.19" rx="3.86" ry="2.21" fill="#ffffff" stroke="#475569" stroke-width="0.35"/><ellipse cx="38.57" cy="24.59" rx="3.25" ry="2.03" fill="#0f172a" fill-opacity="0.12"/><rect x="35.32" y="20.19" width="6.49" height="4.00" fill="#be123c" fill-opacity="0.92"/><ellipse cx="38.57" cy="20.19" rx="3.25" ry="2.03" fill="#be123c" stroke="#173042" stroke-width="0.25"/><path d="M 36.78 20.24 C 37.92 18.77, 39.05 18.77, 39.87 20.24" fill="none" stroke="#ffffff" stroke-opacity="0.35" stroke-width="0.25"/><ellipse cx="52.57" cy="24.19" rx="3.86" ry="2.21" fill="#ffffff" stroke="#475569" stroke-width="0.35"/><ellipse cx="52.57" cy="24.59" rx="3.25" ry="2.03" fill="#0f172a" fill-opacity="0.12"/><rect x="49.32" y="20.19" width="6.49" height="4.00" fill="#be123c" fill-opacity="0.92"/><ellipse cx="52.57" cy="20.19" rx="3.25" ry="2.03" fill="#be123c" stroke="#173042" stroke-width="0.25"/><path d="M 50.78 20.24 C 51.92 18.77, 53.05 18.77, 53.87 20.24" fill="none" stroke="#ffffff" stroke-opacity="0.35" stroke-width="0.25"/><ellipse cx="66.57" cy="24.19" rx="3.86" ry="2.21" fill="#ffffff" stroke="#475569" stroke-width="0.35"/><ellipse cx="66.57" cy="24.59" rx="3.25" ry="2.03" fill="#0f172a" fill-opacity="0.12"/><rect x="63.32" y="20.19" width="6.49" height="4.00" fill="#be123c" fill-opacity="0.92"/><ellipse cx="66.57" cy="20.19" rx="3.25" ry="2.03" fill="#be123c" stroke="#173042" stroke-width="0.25"/><path d="M 64.78 20.24 C 65.92 18.77, 67.05 18.77, 67.87 20.24" fill="none" stroke="#ffffff" stroke-opacity="0.35" stroke-width="0.25"/><ellipse cx="80.57" cy="24.19" rx="3.86" ry="2.21" fill="#ffffff" stroke="#475569" stroke-width="0.35"/><ellipse cx="80.57" cy="24.59" rx="3.25" ry="2.03" fill="#0f172a" fill-opacity="0.12"/><rect x="77.32" y="20.19" width="6.49" height="4.00" fill="#b45309" fill-opacity="0.92"/><ellipse cx="80.57" cy="20.19" rx="3.25" ry="2.03" fill="#f59e0b" stroke="#92400e" stroke-width="0.25"/><path d="M 78.78 20.24 C 79.92 18.77, 81.05 18.77, 81.87 20.24" fill="none" stroke="#ffffff" stroke-opacity="0.35" stroke-width="0.25"/><ellipse cx="94.57" cy="24.19" rx="3.86" ry="2.21" fill="#ffffff" stroke="#475569" stroke-width="0.35"/><ellipse cx="31.29" cy="19.71" rx="3.86" ry="2.21" fill="#ffffff" stroke="#475569" stroke-width="0.35"/><ellipse cx="45.29" cy="19.71" rx="3.86" ry="2.21" fill="#ffffff" stroke="#475569" stroke-width="0.35"/><ellipse cx="59.29" cy="19.71" rx="3.86" ry="2.21" fill="#ffffff" stroke="#475569" stroke-width="0.35"/><ellipse cx="73.29" cy="19.71" rx="3.86" ry="2.21" fill="#ffffff" stroke="#475569" stroke-width="0.35"/><ellipse cx="87.29" cy="19.71" rx="3.86" ry="2.21" fill="#ffffff" stroke="#475569" stroke-width="0.35"/><ellipse cx="101.29" cy="19.71" rx="3.86" ry="2.21" fill="#ffffff" stroke="#475569" stroke-width="0.35"/><ellipse cx="38.01" cy="15.23" rx="3.86" ry="2.21" fill="#ffffff" stroke="#475569" stroke-width="0.35"/><ellipse cx="52.01" cy="15.23" rx="3.86" ry="2.21" fill="#ffffff" stroke="#475569" stroke-width="0.35"/><ellipse cx="66.01" cy="15.23" rx="3.86" ry="2.21" fill="#ffffff" stroke="#475569" stroke-width="0.35"/><ellipse cx="80.01" cy="15.23" rx="3.86" ry="2.21" fill="#ffffff" stroke="#475569" stroke-width="0.35"/><ellipse cx="94.01" cy="15.23" rx="3.86" ry="2.21" fill="#ffffff" stroke="#475569" stroke-width="0.35"/><ellipse cx="108.01" cy="15.23" rx="3.86" ry="2.21" fill="#ffffff" stroke="#475569" stroke-width="0.35"/><ellipse cx="44.73" cy="10.75" rx="3.86" ry="2.21" fill="#ffffff" stroke="#475569" stroke-width="0.35"/><ellipse cx="58.73" cy="10.75" rx="3.86" ry="2.21" fill="#ffffff" stroke="#475569" stroke-width="0.35"/><ellipse cx="72.73" cy="10.75" rx="3.86" ry="2.21" fill="#ffffff" stroke="#475569" stroke-width="0.35"/><ellipse cx="86.73" cy="10.75" rx="3.86" ry="2.21" fill="#ffffff" stroke="#475569" stroke-width="0.35"/><ellipse cx="100.73" cy="10.75" rx="3.86" ry="2.21" fill="#ffffff" stroke="#475569" stroke-width="0.35"/><ellipse cx="114.73" cy="10.75" rx="3.86" ry="2.21" fill="#ffffff" stroke="#475569" stroke-width="0.35"/><text x="135.46" y="16.00" font-family="monospace" font-size="3.0" font-weight="700" fill="#173042">Occupancy</text><rect x="135.46" y="17.00" width="4.0" height="4.0" rx="1.0" ry="1.0" fill="#be123c"/><text x="141.46" y="20.00" font-family="monospace" font-size="2.5" fill="#334155">Gibson lane set: gibson_d…</text><rect x="135.46" y="22.00" width="4.0" height="4.0" rx="1.0" ry="1.0" fill="#f59e0b"/><text x="141.46" y="25.00" font-family="monospace" font-size="2.5" fill="#334155">ladder reference</text><text x="8.00" y="63.54" font-family="monospace" font-size="2.4" fill="#64748b">template=pipetting_pcr_tube_rack | family=pipetting | positions=5</text></svg>