<svg xmlns="http://www.w3.org/2000/svg" width="128.1mm" height="59.3mm" viewBox="2.00 2.00 128.10 59.30" data-rack-isometric-template="pipetting_pcr_tube_rack" data-rack-id="rack-1" data-rack-front-top-clearance-mm="5.0"><defs><filter id="rack-shadow" x="-20%" y="-20%" width="160%" height="180%"><feDropShadow dx="0.0" dy="2.4" stdDeviation="2.2" flood-color="#0f172a" flood-opacity="0.18" /></filter><linearGradient id="rack-top-grad" x1="0%" y1="0%" x2="100%" y2="100%"><stop offset="0%" stop-color="#eef9f6" /><stop offset="100%" stop-color="#d6e4e2" /></linearGradient><linearGradient id="rack-front-grad" x1="0%" y1="0%" x2="0%" y2="100%"><stop offset="0%" stop-color="#c8e6de" /><stop offset="100%" stop-color="#a7cbc4" /></linearGradient><linearGradient id="rack-side-grad" x1="0%" y1="0%" x2="0%" y2="100%"><stop offset="0%" stop-color="#a2d4c6" /><stop offset="100%" stop-color="#7fb5a9" /></linearGradient><linearGradient id="rack-strip-grad" x1="0%" y1="0%" x2="100%" y2="0%"><stop offset="0%" stop-color="#358c85" /><stop offset="100%" stop-color="#0f6c67" /></linearGradient><radialGradient id="hole-grad" cx="50%" cy="45%" r="70%"><stop offset="0%" stop-color="#ffffff" /><stop offset="55%" stop-color="#f1f5f9" /><stop offset="100%" stop-color="#cbd5e1" /></radialGradient><radialGradient id="ground-shadow-grad" cx="50%" cy="50%" r="50%"><stop offset="0%" stop-color="#0f172a" stop-opacity="0.16" /><stop offset="100%" stop-color="#0f172a" stop-opacity="0" /></radialGradient></defs><ellipse cx="66.05" cy="46.10" rx="51.08" ry="5.99" fill="url(#ground-shadow-grad)" /><path d="M 14.00 28.96 C 32.00 25.06, 71.20 25.26, 116.10 9.20" fill="none" stroke="#ffffff" stroke-opacity="0.35" stroke-width="0.9" stroke-linecap="round" /><polygon points="8.00,27.26 95.20,27.26 124.10,8.00 36.90,8.00" fill="url(#rack-top-grad)" stroke="#115e59" stroke-width="0.45" filter="url(#rack-shadow)" /><polygon points="8.00,27.26 95.20,27.26 95.20,41.30 8.00,41.30" fill="url(#rack-front-grad)" stroke="#115e59" stroke-width="0.45" filter="url(#rack-shadow)" /><polygon points="95.20,27.26 124.10,8.00 124.10,22.04 95.20,41.30" fill="url(#rack-side-grad)" stroke="#115e59" stroke-width="0.45" filter="url(#rack-shadow)" /><rect x="9.40" y="28.46" width="84.40" height="7.20" rx="1.2" ry="1.2" fill="url(#rack-strip-grad)" fill-opacity="0.98" stroke="#115e59" stroke-width="0.22" /><ellipse cx="21.21" cy="24.19" rx="3.86" ry="2.21" fill="url(#hole-grad)" stroke="#6a788d" stroke-width="0.28" /><ellipse cx="21.21" cy="24.59" rx="3.25" ry="2.03" fill="#0f172a" fill-opacity="0.12" /><path data-rack-tube-shell="1" d="M 17.96 20.19 L 17.96 24.07 Q 21.21 25.98 24.45 24.07 L 24.45 20.19 Z" fill="#a44d0c" fill-opacity="0.95" /><path data-rack-tube-interface="1" d="M 17.96 24.07 Q 21.21 25.98 24.45 24.07" fill="none" stroke="#823b11" stroke-opacity="0.42" stroke-width="0.34" stroke-linecap="round" /><ellipse cx="21.21" cy="20.19" rx="3.25" ry="2.03" fill="#f6a61f" stroke="#92400e" stroke-width="0.20" /><path d="M 19.42 20.24 C 20.56 18.77, 21.69 18.77, 22.51 20.24" fill="none" stroke="#ffffff" stroke-opacity="0.35" stroke-width="0.25" /><ellipse cx="35.21" cy="24.19" rx="3.86" ry="2.21" fill="url(#hole-grad)" stroke="#6a788d" stroke-width="0.28" /><ellipse cx="35.21" cy="24.59" rx="3.25" ry="2.03" fill="#0f172a" fill-opacity="0.12" /><path data-rack-tube-shell="1" d="M 31.96 20.19 L 31.96 24.07 Q 35.21 25.98 38.45 24.07 L 38.45 20.19 Z" fill="#ac123a" fill-opacity="0.95" /><path data-rack-tube-interface="1" d="M 31.96 24.07 Q 35.21 25.98 38.45 24.07" fill="none" stroke="#162d3f" stroke-opacity="0.42" stroke-width="0.34" stroke-linecap="round" /><ellipse cx="35.21" cy="20.19" rx="3.25" ry="2.03" fill="#c3254c" stroke="#173042" stroke-width="0.20" /><path d="M 33.42 20.24 C 34.56 18.77, 35.69 18.77, 36.51 20.24" fill="none" stroke="#ffffff" stroke-opacity="0.35" stroke-width="0.25" /><ellipse cx="49.21" cy="24.19" rx="3.86" ry="2.21" fill="url(#hole-grad)" stroke="#6a788d" stroke-width="0.28" /><ellipse cx="49.21" cy="24.59" rx="3.25" ry="2.03" fill="#0f172a" fill-opacity="0.12" /><path data-rack-tube-shell="1" d="M 45.96 20.19 L 45.96 24.07 Q 49.21 25.98 52.45 24.07 L 52.45 20.19 Z" fill="#ac123a" fill-opacity="0.95" /><path data-rack-tube-interface="1" d="M 45.96 24.07 Q 49.21 25.98 52.45 24.07" fill="none" stroke="#162d3f" stroke-opacity="0.42" stroke-width="0.34" stroke-linecap="round" /><ellipse cx="49.21" cy="20.19" rx="3.25" ry="2.03" fill="#c3254c" stroke="#173042" stroke-width="0.20" /><path d="M 47.42 20.24 C 48.56 18.77, 49.69 18.77, 50.51 20.24" fill="none" stroke="#ffffff" stroke-opacity="0.35" stroke-width="0.25" /><ellipse cx="63.21" cy="24.19" rx="3.86" ry="2.21" fill="url(#hole-grad)" stroke="#6a788d" stroke-width="0.28" /><ellipse cx="63.21" cy="24.59" rx="3.25" ry="2.03" fill="#0f172a" fill-opacity="0.12" /><path data-rack-tube-shell="1" d="M 59.96 20.19 L 59.96 24.07 Q 63.21 25.98 66.45 24.07 L 66.45 20.19 Z" fill="#ac123a" fill-opacity="0.95" /><path data-rack-tube-interface="1" d="M 59.96 24.07 Q 63.21 25.98 66.45 24.07" fill="none" stroke="#162d3f" stroke-opacity="0.42" stroke-width="0.34" stroke-linecap="round" /><ellipse cx="63.21" cy="20.19" rx="3.25" ry="2.03" fill="#c3254c" stroke="#173042" stroke-width="0.20" /><path d="M 61.42 20.24 C 62.56 18.77, 63.69 18.77, 64.51 20.24" fill="none" stroke="#ffffff" stroke-opacity="0.35" stroke-width="0.25" /><ellipse cx="77.21" cy="24.19" rx="3.86" ry="2.21" fill="url(#hole-grad)" stroke="#6a788d" stroke-width="0.28" /><ellipse cx="77.21" cy="24.59" rx="3.25" ry="2.03" fill="#0f172a" fill-opacity="0.12" /><path data-rack-tube-shell="1" d="M 73.96 20.19 L 73.96 24.07 Q 77.21 25.98 80.45 24.07 L 80.45 20.19 Z" fill="#a44d0c" fill-opacity="0.95" /><path data-rack-tube-interface="1" d="M 73.96 24.07 Q 77.21 25.98 80.45 24.07" fill="none" stroke="#823b11" stroke-opacity="0.42" stroke-width="0.34" stroke-linecap="round" /><ellipse cx="77.21" cy="20.19" rx="3.25" ry="2.03" fill="#f6a61f" stroke="#92400e" stroke-width="0.20" /><path d="M 75.42 20.24 C 76.56 18.77, 77.69 18.77, 78.51 20.24" fill="none" stroke="#ffffff" stroke-opacity="0.35" stroke-width="0.25" /><ellipse cx="91.21" cy="24.19" rx="3.86" ry="2.21" fill="url(#hole-grad)" stroke="#6a788d" stroke-width="0.28" /><ellipse cx="27.93" cy="19.71" rx="3.86" ry="2.21" fill="url(#hole-grad)" stroke="#6a788d" stroke-width="0.28" /><ellipse cx="41.93" cy="19.71" rx="3.86" ry="2.21" fill="url(#hole-grad)" stroke="#6a788d" stroke-width="0.28" /><ellipse cx="55.93" cy="19.71" rx="3.86" ry="2.21" fill="url(#hole-grad)" stroke="#6a788d" stroke-width="0.28" /><ellipse cx="69.93" cy="19.71" rx="3.86" ry="2.21" fill="url(#hole-grad)" stroke="#6a788d" stroke-width="0.28" /><ellipse cx="83.93" cy="19.71" rx="3.86" ry="2.21" fill="url(#hole-grad)" stroke="#6a788d" stroke-width="0.28" /><ellipse cx="97.93" cy="19.71" rx="3.86" ry="2.21" fill="url(#hole-grad)" stroke="#6a788d" stroke-width="0.28" /><ellipse cx="34.65" cy="15.23" rx="3.86" ry="2.21" fill="url(#hole-grad)" stroke="#6a788d" stroke-width="0.28" /><ellipse cx="48.65" cy="15.23" rx="3.86" ry="2.21" fill="url(#hole-grad)" stroke="#6a788d" stroke-width="0.28" /><ellipse cx="62.65" cy="15.23" rx="3.86" ry="2.21" fill="url(#hole-grad)" stroke="#6a788d" stroke-width="0.28" /><ellipse cx="76.65" cy="15.23" rx="3.86" ry="2.21" fill="url(#hole-grad)" stroke="#6a788d" stroke-width="0.28" /><ellipse cx="90.65" cy="15.23" rx="3.86" ry="2.21" fill="url(#hole-grad)" stroke="#6a788d" stroke-width="0.28" /><ellipse cx="104.65" cy="15.23" rx="3.86" ry="2.21" fill="url(#hole-grad)" stroke="#6a788d" stroke-width="0.28" /><ellipse cx="41.37" cy="10.75" rx="3.86" ry="2.21" fill="url(#hole-grad)" stroke="#6a788d" stroke-width="0.28" /><ellipse cx="55.37" cy="10.75" rx="3.86" ry="2.21" fill="url(#hole-grad)" stroke="#6a788d" stroke-width="0.28" /><ellipse cx="69.37" cy="10.75" rx="3.86" ry="2.21" fill="url(#hole-grad)" stroke="#6a788d" stroke-width="0.28" /><ellipse cx="83.37" cy="10.75" rx="3.86" ry="2.21" fill="url(#hole-grad)" stroke="#6a788d" stroke-width="0.28" /><ellipse cx="97.37" cy="10.75" rx="3.86" ry="2.21" fill="url(#hole-grad)" stroke="#6a788d" stroke-width="0.28" /><ellipse cx="111.37" cy="10.75" rx="3.86" ry="2.21" fill="url(#hole-grad)" stroke="#6a788d" stroke-width="0.28" /><rect x="10.00" y="49.10" width="42.00" height="6.20" rx="3.10" ry="3.10" fill="#ffffff" fill-opacity="0.90" stroke="#cbd5e1" stroke-width="0.24" /><rect x="11.30" y="50.45" width="3.50" height="3.50" rx="1.2" ry="1.2" fill="#be123c" /><text x="16.20" y="53.25" font-family="monospace" font-size="2.55" fill="#334155">Gibson arrangement</text><rect x="54.00" y="49.10" width="28.50" height="6.20" rx="3.10" ry="3.10" fill="#ffffff" fill-opacity="0.90" stroke="#cbd5e1" stroke-width="0.24" /><rect x="55.30" y="50.45" width="3.50" height="3.50" rx="1.2" ry="1.2" fill="#f59e0b" /><text x="60.20" y="53.25" font-family="monospace" font-size="2.55" fill="#334155">DNA ladder</text></svg>