<svg xmlns="http://www.w3.org/2000/svg" width="202.1mm" height="65.3mm" viewBox="0 0 202.1 65.3" data-rack-isometric-template="pipetting_pcr_tube_rack" data-rack-id="rack-1" data-rack-front-top-clearance-mm="5.0"><rect x="0" y="0" width="100%" height="100%" fill="#ffffff"/><text x="8.0" y="4.8" font-family="monospace" font-size="4.0" font-weight="700" fill="#173042">GENtle rack isometric sketch</text><polygon points="8.00,27.26 95.20,27.26 124.10,8.00 36.90,8.00" fill="#e7f6f2" stroke="#115e59" stroke-width="0.6"/><polygon points="8.00,27.26 95.20,27.26 95.20,41.30 8.00,41.30" fill="#b8dfd5" stroke="#115e59" stroke-width="0.6"/><polygon points="95.20,27.26 124.10,8.00 124.10,22.04 95.20,41.30" fill="#8ecaba" stroke="#115e59" stroke-width="0.6"/><rect x="9.40" y="28.46" width="84.40" height="7.20" rx="1.2" ry="1.2" fill="#0f766e" fill-opacity="0.94" stroke="#115e59" stroke-width="0.35"/><text x="10.80" y="31.46" font-family="monospace" font-size="2.75" font-weight="700" fill="#f8fafc">rack-1</text><text x="10.80" y="34.36" font-family="monospace" font-size="2.15" fill="#f8fafc">1 arrangement | 5 / 24 occupied</text><text x="16.60" y="28.66" text-anchor="middle" font-family="monospace" font-size="2.4" fill="#475569">1</text><text x="30.60" y="28.66" text-anchor="middle" font-family="monospace" font-size="2.4" fill="#475569">2</text><text x="44.60" y="28.66" text-anchor="middle" font-family="monospace" font-size="2.4" fill="#475569">3</text><text x="58.60" y="28.66" text-anchor="middle" font-family="monospace" font-size="2.4" fill="#475569">4</text><text x="72.60" y="28.66" text-anchor="middle" font-family="monospace" font-size="2.4" fill="#475569">5</text><text x="86.60" y="28.66" text-anchor="middle" font-family="monospace" font-size="2.4" fill="#475569">6</text><text x="10.61" y="24.99" text-anchor="end" font-family="monospace" font-size="2.4" fill="#475569">A</text><text x="17.33" y="20.51" text-anchor="end" font-family="monospace" font-size="2.4" fill="#475569">B</text><text x="24.05" y="16.03" text-anchor="end" font-family="monospace" font-size="2.4" fill="#475569">C</text><text x="30.77" y="11.55" text-anchor="end" font-family="monospace" font-size="2.4" fill="#475569">D</text><ellipse cx="21.21" cy="24.19" rx="3.86" ry="2.21" fill="#ffffff" stroke="#475569" stroke-width="0.35"/><ellipse cx="21.21" cy="24.59" rx="3.25" ry="2.03" fill="#0f172a" fill-opacity="0.12"/><path data-rack-tube-shell="1" d="M 17.96 20.19 L 17.96 24.07 Q 21.21 25.98 24.45 24.07 L 24.45 20.19 Z" fill="#b45309" fill-opacity="0.92"/><path data-rack-tube-interface="1" d="M 17.96 24.07 Q 21.21 25.98 24.45 24.07" fill="none" stroke="#92400e" stroke-opacity="0.35" stroke-width="0.28" stroke-linecap="round"/><ellipse cx="21.21" cy="20.19" rx="3.25" ry="2.03" fill="#f59e0b" stroke="#92400e" stroke-width="0.25"/><path d="M 19.42 20.24 C 20.56 18.77, 21.69 18.77, 22.51 20.24" fill="none" stroke="#ffffff" stroke-opacity="0.35" stroke-width="0.25"/><ellipse cx="35.21" cy="24.19" rx="3.86" ry="2.21" fill="#ffffff" stroke="#475569" stroke-width="0.35"/><ellipse cx="35.21" cy="24.59" rx="3.25" ry="2.03" fill="#0f172a" fill-opacity="0.12"/><path data-rack-tube-shell="1" d="M 31.96 20.19 L 31.96 24.07 Q 35.21 25.98 38.45 24.07 L 38.45 20.19 Z" fill="#be123c" fill-opacity="0.92"/><path data-rack-tube-interface="1" d="M 31.96 24.07 Q 35.21 25.98 38.45 24.07" fill="none" stroke="#173042" stroke-opacity="0.35" stroke-width="0.28" stroke-linecap="round"/><ellipse cx="35.21" cy="20.19" rx="3.25" ry="2.03" fill="#be123c" stroke="#173042" stroke-width="0.25"/><path d="M 33.42 20.24 C 34.56 18.77, 35.69 18.77, 36.51 20.24" fill="none" stroke="#ffffff" stroke-opacity="0.35" stroke-width="0.25"/><ellipse cx="49.21" cy="24.19" rx="3.86" ry="2.21" fill="#ffffff" stroke="#475569" stroke-width="0.35"/><ellipse cx="49.21" cy="24.59" rx="3.25" ry="2.03" fill="#0f172a" fill-opacity="0.12"/><path data-rack-tube-shell="1" d="M 45.96 20.19 L 45.96 24.07 Q 49.21 25.98 52.45 24.07 L 52.45 20.19 Z" fill="#be123c" fill-opacity="0.92"/><path data-rack-tube-interface="1" d="M 45.96 24.07 Q 49.21 25.98 52.45 24.07" fill="none" stroke="#173042" stroke-opacity="0.35" stroke-width="0.28" stroke-linecap="round"/><ellipse cx="49.21" cy="20.19" rx="3.25" ry="2.03" fill="#be123c" stroke="#173042" stroke-width="0.25"/><path d="M 47.42 20.24 C 48.56 18.77, 49.69 18.77, 50.51 20.24" fill="none" stroke="#ffffff" stroke-opacity="0.35" stroke-width="0.25"/><ellipse cx="63.21" cy="24.19" rx="3.86" ry="2.21" fill="#ffffff" stroke="#475569" stroke-width="0.35"/><ellipse cx="63.21" cy="24.59" rx="3.25" ry="2.03" fill="#0f172a" fill-opacity="0.12"/><path data-rack-tube-shell="1" d="M 59.96 20.19 L 59.96 24.07 Q 63.21 25.98 66.45 24.07 L 66.45 20.19 Z" fill="#be123c" fill-opacity="0.92"/><path data-rack-tube-interface="1" d="M 59.96 24.07 Q 63.21 25.98 66.45 24.07" fill="none" stroke="#173042" stroke-opacity="0.35" stroke-width="0.28" stroke-linecap="round"/><ellipse cx="63.21" cy="20.19" rx="3.25" ry="2.03" fill="#be123c" stroke="#173042" stroke-width="0.25"/><path d="M 61.42 20.24 C 62.56 18.77, 63.69 18.77, 64.51 20.24" fill="none" stroke="#ffffff" stroke-opacity="0.35" stroke-width="0.25"/><ellipse cx="77.21" cy="24.19" rx="3.86" ry="2.21" fill="#ffffff" stroke="#475569" stroke-width="0.35"/><ellipse cx="77.21" cy="24.59" rx="3.25" ry="2.03" fill="#0f172a" fill-opacity="0.12"/><path data-rack-tube-shell="1" d="M 73.96 20.19 L 73.96 24.07 Q 77.21 25.98 80.45 24.07 L 80.45 20.19 Z" fill="#b45309" fill-opacity="0.92"/><path data-rack-tube-interface="1" d="M 73.96 24.07 Q 77.21 25.98 80.45 24.07" fill="none" stroke="#92400e" stroke-opacity="0.35" stroke-width="0.28" stroke-linecap="round"/><ellipse cx="77.21" cy="20.19" rx="3.25" ry="2.03" fill="#f59e0b" stroke="#92400e" stroke-width="0.25"/><path d="M 75.42 20.24 C 76.56 18.77, 77.69 18.77, 78.51 20.24" fill="none" stroke="#ffffff" stroke-opacity="0.35" stroke-width="0.25"/><ellipse cx="91.21" cy="24.19" rx="3.86" ry="2.21" fill="#ffffff" stroke="#475569" stroke-width="0.35"/><ellipse cx="27.93" cy="19.71" rx="3.86" ry="2.21" fill="#ffffff" stroke="#475569" stroke-width="0.35"/><ellipse cx="41.93" cy="19.71" rx="3.86" ry="2.21" fill="#ffffff" stroke="#475569" stroke-width="0.35"/><ellipse cx="55.93" cy="19.71" rx="3.86" ry="2.21" fill="#ffffff" stroke="#475569" stroke-width="0.35"/><ellipse cx="69.93" cy="19.71" rx="3.86" ry="2.21" fill="#ffffff" stroke="#475569" stroke-width="0.35"/><ellipse cx="83.93" cy="19.71" rx="3.86" ry="2.21" fill="#ffffff" stroke="#475569" stroke-width="0.35"/><ellipse cx="97.93" cy="19.71" rx="3.86" ry="2.21" fill="#ffffff" stroke="#475569" stroke-width="0.35"/><ellipse cx="34.65" cy="15.23" rx="3.86" ry="2.21" fill="#ffffff" stroke="#475569" stroke-width="0.35"/><ellipse cx="48.65" cy="15.23" rx="3.86" ry="2.21" fill="#ffffff" stroke="#475569" stroke-width="0.35"/><ellipse cx="62.65" cy="15.23" rx="3.86" ry="2.21" fill="#ffffff" stroke="#475569" stroke-width="0.35"/><ellipse cx="76.65" cy="15.23" rx="3.86" ry="2.21" fill="#ffffff" stroke="#475569" stroke-width="0.35"/><ellipse cx="90.65" cy="15.23" rx="3.86" ry="2.21" fill="#ffffff" stroke="#475569" stroke-width="0.35"/><ellipse cx="104.65" cy="15.23" rx="3.86" ry="2.21" fill="#ffffff" stroke="#475569" stroke-width="0.35"/><ellipse cx="41.37" cy="10.75" rx="3.86" ry="2.21" fill="#ffffff" stroke="#475569" stroke-width="0.35"/><ellipse cx="55.37" cy="10.75" rx="3.86" ry="2.21" fill="#ffffff" stroke="#475569" stroke-width="0.35"/><ellipse cx="69.37" cy="10.75" rx="3.86" ry="2.21" fill="#ffffff" stroke="#475569" stroke-width="0.35"/><ellipse cx="83.37" cy="10.75" rx="3.86" ry="2.21" fill="#ffffff" stroke="#475569" stroke-width="0.35"/><ellipse cx="97.37" cy="10.75" rx="3.86" ry="2.21" fill="#ffffff" stroke="#475569" stroke-width="0.35"/><ellipse cx="111.37" cy="10.75" rx="3.86" ry="2.21" fill="#ffffff" stroke="#475569" stroke-width="0.35"/><text x="132.10" y="16.00" font-family="monospace" font-size="3.0" font-weight="700" fill="#173042">Occupancy</text><rect x="132.10" y="17.00" width="4.0" height="4.0" rx="1.0" ry="1.0" fill="#be123c"/><text x="138.10" y="20.00" font-family="monospace" font-size="2.5" fill="#334155">Gibson lane set: gibson_d…</text><rect x="132.10" y="22.00" width="4.0" height="4.0" rx="1.0" ry="1.0" fill="#f59e0b"/><text x="138.10" y="25.00" font-family="monospace" font-size="2.5" fill="#334155">ladder reference</text><text x="8.00" y="61.30" font-family="monospace" font-size="2.4" fill="#64748b">template=pipetting_pcr_tube_rack | family=pipetting | positions=5</text></svg>