<svg height="582" style="background:#ffffff" viewBox="0 0 1600 582" width="1600" xmlns="http://www.w3.org/2000/svg">
<text fill="#202020" font-family="Helvetica, Arial, sans-serif" font-size="24" x="24" y="34">
GENtle Lineage (DALG)
</text>
<line stroke="#8a8a8a" stroke-width="1.2" x1="110" x2="450" y1="250" y2="510"/>
<rect fill="#f5f5f5" height="16" rx="2" stroke="#e0e0e0" width="104" x="228" y="362"/>
<text dominant-baseline="middle" fill="#222222" font-family="Helvetica, Arial, sans-serif" font-size="10" text-anchor="middle" x="280" y="374">
op-3
</text>
<line stroke="#8a8a8a" stroke-width="1.2" x1="110" x2="620" y1="250" y2="510"/>
<rect fill="#f5f5f5" height="16" rx="2" stroke="#e0e0e0" width="104" x="313" y="362"/>
<text dominant-baseline="middle" fill="#222222" font-family="Helvetica, Arial, sans-serif" font-size="10" text-anchor="middle" x="365" y="374">
op-3
</text>
<line stroke="#8a8a8a" stroke-width="1.2" x1="110" x2="790" y1="250" y2="250"/>
<rect fill="#f5f5f5" height="16" rx="2" stroke="#e0e0e0" width="104" x="398" y="232"/>
<text dominant-baseline="middle" fill="#222222" font-family="Helvetica, Arial, sans-serif" font-size="10" text-anchor="middle" x="450" y="244">
op-3
</text>
<line stroke="#8a8a8a" stroke-width="1.2" x1="280" x2="450" y1="380" y2="510"/>
<rect fill="#f5f5f5" height="16" rx="2" stroke="#e0e0e0" width="104" x="313" y="427"/>
<text dominant-baseline="middle" fill="#222222" font-family="Helvetica, Arial, sans-serif" font-size="10" text-anchor="middle" x="365" y="439">
op-3
</text>
<line stroke="#8a8a8a" stroke-width="1.2" x1="280" x2="620" y1="380" y2="510"/>
<rect fill="#f5f5f5" height="16" rx="2" stroke="#e0e0e0" width="104" x="398" y="427"/>
<text dominant-baseline="middle" fill="#222222" font-family="Helvetica, Arial, sans-serif" font-size="10" text-anchor="middle" x="450" y="439">
op-3
</text>
<line stroke="#8a8a8a" stroke-width="1.2" x1="280" x2="790" y1="380" y2="250"/>
<rect fill="#f5f5f5" height="16" rx="2" stroke="#e0e0e0" width="104" x="483" y="297"/>
<text dominant-baseline="middle" fill="#222222" font-family="Helvetica, Arial, sans-serif" font-size="10" text-anchor="middle" x="535" y="309">
op-3
</text>
<circle cx="110" cy="250" fill="#5a8cd2" r="16" stroke="#3b6aaa" stroke-width="1"/>
<text fill="#101010" font-family="Helvetica, Arial, sans-serif" font-size="12" x="134" y="248">
XXU13852
</text>
<text fill="#222222" font-family="Helvetica, Arial, sans-serif" font-size="10" x="134" y="262">
gibson_destination_pgex (4952 bp)
</text>
<circle cx="280" cy="380" fill="#5a8cd2" r="16" stroke="#3b6aaa" stroke-width="1"/>
<text fill="#101010" font-family="Helvetica, Arial, sans-serif" font-size="12" x="304" y="378">
gibson_insert_demo
</text>
<text fill="#222222" font-family="Helvetica, Arial, sans-serif" font-size="10" x="304" y="392">
gibson_insert_demo (314 bp)
</text>
<polygon fill="#b47846" points="450,492 468,510 450,528 432,510" stroke="#a05f2b" stroke-width="1"/>
<text fill="#5c4300" font-family="Helvetica, Arial, sans-serif" font-size="10" x="472" y="498">
n=3
</text>
<text fill="#101010" font-family="Helvetica, Arial, sans-serif" font-size="12" x="474" y="508">
Gibson left primer for fragment 'gibson_insert_demo'
</text>
<text fill="#222222" font-family="Helvetica, Arial, sans-serif" font-size="10" x="474" y="522">
insert_1_left_insert_primer (58 bp)
</text>
<polygon fill="#b47846" points="620,492 638,510 620,528 602,510" stroke="#a05f2b" stroke-width="1"/>
<text fill="#5c4300" font-family="Helvetica, Arial, sans-serif" font-size="10" x="642" y="498">
n=3
</text>
<text fill="#101010" font-family="Helvetica, Arial, sans-serif" font-size="12" x="644" y="508">
Gibson right primer for fragment 'gibson_insert_demo'
</text>
<text fill="#222222" font-family="Helvetica, Arial, sans-serif" font-size="10" x="644" y="522">
insert_1_right_insert_primer (58 bp)
</text>
<polygon fill="#b47846" points="790,232 808,250 790,268 772,250" stroke="#a05f2b" stroke-width="1"/>
<text fill="#5c4300" font-family="Helvetica, Arial, sans-serif" font-size="10" x="812" y="238">
n=3
</text>
<text fill="#101010" font-family="Helvetica, Arial, sans-serif" font-size="12" x="814" y="248">
Gibson assembled product: gibson_destination_pgex + gibson_insert_demo
</text>
<text fill="#222222" font-family="Helvetica, Arial, sans-serif" font-size="10" x="814" y="262">
gibson_destination_pgex_with_gibson_insert_demo (5266 bp)
</text>
</svg>