<svg xmlns="http://www.w3.org/2000/svg" width="1708" height="486" viewBox="0 0 1708 486" role="img" aria-labelledby="title desc" data-protocol-id="pcr.assay.pair.no_product"><title id="title">GENtle Protocol Cartoon: PCR Assay (report-only no-product)</title><desc id="desc">Five-step pair-PCR strip where a defined ROI remains inspectable but no accepted primer pair yields an amplicon product.</desc><defs><linearGradient id="pc_bg" x1="0" y1="0" x2="1" y2="1"><stop offset="0%" stop-color="#f5fbff"/><stop offset="100%" stop-color="#edf8f5"/></linearGradient><linearGradient id="pc_panel" x1="0" y1="0" x2="0" y2="1"><stop offset="0%" stop-color="#ffffff"/><stop offset="100%" stop-color="#f6fafb"/></linearGradient><marker id="pc_arrow" markerWidth="12" markerHeight="12" refX="9" refY="6" orient="auto"><path d="M1,1 L11,6 L1,11 Z" fill="#4e6d78"/></marker><style>.pc_title { font: 700 36px 'Avenir Next', 'Trebuchet MS', 'Segoe UI', sans-serif; fill: #0f2a36; }.pc_sub { font: 500 18px 'Avenir Next', 'Trebuchet MS', 'Segoe UI', sans-serif; fill: #36535d; }.pc_panel_title { font: 700 21px 'Avenir Next', 'Trebuchet MS', 'Segoe UI', sans-serif; fill: #123746; }.pc_panel_sub { font: 600 13px 'Avenir Next', 'Trebuchet MS', 'Segoe UI', sans-serif; fill: #3f5f68; }.pc_caption { font: 500 13px 'Avenir Next', 'Trebuchet MS', 'Segoe UI', sans-serif; fill: #466570; }.pc_mol_label { font: 600 13px 'Avenir Next', 'Trebuchet MS', 'Segoe UI', sans-serif; fill: #2d4f5b; }.pc_end_label { font: 600 11px 'Avenir Next', 'Trebuchet MS', 'Segoe UI', sans-serif; fill: #375965; }.pc_feature_marker_text { font: 700 10px 'Avenir Next', 'Trebuchet MS', 'Segoe UI', sans-serif; fill: #ffffff; }.pc_step_num { font: 700 13px 'Avenir Next', 'Trebuchet MS', 'Segoe UI', sans-serif; fill: #ffffff; }.pc_box { fill: url(#pc_panel); stroke: #c8dde3; stroke-width: 2; }.pc_link { stroke: #4e6d78; stroke-width: 3.2; marker-end: url(#pc_arrow); fill: none; }</style></defs><rect x="0" y="0" width="1708" height="486" fill="url(#pc_bg)"/><rect x="14" y="14" width="1680" height="458" rx="22" fill="none" stroke="#d4e4e8" stroke-width="2"/><text x="36.0" y="66.0" class="pc_title">GENtle Protocol Cartoon: PCR Assay (report-only no-product)</text><text x="36.0" y="94.0" class="pc_sub">Five-step pair-PCR strip where a defined ROI remains inspectable but no accepted primer pair yields an amplicon product.</text><rect class="pc_box" x="36.0" y="114.0" width="308.0" height="324.0" rx="18" data-event-id="context" data-action="Context"/><circle cx="60.0" cy="138.0" r="12" fill="#2b8ea8"/><text x="60.0" y="138.5" class="pc_step_num" text-anchor="middle" dominant-baseline="middle">1</text><text x="82.0" y="144.0" class="pc_panel_title">Context</text><text x="54.0" y="166.0" class="pc_panel_sub">Context</text><text x="54.0" y="186.0" class="pc_caption">A source template contains one user-selected</text><text x="54.0" y="202.0" class="pc_caption">ROI inside broader sequence context.</text><g data-molecule-id="template_context" data-topology="linear"><text x="52.0" y="240.0" class="pc_mol_label">Source template</text><rect x="104.4" y="254.0" width="45.8" height="8" fill="#c9b37e"/><rect x="150.3" y="254.0" width="9.2" height="8" fill="#b5476d"/><rect x="159.4" y="254.0" width="61.1" height="8" fill="#2a9d8f"/><rect x="220.6" y="254.0" width="9.2" height="8" fill="#4c5d9e"/><rect x="229.7" y="254.0" width="45.8" height="8" fill="#c9b37e"/><rect x="104.4" y="265.0" width="45.8" height="8" fill="#c9b37e"/><rect x="150.3" y="265.0" width="9.2" height="8" fill="#b5476d"/><rect x="159.4" y="265.0" width="61.1" height="8" fill="#2a9d8f"/><rect x="220.6" y="265.0" width="9.2" height="8" fill="#4c5d9e"/><rect x="229.7" y="265.0" width="45.8" height="8" fill="#c9b37e"/><line x1="154.9" y1="254.0" x2="154.9" y2="248.0" stroke="#b5476d" stroke-width="1.8"/><circle cx="154.9" cy="242.0" r="6.5" fill="#b5476d" data-feature-marker="F"/><text x="154.9" y="242.5" class="pc_feature_marker_text" text-anchor="middle" dominant-baseline="middle">F</text><line x1="225.1" y1="254.0" x2="225.1" y2="248.0" stroke="#4c5d9e" stroke-width="1.8"/><circle cx="225.1" cy="242.0" r="6.5" fill="#4c5d9e" data-feature-marker="R"/><text x="225.1" y="242.5" class="pc_feature_marker_text" text-anchor="middle" dominant-baseline="middle">R</text><path d="M 104.8 253.2 L 97.4 255.4 L 104.8 257.8 L 97.4 260.2 L 104.8 262.8 Z" fill="url(#pc_bg)"/><path d="M 104.8 264.2 L 97.4 266.4 L 104.8 268.8 L 97.4 271.2 L 104.8 273.8 Z" fill="url(#pc_bg)"/><circle cx="84.4" cy="260.0" r="1.5" fill="#88a3ad"/><circle cx="90.4" cy="262.6" r="1.5" fill="#88a3ad"/><circle cx="96.4" cy="265.2" r="1.5" fill="#88a3ad"/><path d="M 275.2 253.2 L 282.6 255.4 L 275.2 257.8 L 282.6 260.2 L 275.2 262.8 Z" fill="url(#pc_bg)"/><path d="M 275.2 264.2 L 282.6 266.4 L 275.2 268.8 L 282.6 271.2 L 275.2 273.8 Z" fill="url(#pc_bg)"/><circle cx="295.6" cy="260.0" r="1.5" fill="#88a3ad"/><circle cx="289.6" cy="262.6" r="1.5" fill="#88a3ad"/><circle cx="283.6" cy="265.2" r="1.5" fill="#88a3ad"/></g><path d="M 348.0 289.0 L 362.0 289.0" class="pc_link"/><rect class="pc_box" x="368.0" y="114.0" width="308.0" height="324.0" rx="18" data-event-id="roi" data-action="ROI"/><circle cx="392.0" cy="138.0" r="12" fill="#2b8ea8"/><text x="392.0" y="138.5" class="pc_step_num" text-anchor="middle" dominant-baseline="middle">2</text><text x="414.0" y="144.0" class="pc_panel_title">ROI</text><text x="386.0" y="166.0" class="pc_panel_sub">ROI</text><text x="386.0" y="186.0" class="pc_caption">The selected ROI remains the stable target</text><text x="386.0" y="202.0" class="pc_caption">even when no assay satisfies all constraints.</text><g data-molecule-id="template_context_targeted" data-topology="linear"><text x="384.0" y="240.0" class="pc_mol_label">Template with highlighted ROI</text><rect x="436.4" y="254.0" width="45.8" height="8" fill="#c9b37e"/><rect x="482.3" y="254.0" width="9.2" height="8" fill="#b5476d"/><rect x="491.4" y="254.0" width="61.1" height="8" fill="#2a9d8f"/><rect x="552.6" y="254.0" width="9.2" height="8" fill="#4c5d9e"/><rect x="561.7" y="254.0" width="45.8" height="8" fill="#c9b37e"/><rect x="436.4" y="265.0" width="45.8" height="8" fill="#c9b37e"/><rect x="482.3" y="265.0" width="9.2" height="8" fill="#b5476d"/><rect x="491.4" y="265.0" width="61.1" height="8" fill="#2a9d8f"/><rect x="552.6" y="265.0" width="9.2" height="8" fill="#4c5d9e"/><rect x="561.7" y="265.0" width="45.8" height="8" fill="#c9b37e"/><line x1="486.9" y1="254.0" x2="486.9" y2="248.0" stroke="#b5476d" stroke-width="1.8"/><circle cx="486.9" cy="242.0" r="6.5" fill="#b5476d" data-feature-marker="F"/><text x="486.9" y="242.5" class="pc_feature_marker_text" text-anchor="middle" dominant-baseline="middle">F</text><line x1="557.1" y1="254.0" x2="557.1" y2="248.0" stroke="#4c5d9e" stroke-width="1.8"/><circle cx="557.1" cy="242.0" r="6.5" fill="#4c5d9e" data-feature-marker="R"/><text x="557.1" y="242.5" class="pc_feature_marker_text" text-anchor="middle" dominant-baseline="middle">R</text><path d="M 436.8 253.2 L 429.4 255.4 L 436.8 257.8 L 429.4 260.2 L 436.8 262.8 Z" fill="url(#pc_bg)"/><path d="M 436.8 264.2 L 429.4 266.4 L 436.8 268.8 L 429.4 271.2 L 436.8 273.8 Z" fill="url(#pc_bg)"/><circle cx="416.4" cy="260.0" r="1.5" fill="#88a3ad"/><circle cx="422.4" cy="262.6" r="1.5" fill="#88a3ad"/><circle cx="428.4" cy="265.2" r="1.5" fill="#88a3ad"/><path d="M 607.2 253.2 L 614.6 255.4 L 607.2 257.8 L 614.6 260.2 L 607.2 262.8 Z" fill="url(#pc_bg)"/><path d="M 607.2 264.2 L 614.6 266.4 L 607.2 268.8 L 614.6 271.2 L 607.2 273.8 Z" fill="url(#pc_bg)"/><circle cx="627.6" cy="260.0" r="1.5" fill="#88a3ad"/><circle cx="621.6" cy="262.6" r="1.5" fill="#88a3ad"/><circle cx="615.6" cy="265.2" r="1.5" fill="#88a3ad"/></g><g data-molecule-id="selected_roi" data-topology="linear"><text x="384.0" y="312.0" class="pc_mol_label">Selected ROI</text><text x="384.0" y="360.0" class="pc_end_label" text-anchor="start">blunt</text><text x="658.0" y="360.0" class="pc_end_label" text-anchor="end">blunt</text><rect x="436.4" y="326.0" width="171.1" height="8" fill="#2a9d8f"/><rect x="436.4" y="337.0" width="171.1" height="8" fill="#2a9d8f"/></g><path d="M 680.0 289.0 L 694.0 289.0" class="pc_link"/><rect class="pc_box" x="700.0" y="114.0" width="308.0" height="324.0" rx="18" data-event-id="assay_setup" data-action="Assay Setup"/><circle cx="724.0" cy="138.0" r="12" fill="#2b8ea8"/><text x="724.0" y="138.5" class="pc_step_num" text-anchor="middle" dominant-baseline="middle">3</text><text x="746.0" y="144.0" class="pc_panel_title">Assay Setup</text><text x="718.0" y="166.0" class="pc_panel_sub">Assay Setup</text><text x="718.0" y="186.0" class="pc_caption">One primer-pair design attempt still brackets</text><text x="718.0" y="202.0" class="pc_caption">the ROI conceptually, but downstream</text><text x="718.0" y="218.0" class="pc_caption">constraint checks can reject every candidate.</text><g data-molecule-id="planned_amplicon" data-topology="linear"><text x="716.0" y="240.0" class="pc_mol_label">Planned amplicon</text><text x="716.0" y="288.0" class="pc_end_label" text-anchor="start">blunt</text><text x="990.0" y="288.0" class="pc_end_label" text-anchor="end">blunt</text><rect x="768.4" y="254.0" width="15.1" height="8" fill="#b5476d"/><rect x="783.5" y="254.0" width="20.1" height="8" fill="#e07a5f"/><rect x="803.7" y="254.0" width="100.7" height="8" fill="#2a9d8f"/><rect x="904.3" y="254.0" width="20.1" height="8" fill="#e07a5f"/><rect x="924.5" y="254.0" width="15.1" height="8" fill="#4c5d9e"/><rect x="768.4" y="265.0" width="15.1" height="8" fill="#b5476d"/><rect x="783.5" y="265.0" width="20.1" height="8" fill="#e07a5f"/><rect x="803.7" y="265.0" width="100.7" height="8" fill="#2a9d8f"/><rect x="904.3" y="265.0" width="20.1" height="8" fill="#e07a5f"/><rect x="924.5" y="265.0" width="15.1" height="8" fill="#4c5d9e"/><line x1="776.0" y1="254.0" x2="776.0" y2="248.0" stroke="#b5476d" stroke-width="1.8"/><circle cx="776.0" cy="242.0" r="6.5" fill="#b5476d" data-feature-marker="F"/><text x="776.0" y="242.5" class="pc_feature_marker_text" text-anchor="middle" dominant-baseline="middle">F</text><line x1="932.0" y1="254.0" x2="932.0" y2="248.0" stroke="#4c5d9e" stroke-width="1.8"/><circle cx="932.0" cy="242.0" r="6.5" fill="#4c5d9e" data-feature-marker="R"/><text x="932.0" y="242.5" class="pc_feature_marker_text" text-anchor="middle" dominant-baseline="middle">R</text></g><path d="M 1012.0 289.0 L 1026.0 289.0" class="pc_link"/><rect class="pc_box" x="1032.0" y="114.0" width="308.0" height="324.0" rx="18" data-event-id="review" data-action="Review"/><circle cx="1056.0" cy="138.0" r="12" fill="#2b8ea8"/><text x="1056.0" y="138.5" class="pc_step_num" text-anchor="middle" dominant-baseline="middle">4</text><text x="1078.0" y="144.0" class="pc_panel_title">Review</text><text x="1050.0" y="166.0" class="pc_panel_sub">Review</text><text x="1050.0" y="186.0" class="pc_caption">Constraint checks exhaust the candidate space,</text><text x="1050.0" y="202.0" class="pc_caption">so the workflow keeps an explanation report</text><text x="1050.0" y="218.0" class="pc_caption">even though no accepted primer pair remains.</text><g data-molecule-id="selected_roi_under_review" data-topology="linear"><text x="1048.0" y="240.0" class="pc_mol_label">ROI retained for review</text><text x="1048.0" y="288.0" class="pc_end_label" text-anchor="start">blunt</text><text x="1322.0" y="288.0" class="pc_end_label" text-anchor="end">blunt</text><rect x="1100.4" y="254.0" width="171.1" height="8" fill="#2a9d8f"/><rect x="1100.4" y="265.0" width="171.1" height="8" fill="#2a9d8f"/></g><path d="M 1344.0 289.0 L 1358.0 289.0" class="pc_link"/><rect class="pc_box" x="1364.0" y="114.0" width="308.0" height="324.0" rx="18" data-event-id="report_only" data-action="Report"/><circle cx="1388.0" cy="138.0" r="12" fill="#2b8ea8"/><text x="1388.0" y="138.5" class="pc_step_num" text-anchor="middle" dominant-baseline="middle">5</text><text x="1410.0" y="144.0" class="pc_panel_title">Report Only</text><text x="1382.0" y="166.0" class="pc_panel_sub">Report</text><text x="1382.0" y="186.0" class="pc_caption">No amplicon product is emitted; users inspect</text><text x="1382.0" y="202.0" class="pc_caption">the retained ROI context and the failure</text><text x="1382.0" y="218.0" class="pc_caption">report rather than a product container.</text><g data-molecule-id="selected_roi_report_only" data-topology="linear"><text x="1380.0" y="240.0" class="pc_mol_label">ROI retained for report</text><text x="1380.0" y="288.0" class="pc_end_label" text-anchor="start">blunt</text><text x="1654.0" y="288.0" class="pc_end_label" text-anchor="end">blunt</text><rect x="1432.4" y="254.0" width="171.1" height="8" fill="#2a9d8f"/><rect x="1432.4" y="265.0" width="171.1" height="8" fill="#2a9d8f"/></g><text x="36.0" y="470.0" class="pc_caption">Model: event-sequence abstraction (features + overhangs + topology) | deterministic SVG export.</text></svg>