<svg xmlns="http://www.w3.org/2000/svg" width="1708" height="486" viewBox="0 0 1708 486" role="img" aria-labelledby="title desc" data-protocol-id="pcr.assay.pair"><title id="title">GENtle Protocol Cartoon: PCR Assay (pair-primer baseline)</title><desc id="desc">Five-step pair-PCR strip from source template to selected ROI, assay setup, amplification, and amplicon/report outcome.</desc><defs><linearGradient id="pc_bg" x1="0" y1="0" x2="1" y2="1"><stop offset="0%" stop-color="#f5fbff"/><stop offset="100%" stop-color="#edf8f5"/></linearGradient><linearGradient id="pc_panel" x1="0" y1="0" x2="0" y2="1"><stop offset="0%" stop-color="#ffffff"/><stop offset="100%" stop-color="#f6fafb"/></linearGradient><marker id="pc_arrow" markerWidth="12" markerHeight="12" refX="9" refY="6" orient="auto"><path d="M1,1 L11,6 L1,11 Z" fill="#4e6d78"/></marker><style>.pc_title { font: 700 36px 'Avenir Next', 'Trebuchet MS', 'Segoe UI', sans-serif; fill: #0f2a36; }.pc_sub { font: 500 18px 'Avenir Next', 'Trebuchet MS', 'Segoe UI', sans-serif; fill: #36535d; }.pc_panel_title { font: 700 21px 'Avenir Next', 'Trebuchet MS', 'Segoe UI', sans-serif; fill: #123746; }.pc_panel_sub { font: 600 13px 'Avenir Next', 'Trebuchet MS', 'Segoe UI', sans-serif; fill: #3f5f68; }.pc_caption { font: 500 13px 'Avenir Next', 'Trebuchet MS', 'Segoe UI', sans-serif; fill: #466570; }.pc_mol_label { font: 600 13px 'Avenir Next', 'Trebuchet MS', 'Segoe UI', sans-serif; fill: #2d4f5b; }.pc_end_label { font: 600 11px 'Avenir Next', 'Trebuchet MS', 'Segoe UI', sans-serif; fill: #375965; }.pc_feature_marker_text { font: 700 10px 'Avenir Next', 'Trebuchet MS', 'Segoe UI', sans-serif; fill: #ffffff; }.pc_primer_label { font: 700 10px 'Avenir Next', 'Trebuchet MS', 'Segoe UI', sans-serif; fill: #ffffff; }.pc_primer_end_label { font: 600 9px 'Avenir Next', 'Trebuchet MS', 'Segoe UI', sans-serif; fill: #375965; }.pc_step_num { font: 700 13px 'Avenir Next', 'Trebuchet MS', 'Segoe UI', sans-serif; fill: #ffffff; }.pc_box { fill: url(#pc_panel); stroke: #c8dde3; stroke-width: 2; }.pc_link { stroke: #4e6d78; stroke-width: 3.2; marker-end: url(#pc_arrow); fill: none; }</style></defs><rect x="0" y="0" width="1708" height="486" fill="url(#pc_bg)"/><rect x="14" y="14" width="1680" height="458" rx="22" fill="none" stroke="#d4e4e8" stroke-width="2"/><text x="36.0" y="66.0" class="pc_title">GENtle Protocol Cartoon: PCR Assay (pair-primer baseline)</text><text x="36.0" y="94.0" class="pc_sub">Five-step pair-PCR strip from source template to selected ROI, assay setup, amplification, and amplicon/report outcome.</text><rect class="pc_box" x="36.0" y="114.0" width="308.0" height="324.0" rx="18" data-event-id="context" data-action="Context"/><circle cx="60.0" cy="138.0" r="12" fill="#2b8ea8"/><text x="60.0" y="138.5" class="pc_step_num" text-anchor="middle" dominant-baseline="middle">1</text><text x="82.0" y="144.0" class="pc_panel_title">Context</text><text x="54.0" y="166.0" class="pc_panel_sub">Context</text><text x="54.0" y="186.0" class="pc_caption">A source template contains one user-selected</text><text x="54.0" y="202.0" class="pc_caption">ROI inside broader sequence context.</text><g data-molecule-id="template_context" data-topology="linear"><text x="52.0" y="240.0" class="pc_mol_label">Source template</text><rect x="104.4" y="254.0" width="45.8" height="8" fill="#c9b37e"/><rect x="150.3" y="254.0" width="9.2" height="8" fill="#b5476d"/><rect x="159.4" y="254.0" width="61.1" height="8" fill="#2a9d8f"/><rect x="220.6" y="254.0" width="9.2" height="8" fill="#4c5d9e"/><rect x="229.7" y="254.0" width="45.8" height="8" fill="#c9b37e"/><rect x="104.4" y="265.0" width="45.8" height="8" fill="#c9b37e"/><rect x="150.3" y="265.0" width="9.2" height="8" fill="#b5476d"/><rect x="159.4" y="265.0" width="61.1" height="8" fill="#2a9d8f"/><rect x="220.6" y="265.0" width="9.2" height="8" fill="#4c5d9e"/><rect x="229.7" y="265.0" width="45.8" height="8" fill="#c9b37e"/><g data-primer-glyph="F" data-primer-anchor="top" data-primer-rotation="0"><line x1="154.9" y1="254.0" x2="154.9" y2="252.0" stroke="#b5476d" stroke-width="1.4"/><rect x="144.9" y="246.0" width="20.0" height="5.0" rx="2.2" fill="#b5476d" stroke="#b5476d" stroke-width="0.8"/><text x="154.9" y="248.9" class="pc_primer_label" text-anchor="middle" dominant-baseline="middle">F</text><text x="141.4" y="242.5" class="pc_primer_end_label" text-anchor="end" dominant-baseline="middle">5&apos;</text><text x="168.4" y="242.5" class="pc_primer_end_label" text-anchor="start" dominant-baseline="middle">3&apos;</text></g><g data-primer-glyph="R" data-primer-anchor="bottom" data-primer-rotation="180" transform="rotate(180 225.1 265.0)"><line x1="225.1" y1="265.0" x2="225.1" y2="263.0" stroke="#4c5d9e" stroke-width="1.4"/><rect x="215.1" y="257.0" width="20.0" height="5.0" rx="2.2" fill="#4c5d9e" stroke="#4c5d9e" stroke-width="0.8"/><text x="225.1" y="259.9" class="pc_primer_label" text-anchor="middle" dominant-baseline="middle">R</text><text x="211.6" y="253.5" class="pc_primer_end_label" text-anchor="end" dominant-baseline="middle">5&apos;</text><text x="238.6" y="253.5" class="pc_primer_end_label" text-anchor="start" dominant-baseline="middle">3&apos;</text></g><path d="M 104.8 253.2 L 97.4 255.4 L 104.8 257.8 L 97.4 260.2 L 104.8 262.8 Z" fill="url(#pc_bg)"/><path d="M 104.8 264.2 L 97.4 266.4 L 104.8 268.8 L 97.4 271.2 L 104.8 273.8 Z" fill="url(#pc_bg)"/><circle cx="84.4" cy="260.0" r="1.5" fill="#88a3ad"/><circle cx="90.4" cy="262.6" r="1.5" fill="#88a3ad"/><circle cx="96.4" cy="265.2" r="1.5" fill="#88a3ad"/><path d="M 275.2 253.2 L 282.6 255.4 L 275.2 257.8 L 282.6 260.2 L 275.2 262.8 Z" fill="url(#pc_bg)"/><path d="M 275.2 264.2 L 282.6 266.4 L 275.2 268.8 L 282.6 271.2 L 275.2 273.8 Z" fill="url(#pc_bg)"/><circle cx="295.6" cy="260.0" r="1.5" fill="#88a3ad"/><circle cx="289.6" cy="262.6" r="1.5" fill="#88a3ad"/><circle cx="283.6" cy="265.2" r="1.5" fill="#88a3ad"/></g><path d="M 348.0 289.0 L 362.0 289.0" class="pc_link"/><rect class="pc_box" x="368.0" y="114.0" width="308.0" height="324.0" rx="18" data-event-id="roi" data-action="ROI"/><circle cx="392.0" cy="138.0" r="12" fill="#2b8ea8"/><text x="392.0" y="138.5" class="pc_step_num" text-anchor="middle" dominant-baseline="middle">2</text><text x="414.0" y="144.0" class="pc_panel_title">ROI</text><text x="386.0" y="166.0" class="pc_panel_sub">ROI</text><text x="386.0" y="186.0" class="pc_caption">The assay narrows to the selected region of</text><text x="386.0" y="202.0" class="pc_caption">interest; the same ROI can also be extracted</text><text x="386.0" y="218.0" class="pc_caption">as a copy artifact elsewhere in the workflow.</text><g data-molecule-id="template_context_targeted" data-topology="linear"><text x="384.0" y="240.0" class="pc_mol_label">Template with highlighted ROI</text><rect x="436.4" y="254.0" width="45.8" height="8" fill="#c9b37e"/><rect x="482.3" y="254.0" width="9.2" height="8" fill="#b5476d"/><rect x="491.4" y="254.0" width="61.1" height="8" fill="#2a9d8f"/><rect x="552.6" y="254.0" width="9.2" height="8" fill="#4c5d9e"/><rect x="561.7" y="254.0" width="45.8" height="8" fill="#c9b37e"/><rect x="436.4" y="265.0" width="45.8" height="8" fill="#c9b37e"/><rect x="482.3" y="265.0" width="9.2" height="8" fill="#b5476d"/><rect x="491.4" y="265.0" width="61.1" height="8" fill="#2a9d8f"/><rect x="552.6" y="265.0" width="9.2" height="8" fill="#4c5d9e"/><rect x="561.7" y="265.0" width="45.8" height="8" fill="#c9b37e"/><g data-primer-glyph="F" data-primer-anchor="top" data-primer-rotation="0"><line x1="486.9" y1="254.0" x2="486.9" y2="252.0" stroke="#b5476d" stroke-width="1.4"/><rect x="476.9" y="246.0" width="20.0" height="5.0" rx="2.2" fill="#b5476d" stroke="#b5476d" stroke-width="0.8"/><text x="486.9" y="248.9" class="pc_primer_label" text-anchor="middle" dominant-baseline="middle">F</text><text x="473.4" y="242.5" class="pc_primer_end_label" text-anchor="end" dominant-baseline="middle">5&apos;</text><text x="500.4" y="242.5" class="pc_primer_end_label" text-anchor="start" dominant-baseline="middle">3&apos;</text></g><g data-primer-glyph="R" data-primer-anchor="bottom" data-primer-rotation="180" transform="rotate(180 557.1 265.0)"><line x1="557.1" y1="265.0" x2="557.1" y2="263.0" stroke="#4c5d9e" stroke-width="1.4"/><rect x="547.1" y="257.0" width="20.0" height="5.0" rx="2.2" fill="#4c5d9e" stroke="#4c5d9e" stroke-width="0.8"/><text x="557.1" y="259.9" class="pc_primer_label" text-anchor="middle" dominant-baseline="middle">R</text><text x="543.6" y="253.5" class="pc_primer_end_label" text-anchor="end" dominant-baseline="middle">5&apos;</text><text x="570.6" y="253.5" class="pc_primer_end_label" text-anchor="start" dominant-baseline="middle">3&apos;</text></g><path d="M 436.8 253.2 L 429.4 255.4 L 436.8 257.8 L 429.4 260.2 L 436.8 262.8 Z" fill="url(#pc_bg)"/><path d="M 436.8 264.2 L 429.4 266.4 L 436.8 268.8 L 429.4 271.2 L 436.8 273.8 Z" fill="url(#pc_bg)"/><circle cx="416.4" cy="260.0" r="1.5" fill="#88a3ad"/><circle cx="422.4" cy="262.6" r="1.5" fill="#88a3ad"/><circle cx="428.4" cy="265.2" r="1.5" fill="#88a3ad"/><path d="M 607.2 253.2 L 614.6 255.4 L 607.2 257.8 L 614.6 260.2 L 607.2 262.8 Z" fill="url(#pc_bg)"/><path d="M 607.2 264.2 L 614.6 266.4 L 607.2 268.8 L 614.6 271.2 L 607.2 273.8 Z" fill="url(#pc_bg)"/><circle cx="627.6" cy="260.0" r="1.5" fill="#88a3ad"/><circle cx="621.6" cy="262.6" r="1.5" fill="#88a3ad"/><circle cx="615.6" cy="265.2" r="1.5" fill="#88a3ad"/></g><g data-molecule-id="selected_roi" data-topology="linear"><text x="384.0" y="312.0" class="pc_mol_label">Selected ROI</text><text x="384.0" y="360.0" class="pc_end_label" text-anchor="start">blunt</text><text x="658.0" y="360.0" class="pc_end_label" text-anchor="end">blunt</text><rect x="436.4" y="326.0" width="171.1" height="8" fill="#2a9d8f"/><rect x="436.4" y="337.0" width="171.1" height="8" fill="#2a9d8f"/></g><path d="M 680.0 289.0 L 694.0 289.0" class="pc_link"/><rect class="pc_box" x="700.0" y="114.0" width="308.0" height="324.0" rx="18" data-event-id="assay_setup" data-action="Assay Setup"/><circle cx="724.0" cy="138.0" r="12" fill="#2b8ea8"/><text x="724.0" y="138.5" class="pc_step_num" text-anchor="middle" dominant-baseline="middle">3</text><text x="746.0" y="144.0" class="pc_panel_title">Assay Setup</text><text x="718.0" y="166.0" class="pc_panel_sub">Assay Setup</text><text x="718.0" y="186.0" class="pc_caption">One primer pair is planned to bracket the ROI</text><text x="718.0" y="202.0" class="pc_caption">with short assay-defined flanks; primer</text><text x="718.0" y="218.0" class="pc_caption">sequences remain inspectable in the report</text><g data-molecule-id="planned_amplicon" data-topology="linear"><text x="716.0" y="240.0" class="pc_mol_label">Planned amplicon</text><text x="716.0" y="288.0" class="pc_end_label" text-anchor="start">blunt</text><text x="990.0" y="288.0" class="pc_end_label" text-anchor="end">blunt</text><rect x="768.4" y="254.0" width="15.1" height="8" fill="#b5476d"/><rect x="783.5" y="254.0" width="20.1" height="8" fill="#e07a5f"/><rect x="803.7" y="254.0" width="100.7" height="8" fill="#2a9d8f"/><rect x="904.3" y="254.0" width="20.1" height="8" fill="#e07a5f"/><rect x="924.5" y="254.0" width="15.1" height="8" fill="#4c5d9e"/><rect x="768.4" y="265.0" width="15.1" height="8" fill="#b5476d"/><rect x="783.5" y="265.0" width="20.1" height="8" fill="#e07a5f"/><rect x="803.7" y="265.0" width="100.7" height="8" fill="#2a9d8f"/><rect x="904.3" y="265.0" width="20.1" height="8" fill="#e07a5f"/><rect x="924.5" y="265.0" width="15.1" height="8" fill="#4c5d9e"/><g data-primer-glyph="F" data-primer-anchor="top" data-primer-rotation="0"><line x1="776.0" y1="254.0" x2="776.0" y2="252.0" stroke="#b5476d" stroke-width="1.4"/><rect x="766.0" y="246.0" width="20.0" height="5.0" rx="2.2" fill="#b5476d" stroke="#b5476d" stroke-width="0.8"/><text x="776.0" y="248.9" class="pc_primer_label" text-anchor="middle" dominant-baseline="middle">F</text><text x="762.5" y="242.5" class="pc_primer_end_label" text-anchor="end" dominant-baseline="middle">5&apos;</text><text x="789.5" y="242.5" class="pc_primer_end_label" text-anchor="start" dominant-baseline="middle">3&apos;</text></g><g data-primer-glyph="R" data-primer-anchor="bottom" data-primer-rotation="180" transform="rotate(180 932.0 265.0)"><line x1="932.0" y1="265.0" x2="932.0" y2="263.0" stroke="#4c5d9e" stroke-width="1.4"/><rect x="922.0" y="257.0" width="20.0" height="5.0" rx="2.2" fill="#4c5d9e" stroke="#4c5d9e" stroke-width="0.8"/><text x="932.0" y="259.9" class="pc_primer_label" text-anchor="middle" dominant-baseline="middle">R</text><text x="918.5" y="253.5" class="pc_primer_end_label" text-anchor="end" dominant-baseline="middle">5&apos;</text><text x="945.5" y="253.5" class="pc_primer_end_label" text-anchor="start" dominant-baseline="middle">3&apos;</text></g></g><path d="M 1012.0 289.0 L 1026.0 289.0" class="pc_link"/><rect class="pc_box" x="1032.0" y="114.0" width="308.0" height="324.0" rx="18" data-event-id="amplify" data-action="Amplify"/><circle cx="1056.0" cy="138.0" r="12" fill="#2b8ea8"/><text x="1056.0" y="138.5" class="pc_step_num" text-anchor="middle" dominant-baseline="middle">4</text><text x="1078.0" y="144.0" class="pc_panel_title">Amplify</text><text x="1050.0" y="166.0" class="pc_panel_sub">Amplify</text><text x="1050.0" y="186.0" class="pc_caption">Thermocycling enriches the bracketed segment,</text><text x="1050.0" y="202.0" class="pc_caption">turning the planned ROI into one amplicon</text><text x="1050.0" y="218.0" class="pc_caption">product class.</text><g data-molecule-id="template_source_during_pcr" data-topology="linear"><text x="1048.0" y="240.0" class="pc_mol_label">Template source</text><rect x="1100.4" y="254.0" width="45.8" height="8" fill="#c9b37e"/><rect x="1146.3" y="254.0" width="9.2" height="8" fill="#b5476d"/><rect x="1155.4" y="254.0" width="61.1" height="8" fill="#2a9d8f"/><rect x="1216.6" y="254.0" width="9.2" height="8" fill="#4c5d9e"/><rect x="1225.7" y="254.0" width="45.8" height="8" fill="#c9b37e"/><rect x="1100.4" y="265.0" width="45.8" height="8" fill="#c9b37e"/><rect x="1146.3" y="265.0" width="9.2" height="8" fill="#b5476d"/><rect x="1155.4" y="265.0" width="61.1" height="8" fill="#2a9d8f"/><rect x="1216.6" y="265.0" width="9.2" height="8" fill="#4c5d9e"/><rect x="1225.7" y="265.0" width="45.8" height="8" fill="#c9b37e"/><g data-primer-glyph="F" data-primer-anchor="top" data-primer-rotation="0"><line x1="1150.9" y1="254.0" x2="1150.9" y2="252.0" stroke="#b5476d" stroke-width="1.4"/><rect x="1140.9" y="246.0" width="20.0" height="5.0" rx="2.2" fill="#b5476d" stroke="#b5476d" stroke-width="0.8"/><text x="1150.9" y="248.9" class="pc_primer_label" text-anchor="middle" dominant-baseline="middle">F</text><text x="1137.4" y="242.5" class="pc_primer_end_label" text-anchor="end" dominant-baseline="middle">5&apos;</text><text x="1164.4" y="242.5" class="pc_primer_end_label" text-anchor="start" dominant-baseline="middle">3&apos;</text></g><g data-primer-glyph="R" data-primer-anchor="bottom" data-primer-rotation="180" transform="rotate(180 1221.1 265.0)"><line x1="1221.1" y1="265.0" x2="1221.1" y2="263.0" stroke="#4c5d9e" stroke-width="1.4"/><rect x="1211.1" y="257.0" width="20.0" height="5.0" rx="2.2" fill="#4c5d9e" stroke="#4c5d9e" stroke-width="0.8"/><text x="1221.1" y="259.9" class="pc_primer_label" text-anchor="middle" dominant-baseline="middle">R</text><text x="1207.6" y="253.5" class="pc_primer_end_label" text-anchor="end" dominant-baseline="middle">5&apos;</text><text x="1234.6" y="253.5" class="pc_primer_end_label" text-anchor="start" dominant-baseline="middle">3&apos;</text></g><path d="M 1100.8 253.2 L 1093.4 255.4 L 1100.8 257.8 L 1093.4 260.2 L 1100.8 262.8 Z" fill="url(#pc_bg)"/><path d="M 1100.8 264.2 L 1093.4 266.4 L 1100.8 268.8 L 1093.4 271.2 L 1100.8 273.8 Z" fill="url(#pc_bg)"/><circle cx="1080.4" cy="260.0" r="1.5" fill="#88a3ad"/><circle cx="1086.4" cy="262.6" r="1.5" fill="#88a3ad"/><circle cx="1092.4" cy="265.2" r="1.5" fill="#88a3ad"/><path d="M 1271.2 253.2 L 1278.6 255.4 L 1271.2 257.8 L 1278.6 260.2 L 1271.2 262.8 Z" fill="url(#pc_bg)"/><path d="M 1271.2 264.2 L 1278.6 266.4 L 1271.2 268.8 L 1278.6 271.2 L 1271.2 273.8 Z" fill="url(#pc_bg)"/><circle cx="1291.6" cy="260.0" r="1.5" fill="#88a3ad"/><circle cx="1285.6" cy="262.6" r="1.5" fill="#88a3ad"/><circle cx="1279.6" cy="265.2" r="1.5" fill="#88a3ad"/></g><g data-molecule-id="amplicon_class" data-topology="linear"><text x="1048.0" y="312.0" class="pc_mol_label">Amplicon class</text><text x="1048.0" y="360.0" class="pc_end_label" text-anchor="start">blunt</text><text x="1322.0" y="360.0" class="pc_end_label" text-anchor="end">blunt</text><rect x="1100.4" y="326.0" width="15.1" height="8" fill="#b5476d"/><rect x="1115.5" y="326.0" width="20.1" height="8" fill="#e07a5f"/><rect x="1135.7" y="326.0" width="100.7" height="8" fill="#2a9d8f"/><rect x="1236.3" y="326.0" width="20.1" height="8" fill="#e07a5f"/><rect x="1256.5" y="326.0" width="15.1" height="8" fill="#4c5d9e"/><rect x="1100.4" y="337.0" width="15.1" height="8" fill="#b5476d"/><rect x="1115.5" y="337.0" width="20.1" height="8" fill="#e07a5f"/><rect x="1135.7" y="337.0" width="100.7" height="8" fill="#2a9d8f"/><rect x="1236.3" y="337.0" width="20.1" height="8" fill="#e07a5f"/><rect x="1256.5" y="337.0" width="15.1" height="8" fill="#4c5d9e"/><g data-primer-glyph="F" data-primer-anchor="top" data-primer-rotation="0"><line x1="1108.0" y1="326.0" x2="1108.0" y2="324.0" stroke="#b5476d" stroke-width="1.4"/><rect x="1098.0" y="318.0" width="20.0" height="5.0" rx="2.2" fill="#b5476d" stroke="#b5476d" stroke-width="0.8"/><text x="1108.0" y="320.9" class="pc_primer_label" text-anchor="middle" dominant-baseline="middle">F</text><text x="1094.5" y="314.5" class="pc_primer_end_label" text-anchor="end" dominant-baseline="middle">5&apos;</text><text x="1121.5" y="314.5" class="pc_primer_end_label" text-anchor="start" dominant-baseline="middle">3&apos;</text></g><g data-primer-glyph="R" data-primer-anchor="bottom" data-primer-rotation="180" transform="rotate(180 1264.0 337.0)"><line x1="1264.0" y1="337.0" x2="1264.0" y2="335.0" stroke="#4c5d9e" stroke-width="1.4"/><rect x="1254.0" y="329.0" width="20.0" height="5.0" rx="2.2" fill="#4c5d9e" stroke="#4c5d9e" stroke-width="0.8"/><text x="1264.0" y="331.9" class="pc_primer_label" text-anchor="middle" dominant-baseline="middle">R</text><text x="1250.5" y="325.5" class="pc_primer_end_label" text-anchor="end" dominant-baseline="middle">5&apos;</text><text x="1277.5" y="325.5" class="pc_primer_end_label" text-anchor="start" dominant-baseline="middle">3&apos;</text></g></g><path d="M 1344.0 289.0 L 1358.0 289.0" class="pc_link"/><rect class="pc_box" x="1364.0" y="114.0" width="308.0" height="324.0" rx="18" data-event-id="product" data-action="Product"/><circle cx="1388.0" cy="138.0" r="12" fill="#2b8ea8"/><text x="1388.0" y="138.5" class="pc_step_num" text-anchor="middle" dominant-baseline="middle">5</text><text x="1410.0" y="144.0" class="pc_panel_title">Product</text><text x="1382.0" y="166.0" class="pc_panel_sub">Product</text><text x="1382.0" y="186.0" class="pc_caption">The accepted primer pair yields one</text><text x="1382.0" y="202.0" class="pc_caption">inspectable amplicon artifact and one linked</text><text x="1382.0" y="218.0" class="pc_caption">report or primer-pair container downstream.</text><g data-molecule-id="accepted_amplicon" data-topology="linear"><text x="1380.0" y="240.0" class="pc_mol_label">Accepted amplicon</text><text x="1380.0" y="288.0" class="pc_end_label" text-anchor="start">blunt</text><text x="1654.0" y="288.0" class="pc_end_label" text-anchor="end">blunt</text><rect x="1432.4" y="254.0" width="15.1" height="8" fill="#b5476d"/><rect x="1447.5" y="254.0" width="20.1" height="8" fill="#e07a5f"/><rect x="1467.7" y="254.0" width="100.7" height="8" fill="#2a9d8f"/><rect x="1568.3" y="254.0" width="20.1" height="8" fill="#e07a5f"/><rect x="1588.5" y="254.0" width="15.1" height="8" fill="#4c5d9e"/><rect x="1432.4" y="265.0" width="15.1" height="8" fill="#b5476d"/><rect x="1447.5" y="265.0" width="20.1" height="8" fill="#e07a5f"/><rect x="1467.7" y="265.0" width="100.7" height="8" fill="#2a9d8f"/><rect x="1568.3" y="265.0" width="20.1" height="8" fill="#e07a5f"/><rect x="1588.5" y="265.0" width="15.1" height="8" fill="#4c5d9e"/><g data-primer-glyph="F" data-primer-anchor="top" data-primer-rotation="0"><line x1="1440.0" y1="254.0" x2="1440.0" y2="252.0" stroke="#b5476d" stroke-width="1.4"/><rect x="1430.0" y="246.0" width="20.0" height="5.0" rx="2.2" fill="#b5476d" stroke="#b5476d" stroke-width="0.8"/><text x="1440.0" y="248.9" class="pc_primer_label" text-anchor="middle" dominant-baseline="middle">F</text><text x="1426.5" y="242.5" class="pc_primer_end_label" text-anchor="end" dominant-baseline="middle">5&apos;</text><text x="1453.5" y="242.5" class="pc_primer_end_label" text-anchor="start" dominant-baseline="middle">3&apos;</text></g><g data-primer-glyph="R" data-primer-anchor="bottom" data-primer-rotation="180" transform="rotate(180 1596.0 265.0)"><line x1="1596.0" y1="265.0" x2="1596.0" y2="263.0" stroke="#4c5d9e" stroke-width="1.4"/><rect x="1586.0" y="257.0" width="20.0" height="5.0" rx="2.2" fill="#4c5d9e" stroke="#4c5d9e" stroke-width="0.8"/><text x="1596.0" y="259.9" class="pc_primer_label" text-anchor="middle" dominant-baseline="middle">R</text><text x="1582.5" y="253.5" class="pc_primer_end_label" text-anchor="end" dominant-baseline="middle">5&apos;</text><text x="1609.5" y="253.5" class="pc_primer_end_label" text-anchor="start" dominant-baseline="middle">3&apos;</text></g></g><text x="36.0" y="470.0" class="pc_caption">Model: event-sequence abstraction (features + overhangs + topology) | deterministic SVG export.</text></svg>