<svg xmlns="http://www.w3.org/2000/svg" width="2040" height="486" viewBox="0 0 2040 486" role="img" aria-labelledby="title desc" data-protocol-id="pcr.oe.substitution"><title id="title">OE-PCR Figures 1-6: Setup, Primer Design, First PCR, Denature, Anneal, Fill</title><desc id="desc">Figure 1 defines target + insert context with outer primers a/f. Figure 2 places all six primers (a-f) with chimeric overhang intent. Figure 3 shows first-step PCR products AB, CD, and EF. Figure 4 denatures to single strands. Figure 5 anneals 9-nt overlaps into one hybrid template. Figure 6 shows polymerase gap filling before second-step amplification with a/f.</desc><defs><linearGradient id="pc_bg" x1="0" y1="0" x2="1" y2="1"><stop offset="0%" stop-color="#f5fbff"/><stop offset="100%" stop-color="#edf8f5"/></linearGradient><linearGradient id="pc_panel" x1="0" y1="0" x2="0" y2="1"><stop offset="0%" stop-color="#ffffff"/><stop offset="100%" stop-color="#f6fafb"/></linearGradient><marker id="pc_arrow" markerWidth="12" markerHeight="12" refX="9" refY="6" orient="auto"><path d="M1,1 L11,6 L1,11 Z" fill="#4e6d78"/></marker><style>.pc_title { font: 700 36px 'Avenir Next', 'Trebuchet MS', 'Segoe UI', sans-serif; fill: #0f2a36; }.pc_sub { font: 500 18px 'Avenir Next', 'Trebuchet MS', 'Segoe UI', sans-serif; fill: #36535d; }.pc_panel_title { font: 700 21px 'Avenir Next', 'Trebuchet MS', 'Segoe UI', sans-serif; fill: #123746; }.pc_panel_sub { font: 600 13px 'Avenir Next', 'Trebuchet MS', 'Segoe UI', sans-serif; fill: #3f5f68; }.pc_caption { font: 500 13px 'Avenir Next', 'Trebuchet MS', 'Segoe UI', sans-serif; fill: #466570; }.pc_mol_label { font: 600 13px 'Avenir Next', 'Trebuchet MS', 'Segoe UI', sans-serif; fill: #2d4f5b; }.pc_end_label { font: 600 10px 'Avenir Next', 'Trebuchet MS', 'Segoe UI', sans-serif; fill: #375965; }.pc_feature_marker_text { font: 700 10px 'Avenir Next', 'Trebuchet MS', 'Segoe UI', sans-serif; fill: #ffffff; }.pc_primer_label { font: 700 10px 'Avenir Next', 'Trebuchet MS', 'Segoe UI', sans-serif; fill: #ffffff; }.pc_primer_end_label { font: 600 9px 'Avenir Next', 'Trebuchet MS', 'Segoe UI', sans-serif; fill: #375965; }.pc_step_num { font: 700 13px 'Avenir Next', 'Trebuchet MS', 'Segoe UI', sans-serif; fill: #ffffff; }.pc_box { fill: url(#pc_panel); stroke: #c8dde3; stroke-width: 2; }.pc_link { stroke: #4e6d78; stroke-width: 3.2; marker-end: url(#pc_arrow); fill: none; }</style></defs><rect x="0" y="0" width="2040" height="486" fill="url(#pc_bg)"/><rect x="14" y="14" width="2012" height="458" rx="22" fill="none" stroke="#d4e4e8" stroke-width="2"/><text x="36.0" y="66.0" class="pc_title">OE-PCR Figures 1-6: Setup, Primer Design, First PCR, Denature, Anneal, Fill</text><text x="36.0" y="94.0" class="pc_sub">Figure 1 defines target + insert context with outer primers a/f. Figure 2 places all six primers (a-f) with chimeric overhang intent. Figure 3 shows first-step PCR products AB, CD, and EF. Figure 4 denatures to single strands. Figure 5 anneals 9-nt overlaps into one hybrid template. Figure 6 shows polymerase gap filling before second-step amplification with a/f.</text><rect class="pc_box" x="36.0" y="114.0" width="308.0" height="324.0" rx="18" data-event-id="starting_segments" data-action="Context"/><circle cx="60.0" cy="138.0" r="12" fill="#2b8ea8"/><text x="60.0" y="138.5" class="pc_step_num" text-anchor="middle" dominant-baseline="middle">1</text><text x="82.0" y="144.0" class="pc_panel_title">Figure 1</text><text x="54.0" y="166.0" class="pc_panel_sub">Context</text><text x="54.0" y="186.0" class="pc_caption">Target DNA has blue/red substitution</text><text x="54.0" y="202.0" class="pc_caption">boundaries around span X, with secondary-PCR</text><text x="54.0" y="218.0" class="pc_caption">outer primers a (top-left) and f</text><g data-molecule-id="target_dna" data-topology="linear"><text x="52.0" y="240.0" class="pc_mol_label">Target DNA (contains substitution window)</text><rect x="104.4" y="258.0" width="61.4" height="8" fill="#c9b37e"/><rect x="165.9" y="258.0" width="4.4" height="8" fill="#3d6fb6"/><rect x="170.3" y="258.0" width="39.5" height="8" fill="#9ca3af"/><rect x="209.7" y="258.0" width="4.4" height="8" fill="#d1495b"/><rect x="214.1" y="258.0" width="61.4" height="8" fill="#c9b37e"/><rect x="104.4" y="269.0" width="61.4" height="8" fill="#c9b37e"/><rect x="165.9" y="269.0" width="4.4" height="8" fill="#3d6fb6"/><rect x="170.3" y="269.0" width="39.5" height="8" fill="#9ca3af"/><rect x="209.7" y="269.0" width="4.4" height="8" fill="#d1495b"/><rect x="214.1" y="269.0" width="61.4" height="8" fill="#c9b37e"/><g data-primer-glyph="a" data-primer-anchor="top" data-primer-rotation="0"><line x1="114.5" y1="258.0" x2="114.5" y2="256.0" stroke="#c9b37e" stroke-width="1.4"/><rect x="104.4" y="250.0" width="20.2" height="5.0" rx="2.2" fill="#c9b37e" stroke="#c9b37e" stroke-width="0.8"/><text x="114.5" y="252.9" class="pc_primer_label" text-anchor="middle" dominant-baseline="middle">a</text><text x="100.9" y="246.5" class="pc_primer_end_label" text-anchor="end" dominant-baseline="middle">5&apos;</text><text x="128.1" y="246.5" class="pc_primer_end_label" text-anchor="start" dominant-baseline="middle">3&apos;</text></g><g data-primer-glyph="f" data-primer-anchor="bottom" data-primer-rotation="0"><line x1="265.5" y1="269.0" x2="265.5" y2="274.0" stroke="#c9b37e" stroke-width="1.4"/><rect x="255.4" y="279.0" width="20.2" height="5.0" rx="2.2" fill="#c9b37e" stroke="#c9b37e" stroke-width="0.8"/><text x="265.5" y="281.9" class="pc_primer_label" text-anchor="middle" dominant-baseline="middle">f</text><text x="251.9" y="290.5" class="pc_primer_end_label" text-anchor="end" dominant-baseline="middle">3&apos;</text><text x="279.1" y="290.5" class="pc_primer_end_label" text-anchor="start" dominant-baseline="middle">5&apos;</text></g></g><g data-molecule-id="insert_dna" data-topology="linear"><text x="52.0" y="312.0" class="pc_mol_label">Insert DNA (fragment Y)</text><rect x="104.4" y="330.0" width="171.1" height="8" fill="#2a9d8f"/><rect x="104.4" y="341.0" width="171.1" height="8" fill="#2a9d8f"/></g><path d="M 348.0 289.0 L 362.0 289.0" class="pc_link"/><rect class="pc_box" x="368.0" y="114.0" width="308.0" height="324.0" rx="18" data-event-id="primer_design_assignment" data-action="Primer design"/><circle cx="392.0" cy="138.0" r="12" fill="#2b8ea8"/><text x="392.0" y="138.5" class="pc_step_num" text-anchor="middle" dominant-baseline="middle">2</text><text x="414.0" y="144.0" class="pc_panel_title">Figure 2</text><text x="386.0" y="166.0" class="pc_panel_sub">Primer design</text><text x="386.0" y="186.0" class="pc_caption">All six primers are defined. b/e are chimeric</text><text x="386.0" y="202.0" class="pc_caption">(18 nt template-derived at 3&apos; plus 9 nt</text><text x="386.0" y="218.0" class="pc_caption">insert-derived at 5&apos;). c/d are chimeric (18 nt</text><g data-molecule-id="target_with_primers" data-topology="linear"><text x="384.0" y="240.0" class="pc_mol_label">Target template with a, b, e, f</text><rect x="436.4" y="258.0" width="57.3" height="8" fill="#c9b37e"/><rect x="493.7" y="258.0" width="12.8" height="8" fill="#3d6fb6"/><rect x="506.5" y="258.0" width="31.0" height="8" fill="#9ca3af"/><rect x="537.5" y="258.0" width="12.8" height="8" fill="#d1495b"/><rect x="550.3" y="258.0" width="57.3" height="8" fill="#c9b37e"/><rect x="436.4" y="269.0" width="57.3" height="8" fill="#c9b37e"/><rect x="493.7" y="269.0" width="12.8" height="8" fill="#3d6fb6"/><rect x="506.5" y="269.0" width="31.0" height="8" fill="#9ca3af"/><rect x="537.5" y="269.0" width="12.8" height="8" fill="#d1495b"/><rect x="550.3" y="269.0" width="57.3" height="8" fill="#c9b37e"/><g data-primer-glyph="a" data-primer-anchor="top" data-primer-rotation="0"><line x1="444.4" y1="258.0" x2="444.4" y2="256.0" stroke="#c9b37e" stroke-width="1.4"/><rect x="434.4" y="250.0" width="20.0" height="5.0" rx="2.2" fill="#c9b37e" stroke="#c9b37e" stroke-width="0.8"/><text x="444.4" y="252.9" class="pc_primer_label" text-anchor="middle" dominant-baseline="middle">a</text><text x="430.9" y="246.5" class="pc_primer_end_label" text-anchor="end" dominant-baseline="middle">5&apos;</text><text x="457.9" y="246.5" class="pc_primer_end_label" text-anchor="start" dominant-baseline="middle">3&apos;</text></g><g data-primer-glyph="b" data-primer-anchor="bottom" data-primer-rotation="0" data-primer-kink="true"><line x1="498.4" y1="269.0" x2="498.4" y2="274.0" stroke="#3d6fb6" stroke-width="1.4"/><rect x="488.4" y="279.0" width="20.0" height="5.0" rx="2.2" fill="#3d6fb6" stroke="#3d6fb6" stroke-width="0.8"/><text x="498.4" y="281.9" class="pc_primer_label" text-anchor="middle" dominant-baseline="middle">b</text><text x="484.9" y="290.5" class="pc_primer_end_label" text-anchor="end" dominant-baseline="middle">3&apos;</text><text x="511.9" y="290.5" class="pc_primer_end_label" text-anchor="start" dominant-baseline="middle">5&apos;</text><path d="M 508.4 281.5 L 513.9 286.3 L 526.9 286.3" stroke="#2a9d8f" stroke-width="1.8" fill="none" stroke-linecap="round" stroke-linejoin="round"/></g><g data-primer-glyph="e" data-primer-anchor="top" data-primer-rotation="0" data-primer-kink="true"><line x1="545.6" y1="258.0" x2="545.6" y2="256.0" stroke="#d1495b" stroke-width="1.4"/><rect x="535.6" y="250.0" width="20.0" height="5.0" rx="2.2" fill="#d1495b" stroke="#d1495b" stroke-width="0.8"/><text x="545.6" y="252.9" class="pc_primer_label" text-anchor="middle" dominant-baseline="middle">e</text><text x="532.1" y="246.5" class="pc_primer_end_label" text-anchor="end" dominant-baseline="middle">5&apos;</text><text x="559.1" y="246.5" class="pc_primer_end_label" text-anchor="start" dominant-baseline="middle">3&apos;</text><path d="M 535.6 252.5 L 530.1 247.7 L 517.1 247.7" stroke="#2a9d8f" stroke-width="1.8" fill="none" stroke-linecap="round" stroke-linejoin="round"/></g><g data-primer-glyph="f" data-primer-anchor="bottom" data-primer-rotation="0"><line x1="599.6" y1="269.0" x2="599.6" y2="274.0" stroke="#c9b37e" stroke-width="1.4"/><rect x="589.6" y="279.0" width="20.0" height="5.0" rx="2.2" fill="#c9b37e" stroke="#c9b37e" stroke-width="0.8"/><text x="599.6" y="281.9" class="pc_primer_label" text-anchor="middle" dominant-baseline="middle">f</text><text x="586.1" y="290.5" class="pc_primer_end_label" text-anchor="end" dominant-baseline="middle">3&apos;</text><text x="613.1" y="290.5" class="pc_primer_end_label" text-anchor="start" dominant-baseline="middle">5&apos;</text></g></g><g data-molecule-id="insert_with_primers" data-topology="linear"><text x="384.0" y="312.0" class="pc_mol_label">Insert cassette with c, d</text><rect x="436.4" y="330.0" width="171.1" height="8" fill="#2a9d8f"/><rect x="436.4" y="341.0" width="171.1" height="8" fill="#2a9d8f"/><g data-primer-glyph="c" data-primer-anchor="top" data-primer-rotation="0" data-primer-kink="true"><line x1="453.7" y1="330.0" x2="453.7" y2="328.0" stroke="#2a9d8f" stroke-width="1.4"/><rect x="436.4" y="322.0" width="34.5" height="5.0" rx="2.2" fill="#2a9d8f" stroke="#2a9d8f" stroke-width="0.8"/><text x="453.7" y="324.9" class="pc_primer_label" text-anchor="middle" dominant-baseline="middle">c</text><text x="432.9" y="318.5" class="pc_primer_end_label" text-anchor="end" dominant-baseline="middle">5&apos;</text><text x="474.4" y="318.5" class="pc_primer_end_label" text-anchor="start" dominant-baseline="middle">3&apos;</text><path d="M 436.4 324.5 L 430.9 319.7 L 417.9 319.7" stroke="#3d6fb6" stroke-width="1.8" fill="none" stroke-linecap="round" stroke-linejoin="round"/></g><g data-primer-glyph="d" data-primer-anchor="bottom" data-primer-rotation="0" data-primer-kink="true"><line x1="590.3" y1="341.0" x2="590.3" y2="346.0" stroke="#2a9d8f" stroke-width="1.4"/><rect x="573.1" y="351.0" width="34.5" height="5.0" rx="2.2" fill="#2a9d8f" stroke="#2a9d8f" stroke-width="0.8"/><text x="590.3" y="353.9" class="pc_primer_label" text-anchor="middle" dominant-baseline="middle">d</text><text x="569.6" y="362.5" class="pc_primer_end_label" text-anchor="end" dominant-baseline="middle">3&apos;</text><text x="611.1" y="362.5" class="pc_primer_end_label" text-anchor="start" dominant-baseline="middle">5&apos;</text><path d="M 607.6 353.5 L 613.1 358.3 L 626.1 358.3" stroke="#d1495b" stroke-width="1.8" fill="none" stroke-linecap="round" stroke-linejoin="round"/></g></g><path d="M 680.0 289.0 L 694.0 289.0" class="pc_link"/><rect class="pc_box" x="700.0" y="114.0" width="308.0" height="324.0" rx="18" data-event-id="first_step_pcr_products" data-action="First PCR"/><circle cx="724.0" cy="138.0" r="12" fill="#2b8ea8"/><text x="724.0" y="138.5" class="pc_step_num" text-anchor="middle" dominant-baseline="middle">3</text><text x="746.0" y="144.0" class="pc_panel_title">Figure 3</text><text x="718.0" y="166.0" class="pc_panel_sub">First PCR</text><text x="718.0" y="186.0" class="pc_caption">Three independent first-step PCR reactions are</text><text x="718.0" y="202.0" class="pc_caption">run: a+b gives AB, c+d gives CD, and e+f gives</text><text x="718.0" y="218.0" class="pc_caption">EF. Chimeric primer-derived segments are</text><g data-molecule-id="ab_first_pcr_product" data-topology="linear"><text x="716.0" y="240.0" class="pc_mol_label">AB product (a + b)</text><rect x="768.4" y="258.0" width="131.6" height="8" fill="#c9b37e"/><rect x="900.1" y="258.0" width="29.6" height="8" fill="#3d6fb6"/><rect x="929.7" y="258.0" width="9.9" height="8" fill="#2a9d8f"/><rect x="768.4" y="269.0" width="131.6" height="8" fill="#c9b37e"/><rect x="900.1" y="269.0" width="29.6" height="8" fill="#3d6fb6"/><rect x="929.7" y="269.0" width="9.9" height="8" fill="#2a9d8f"/></g><g data-molecule-id="cd_first_pcr_product" data-topology="linear"><text x="716.0" y="312.0" class="pc_mol_label">CD product (c + d)</text><rect x="768.4" y="330.0" width="15.7" height="8" fill="#3d6fb6"/><rect x="784.2" y="330.0" width="139.7" height="8" fill="#2a9d8f"/><rect x="923.8" y="330.0" width="15.7" height="8" fill="#d1495b"/><rect x="768.4" y="341.0" width="15.7" height="8" fill="#3d6fb6"/><rect x="784.2" y="341.0" width="139.7" height="8" fill="#2a9d8f"/><rect x="923.8" y="341.0" width="15.7" height="8" fill="#d1495b"/></g><g data-molecule-id="ef_first_pcr_product" data-topology="linear"><text x="716.0" y="384.0" class="pc_mol_label">EF product (e + f)</text><rect x="768.4" y="402.0" width="9.9" height="8" fill="#2a9d8f"/><rect x="778.3" y="402.0" width="29.6" height="8" fill="#d1495b"/><rect x="807.9" y="402.0" width="131.6" height="8" fill="#c9b37e"/><rect x="768.4" y="413.0" width="9.9" height="8" fill="#2a9d8f"/><rect x="778.3" y="413.0" width="29.6" height="8" fill="#d1495b"/><rect x="807.9" y="413.0" width="131.6" height="8" fill="#c9b37e"/></g><path d="M 1012.0 289.0 L 1026.0 289.0" class="pc_link"/><rect class="pc_box" x="1032.0" y="114.0" width="308.0" height="324.0" rx="18" data-event-id="denature_single_strands" data-action="Denature"/><circle cx="1056.0" cy="138.0" r="12" fill="#2b8ea8"/><text x="1056.0" y="138.5" class="pc_step_num" text-anchor="middle" dominant-baseline="middle">4</text><text x="1078.0" y="144.0" class="pc_panel_title">Figure 4</text><text x="1050.0" y="166.0" class="pc_panel_sub">Denature</text><text x="1050.0" y="186.0" class="pc_caption">Heat denaturation separates AB, CD, and EF</text><text x="1050.0" y="202.0" class="pc_caption">duplex products into single strands; each</text><text x="1050.0" y="218.0" class="pc_caption">strand retains the same incorporated</text><g data-molecule-id="ab_single_strand" data-topology="linear"><text x="1048.0" y="240.0" class="pc_mol_label">AB strand</text><rect x="1100.4" y="258.0" width="131.6" height="8" fill="#c9b37e"/><rect x="1232.1" y="258.0" width="29.6" height="8" fill="#3d6fb6"/><rect x="1261.7" y="258.0" width="9.9" height="8" fill="#2a9d8f"/></g><g data-molecule-id="cd_single_strand" data-topology="linear"><text x="1048.0" y="312.0" class="pc_mol_label">CD strand</text><rect x="1100.4" y="330.0" width="15.7" height="8" fill="#3d6fb6"/><rect x="1116.2" y="330.0" width="139.7" height="8" fill="#2a9d8f"/><rect x="1255.8" y="330.0" width="15.7" height="8" fill="#d1495b"/></g><g data-molecule-id="ef_single_strand" data-topology="linear"><text x="1048.0" y="384.0" class="pc_mol_label">EF strand</text><rect x="1100.4" y="402.0" width="9.9" height="8" fill="#2a9d8f"/><rect x="1110.3" y="402.0" width="29.6" height="8" fill="#d1495b"/><rect x="1139.9" y="402.0" width="131.6" height="8" fill="#c9b37e"/></g><path d="M 1344.0 289.0 L 1358.0 289.0" class="pc_link"/><rect class="pc_box" x="1364.0" y="114.0" width="308.0" height="324.0" rx="18" data-event-id="anneal_overlap_intermediate" data-action="Anneal"/><circle cx="1388.0" cy="138.0" r="12" fill="#2b8ea8"/><text x="1388.0" y="138.5" class="pc_step_num" text-anchor="middle" dominant-baseline="middle">5</text><text x="1410.0" y="144.0" class="pc_panel_title">Figure 5</text><text x="1382.0" y="166.0" class="pc_panel_sub">Anneal</text><text x="1382.0" y="186.0" class="pc_caption">Annealed intermediate with strand-specific</text><text x="1382.0" y="202.0" class="pc_caption">gaps: missing segments are on the opposite</text><text x="1382.0" y="218.0" class="pc_caption">strand (not between fragment blocks).</text><g data-molecule-id="annealed_overlap_product" data-topology="linear"><text x="1380.0" y="240.0" class="pc_mol_label">Annealed overlap intermediate</text><rect x="1432.4" y="258.0" width="26.3" height="8" fill="#c9b37e"/><rect x="1458.8" y="258.0" width="26.3" height="8" fill="#3d6fb6"/><rect x="1550.9" y="258.0" width="26.3" height="8" fill="#d1495b"/><rect x="1577.2" y="258.0" width="26.3" height="8" fill="#c9b37e"/><rect x="1471.9" y="269.0" width="13.2" height="8" fill="#3d6fb6"/><rect x="1485.1" y="269.0" width="65.8" height="8" fill="#2a9d8f"/><rect x="1550.9" y="269.0" width="13.2" height="8" fill="#d1495b"/></g><path d="M 1676.0 289.0 L 1690.0 289.0" class="pc_link"/><rect class="pc_box" x="1696.0" y="114.0" width="308.0" height="324.0" rx="18" data-event-id="polymerase_fill_gaps" data-action="Polymerase fill"/><circle cx="1720.0" cy="138.0" r="12" fill="#2b8ea8"/><text x="1720.0" y="138.5" class="pc_step_num" text-anchor="middle" dominant-baseline="middle">6</text><text x="1742.0" y="144.0" class="pc_panel_title">Figure 6</text><text x="1714.0" y="166.0" class="pc_panel_sub">Polymerase fill</text><text x="1714.0" y="186.0" class="pc_caption">Polymerase extends and fills all strand gaps,</text><text x="1714.0" y="202.0" class="pc_caption">yielding a fully duplex overlap product.</text><g data-molecule-id="filled_overlap_product" data-topology="linear"><text x="1712.0" y="240.0" class="pc_mol_label">Gap-filled overlap product</text><rect x="1764.4" y="258.0" width="26.3" height="8" fill="#c9b37e"/><rect x="1790.8" y="258.0" width="26.3" height="8" fill="#3d6fb6"/><rect x="1817.1" y="258.0" width="65.8" height="8" fill="#2a9d8f"/><rect x="1882.9" y="258.0" width="26.3" height="8" fill="#d1495b"/><rect x="1909.2" y="258.0" width="26.3" height="8" fill="#c9b37e"/><rect x="1764.4" y="269.0" width="26.3" height="8" fill="#c9b37e"/><rect x="1790.8" y="269.0" width="26.3" height="8" fill="#3d6fb6"/><rect x="1817.1" y="269.0" width="65.8" height="8" fill="#2a9d8f"/><rect x="1882.9" y="269.0" width="26.3" height="8" fill="#d1495b"/><rect x="1909.2" y="269.0" width="26.3" height="8" fill="#c9b37e"/></g><text x="36.0" y="470.0" class="pc_caption">Model: event-sequence abstraction (features + overhangs + topology) | deterministic SVG export.</text></svg>