<svg xmlns="http://www.w3.org/2000/svg" width="1376" height="448" viewBox="0 0 1376 448" role="img" aria-labelledby="title desc" data-protocol-id="pcr.assay.pair"><title id="title">GENtle Protocol Cartoon: PCR Assay (pair-primer baseline)</title><desc id="desc">Four-step PCR strip: context+ROI, primer constraint windows, primer placement, and ROI-bounded amplicon outcome.</desc><defs><linearGradient id="pc_bg" x1="0" y1="0" x2="1" y2="1"><stop offset="0%" stop-color="#f5fbff"/><stop offset="100%" stop-color="#edf8f5"/></linearGradient><linearGradient id="pc_panel" x1="0" y1="0" x2="0" y2="1"><stop offset="0%" stop-color="#ffffff"/><stop offset="100%" stop-color="#f6fafb"/></linearGradient><marker id="pc_arrow" markerWidth="12" markerHeight="12" refX="9" refY="6" orient="auto"><path d="M1,1 L11,6 L1,11 Z" fill="#4e6d78"/></marker><style>.pc_title { font: 700 36px 'Avenir Next', 'Trebuchet MS', 'Segoe UI', sans-serif; fill: #0f2a36; }.pc_sub { font: 500 18px 'Avenir Next', 'Trebuchet MS', 'Segoe UI', sans-serif; fill: #36535d; }.pc_panel_title { font: 700 21px 'Avenir Next', 'Trebuchet MS', 'Segoe UI', sans-serif; fill: #123746; }.pc_panel_sub { font: 600 13px 'Avenir Next', 'Trebuchet MS', 'Segoe UI', sans-serif; fill: #3f5f68; }.pc_caption { font: 500 13px 'Avenir Next', 'Trebuchet MS', 'Segoe UI', sans-serif; fill: #466570; }.pc_mol_label { font: 600 13px 'Avenir Next', 'Trebuchet MS', 'Segoe UI', sans-serif; fill: #2d4f5b; }.pc_end_label { font: 600 11px 'Avenir Next', 'Trebuchet MS', 'Segoe UI', sans-serif; fill: #375965; }.pc_feature_marker_text { font: 700 10px 'Avenir Next', 'Trebuchet MS', 'Segoe UI', sans-serif; fill: #ffffff; }.pc_primer_label { font: 700 10px 'Avenir Next', 'Trebuchet MS', 'Segoe UI', sans-serif; fill: #ffffff; }.pc_primer_end_label { font: 600 9px 'Avenir Next', 'Trebuchet MS', 'Segoe UI', sans-serif; fill: #375965; }.pc_step_num { font: 700 13px 'Avenir Next', 'Trebuchet MS', 'Segoe UI', sans-serif; fill: #ffffff; }.pc_box { fill: url(#pc_panel); stroke: #c8dde3; stroke-width: 2; }.pc_link { stroke: #4e6d78; stroke-width: 3.2; marker-end: url(#pc_arrow); fill: none; }</style></defs><rect x="0" y="0" width="1376" height="448" fill="url(#pc_bg)"/><rect x="14" y="14" width="1348" height="420" rx="22" fill="none" stroke="#d4e4e8" stroke-width="2"/><text x="36.0" y="66.0" class="pc_title">GENtle Protocol Cartoon: PCR Assay (pair-primer baseline)</text><text x="36.0" y="94.0" class="pc_sub">Four-step PCR strip: context+ROI, primer constraint windows, primer placement, and ROI-bounded amplicon outcome.</text><rect class="pc_box" x="36.0" y="114.0" width="308.0" height="286.0" rx="18" data-event-id="context_roi" data-action="Context"/><circle cx="60.0" cy="138.0" r="12" fill="#2b8ea8"/><text x="60.0" y="138.5" class="pc_step_num" text-anchor="middle" dominant-baseline="middle">1</text><text x="82.0" y="144.0" class="pc_panel_title">Context + ROI</text><text x="54.0" y="166.0" class="pc_panel_sub">Context</text><text x="54.0" y="186.0" class="pc_caption">Template context selected.</text><text x="54.0" y="202.0" class="pc_caption">ROI selected.</text><text x="54.0" y="218.0" class="pc_caption">Green = ROI.</text><g data-molecule-id="template_context" data-topology="linear"><text x="52.0" y="240.0" class="pc_mol_label">Source template</text><rect x="104.4" y="258.0" width="47.2" height="8" fill="#c9b37e"/><rect x="151.7" y="258.0" width="76.6" height="8" fill="#2a9d8f"/><rect x="228.3" y="258.0" width="47.2" height="8" fill="#c9b37e"/><rect x="104.4" y="269.0" width="47.2" height="8" fill="#c9b37e"/><rect x="151.7" y="269.0" width="76.6" height="8" fill="#2a9d8f"/><rect x="228.3" y="269.0" width="47.2" height="8" fill="#c9b37e"/><path d="M 104.8 257.2 L 97.4 259.4 L 104.8 261.8 L 97.4 264.2 L 104.8 266.8 Z" fill="url(#pc_bg)"/><path d="M 104.8 268.2 L 97.4 270.4 L 104.8 272.8 L 97.4 275.2 L 104.8 277.8 Z" fill="url(#pc_bg)"/><circle cx="84.4" cy="264.0" r="1.5" fill="#88a3ad"/><circle cx="90.4" cy="266.6" r="1.5" fill="#88a3ad"/><circle cx="96.4" cy="269.2" r="1.5" fill="#88a3ad"/><path d="M 275.2 257.2 L 282.6 259.4 L 275.2 261.8 L 282.6 264.2 L 275.2 266.8 Z" fill="url(#pc_bg)"/><path d="M 275.2 268.2 L 282.6 270.4 L 275.2 272.8 L 282.6 275.2 L 275.2 277.8 Z" fill="url(#pc_bg)"/><circle cx="295.6" cy="264.0" r="1.5" fill="#88a3ad"/><circle cx="289.6" cy="266.6" r="1.5" fill="#88a3ad"/><circle cx="283.6" cy="269.2" r="1.5" fill="#88a3ad"/></g><path d="M 348.0 268.4 L 362.0 268.4" class="pc_link"/><rect class="pc_box" x="368.0" y="114.0" width="308.0" height="286.0" rx="18" data-event-id="primer_constraints" data-action="Constraints"/><circle cx="392.0" cy="138.0" r="12" fill="#2b8ea8"/><text x="392.0" y="138.5" class="pc_step_num" text-anchor="middle" dominant-baseline="middle">2</text><text x="414.0" y="144.0" class="pc_panel_title">Primer Constraints</text><text x="386.0" y="166.0" class="pc_panel_sub">Constraints</text><text x="386.0" y="186.0" class="pc_caption">Red = Upstream primer window for primer.</text><text x="386.0" y="202.0" class="pc_caption">Blue = Downstream primer window for primer.</text><text x="386.0" y="218.0" class="pc_caption">Primer termini must stay inside each window.</text><g data-molecule-id="template_with_windows" data-topology="linear"><text x="384.0" y="240.0" class="pc_mol_label">Template with ROI + primer windows</text><rect x="436.4" y="258.0" width="38.6" height="8" fill="#c9b37e"/><rect x="475.0" y="258.0" width="15.7" height="8" fill="#d1495b"/><rect x="490.7" y="258.0" width="62.6" height="8" fill="#2a9d8f"/><rect x="553.3" y="258.0" width="15.7" height="8" fill="#3d6fb6"/><rect x="569.0" y="258.0" width="38.6" height="8" fill="#c9b37e"/><rect x="436.4" y="269.0" width="38.6" height="8" fill="#c9b37e"/><rect x="475.0" y="269.0" width="15.7" height="8" fill="#d1495b"/><rect x="490.7" y="269.0" width="62.6" height="8" fill="#2a9d8f"/><rect x="553.3" y="269.0" width="15.7" height="8" fill="#3d6fb6"/><rect x="569.0" y="269.0" width="38.6" height="8" fill="#c9b37e"/><path d="M 436.8 257.2 L 429.4 259.4 L 436.8 261.8 L 429.4 264.2 L 436.8 266.8 Z" fill="url(#pc_bg)"/><path d="M 436.8 268.2 L 429.4 270.4 L 436.8 272.8 L 429.4 275.2 L 436.8 277.8 Z" fill="url(#pc_bg)"/><circle cx="416.4" cy="264.0" r="1.5" fill="#88a3ad"/><circle cx="422.4" cy="266.6" r="1.5" fill="#88a3ad"/><circle cx="428.4" cy="269.2" r="1.5" fill="#88a3ad"/><path d="M 607.2 257.2 L 614.6 259.4 L 607.2 261.8 L 614.6 264.2 L 607.2 266.8 Z" fill="url(#pc_bg)"/><path d="M 607.2 268.2 L 614.6 270.4 L 607.2 272.8 L 614.6 275.2 L 607.2 277.8 Z" fill="url(#pc_bg)"/><circle cx="627.6" cy="264.0" r="1.5" fill="#88a3ad"/><circle cx="621.6" cy="266.6" r="1.5" fill="#88a3ad"/><circle cx="615.6" cy="269.2" r="1.5" fill="#88a3ad"/></g><path d="M 680.0 268.4 L 694.0 268.4" class="pc_link"/><rect class="pc_box" x="700.0" y="114.0" width="308.0" height="286.0" rx="18" data-event-id="primers" data-action="Primers"/><circle cx="724.0" cy="138.0" r="12" fill="#2b8ea8"/><text x="724.0" y="138.5" class="pc_step_num" text-anchor="middle" dominant-baseline="middle">3</text><text x="746.0" y="144.0" class="pc_panel_title">Primers</text><text x="718.0" y="166.0" class="pc_panel_sub">Primers</text><text x="718.0" y="186.0" class="pc_caption">Chosen forward/reverse primers lie within</text><text x="718.0" y="202.0" class="pc_caption">their windows and terminate at the ROI</text><text x="718.0" y="218.0" class="pc_caption">boundaries while genomic context remains</text><g data-molecule-id="primer_layout" data-topology="linear"><text x="716.0" y="240.0" class="pc_mol_label">Primer placement in windows</text><rect x="768.4" y="258.0" width="38.6" height="8" fill="#c9b37e"/><rect x="807.0" y="258.0" width="15.7" height="8" fill="#d1495b"/><rect x="822.7" y="258.0" width="62.6" height="8" fill="#2a9d8f"/><rect x="885.3" y="258.0" width="15.7" height="8" fill="#3d6fb6"/><rect x="901.0" y="258.0" width="38.6" height="8" fill="#c9b37e"/><rect x="768.4" y="269.0" width="38.6" height="8" fill="#c9b37e"/><rect x="807.0" y="269.0" width="15.7" height="8" fill="#d1495b"/><rect x="822.7" y="269.0" width="62.6" height="8" fill="#2a9d8f"/><rect x="885.3" y="269.0" width="15.7" height="8" fill="#3d6fb6"/><rect x="901.0" y="269.0" width="38.6" height="8" fill="#c9b37e"/><g data-primer-glyph="F" data-primer-anchor="top" data-primer-rotation="0"><line x1="818.0" y1="258.0" x2="818.0" y2="256.0" stroke="#d1495b" stroke-width="1.4"/><rect x="808.0" y="250.0" width="20.0" height="5.0" rx="2.2" fill="#d1495b" stroke="#d1495b" stroke-width="0.8"/><text x="818.0" y="252.9" class="pc_primer_label" text-anchor="middle" dominant-baseline="middle">F</text><text x="804.5" y="246.5" class="pc_primer_end_label" text-anchor="end" dominant-baseline="middle">5&apos;</text><text x="831.5" y="246.5" class="pc_primer_end_label" text-anchor="start" dominant-baseline="middle">3&apos;</text></g><g data-primer-glyph="R" data-primer-anchor="bottom" data-primer-rotation="0"><line x1="890.0" y1="269.0" x2="890.0" y2="274.0" stroke="#3d6fb6" stroke-width="1.4"/><rect x="880.0" y="279.0" width="20.0" height="5.0" rx="2.2" fill="#3d6fb6" stroke="#3d6fb6" stroke-width="0.8"/><text x="890.0" y="281.9" class="pc_primer_label" text-anchor="middle" dominant-baseline="middle">R</text><text x="876.5" y="290.5" class="pc_primer_end_label" text-anchor="end" dominant-baseline="middle">3&apos;</text><text x="903.5" y="290.5" class="pc_primer_end_label" text-anchor="start" dominant-baseline="middle">5&apos;</text></g><path d="M 768.8 257.2 L 761.4 259.4 L 768.8 261.8 L 761.4 264.2 L 768.8 266.8 Z" fill="url(#pc_bg)"/><path d="M 768.8 268.2 L 761.4 270.4 L 768.8 272.8 L 761.4 275.2 L 768.8 277.8 Z" fill="url(#pc_bg)"/><circle cx="748.4" cy="264.0" r="1.5" fill="#88a3ad"/><circle cx="754.4" cy="266.6" r="1.5" fill="#88a3ad"/><circle cx="760.4" cy="269.2" r="1.5" fill="#88a3ad"/><path d="M 939.2 257.2 L 946.6 259.4 L 939.2 261.8 L 946.6 264.2 L 939.2 266.8 Z" fill="url(#pc_bg)"/><path d="M 939.2 268.2 L 946.6 270.4 L 939.2 272.8 L 946.6 275.2 L 939.2 277.8 Z" fill="url(#pc_bg)"/><circle cx="959.6" cy="264.0" r="1.5" fill="#88a3ad"/><circle cx="953.6" cy="266.6" r="1.5" fill="#88a3ad"/><circle cx="947.6" cy="269.2" r="1.5" fill="#88a3ad"/></g><path d="M 1012.0 268.4 L 1026.0 268.4" class="pc_link"/><rect class="pc_box" x="1032.0" y="114.0" width="308.0" height="286.0" rx="18" data-event-id="product" data-action="Product"/><circle cx="1056.0" cy="138.0" r="12" fill="#2b8ea8"/><text x="1056.0" y="138.5" class="pc_step_num" text-anchor="middle" dominant-baseline="middle">4</text><text x="1078.0" y="144.0" class="pc_panel_title">Product</text><text x="1050.0" y="166.0" class="pc_panel_sub">Product</text><text x="1050.0" y="186.0" class="pc_caption">PCR yields an ROI-focused amplicon bounded by</text><text x="1050.0" y="202.0" class="pc_caption">the chosen primer termini.</text><g data-molecule-id="accepted_amplicon" data-topology="linear"><text x="1048.0" y="240.0" class="pc_mol_label">ROI-bounded amplicon</text><text x="1048.0" y="292.0" class="pc_end_label" text-anchor="start">blunt</text><text x="1322.0" y="292.0" class="pc_end_label" text-anchor="end">blunt</text><rect x="1100.4" y="258.0" width="19.7" height="8" fill="#d1495b"/><rect x="1120.2" y="258.0" width="131.6" height="8" fill="#2a9d8f"/><rect x="1251.8" y="258.0" width="19.7" height="8" fill="#3d6fb6"/><rect x="1100.4" y="269.0" width="19.7" height="8" fill="#d1495b"/><rect x="1120.2" y="269.0" width="131.6" height="8" fill="#2a9d8f"/><rect x="1251.8" y="269.0" width="19.7" height="8" fill="#3d6fb6"/><g data-primer-glyph="F" data-primer-anchor="top" data-primer-rotation="0"><line x1="1110.3" y1="258.0" x2="1110.3" y2="256.0" stroke="#d1495b" stroke-width="1.4"/><rect x="1100.3" y="250.0" width="20.0" height="5.0" rx="2.2" fill="#d1495b" stroke="#d1495b" stroke-width="0.8"/><text x="1110.3" y="252.9" class="pc_primer_label" text-anchor="middle" dominant-baseline="middle">F</text><text x="1096.8" y="246.5" class="pc_primer_end_label" text-anchor="end" dominant-baseline="middle">5&apos;</text><text x="1123.8" y="246.5" class="pc_primer_end_label" text-anchor="start" dominant-baseline="middle">3&apos;</text></g><g data-primer-glyph="R" data-primer-anchor="bottom" data-primer-rotation="0"><line x1="1261.7" y1="269.0" x2="1261.7" y2="274.0" stroke="#3d6fb6" stroke-width="1.4"/><rect x="1251.7" y="279.0" width="20.0" height="5.0" rx="2.2" fill="#3d6fb6" stroke="#3d6fb6" stroke-width="0.8"/><text x="1261.7" y="281.9" class="pc_primer_label" text-anchor="middle" dominant-baseline="middle">R</text><text x="1248.2" y="290.5" class="pc_primer_end_label" text-anchor="end" dominant-baseline="middle">3&apos;</text><text x="1275.2" y="290.5" class="pc_primer_end_label" text-anchor="start" dominant-baseline="middle">5&apos;</text></g></g><text x="36.0" y="432.0" class="pc_caption">Model: event-sequence abstraction (features + overhangs + topology) | deterministic SVG export.</text></svg>