<svg height="302" style="background:#ffffff" viewBox="0 0 960 302" width="960" xmlns="http://www.w3.org/2000/svg">
<text fill="#202020" font-family="Helvetica, Arial, sans-serif" font-size="24" x="24" y="34">
GENtle Lineage (DALG)
</text>
<line stroke="#8a8a8a" stroke-width="1.2" x1="120" x2="340" y1="120" y2="120"/>
<rect fill="#f5f5f5" height="16" rx="2" stroke="#e0e0e0" width="104" x="178" y="102"/>
<text dominant-baseline="middle" fill="#222222" font-family="Helvetica, Arial, sans-serif" font-size="10" text-anchor="middle" x="230" y="114">
Pcr
</text>
<line stroke="#8a8a8a" stroke-width="1.2" x1="120" x2="340" y1="230" y2="230"/>
<rect fill="#f5f5f5" height="16" rx="2" stroke="#e0e0e0" width="104" x="178" y="212"/>
<text dominant-baseline="middle" fill="#222222" font-family="Helvetica, Arial, sans-serif" font-size="10" text-anchor="middle" x="230" y="224">
Digest
</text>
<line stroke="#8a8a8a" stroke-width="1.2" x1="340" x2="560" y1="230" y2="120"/>
<rect fill="#f5f5f5" height="16" rx="2" stroke="#e0e0e0" width="104" x="398" y="157"/>
<text dominant-baseline="middle" fill="#222222" font-family="Helvetica, Arial, sans-serif" font-size="10" text-anchor="middle" x="450" y="169">
Ligation
</text>
<line stroke="#8a8a8a" stroke-width="1.2" x1="340" x2="560" y1="230" y2="230"/>
<rect fill="#f5f5f5" height="16" rx="2" stroke="#e0e0e0" width="104" x="398" y="212"/>
<text dominant-baseline="middle" fill="#222222" font-family="Helvetica, Arial, sans-serif" font-size="10" text-anchor="middle" x="450" y="224">
Ligation
</text>
<line stroke="#8a8a8a" stroke-width="1.2" x1="340" x2="560" y1="120" y2="120"/>
<rect fill="#f5f5f5" height="16" rx="2" stroke="#e0e0e0" width="104" x="398" y="102"/>
<text dominant-baseline="middle" fill="#222222" font-family="Helvetica, Arial, sans-serif" font-size="10" text-anchor="middle" x="450" y="114">
Ligation
</text>
<line stroke="#8a8a8a" stroke-width="1.2" x1="340" x2="560" y1="120" y2="230"/>
<rect fill="#f5f5f5" height="16" rx="2" stroke="#e0e0e0" width="104" x="398" y="157"/>
<text dominant-baseline="middle" fill="#222222" font-family="Helvetica, Arial, sans-serif" font-size="10" text-anchor="middle" x="450" y="169">
Ligation
</text>
<circle cx="120" cy="120" fill="#5a8cd2" r="16" stroke="#3b6aaa" stroke-width="1"/>
<text fill="#101010" font-family="Helvetica, Arial, sans-serif" font-size="12" x="144" y="118">
U13852.1
</text>
<text fill="#222222" font-family="Helvetica, Arial, sans-serif" font-size="10" x="144" y="132">
pgex_pcr_template (4952 bp, linear)
</text>
<circle cx="120" cy="230" fill="#5a8cd2" r="16" stroke="#3b6aaa" stroke-width="1"/>
<text fill="#101010" font-family="Helvetica, Arial, sans-serif" font-size="12" x="144" y="228">
XXU13852
</text>
<text fill="#222222" font-family="Helvetica, Arial, sans-serif" font-size="10" x="144" y="242">
pgex_vector (4952 bp, circular)
</text>
<circle cx="340" cy="120" fill="#5a8cd2" r="16" stroke="#3b6aaa" stroke-width="1"/>
<text fill="#101010" font-family="Helvetica, Arial, sans-serif" font-size="12" x="364" y="118">
pgex_pcr_insert
</text>
<text fill="#222222" font-family="Helvetica, Arial, sans-serif" font-size="10" x="364" y="132">
pgex_pcr_insert (250 bp, linear)
</text>
<circle cx="340" cy="230" fill="#5a8cd2" r="16" stroke="#3b6aaa" stroke-width="1"/>
<text fill="#101010" font-family="Helvetica, Arial, sans-serif" font-size="12" x="364" y="228">
pgex_smai_1
</text>
<text fill="#222222" font-family="Helvetica, Arial, sans-serif" font-size="10" x="364" y="242">
pgex_smai_1 (4952 bp, linear)
</text>
<polygon fill="#b47846" points="560,102 578,120 560,138 542,120" stroke="#a05f2b" stroke-width="1"/>
<text fill="#101010" font-family="Helvetica, Arial, sans-serif" font-size="12" x="584" y="118">
pgex_blunt_clone_1
</text>
<text fill="#222222" font-family="Helvetica, Arial, sans-serif" font-size="10" x="584" y="132">
pgex_blunt_clone_1 | pool n=2 | 5202 bp
</text>
<polygon fill="#b47846" points="560,212 578,230 560,248 542,230" stroke="#a05f2b" stroke-width="1"/>
<text fill="#101010" font-family="Helvetica, Arial, sans-serif" font-size="12" x="584" y="228">
pgex_blunt_clone_2
</text>
<text fill="#222222" font-family="Helvetica, Arial, sans-serif" font-size="10" x="584" y="242">
pgex_blunt_clone_2 | pool n=2 | 5202 bp
</text>
</svg>