<svg xmlns="http://www.w3.org/2000/svg" width="1044" height="486" viewBox="0 0 1044 486" role="img" aria-labelledby="title desc" data-protocol-id="readme.pcr_blunt_junction_pcr"><title id="title">GENtle Protocol Cartoon: PCR Checks for a Known Insert</title><desc id="desc">Use two junction PCRs to confirm orientation of a known insert, then use an outward-facing insert-end PCR as a negative concatemer check.</desc><defs><linearGradient id="pc_bg" x1="0" y1="0" x2="1" y2="1"><stop offset="0%" stop-color="#f5fbff"/><stop offset="100%" stop-color="#edf8f5"/></linearGradient><linearGradient id="pc_panel" x1="0" y1="0" x2="0" y2="1"><stop offset="0%" stop-color="#ffffff"/><stop offset="100%" stop-color="#f6fafb"/></linearGradient><pattern id="pc_dots_50" patternUnits="userSpaceOnUse" width="6" height="6"><circle cx="1.5" cy="1.5" r="0.8" fill="#ffffff" fill-opacity="0.88"/><circle cx="4.5" cy="4.5" r="0.8" fill="#ffffff" fill-opacity="0.88"/></pattern><marker id="pc_arrow" markerWidth="12" markerHeight="12" refX="9" refY="6" orient="auto"><path d="M1,1 L11,6 L1,11 Z" fill="#4e6d78"/></marker><style>.pc_title { font: 700 36px 'Avenir Next', 'Trebuchet MS', 'Segoe UI', sans-serif; fill: #0f2a36; }.pc_sub { font: 500 18px 'Avenir Next', 'Trebuchet MS', 'Segoe UI', sans-serif; fill: #36535d; }.pc_panel_title { font: 700 21px 'Avenir Next', 'Trebuchet MS', 'Segoe UI', sans-serif; fill: #123746; }.pc_panel_sub { font: 600 13px 'Avenir Next', 'Trebuchet MS', 'Segoe UI', sans-serif; fill: #3f5f68; }.pc_caption { font: 500 13px 'Avenir Next', 'Trebuchet MS', 'Segoe UI', sans-serif; fill: #466570; }.pc_mol_label { font: 600 13px 'Avenir Next', 'Trebuchet MS', 'Segoe UI', sans-serif; fill: #2d4f5b; }.pc_end_label { font: 600 10px 'Avenir Next', 'Trebuchet MS', 'Segoe UI', sans-serif; fill: #375965; }.pc_feature_marker_text { font: 700 10px 'Avenir Next', 'Trebuchet MS', 'Segoe UI', sans-serif; fill: #ffffff; }.pc_primer_label { font: 700 10px 'Avenir Next', 'Trebuchet MS', 'Segoe UI', sans-serif; fill: #ffffff; }.pc_primer_end_label { font: 600 9px 'Avenir Next', 'Trebuchet MS', 'Segoe UI', sans-serif; fill: #375965; }.pc_step_num { font: 700 13px 'Avenir Next', 'Trebuchet MS', 'Segoe UI', sans-serif; fill: #ffffff; }.pc_box { fill: url(#pc_panel); stroke: #c8dde3; stroke-width: 2; }.pc_link { stroke: #4e6d78; stroke-width: 3.2; marker-end: url(#pc_arrow); fill: none; }</style></defs><rect x="0" y="0" width="1044" height="486" fill="url(#pc_bg)"/><rect x="14" y="14" width="1016" height="458" rx="22" fill="none" stroke="#d4e4e8" stroke-width="2"/><text x="36.0" y="66.0" class="pc_title">GENtle Protocol Cartoon: PCR Checks for a Known Insert</text><text x="36.0" y="94.0" class="pc_sub">Use two junction PCRs to confirm orientation of a known insert, then use an outward-facing insert-end PCR as a negative concatemer check.</text><rect class="pc_box" x="36.0" y="114.0" width="308.0" height="324.0" rx="18" data-event-id="candidate_products" data-action="Context"/><circle cx="60.0" cy="138.0" r="12" fill="#2b8ea8"/><text x="60.0" y="138.5" class="pc_step_num" text-anchor="middle" dominant-baseline="middle">1</text><text x="82.0" y="144.0" class="pc_panel_title">Candidate Products</text><text x="54.0" y="166.0" class="pc_panel_sub">Context</text><text x="54.0" y="186.0" class="pc_caption">Blunt ligation still leaves two orientation</text><text x="54.0" y="202.0" class="pc_caption">candidates for the known insert.</text><g data-molecule-id="orientation_1_candidate" data-topology="linear"><text x="52.0" y="240.0" class="pc_mol_label">Orientation 1</text><rect x="104.4" y="258.0" width="57.0" height="8" fill="#6d7f8b" data-fill-pattern="solid"/><rect x="161.5" y="258.0" width="5.0" height="8" fill="#d68f2a" data-fill-pattern="solid"/><rect x="166.5" y="258.0" width="58.7" height="8" fill="#cfd8dc" data-fill-pattern="solid"/><rect x="225.2" y="258.0" width="5.0" height="8" fill="#d68f2a" data-fill-pattern="solid"/><rect x="230.3" y="258.0" width="45.3" height="8" fill="#6d7f8b" data-fill-pattern="solid"/><rect x="104.4" y="269.0" width="57.0" height="8" fill="#6d7f8b" data-fill-pattern="solid"/><rect x="161.5" y="269.0" width="5.0" height="8" fill="#d68f2a" data-fill-pattern="solid"/><rect x="166.5" y="269.0" width="58.7" height="8" fill="#cfd8dc" data-fill-pattern="dots_50"/><rect x="166.5" y="269.0" width="58.7" height="8" fill="url(#pc_dots_50)" opacity="0.78" data-fill-pattern-overlay="dots_50"/><rect x="225.2" y="269.0" width="5.0" height="8" fill="#d68f2a" data-fill-pattern="solid"/><rect x="230.3" y="269.0" width="45.3" height="8" fill="#6d7f8b" data-fill-pattern="solid"/></g><g data-molecule-id="orientation_2_candidate" data-topology="linear"><text x="52.0" y="312.0" class="pc_mol_label">Orientation 2</text><rect x="104.4" y="330.0" width="57.0" height="8" fill="#6d7f8b" data-fill-pattern="solid"/><rect x="161.5" y="330.0" width="5.0" height="8" fill="#d68f2a" data-fill-pattern="solid"/><rect x="166.5" y="330.0" width="58.7" height="8" fill="#cfd8dc" data-fill-pattern="dots_50"/><rect x="166.5" y="330.0" width="58.7" height="8" fill="url(#pc_dots_50)" opacity="0.78" data-fill-pattern-overlay="dots_50"/><rect x="225.2" y="330.0" width="5.0" height="8" fill="#d68f2a" data-fill-pattern="solid"/><rect x="230.3" y="330.0" width="45.3" height="8" fill="#6d7f8b" data-fill-pattern="solid"/><rect x="104.4" y="341.0" width="57.0" height="8" fill="#6d7f8b" data-fill-pattern="solid"/><rect x="161.5" y="341.0" width="5.0" height="8" fill="#d68f2a" data-fill-pattern="solid"/><rect x="166.5" y="341.0" width="58.7" height="8" fill="#cfd8dc" data-fill-pattern="solid"/><rect x="225.2" y="341.0" width="5.0" height="8" fill="#d68f2a" data-fill-pattern="solid"/><rect x="230.3" y="341.0" width="45.3" height="8" fill="#6d7f8b" data-fill-pattern="solid"/></g><path d="M 348.0 289.0 L 362.0 289.0" class="pc_link"/><rect class="pc_box" x="368.0" y="114.0" width="308.0" height="324.0" rx="18" data-event-id="two_junction_pcrs" data-action="Orientation check"/><circle cx="392.0" cy="138.0" r="12" fill="#2b8ea8"/><text x="392.0" y="138.5" class="pc_step_num" text-anchor="middle" dominant-baseline="middle">2</text><text x="414.0" y="144.0" class="pc_panel_title">Two Junction PCRs</text><text x="386.0" y="166.0" class="pc_panel_sub">Orientation check</text><text x="386.0" y="186.0" class="pc_caption">One PCR at each end confirms the chosen</text><text x="386.0" y="202.0" class="pc_caption">orientation of the known insert.</text><g data-molecule-id="left_junction_pcr" data-topology="linear"><text x="384.0" y="240.0" class="pc_mol_label">Left junction PCR</text><text x="430.4" y="267.5" class="pc_end_label" text-anchor="end" dominant-baseline="middle">blunt</text><text x="613.6" y="267.5" class="pc_end_label" text-anchor="start" dominant-baseline="middle">blunt</text><rect x="436.4" y="258.0" width="81.7" height="8" fill="#6d7f8b" data-fill-pattern="solid"/><rect x="518.1" y="258.0" width="11.7" height="8" fill="#d68f2a" data-fill-pattern="solid"/><rect x="529.8" y="258.0" width="77.8" height="8" fill="#cfd8dc" data-fill-pattern="solid"/><rect x="436.4" y="269.0" width="81.7" height="8" fill="#6d7f8b" data-fill-pattern="solid"/><rect x="518.1" y="269.0" width="11.7" height="8" fill="#d68f2a" data-fill-pattern="solid"/><rect x="529.8" y="269.0" width="77.8" height="8" fill="#cfd8dc" data-fill-pattern="dots_50"/><rect x="529.8" y="269.0" width="77.8" height="8" fill="url(#pc_dots_50)" opacity="0.78" data-fill-pattern-overlay="dots_50"/><g data-primer-glyph="F" data-primer-anchor="top" data-primer-rotation="0"><line x1="453.9" y1="258.0" x2="453.9" y2="256.0" stroke="#6d7f8b" stroke-width="1.4"/><rect x="436.4" y="250.0" width="35.0" height="5.0" rx="2.2" fill="#6d7f8b" stroke="#6d7f8b" stroke-width="0.8"/><text x="453.9" y="252.9" class="pc_primer_label" text-anchor="middle" dominant-baseline="middle">F</text><text x="432.9" y="246.5" class="pc_primer_end_label" text-anchor="end" dominant-baseline="middle">5&apos;</text><text x="474.9" y="246.5" class="pc_primer_end_label" text-anchor="start" dominant-baseline="middle">3&apos;</text></g><g data-primer-glyph="R" data-primer-anchor="bottom" data-primer-rotation="0"><line x1="590.1" y1="269.0" x2="590.1" y2="274.0" stroke="#cfd8dc" stroke-width="1.4"/><rect x="572.6" y="279.0" width="35.0" height="5.0" rx="2.2" fill="#cfd8dc" stroke="#cfd8dc" stroke-width="0.8"/><text x="590.1" y="281.9" class="pc_primer_label" text-anchor="middle" dominant-baseline="middle">R</text><text x="569.1" y="290.5" class="pc_primer_end_label" text-anchor="end" dominant-baseline="middle">3&apos;</text><text x="611.1" y="290.5" class="pc_primer_end_label" text-anchor="start" dominant-baseline="middle">5&apos;</text></g></g><g data-molecule-id="right_junction_pcr" data-topology="linear"><text x="384.0" y="312.0" class="pc_mol_label">Right junction PCR</text><text x="430.4" y="339.5" class="pc_end_label" text-anchor="end" dominant-baseline="middle">blunt</text><text x="613.6" y="339.5" class="pc_end_label" text-anchor="start" dominant-baseline="middle">blunt</text><rect x="436.4" y="330.0" width="77.8" height="8" fill="#cfd8dc" data-fill-pattern="solid"/><rect x="514.2" y="330.0" width="11.7" height="8" fill="#d68f2a" data-fill-pattern="solid"/><rect x="525.9" y="330.0" width="81.7" height="8" fill="#6d7f8b" data-fill-pattern="solid"/><rect x="436.4" y="341.0" width="77.8" height="8" fill="#cfd8dc" data-fill-pattern="dots_50"/><rect x="436.4" y="341.0" width="77.8" height="8" fill="url(#pc_dots_50)" opacity="0.78" data-fill-pattern-overlay="dots_50"/><rect x="514.2" y="341.0" width="11.7" height="8" fill="#d68f2a" data-fill-pattern="solid"/><rect x="525.9" y="341.0" width="81.7" height="8" fill="#6d7f8b" data-fill-pattern="solid"/><g data-primer-glyph="F" data-primer-anchor="top" data-primer-rotation="0"><line x1="453.9" y1="330.0" x2="453.9" y2="328.0" stroke="#cfd8dc" stroke-width="1.4"/><rect x="436.4" y="322.0" width="35.0" height="5.0" rx="2.2" fill="#cfd8dc" stroke="#cfd8dc" stroke-width="0.8"/><text x="453.9" y="324.9" class="pc_primer_label" text-anchor="middle" dominant-baseline="middle">F</text><text x="432.9" y="318.5" class="pc_primer_end_label" text-anchor="end" dominant-baseline="middle">5&apos;</text><text x="474.9" y="318.5" class="pc_primer_end_label" text-anchor="start" dominant-baseline="middle">3&apos;</text></g><g data-primer-glyph="R" data-primer-anchor="bottom" data-primer-rotation="0"><line x1="590.1" y1="341.0" x2="590.1" y2="346.0" stroke="#6d7f8b" stroke-width="1.4"/><rect x="572.6" y="351.0" width="35.0" height="5.0" rx="2.2" fill="#6d7f8b" stroke="#6d7f8b" stroke-width="0.8"/><text x="590.1" y="353.9" class="pc_primer_label" text-anchor="middle" dominant-baseline="middle">R</text><text x="569.1" y="362.5" class="pc_primer_end_label" text-anchor="end" dominant-baseline="middle">3&apos;</text><text x="611.1" y="362.5" class="pc_primer_end_label" text-anchor="start" dominant-baseline="middle">5&apos;</text></g></g><path d="M 680.0 289.0 L 694.0 289.0" class="pc_link"/><rect class="pc_box" x="700.0" y="114.0" width="308.0" height="324.0" rx="18" data-event-id="concatemer_check" data-action="Negative assay"/><circle cx="724.0" cy="138.0" r="12" fill="#2b8ea8"/><text x="724.0" y="138.5" class="pc_step_num" text-anchor="middle" dominant-baseline="middle">3</text><text x="746.0" y="144.0" class="pc_panel_title">Concatemer Check</text><text x="718.0" y="166.0" class="pc_panel_sub">Negative assay</text><text x="718.0" y="186.0" class="pc_caption">Outward-facing insert-end primers should stay</text><text x="718.0" y="202.0" class="pc_caption">negative unless tandem inserts were ligated.</text><g data-molecule-id="single_insert_negative" data-topology="linear"><text x="716.0" y="240.0" class="pc_mol_label">Single insert: no band</text><rect x="768.4" y="258.0" width="171.1" height="8" fill="#cfd8dc" data-fill-pattern="solid"/><rect x="768.4" y="269.0" width="171.1" height="8" fill="#cfd8dc" data-fill-pattern="dots_50"/><rect x="768.4" y="269.0" width="171.1" height="8" fill="url(#pc_dots_50)" opacity="0.78" data-fill-pattern-overlay="dots_50"/><g data-primer-glyph="R" data-primer-anchor="bottom" data-primer-rotation="0"><line x1="787.2" y1="269.0" x2="787.2" y2="274.0" stroke="#cfd8dc" stroke-width="1.4"/><rect x="768.4" y="279.0" width="37.6" height="5.0" rx="2.2" fill="#cfd8dc" stroke="#cfd8dc" stroke-width="0.8"/><text x="787.2" y="281.9" class="pc_primer_label" text-anchor="middle" dominant-baseline="middle">R</text><text x="764.9" y="290.5" class="pc_primer_end_label" text-anchor="end" dominant-baseline="middle">3&apos;</text><text x="809.5" y="290.5" class="pc_primer_end_label" text-anchor="start" dominant-baseline="middle">5&apos;</text></g><g data-primer-glyph="F" data-primer-anchor="top" data-primer-rotation="0"><line x1="920.8" y1="258.0" x2="920.8" y2="256.0" stroke="#cfd8dc" stroke-width="1.4"/><rect x="902.0" y="250.0" width="37.6" height="5.0" rx="2.2" fill="#cfd8dc" stroke="#cfd8dc" stroke-width="0.8"/><text x="920.8" y="252.9" class="pc_primer_label" text-anchor="middle" dominant-baseline="middle">F</text><text x="898.5" y="246.5" class="pc_primer_end_label" text-anchor="end" dominant-baseline="middle">5&apos;</text><text x="943.1" y="246.5" class="pc_primer_end_label" text-anchor="start" dominant-baseline="middle">3&apos;</text></g></g><g data-molecule-id="tandem_insert_positive" data-topology="linear"><text x="716.0" y="312.0" class="pc_mol_label">Tandem insert: diagnostic band</text><text x="762.4" y="339.5" class="pc_end_label" text-anchor="end" dominant-baseline="middle">blunt</text><text x="945.6" y="339.5" class="pc_end_label" text-anchor="start" dominant-baseline="middle">blunt</text><rect x="768.4" y="330.0" width="75.1" height="8" fill="#cfd8dc" data-fill-pattern="solid"/><rect x="843.6" y="330.0" width="20.9" height="8" fill="#2a9d8f" data-fill-pattern="solid"/><rect x="864.4" y="330.0" width="75.1" height="8" fill="#cfd8dc" data-fill-pattern="solid"/><rect x="768.4" y="341.0" width="75.1" height="8" fill="#cfd8dc" data-fill-pattern="dots_50"/><rect x="768.4" y="341.0" width="75.1" height="8" fill="url(#pc_dots_50)" opacity="0.78" data-fill-pattern-overlay="dots_50"/><rect x="843.6" y="341.0" width="20.9" height="8" fill="#2a9d8f" data-fill-pattern="solid"/><rect x="864.4" y="341.0" width="75.1" height="8" fill="#cfd8dc" data-fill-pattern="dots_50"/><rect x="864.4" y="341.0" width="75.1" height="8" fill="url(#pc_dots_50)" opacity="0.78" data-fill-pattern-overlay="dots_50"/><g data-primer-glyph="F" data-primer-anchor="top" data-primer-rotation="0"><line x1="787.2" y1="330.0" x2="787.2" y2="328.0" stroke="#cfd8dc" stroke-width="1.4"/><rect x="768.4" y="322.0" width="37.6" height="5.0" rx="2.2" fill="#cfd8dc" stroke="#cfd8dc" stroke-width="0.8"/><text x="787.2" y="324.9" class="pc_primer_label" text-anchor="middle" dominant-baseline="middle">F</text><text x="764.9" y="318.5" class="pc_primer_end_label" text-anchor="end" dominant-baseline="middle">5&apos;</text><text x="809.5" y="318.5" class="pc_primer_end_label" text-anchor="start" dominant-baseline="middle">3&apos;</text></g><g data-primer-glyph="R" data-primer-anchor="bottom" data-primer-rotation="0"><line x1="920.8" y1="341.0" x2="920.8" y2="346.0" stroke="#cfd8dc" stroke-width="1.4"/><rect x="902.0" y="351.0" width="37.6" height="5.0" rx="2.2" fill="#cfd8dc" stroke="#cfd8dc" stroke-width="0.8"/><text x="920.8" y="353.9" class="pc_primer_label" text-anchor="middle" dominant-baseline="middle">R</text><text x="898.5" y="362.5" class="pc_primer_end_label" text-anchor="end" dominant-baseline="middle">3&apos;</text><text x="943.1" y="362.5" class="pc_primer_end_label" text-anchor="start" dominant-baseline="middle">5&apos;</text></g></g><text x="36.0" y="470.0" class="pc_caption">Model: event-sequence abstraction (features + overhangs + topology) | deterministic SVG export.</text></svg>