<svg xmlns="http://www.w3.org/2000/svg" width="1730" height="1388" viewBox="0 0 1730 1388"><rect x="0" y="0" width="1730" height="1388" fill="#ffffff"/><rect x="18.0" y="18.0" width="1694.0" height="1352.0" fill="#f8fafc" stroke="#cbd5e1" stroke-width="1" rx="6" ry="6"/><rect x="96.0" y="66.0" width="1600.0" height="1280.0" fill="#ffffff" stroke="#cbd5e1" stroke-width="1" rx="4" ry="4"/><line x1="256.00" y1="66.00" x2="256.00" y2="1346.00" stroke="#f1f5f9" stroke-width="1"/><line x1="96.00" y1="194.00" x2="1696.00" y2="194.00" stroke="#f1f5f9" stroke-width="1"/><line x1="416.00" y1="66.00" x2="416.00" y2="1346.00" stroke="#f1f5f9" stroke-width="1"/><line x1="96.00" y1="322.00" x2="1696.00" y2="322.00" stroke="#f1f5f9" stroke-width="1"/><line x1="576.00" y1="66.00" x2="576.00" y2="1346.00" stroke="#f1f5f9" stroke-width="1"/><line x1="96.00" y1="450.00" x2="1696.00" y2="450.00" stroke="#f1f5f9" stroke-width="1"/><line x1="736.00" y1="66.00" x2="736.00" y2="1346.00" stroke="#f1f5f9" stroke-width="1"/><line x1="96.00" y1="578.00" x2="1696.00" y2="578.00" stroke="#f1f5f9" stroke-width="1"/><line x1="896.00" y1="66.00" x2="896.00" y2="1346.00" stroke="#f1f5f9" stroke-width="1"/><line x1="96.00" y1="706.00" x2="1696.00" y2="706.00" stroke="#f1f5f9" stroke-width="1"/><line x1="1056.00" y1="66.00" x2="1056.00" y2="1346.00" stroke="#f1f5f9" stroke-width="1"/><line x1="96.00" y1="834.00" x2="1696.00" y2="834.00" stroke="#f1f5f9" stroke-width="1"/><line x1="1216.00" y1="66.00" x2="1216.00" y2="1346.00" stroke="#f1f5f9" stroke-width="1"/><line x1="96.00" y1="962.00" x2="1696.00" y2="962.00" stroke="#f1f5f9" stroke-width="1"/><line x1="1376.00" y1="66.00" x2="1376.00" y2="1346.00" stroke="#f1f5f9" stroke-width="1"/><line x1="96.00" y1="1090.00" x2="1696.00" y2="1090.00" stroke="#f1f5f9" stroke-width="1"/><line x1="1536.00" y1="66.00" x2="1536.00" y2="1346.00" stroke="#f1f5f9" stroke-width="1"/><line x1="96.00" y1="1218.00" x2="1696.00" y2="1218.00" stroke="#f1f5f9" stroke-width="1"/><rect x="96.00" y="66.00" width="1.00" height="1.00" fill="rgb(29,78,216)" fill-opacity="0.9804"/><rect x="113.00" y="75.00" width="1.00" height="1.00" fill="rgb(29,78,216)" fill-opacity="0.9804"/><rect x="130.00" y="83.00" width="1.00" height="1.00" fill="rgb(29,78,216)" fill-opacity="0.9804"/><rect x="146.00" y="92.00" width="1.00" height="1.00" fill="rgb(29,78,216)" fill-opacity="0.9804"/><rect x="1611.00" y="92.00" width="1.00" height="1.00" fill="rgb(29,78,216)" fill-opacity="0.9804"/><rect x="163.00" y="100.00" width="1.00" height="1.00" fill="rgb(29,78,216)" fill-opacity="0.9804"/><rect x="1628.00" y="100.00" width="1.00" height="1.00" fill="rgb(29,78,216)" fill-opacity="0.9804"/><rect x="180.00" y="109.00" width="1.00" height="1.00" fill="rgb(29,78,216)" fill-opacity="0.9804"/><rect x="197.00" y="118.00" width="1.00" height="1.00" fill="rgb(29,78,216)" fill-opacity="0.9804"/><rect x="466.00" y="118.00" width="1.00" height="1.00" fill="rgb(29,78,216)" fill-opacity="0.9804"/><rect x="214.00" y="126.00" width="1.00" height="1.00" fill="rgb(29,78,216)" fill-opacity="0.9804"/><rect x="231.00" y="135.00" width="1.00" height="1.00" fill="rgb(29,78,216)" fill-opacity="0.9804"/><rect x="247.00" y="143.00" width="1.00" height="1.00" fill="rgb(29,78,216)" fill-opacity="0.9804"/><rect x="264.00" y="152.00" width="1.00" height="1.00" fill="rgb(29,78,216)" fill-opacity="0.9804"/><rect x="752.00" y="152.00" width="1.00" height="1.00" fill="rgb(29,78,216)" fill-opacity="0.9804"/><rect x="281.00" y="160.00" width="1.00" height="1.00" fill="rgb(29,78,216)" fill-opacity="0.9804"/><rect x="298.00" y="169.00" width="1.00" height="1.00" fill="rgb(29,78,216)" fill-opacity="0.9804"/><rect x="315.00" y="178.00" width="1.00" height="1.00" fill="rgb(29,78,216)" fill-opacity="0.9804"/><rect x="332.00" y="186.00" width="1.00" height="1.00" fill="rgb(29,78,216)" fill-opacity="0.9804"/><rect x="348.00" y="195.00" width="1.00" height="1.00" fill="rgb(29,78,216)" fill-opacity="0.9804"/><rect x="1527.00" y="195.00" width="1.00" height="1.00" fill="rgb(29,78,216)" fill-opacity="0.9804"/><rect x="365.00" y="203.00" width="1.00" height="1.00" fill="rgb(29,78,216)" fill-opacity="0.9804"/><rect x="1544.00" y="203.00" width="1.00" height="1.00" fill="rgb(29,78,216)" fill-opacity="0.9804"/><rect x="382.00" y="212.00" width="1.00" height="1.00" fill="rgb(29,78,216)" fill-opacity="0.9804"/><rect x="1560.00" y="212.00" width="1.00" height="1.00" fill="rgb(29,78,216)" fill-opacity="0.9804"/><rect x="399.00" y="221.00" width="1.00" height="1.00" fill="rgb(29,78,216)" fill-opacity="0.9804"/><rect x="416.00" y="229.00" width="1.00" height="1.00" fill="rgb(29,78,216)" fill-opacity="0.9804"/><rect x="332.00" y="366.00" width="1.00" height="1.00" fill="rgb(29,78,216)" fill-opacity="0.9804"/><rect x="500.00" y="427.00" width="1.00" height="1.00" fill="rgb(29,78,216)" fill-opacity="0.9804"/><rect x="517.00" y="435.00" width="1.00" height="1.00" fill="rgb(29,78,216)" fill-opacity="0.9804"/><rect x="534.00" y="444.00" width="1.00" height="1.00" fill="rgb(29,78,216)" fill-opacity="0.9804"/><rect x="550.00" y="452.00" width="1.00" height="1.00" fill="rgb(29,78,216)" fill-opacity="0.9804"/><rect x="567.00" y="461.00" width="1.00" height="1.00" fill="rgb(29,78,216)" fill-opacity="0.9804"/><rect x="584.00" y="469.00" width="1.00" height="1.00" fill="rgb(29,78,216)" fill-opacity="0.9804"/><rect x="601.00" y="478.00" width="1.00" height="1.00" fill="rgb(29,78,216)" fill-opacity="0.9804"/><rect x="618.00" y="487.00" width="1.00" height="1.00" fill="rgb(29,78,216)" fill-opacity="0.9804"/><rect x="870.00" y="487.00" width="1.00" height="1.00" fill="rgb(29,78,216)" fill-opacity="0.9804"/><rect x="635.00" y="495.00" width="1.00" height="1.00" fill="rgb(29,78,216)" fill-opacity="0.9804"/><rect x="651.00" y="504.00" width="1.00" height="1.00" fill="rgb(29,78,216)" fill-opacity="0.9804"/><rect x="668.00" y="512.00" width="1.00" height="1.00" fill="rgb(29,78,216)" fill-opacity="0.9804"/><rect x="685.00" y="521.00" width="1.00" height="1.00" fill="rgb(29,78,216)" fill-opacity="0.9804"/><rect x="702.00" y="530.00" width="1.00" height="1.00" fill="rgb(29,78,216)" fill-opacity="0.9804"/><rect x="719.00" y="538.00" width="1.00" height="1.00" fill="rgb(29,78,216)" fill-opacity="0.9804"/><rect x="736.00" y="547.00" width="1.00" height="1.00" fill="rgb(29,78,216)" fill-opacity="0.9804"/><rect x="264.00" y="555.00" width="1.00" height="1.00" fill="rgb(29,78,216)" fill-opacity="0.9804"/><rect x="752.00" y="555.00" width="1.00" height="1.00" fill="rgb(29,78,216)" fill-opacity="0.9804"/><rect x="769.00" y="564.00" width="1.00" height="1.00" fill="rgb(29,78,216)" fill-opacity="0.9804"/><rect x="786.00" y="572.00" width="1.00" height="1.00" fill="rgb(29,78,216)" fill-opacity="0.9804"/><rect x="803.00" y="581.00" width="1.00" height="1.00" fill="rgb(29,78,216)" fill-opacity="0.9804"/><rect x="820.00" y="590.00" width="1.00" height="1.00" fill="rgb(29,78,216)" fill-opacity="0.9804"/><rect x="1426.00" y="590.00" width="1.00" height="1.00" fill="rgb(29,78,216)" fill-opacity="0.9804"/><rect x="1005.00" y="658.00" width="1.00" height="1.00" fill="rgb(29,78,216)" fill-opacity="0.9804"/><rect x="618.00" y="693.00" width="1.00" height="1.00" fill="rgb(29,78,216)" fill-opacity="0.9804"/><rect x="870.00" y="693.00" width="1.00" height="1.00" fill="rgb(29,78,216)" fill-opacity="0.9804"/><rect x="1156.00" y="718.00" width="1.00" height="1.00" fill="rgb(29,78,216)" fill-opacity="0.9804"/><rect x="1375.00" y="718.00" width="1.00" height="1.00" fill="rgb(29,78,216)" fill-opacity="0.9804"/><rect x="954.00" y="753.00" width="1.00" height="1.00" fill="rgb(29,78,216)" fill-opacity="0.9804"/><rect x="904.00" y="787.00" width="1.00" height="1.00" fill="rgb(29,78,216)" fill-opacity="0.9804"/><rect x="921.00" y="796.00" width="1.00" height="1.00" fill="rgb(29,78,216)" fill-opacity="0.9804"/><rect x="938.00" y="804.00" width="1.00" height="1.00" fill="rgb(29,78,216)" fill-opacity="0.9804"/><rect x="954.00" y="813.00" width="1.00" height="1.00" fill="rgb(29,78,216)" fill-opacity="0.9804"/><rect x="971.00" y="821.00" width="1.00" height="1.00" fill="rgb(29,78,216)" fill-opacity="0.9804"/><rect x="988.00" y="830.00" width="1.00" height="1.00" fill="rgb(29,78,216)" fill-opacity="0.9804"/><rect x="1005.00" y="839.00" width="1.00" height="1.00" fill="rgb(29,78,216)" fill-opacity="0.9804"/><rect x="1022.00" y="847.00" width="1.00" height="1.00" fill="rgb(29,78,216)" fill-opacity="0.9804"/><rect x="1039.00" y="856.00" width="1.00" height="1.00" fill="rgb(29,78,216)" fill-opacity="0.9804"/><rect x="1055.00" y="864.00" width="1.00" height="1.00" fill="rgb(29,78,216)" fill-opacity="0.9804"/><rect x="1072.00" y="873.00" width="1.00" height="1.00" fill="rgb(29,78,216)" fill-opacity="0.9804"/><rect x="1089.00" y="881.00" width="1.00" height="1.00" fill="rgb(29,78,216)" fill-opacity="0.9804"/><rect x="1106.00" y="890.00" width="1.00" height="1.00" fill="rgb(29,78,216)" fill-opacity="0.9804"/><rect x="1123.00" y="899.00" width="1.00" height="1.00" fill="rgb(29,78,216)" fill-opacity="0.9804"/><rect x="1140.00" y="907.00" width="1.00" height="1.00" fill="rgb(29,78,216)" fill-opacity="0.9804"/><rect x="1156.00" y="916.00" width="1.00" height="1.00" fill="rgb(29,78,216)" fill-opacity="0.9804"/><rect x="1375.00" y="916.00" width="1.00" height="1.00" fill="rgb(29,78,216)" fill-opacity="0.9804"/><rect x="1173.00" y="924.00" width="1.00" height="1.00" fill="rgb(29,78,216)" fill-opacity="0.9804"/><rect x="1190.00" y="933.00" width="1.00" height="1.00" fill="rgb(29,78,216)" fill-opacity="0.9804"/><rect x="1207.00" y="942.00" width="1.00" height="1.00" fill="rgb(29,78,216)" fill-opacity="0.9804"/><rect x="1224.00" y="950.00" width="1.00" height="1.00" fill="rgb(29,78,216)" fill-opacity="0.9804"/><rect x="1173.00" y="1113.00" width="1.00" height="1.00" fill="rgb(29,78,216)" fill-opacity="0.9804"/><rect x="1291.00" y="1139.00" width="1.00" height="1.00" fill="rgb(29,78,216)" fill-opacity="0.9804"/><rect x="1308.00" y="1148.00" width="1.00" height="1.00" fill="rgb(29,78,216)" fill-opacity="0.9804"/><rect x="1325.00" y="1156.00" width="1.00" height="1.00" fill="rgb(29,78,216)" fill-opacity="0.9804"/><rect x="1342.00" y="1165.00" width="1.00" height="1.00" fill="rgb(29,78,216)" fill-opacity="0.9804"/><rect x="1358.00" y="1173.00" width="1.00" height="1.00" fill="rgb(29,78,216)" fill-opacity="0.9804"/><rect x="1156.00" y="1182.00" width="1.00" height="1.00" fill="rgb(29,78,216)" fill-opacity="0.9804"/><rect x="1375.00" y="1182.00" width="1.00" height="1.00" fill="rgb(29,78,216)" fill-opacity="0.9804"/><rect x="1392.00" y="1190.00" width="1.00" height="1.00" fill="rgb(29,78,216)" fill-opacity="0.9804"/><rect x="1409.00" y="1199.00" width="1.00" height="1.00" fill="rgb(29,78,216)" fill-opacity="0.9804"/><rect x="820.00" y="1208.00" width="1.00" height="1.00" fill="rgb(29,78,216)" fill-opacity="0.9804"/><rect x="1426.00" y="1208.00" width="1.00" height="1.00" fill="rgb(29,78,216)" fill-opacity="0.9804"/><rect x="1443.00" y="1216.00" width="1.00" height="1.00" fill="rgb(29,78,216)" fill-opacity="0.9804"/><rect x="1459.00" y="1225.00" width="1.00" height="1.00" fill="rgb(29,78,216)" fill-opacity="0.9804"/><rect x="1476.00" y="1233.00" width="1.00" height="1.00" fill="rgb(29,78,216)" fill-opacity="0.9804"/><rect x="1493.00" y="1242.00" width="1.00" height="1.00" fill="rgb(29,78,216)" fill-opacity="0.9804"/><rect x="1510.00" y="1251.00" width="1.00" height="1.00" fill="rgb(29,78,216)" fill-opacity="0.9804"/><rect x="348.00" y="1259.00" width="1.00" height="1.00" fill="rgb(29,78,216)" fill-opacity="0.9804"/><rect x="1527.00" y="1259.00" width="1.00" height="1.00" fill="rgb(29,78,216)" fill-opacity="0.9804"/><rect x="365.00" y="1268.00" width="1.00" height="1.00" fill="rgb(29,78,216)" fill-opacity="0.9804"/><rect x="1544.00" y="1268.00" width="1.00" height="1.00" fill="rgb(29,78,216)" fill-opacity="0.9804"/><rect x="382.00" y="1276.00" width="1.00" height="1.00" fill="rgb(29,78,216)" fill-opacity="0.9804"/><rect x="1560.00" y="1276.00" width="1.00" height="1.00" fill="rgb(29,78,216)" fill-opacity="0.9804"/><rect x="1577.00" y="1285.00" width="1.00" height="1.00" fill="rgb(29,78,216)" fill-opacity="0.9804"/><rect x="1594.00" y="1293.00" width="1.00" height="1.00" fill="rgb(29,78,216)" fill-opacity="0.9804"/><rect x="146.00" y="1302.00" width="1.00" height="1.00" fill="rgb(29,78,216)" fill-opacity="0.9804"/><rect x="1611.00" y="1302.00" width="1.00" height="1.00" fill="rgb(29,78,216)" fill-opacity="0.9804"/><rect x="163.00" y="1311.00" width="1.00" height="1.00" fill="rgb(29,78,216)" fill-opacity="0.9804"/><rect x="1628.00" y="1311.00" width="1.00" height="1.00" fill="rgb(29,78,216)" fill-opacity="0.9804"/><rect x="1611.00" y="92.00" width="1.00" height="1.00" fill="rgb(220,38,38)" fill-opacity="0.9804"/><rect x="1628.00" y="100.00" width="1.00" height="1.00" fill="rgb(220,38,38)" fill-opacity="0.9804"/><rect x="752.00" y="152.00" width="1.00" height="1.00" fill="rgb(220,38,38)" fill-opacity="0.9804"/><rect x="1527.00" y="195.00" width="1.00" height="1.00" fill="rgb(220,38,38)" fill-opacity="0.9804"/><rect x="1544.00" y="203.00" width="1.00" height="1.00" fill="rgb(220,38,38)" fill-opacity="0.9804"/><rect x="1560.00" y="212.00" width="1.00" height="1.00" fill="rgb(220,38,38)" fill-opacity="0.9804"/><rect x="500.00" y="427.00" width="1.00" height="1.00" fill="rgb(220,38,38)" fill-opacity="0.9804"/><rect x="517.00" y="435.00" width="1.00" height="1.00" fill="rgb(220,38,38)" fill-opacity="0.9804"/><rect x="534.00" y="444.00" width="1.00" height="1.00" fill="rgb(220,38,38)" fill-opacity="0.9804"/><rect x="550.00" y="452.00" width="1.00" height="1.00" fill="rgb(220,38,38)" fill-opacity="0.9804"/><rect x="567.00" y="461.00" width="1.00" height="1.00" fill="rgb(220,38,38)" fill-opacity="0.9804"/><rect x="584.00" y="469.00" width="1.00" height="1.00" fill="rgb(220,38,38)" fill-opacity="0.9804"/><rect x="601.00" y="478.00" width="1.00" height="1.00" fill="rgb(220,38,38)" fill-opacity="0.9804"/><rect x="618.00" y="487.00" width="1.00" height="1.00" fill="rgb(220,38,38)" fill-opacity="0.9804"/><rect x="870.00" y="487.00" width="1.00" height="1.00" fill="rgb(220,38,38)" fill-opacity="0.9804"/><rect x="635.00" y="495.00" width="1.00" height="1.00" fill="rgb(220,38,38)" fill-opacity="0.9804"/><rect x="651.00" y="504.00" width="1.00" height="1.00" fill="rgb(220,38,38)" fill-opacity="0.9804"/><rect x="668.00" y="512.00" width="1.00" height="1.00" fill="rgb(220,38,38)" fill-opacity="0.9804"/><rect x="685.00" y="521.00" width="1.00" height="1.00" fill="rgb(220,38,38)" fill-opacity="0.9804"/><rect x="702.00" y="530.00" width="1.00" height="1.00" fill="rgb(220,38,38)" fill-opacity="0.9804"/><rect x="719.00" y="538.00" width="1.00" height="1.00" fill="rgb(220,38,38)" fill-opacity="0.9804"/><rect x="736.00" y="547.00" width="1.00" height="1.00" fill="rgb(220,38,38)" fill-opacity="0.9804"/><rect x="752.00" y="555.00" width="1.00" height="1.00" fill="rgb(220,38,38)" fill-opacity="0.9804"/><rect x="769.00" y="564.00" width="1.00" height="1.00" fill="rgb(220,38,38)" fill-opacity="0.9804"/><rect x="786.00" y="572.00" width="1.00" height="1.00" fill="rgb(220,38,38)" fill-opacity="0.9804"/><rect x="803.00" y="581.00" width="1.00" height="1.00" fill="rgb(220,38,38)" fill-opacity="0.9804"/><rect x="820.00" y="590.00" width="1.00" height="1.00" fill="rgb(220,38,38)" fill-opacity="0.9804"/><rect x="1426.00" y="590.00" width="1.00" height="1.00" fill="rgb(220,38,38)" fill-opacity="0.9804"/><rect x="1005.00" y="658.00" width="1.00" height="1.00" fill="rgb(220,38,38)" fill-opacity="0.9804"/><rect x="618.00" y="693.00" width="1.00" height="1.00" fill="rgb(220,38,38)" fill-opacity="0.9804"/><rect x="870.00" y="693.00" width="1.00" height="1.00" fill="rgb(220,38,38)" fill-opacity="0.9804"/><rect x="1156.00" y="718.00" width="1.00" height="1.00" fill="rgb(220,38,38)" fill-opacity="0.9804"/><rect x="1375.00" y="718.00" width="1.00" height="1.00" fill="rgb(220,38,38)" fill-opacity="0.9804"/><rect x="954.00" y="753.00" width="1.00" height="1.00" fill="rgb(220,38,38)" fill-opacity="0.9804"/><rect x="904.00" y="787.00" width="1.00" height="1.00" fill="rgb(220,38,38)" fill-opacity="0.9804"/><rect x="921.00" y="796.00" width="1.00" height="1.00" fill="rgb(220,38,38)" fill-opacity="0.9804"/><rect x="938.00" y="804.00" width="1.00" height="1.00" fill="rgb(220,38,38)" fill-opacity="0.9804"/><rect x="954.00" y="813.00" width="1.00" height="1.00" fill="rgb(220,38,38)" fill-opacity="0.9804"/><rect x="971.00" y="821.00" width="1.00" height="1.00" fill="rgb(220,38,38)" fill-opacity="0.9804"/><rect x="988.00" y="830.00" width="1.00" height="1.00" fill="rgb(220,38,38)" fill-opacity="0.9804"/><rect x="1005.00" y="839.00" width="1.00" height="1.00" fill="rgb(220,38,38)" fill-opacity="0.9804"/><rect x="1022.00" y="847.00" width="1.00" height="1.00" fill="rgb(220,38,38)" fill-opacity="0.9804"/><rect x="1039.00" y="856.00" width="1.00" height="1.00" fill="rgb(220,38,38)" fill-opacity="0.9804"/><rect x="1055.00" y="864.00" width="1.00" height="1.00" fill="rgb(220,38,38)" fill-opacity="0.9804"/><rect x="1072.00" y="873.00" width="1.00" height="1.00" fill="rgb(220,38,38)" fill-opacity="0.9804"/><rect x="1089.00" y="881.00" width="1.00" height="1.00" fill="rgb(220,38,38)" fill-opacity="0.9804"/><rect x="1106.00" y="890.00" width="1.00" height="1.00" fill="rgb(220,38,38)" fill-opacity="0.9804"/><rect x="1123.00" y="899.00" width="1.00" height="1.00" fill="rgb(220,38,38)" fill-opacity="0.9804"/><rect x="1140.00" y="907.00" width="1.00" height="1.00" fill="rgb(220,38,38)" fill-opacity="0.9804"/><rect x="1156.00" y="916.00" width="1.00" height="1.00" fill="rgb(220,38,38)" fill-opacity="0.9804"/><rect x="1375.00" y="916.00" width="1.00" height="1.00" fill="rgb(220,38,38)" fill-opacity="0.9804"/><rect x="1173.00" y="924.00" width="1.00" height="1.00" fill="rgb(220,38,38)" fill-opacity="0.9804"/><rect x="1190.00" y="933.00" width="1.00" height="1.00" fill="rgb(220,38,38)" fill-opacity="0.9804"/><rect x="1207.00" y="942.00" width="1.00" height="1.00" fill="rgb(220,38,38)" fill-opacity="0.9804"/><rect x="1224.00" y="950.00" width="1.00" height="1.00" fill="rgb(220,38,38)" fill-opacity="0.9804"/><rect x="1173.00" y="1113.00" width="1.00" height="1.00" fill="rgb(220,38,38)" fill-opacity="0.9804"/><rect x="1291.00" y="1139.00" width="1.00" height="1.00" fill="rgb(220,38,38)" fill-opacity="0.9804"/><rect x="1308.00" y="1148.00" width="1.00" height="1.00" fill="rgb(220,38,38)" fill-opacity="0.9804"/><rect x="1325.00" y="1156.00" width="1.00" height="1.00" fill="rgb(220,38,38)" fill-opacity="0.9804"/><rect x="1342.00" y="1165.00" width="1.00" height="1.00" fill="rgb(220,38,38)" fill-opacity="0.9804"/><rect x="1358.00" y="1173.00" width="1.00" height="1.00" fill="rgb(220,38,38)" fill-opacity="0.9804"/><rect x="1156.00" y="1182.00" width="1.00" height="1.00" fill="rgb(220,38,38)" fill-opacity="0.9804"/><rect x="1375.00" y="1182.00" width="1.00" height="1.00" fill="rgb(220,38,38)" fill-opacity="0.9804"/><rect x="1392.00" y="1190.00" width="1.00" height="1.00" fill="rgb(220,38,38)" fill-opacity="0.9804"/><rect x="1409.00" y="1199.00" width="1.00" height="1.00" fill="rgb(220,38,38)" fill-opacity="0.9804"/><rect x="820.00" y="1208.00" width="1.00" height="1.00" fill="rgb(220,38,38)" fill-opacity="0.9804"/><rect x="1426.00" y="1208.00" width="1.00" height="1.00" fill="rgb(220,38,38)" fill-opacity="0.9804"/><rect x="1443.00" y="1216.00" width="1.00" height="1.00" fill="rgb(220,38,38)" fill-opacity="0.9804"/><rect x="1459.00" y="1225.00" width="1.00" height="1.00" fill="rgb(220,38,38)" fill-opacity="0.9804"/><rect x="1476.00" y="1233.00" width="1.00" height="1.00" fill="rgb(220,38,38)" fill-opacity="0.9804"/><rect x="1493.00" y="1242.00" width="1.00" height="1.00" fill="rgb(220,38,38)" fill-opacity="0.9804"/><rect x="1510.00" y="1251.00" width="1.00" height="1.00" fill="rgb(220,38,38)" fill-opacity="0.9804"/><rect x="1527.00" y="1259.00" width="1.00" height="1.00" fill="rgb(220,38,38)" fill-opacity="0.9804"/><rect x="1544.00" y="1268.00" width="1.00" height="1.00" fill="rgb(220,38,38)" fill-opacity="0.9804"/><rect x="1560.00" y="1276.00" width="1.00" height="1.00" fill="rgb(220,38,38)" fill-opacity="0.9804"/><rect x="1577.00" y="1285.00" width="1.00" height="1.00" fill="rgb(220,38,38)" fill-opacity="0.9804"/><rect x="1594.00" y="1293.00" width="1.00" height="1.00" fill="rgb(220,38,38)" fill-opacity="0.9804"/><rect x="1611.00" y="1302.00" width="1.00" height="1.00" fill="rgb(220,38,38)" fill-opacity="0.9804"/><rect x="1628.00" y="1311.00" width="1.00" height="1.00" fill="rgb(220,38,38)" fill-opacity="0.9804"/><rect x="96.00" y="66.00" width="1.00" height="1.00" fill="rgb(5,150,105)" fill-opacity="0.9804"/><rect x="113.00" y="75.00" width="1.00" height="1.00" fill="rgb(5,150,105)" fill-opacity="0.9804"/><rect x="130.00" y="83.00" width="1.00" height="1.00" fill="rgb(5,150,105)" fill-opacity="0.9804"/><rect x="146.00" y="92.00" width="1.00" height="1.00" fill="rgb(5,150,105)" fill-opacity="0.9804"/><rect x="163.00" y="100.00" width="1.00" height="1.00" fill="rgb(5,150,105)" fill-opacity="0.9804"/><rect x="180.00" y="109.00" width="1.00" height="1.00" fill="rgb(5,150,105)" fill-opacity="0.9804"/><rect x="197.00" y="118.00" width="1.00" height="1.00" fill="rgb(5,150,105)" fill-opacity="0.9804"/><rect x="466.00" y="118.00" width="1.00" height="1.00" fill="rgb(5,150,105)" fill-opacity="0.9804"/><rect x="214.00" y="126.00" width="1.00" height="1.00" fill="rgb(5,150,105)" fill-opacity="0.9804"/><rect x="231.00" y="135.00" width="1.00" height="1.00" fill="rgb(5,150,105)" fill-opacity="0.9804"/><rect x="247.00" y="143.00" width="1.00" height="1.00" fill="rgb(5,150,105)" fill-opacity="0.9804"/><rect x="264.00" y="152.00" width="1.00" height="1.00" fill="rgb(5,150,105)" fill-opacity="0.9804"/><rect x="752.00" y="152.00" width="1.00" height="1.00" fill="rgb(5,150,105)" fill-opacity="0.9804"/><rect x="281.00" y="160.00" width="1.00" height="1.00" fill="rgb(5,150,105)" fill-opacity="0.9804"/><rect x="298.00" y="169.00" width="1.00" height="1.00" fill="rgb(5,150,105)" fill-opacity="0.9804"/><rect x="315.00" y="178.00" width="1.00" height="1.00" fill="rgb(5,150,105)" fill-opacity="0.9804"/><rect x="332.00" y="186.00" width="1.00" height="1.00" fill="rgb(5,150,105)" fill-opacity="0.9804"/><rect x="348.00" y="195.00" width="1.00" height="1.00" fill="rgb(5,150,105)" fill-opacity="0.9804"/><rect x="365.00" y="203.00" width="1.00" height="1.00" fill="rgb(5,150,105)" fill-opacity="0.9804"/><rect x="382.00" y="212.00" width="1.00" height="1.00" fill="rgb(5,150,105)" fill-opacity="0.9804"/><rect x="399.00" y="221.00" width="1.00" height="1.00" fill="rgb(5,150,105)" fill-opacity="0.9804"/><rect x="416.00" y="229.00" width="1.00" height="1.00" fill="rgb(5,150,105)" fill-opacity="0.9804"/><rect x="332.00" y="366.00" width="1.00" height="1.00" fill="rgb(5,150,105)" fill-opacity="0.9804"/><rect x="500.00" y="427.00" width="1.00" height="1.00" fill="rgb(5,150,105)" fill-opacity="0.9804"/><rect x="517.00" y="435.00" width="1.00" height="1.00" fill="rgb(5,150,105)" fill-opacity="0.9804"/><rect x="534.00" y="444.00" width="1.00" height="1.00" fill="rgb(5,150,105)" fill-opacity="0.9804"/><rect x="550.00" y="452.00" width="1.00" height="1.00" fill="rgb(5,150,105)" fill-opacity="0.9804"/><rect x="567.00" y="461.00" width="1.00" height="1.00" fill="rgb(5,150,105)" fill-opacity="0.9804"/><rect x="584.00" y="469.00" width="1.00" height="1.00" fill="rgb(5,150,105)" fill-opacity="0.9804"/><rect x="601.00" y="478.00" width="1.00" height="1.00" fill="rgb(5,150,105)" fill-opacity="0.9804"/><rect x="618.00" y="487.00" width="1.00" height="1.00" fill="rgb(5,150,105)" fill-opacity="0.9804"/><rect x="870.00" y="487.00" width="1.00" height="1.00" fill="rgb(5,150,105)" fill-opacity="0.9804"/><rect x="635.00" y="495.00" width="1.00" height="1.00" fill="rgb(5,150,105)" fill-opacity="0.9804"/><rect x="651.00" y="504.00" width="1.00" height="1.00" fill="rgb(5,150,105)" fill-opacity="0.9804"/><rect x="668.00" y="512.00" width="1.00" height="1.00" fill="rgb(5,150,105)" fill-opacity="0.9804"/><rect x="685.00" y="521.00" width="1.00" height="1.00" fill="rgb(5,150,105)" fill-opacity="0.9804"/><rect x="702.00" y="530.00" width="1.00" height="1.00" fill="rgb(5,150,105)" fill-opacity="0.9804"/><rect x="719.00" y="538.00" width="1.00" height="1.00" fill="rgb(5,150,105)" fill-opacity="0.9804"/><rect x="736.00" y="547.00" width="1.00" height="1.00" fill="rgb(5,150,105)" fill-opacity="0.9804"/><rect x="264.00" y="555.00" width="1.00" height="1.00" fill="rgb(5,150,105)" fill-opacity="0.9804"/><rect x="752.00" y="555.00" width="1.00" height="1.00" fill="rgb(5,150,105)" fill-opacity="0.9804"/><rect x="769.00" y="564.00" width="1.00" height="1.00" fill="rgb(5,150,105)" fill-opacity="0.9804"/><rect x="786.00" y="572.00" width="1.00" height="1.00" fill="rgb(5,150,105)" fill-opacity="0.9804"/><rect x="803.00" y="581.00" width="1.00" height="1.00" fill="rgb(5,150,105)" fill-opacity="0.9804"/><rect x="820.00" y="590.00" width="1.00" height="1.00" fill="rgb(5,150,105)" fill-opacity="0.9804"/><rect x="1005.00" y="658.00" width="1.00" height="1.00" fill="rgb(5,150,105)" fill-opacity="0.9804"/><rect x="618.00" y="693.00" width="1.00" height="1.00" fill="rgb(5,150,105)" fill-opacity="0.9804"/><rect x="870.00" y="693.00" width="1.00" height="1.00" fill="rgb(5,150,105)" fill-opacity="0.9804"/><rect x="1156.00" y="718.00" width="1.00" height="1.00" fill="rgb(5,150,105)" fill-opacity="0.9804"/><rect x="954.00" y="753.00" width="1.00" height="1.00" fill="rgb(5,150,105)" fill-opacity="0.9804"/><rect x="904.00" y="787.00" width="1.00" height="1.00" fill="rgb(5,150,105)" fill-opacity="0.9804"/><rect x="921.00" y="796.00" width="1.00" height="1.00" fill="rgb(5,150,105)" fill-opacity="0.9804"/><rect x="938.00" y="804.00" width="1.00" height="1.00" fill="rgb(5,150,105)" fill-opacity="0.9804"/><rect x="954.00" y="813.00" width="1.00" height="1.00" fill="rgb(5,150,105)" fill-opacity="0.9804"/><rect x="971.00" y="821.00" width="1.00" height="1.00" fill="rgb(5,150,105)" fill-opacity="0.9804"/><rect x="988.00" y="830.00" width="1.00" height="1.00" fill="rgb(5,150,105)" fill-opacity="0.9804"/><rect x="1005.00" y="839.00" width="1.00" height="1.00" fill="rgb(5,150,105)" fill-opacity="0.9804"/><rect x="1022.00" y="847.00" width="1.00" height="1.00" fill="rgb(5,150,105)" fill-opacity="0.9804"/><rect x="1039.00" y="856.00" width="1.00" height="1.00" fill="rgb(5,150,105)" fill-opacity="0.9804"/><rect x="1055.00" y="864.00" width="1.00" height="1.00" fill="rgb(5,150,105)" fill-opacity="0.9804"/><rect x="1072.00" y="873.00" width="1.00" height="1.00" fill="rgb(5,150,105)" fill-opacity="0.9804"/><rect x="1089.00" y="881.00" width="1.00" height="1.00" fill="rgb(5,150,105)" fill-opacity="0.9804"/><rect x="1106.00" y="890.00" width="1.00" height="1.00" fill="rgb(5,150,105)" fill-opacity="0.9804"/><rect x="1123.00" y="899.00" width="1.00" height="1.00" fill="rgb(5,150,105)" fill-opacity="0.9804"/><rect x="1140.00" y="907.00" width="1.00" height="1.00" fill="rgb(5,150,105)" fill-opacity="0.9804"/><rect x="1156.00" y="916.00" width="1.00" height="1.00" fill="rgb(5,150,105)" fill-opacity="0.9804"/><rect x="1173.00" y="924.00" width="1.00" height="1.00" fill="rgb(5,150,105)" fill-opacity="0.9804"/><rect x="1190.00" y="933.00" width="1.00" height="1.00" fill="rgb(5,150,105)" fill-opacity="0.9804"/><rect x="1207.00" y="942.00" width="1.00" height="1.00" fill="rgb(5,150,105)" fill-opacity="0.9804"/><rect x="1224.00" y="950.00" width="1.00" height="1.00" fill="rgb(5,150,105)" fill-opacity="0.9804"/><rect x="1173.00" y="1113.00" width="1.00" height="1.00" fill="rgb(5,150,105)" fill-opacity="0.9804"/><rect x="1156.00" y="1182.00" width="1.00" height="1.00" fill="rgb(5,150,105)" fill-opacity="0.9804"/><rect x="820.00" y="1208.00" width="1.00" height="1.00" fill="rgb(5,150,105)" fill-opacity="0.9804"/><rect x="348.00" y="1259.00" width="1.00" height="1.00" fill="rgb(5,150,105)" fill-opacity="0.9804"/><rect x="365.00" y="1268.00" width="1.00" height="1.00" fill="rgb(5,150,105)" fill-opacity="0.9804"/><rect x="382.00" y="1276.00" width="1.00" height="1.00" fill="rgb(5,150,105)" fill-opacity="0.9804"/><rect x="146.00" y="1302.00" width="1.00" height="1.00" fill="rgb(5,150,105)" fill-opacity="0.9804"/><rect x="163.00" y="1311.00" width="1.00" height="1.00" fill="rgb(5,150,105)" fill-opacity="0.9804"/><rect x="80.0" y="66.0" width="10.0" height="1280.0" fill="#f8fafc" stroke="#cbd5e1" stroke-width="1" rx="2" ry="2"/><rect x="81.00" y="66.00" width="8.00" height="204.80" fill="#22c55e" rx="1" ry="1"/><rect x="81.00" y="424.40" width="8.00" height="204.80" fill="#22c55e" rx="1" ry="1"/><rect x="81.00" y="782.80" width="8.00" height="204.80" fill="#22c55e" rx="1" ry="1"/><rect x="81.00" y="1141.20" width="8.00" height="204.80" fill="#22c55e" rx="1" ry="1"/><text x="85.0" y="32.0" text-anchor="middle" font-family="monospace" font-size="9" fill="#334155">merged exons</text><text x="96.0" y="34.0" font-family="monospace" font-size="13" fill="#0f172a">Dotplot workspace export: toy_shared_exon_anchor_dotplot | overlay owner=toy_anchor_ref reference=toy_anchor_ref [1..150] | series=3 total_points=264 | word=5 step=1 mismatches=0 | x_axis=shared_exon_anchor anchor=85..108 | threshold=0.00 gain=1.80</text><text x="96.0" y="49.0" font-family="monospace" font-size="10" fill="#64748b">adjacent windows overlap by 4 bp; each interior base participates in 5 consecutive ordered windows (dense sliding) | rendered_cells=264 | merged_exons=4</text><rect x="96.00" y="52.00" width="10" height="10" fill="rgb(29,78,216)" rx="1" ry="1"/><text x="110.00" y="60.00" font-family="monospace" font-size="9.5" fill="#334155">Longest</text><rect x="162.70" y="52.00" width="10" height="10" fill="rgb(220,38,38)" rx="1" ry="1"/><text x="176.70" y="60.00" font-family="monospace" font-size="9.5" fill="#334155">delta 5&apos;</text><rect x="235.50" y="52.00" width="10" height="10" fill="rgb(5,150,105)" rx="1" ry="1"/><text x="249.50" y="60.00" font-family="monospace" font-size="9.5" fill="#334155">delta 3&apos;</text><text x="96.0" y="74.0" font-family="monospace" font-size="10" fill="#334155">x: isoform query bp (shared exon anchored)</text><text x="1696.0" y="74.0" text-anchor="end" font-family="monospace" font-size="10" fill="#334155">y: toy_anchor_ref</text><text x="96.0" y="1360.0" font-family="monospace" font-size="10" fill="#475569">1</text><text x="1696.0" y="1360.0" text-anchor="end" font-family="monospace" font-size="10" fill="#475569">96</text><text x="90.0" y="76.0" text-anchor="end" font-family="monospace" font-size="10" fill="#475569">1</text><text x="90.0" y="1346.0" text-anchor="end" font-family="monospace" font-size="10" fill="#475569">150</text><text x="1712.0" y="1382.0" text-anchor="end" font-family="monospace" font-size="10" fill="#64748b">GENtle dotplot SVG export</text></svg>