<svg xmlns="http://www.w3.org/2000/svg" width="1180" height="568" viewBox="0 0 1180 568" role="img" aria-labelledby="title desc" data-schema="gentle.cdna_assay_transcript_map.v1"><title id="title">cDNA QPCR assay transcript map</title><desc id="desc">3 product(s) across 3/3 transcript template(s); 3 row(s) shown.</desc><style>.bg{fill:#ffffff}.panel{fill:#f8fafc;stroke:#cbd5e1;stroke-width:1}.title{font:700 24px 'Avenir Next','Segoe UI',Arial,sans-serif;fill:#0f172a}.sub{font:500 13px 'Avenir Next','Segoe UI',Arial,sans-serif;fill:#475569}.label{font:600 12px 'Avenir Next','Segoe UI',Arial,sans-serif;fill:#1e293b}.small{font:500 11px 'Avenir Next','Segoe UI',Arial,sans-serif;fill:#64748b}.axis{font:600 10px 'Avenir Next','Segoe UI',Arial,sans-serif;fill:#64748b}.track{stroke:#94a3b8;stroke-width:5;stroke-linecap:round}.grid{stroke:#e2e8f0;stroke-width:1}.product{fill:#16a34a;fill-opacity:.72}.forward{fill:#2563eb}.reverse{fill:#dc2626}.probe{fill:#9333ea}.faint{fill-opacity:.32}.status{font:600 12px 'Avenir Next','Segoe UI',Arial,sans-serif;fill:#334155}.exon-connector{stroke:#94a3b8;stroke-width:2;stroke-linecap:round;stroke-opacity:.72}.exon-block{stroke:#334155;stroke-opacity:.38;stroke-width:.8}.exon-label{font:700 9px 'Avenir Next','Segoe UI',Arial,sans-serif;fill:#0f172a}.junction{stroke:#0f172a;stroke-width:1.2;stroke-dasharray:3 3;stroke-opacity:.52}.junction-label{font:700 9px 'Avenir Next','Segoe UI',Arial,sans-serif;fill:#475569}</style><defs><pattern id="cdna_exon_0" patternUnits="userSpaceOnUse" width="8" height="8"><rect x="0" y="0" width="8" height="8" fill="#38bdf8" fill-opacity=".82"/></pattern><pattern id="cdna_exon_1" patternUnits="userSpaceOnUse" width="8" height="8"><rect x="0" y="0" width="8" height="8" fill="#f59e0b" fill-opacity=".82"/><path d="M-2,8 L8,-2 M0,10 L10,0" stroke="#0f172a" stroke-opacity=".22" stroke-width="1"/></pattern><pattern id="cdna_exon_2" patternUnits="userSpaceOnUse" width="8" height="8"><rect x="0" y="0" width="8" height="8" fill="#a78bfa" fill-opacity=".82"/><path d="M0,4 L8,4 M4,0 L4,8" stroke="#0f172a" stroke-opacity=".18" stroke-width="1"/></pattern><pattern id="cdna_exon_3" patternUnits="userSpaceOnUse" width="8" height="8"><rect x="0" y="0" width="8" height="8" fill="#34d399" fill-opacity=".82"/><circle cx="2" cy="2" r="1" fill="#0f172a" fill-opacity=".20"/><circle cx="6" cy="6" r="1" fill="#0f172a" fill-opacity=".20"/></pattern><pattern id="cdna_exon_4" patternUnits="userSpaceOnUse" width="8" height="8"><rect x="0" y="0" width="8" height="8" fill="#f472b6" fill-opacity=".82"/></pattern></defs><rect class="bg" x="0" y="0" width="1180" height="568"/><rect class="panel" x="18" y="18" width="1144" height="532" rx="8"/><text class="title" x="36" y="54">cDNA QPCR assay transcript map</text><text class="sub" x="36" y="78">3 product(s) across 3/3 transcript template(s); 3 row(s) shown.</text><text class="sub" x="36" y="99">Forward 20 bp, reverse 20 bp, probe 27 bp</text><rect x="36.0" y="105.0" width="14" height="8" rx="2" fill="#16a34a"/><text class="small" x="56.0" y="112.0">amplicon</text><rect x="148.0" y="105.0" width="14" height="8" rx="2" fill="#9333ea"/><text class="small" x="168.0" y="112.0">probe</text><rect x="240.0" y="105.0" width="14" height="8" rx="2" fill="url(#cdna_exon_0)"/><text class="small" x="260.0" y="112.0">exon identity</text><line class="junction" x1="366.0" y1="104.0" x2="366.0" y2="114.0"/><text class="small" x="378.0" y="112.0">exon junction</text><rect x="36.0" y="127.0" width="14" height="8" rx="2" fill="#2563eb"/><text class="small" x="56.0" y="134.0">forward primer 5&apos;-TTCCTGCTCCAGCAGAACAA-3&apos;</text><rect x="385.0" y="127.0" width="14" height="8" rx="2" fill="#dc2626"/><text class="small" x="405.0" y="134.0">reverse primer 5&apos;-TGGGCTTCGTGGTAATCTCG-3&apos;</text><rect x="720.0" y="127.0" width="14" height="8" rx="2" fill="#9333ea"/><text class="small" x="740.0" y="134.0">probe 5&apos;-AGAAATCCTGCAAACTGAGGCTGGACG-3&apos;</text><text class="axis" x="647.0" y="158" text-anchor="middle">cDNA position, exon identity, and junction context within each transcript</text><rect x="28" y="172.0" width="1124" height="104" fill="#ffffff" fill-opacity=".72"/><text class="label" x="42" y="188.0">NR_187362.1 | TP73-AS3</text><text class="small" x="42" y="205.0">1222 bp cDNA | 3 exons | single_product</text><line class="grid" x1="292.0" y1="181.0" x2="292.0" y2="270.0"/><line class="grid" x1="469.5" y1="181.0" x2="469.5" y2="270.0"/><line class="grid" x1="647.0" y1="181.0" x2="647.0" y2="270.0"/><line class="grid" x1="824.5" y1="181.0" x2="824.5" y2="270.0"/><line class="grid" x1="1002.0" y1="181.0" x2="1002.0" y2="270.0"/><line class="track" x1="292.0" y1="210.0" x2="1002.0" y2="210.0"/><text class="axis" x="284.0" y="214.0" text-anchor="end">1</text><text class="axis" x="1010.0" y="214.0">1222</text><line class="exon-connector" x1="292.0" y1="252.0" x2="1002.0" y2="252.0"/><rect class="exon-block" x="292.00" y="245.50" width="186.51" height="13" rx="2" fill="url(#cdna_exon_0)"><title>Exon E1: cDNA 1-321; source 16110-16430</title></rect><text class="exon-label" x="385.25" y="255.50" text-anchor="middle">E1</text><rect class="exon-block" x="478.51" y="245.50" width="65.65" height="13" rx="2" fill="url(#cdna_exon_3)"><title>Exon E4: cDNA 322-434; source 9638-9750; transcript-local E2</title></rect><text class="exon-label" x="511.33" y="255.50" text-anchor="middle">E4</text><rect class="exon-block" x="544.16" y="245.50" width="457.84" height="13" rx="2" fill="url(#cdna_exon_4)"><title>Exon E5: cDNA 435-1222; source 6128-6915; transcript-local E3</title></rect><text class="exon-label" x="773.08" y="255.50" text-anchor="middle">E5</text><line class="junction" x1="478.51" y1="216.00" x2="478.51" y2="262.00"><title>Junction E1-&gt;E4: 16110-16430 to 9638-9750</title></line><text class="junction-label" x="478.51" y="275.00" text-anchor="middle">E1-E4</text><line class="junction" x1="544.16" y1="216.00" x2="544.16" y2="262.00"><title>Junction E4-&gt;E5: 9638-9750 to 6128-6915</title></line><text class="junction-label" x="544.16" y="275.00" text-anchor="middle">E4-E5</text><rect class="product" x="535.45" y="203.00" width="58.10" height="14" rx="4"><title>Amplicon 420-519 (100 bp); spans exon junction; junctions: 9638..9750→6128..6915</title></rect><polygon class="forward" points="535.45,183.00 543.81,183.00 547.07,192.00 543.81,201.00 535.45,201.00"><title>forward hit 420-439 (0 mismatches); spans exon junction; junctions: 9638..9750→6128..6915; primer binding strand: forward</title></polygon><polygon class="reverse" points="581.93,228.00 585.18,219.00 593.55,219.00 593.55,237.00 585.18,237.00"><title>reverse hit 500-519 (0 mismatches); primer binding strand: reverse</title></polygon><polygon class="probe" points="555.78,185.00 568.02,185.00 571.47,192.00 568.02,199.00 555.78,199.00"><title>probe hit 455-481 (0 mismatches); probe binding strand: forward</title></polygon><text class="status" x="1030" y="214.0">1 product, 100 bp</text><text class="label" x="42" y="292.0">NR_187363.1 | TP73-AS3</text><text class="small" x="42" y="309.0">950 bp cDNA | 3 exons | single_product</text><line class="grid" x1="292.0" y1="285.0" x2="292.0" y2="374.0"/><line class="grid" x1="469.5" y1="285.0" x2="469.5" y2="374.0"/><line class="grid" x1="647.0" y1="285.0" x2="647.0" y2="374.0"/><line class="grid" x1="824.5" y1="285.0" x2="824.5" y2="374.0"/><line class="grid" x1="1002.0" y1="285.0" x2="1002.0" y2="374.0"/><line class="track" x1="292.0" y1="314.0" x2="1002.0" y2="314.0"/><text class="axis" x="284.0" y="318.0" text-anchor="end">1</text><text class="axis" x="1010.0" y="318.0">950</text><line class="exon-connector" x1="292.0" y1="356.0" x2="1002.0" y2="356.0"/><rect class="exon-block" x="292.00" y="349.50" width="36.62" height="13" rx="2" fill="url(#cdna_exon_1)"><title>Exon E2: cDNA 1-49; source 12407-12455; transcript-local E1</title></rect><text class="exon-label" x="310.31" y="359.50" text-anchor="middle">E2</text><rect class="exon-block" x="328.62" y="349.50" width="84.45" height="13" rx="2" fill="url(#cdna_exon_3)"><title>Exon E4: cDNA 50-162; source 9638-9750; transcript-local E2</title></rect><text class="exon-label" x="370.85" y="359.50" text-anchor="middle">E4</text><rect class="exon-block" x="413.07" y="349.50" width="588.93" height="13" rx="2" fill="url(#cdna_exon_4)"><title>Exon E5: cDNA 163-950; source 6128-6915; transcript-local E3</title></rect><text class="exon-label" x="707.54" y="359.50" text-anchor="middle">E5</text><line class="junction" x1="328.62" y1="320.00" x2="328.62" y2="366.00"><title>Junction E2-&gt;E4: 12407-12455 to 9638-9750</title></line><text class="junction-label" x="328.62" y="379.00" text-anchor="middle">E2-E4</text><line class="junction" x1="413.07" y1="320.00" x2="413.07" y2="366.00"><title>Junction E4-&gt;E5: 9638-9750 to 6128-6915</title></line><text class="junction-label" x="413.07" y="379.00" text-anchor="middle">E4-E5</text><rect class="product" x="401.86" y="307.00" width="74.74" height="14" rx="4"><title>Amplicon 148-247 (100 bp); spans exon junction; junctions: 9638..9750→6128..6915</title></rect><polygon class="forward" points="401.86,287.00 412.63,287.00 416.81,296.00 412.63,305.00 401.86,305.00"><title>forward hit 148-167 (0 mismatches); spans exon junction; junctions: 9638..9750→6128..6915; primer binding strand: forward</title></polygon><polygon class="reverse" points="461.65,332.00 465.84,323.00 476.60,323.00 476.60,341.00 465.84,341.00"><title>reverse hit 228-247 (0 mismatches); primer binding strand: reverse</title></polygon><polygon class="probe" points="428.02,289.00 443.76,289.00 448.20,296.00 443.76,303.00 428.02,303.00"><title>probe hit 183-209 (0 mismatches); probe binding strand: forward</title></polygon><text class="status" x="1030" y="318.0">1 product, 100 bp</text><rect x="28" y="380.0" width="1124" height="104" fill="#ffffff" fill-opacity=".72"/><text class="label" x="42" y="396.0">NR_187364.1 | TP73-AS3</text><text class="small" x="42" y="413.0">1052 bp cDNA | 3 exons | single_product</text><line class="grid" x1="292.0" y1="389.0" x2="292.0" y2="478.0"/><line class="grid" x1="469.5" y1="389.0" x2="469.5" y2="478.0"/><line class="grid" x1="647.0" y1="389.0" x2="647.0" y2="478.0"/><line class="grid" x1="824.5" y1="389.0" x2="824.5" y2="478.0"/><line class="grid" x1="1002.0" y1="389.0" x2="1002.0" y2="478.0"/><line class="track" x1="292.0" y1="418.0" x2="1002.0" y2="418.0"/><text class="axis" x="284.0" y="422.0" text-anchor="end">1</text><text class="axis" x="1010.0" y="422.0">1052</text><line class="exon-connector" x1="292.0" y1="460.0" x2="1002.0" y2="460.0"/><rect class="exon-block" x="292.00" y="453.50" width="101.91" height="13" rx="2" fill="url(#cdna_exon_2)"><title>Exon E3: cDNA 1-151; source 11849-11999; transcript-local E1</title></rect><text class="exon-label" x="342.96" y="463.50" text-anchor="middle">E3</text><rect class="exon-block" x="393.91" y="453.50" width="76.26" height="13" rx="2" fill="url(#cdna_exon_3)"><title>Exon E4: cDNA 152-264; source 9638-9750; transcript-local E2</title></rect><text class="exon-label" x="432.04" y="463.50" text-anchor="middle">E4</text><rect class="exon-block" x="470.17" y="453.50" width="531.83" height="13" rx="2" fill="url(#cdna_exon_4)"><title>Exon E5: cDNA 265-1052; source 6128-6915; transcript-local E3</title></rect><text class="exon-label" x="736.09" y="463.50" text-anchor="middle">E5</text><line class="junction" x1="393.91" y1="424.00" x2="393.91" y2="470.00"><title>Junction E3-&gt;E4: 11849-11999 to 9638-9750</title></line><text class="junction-label" x="393.91" y="483.00" text-anchor="middle">E3-E4</text><line class="junction" x1="470.17" y1="424.00" x2="470.17" y2="470.00"><title>Junction E4-&gt;E5: 9638-9750 to 6128-6915</title></line><text class="junction-label" x="470.17" y="483.00" text-anchor="middle">E4-E5</text><rect class="product" x="460.05" y="411.00" width="67.49" height="14" rx="4"><title>Amplicon 250-349 (100 bp); spans exon junction; junctions: 9638..9750→6128..6915</title></rect><polygon class="forward" points="460.05,391.00 469.77,391.00 473.55,400.00 469.77,409.00 460.05,409.00"><title>forward hit 250-269 (0 mismatches); spans exon junction; junctions: 9638..9750→6128..6915; primer binding strand: forward</title></polygon><polygon class="reverse" points="514.04,436.00 517.82,427.00 527.54,427.00 527.54,445.00 517.82,445.00"><title>reverse hit 330-349 (0 mismatches); primer binding strand: reverse</title></polygon><polygon class="probe" points="483.67,393.00 497.89,393.00 501.90,400.00 497.89,407.00 483.67,407.00"><title>probe hit 285-311 (0 mismatches); probe binding strand: forward</title></polygon><text class="status" x="1030" y="422.0">1 product, 100 bp</text></svg>