<svg height="700" viewBox="0 0 1200 700" width="1200" xmlns="http://www.w3.org/2000/svg">
<text fill="#111111" font-family="monospace" font-size="16" x="20" y="34">
VKRSLUC1
</text>
<text fill="#444444" font-family="monospace" font-size="12" x="20" y="54">
4952 bp
</text>
<circle cx="672" cy="364" fill="none" r="196" stroke="#000000" stroke-width="2"/>
<path d="M 672.000 146.448 A 217.552 217.552 0 0 1 841.843 499.949" fill="none" stroke="#6e6e6e" stroke-width="5"/>
<text fill="#111111" font-family="monospace" font-size="10" text-anchor="middle" x="884.3175" y="261.99023">
VKORC1 upstream to rs9923231
</text>
<line data-gentle-role="variation-marker-line" stroke="#e17f0f" stroke-width="2.5" x1="840.2291" x2="865.28455" y1="439.1222" y2="450.3106"/>
<circle cx="865.28455" cy="450.3106" data-gentle-role="variation-marker-dot" fill="#ffffff" r="4" stroke="#e17f0f" stroke-width="2"/>
<text fill="#111111" font-family="monospace" font-size="10" text-anchor="middle" x="885.3727" y="459.28094">
rs9923231
</text>
<path d="M 831.477 512.530 A 217.931 217.931 0 0 1 463.204 426.435" fill="none" stroke="#cc1f1f" stroke-width="5"/>
<line data-gentle-role="transcription-start-tick" stroke="#cc1f1f" stroke-width="2" x1="826.3543" x2="836.5992" y1="507.75885" y2="517.3005"/>
<path d="M826.9758,517.3569 L838.0864,511.3063 L832.2322,505.85397 z" data-gentle-role="transcription-start-arrow" fill="#cc1f1f" stroke="none"/>
<text fill="#111111" font-family="monospace" font-size="10" text-anchor="middle" x="618.29205" y="593.7365">
luc2
</text>
<path d="M 456.589 421.915 A 223.061 223.061 0 0 1 450.524 390.541" fill="none" stroke="#6e6e6e" stroke-width="5"/>
<text fill="#111111" font-family="monospace" font-size="10" text-anchor="middle" x="435.34985" y="409.90317">
SV40 polyA
</text>
<path d="M 500.660 369.437 A 171.426 171.426 0 0 1 588.304 214.394" fill="none" stroke="#cc1f1f" stroke-width="5"/>
<line data-gentle-role="transcription-start-tick" stroke="#cc1f1f" stroke-width="2" x1="591.72174" x2="584.8864" y1="220.50339" y2="208.2854"/>
<path d="M582.5466,217.62097 L591.0618,208.26363 L594.9677,215.24532 z" data-gentle-role="transcription-start-arrow" fill="#cc1f1f" stroke="none"/>
<text fill="#111111" font-family="monospace" font-size="10" text-anchor="middle" x="538.38934" y="288.5832">
bla
</text>
<path d="M 583.398 160.048 A 222.366 222.366 0 0 1 671.718 141.634" fill="none" stroke="#6e6e6e" stroke-width="5"/>
<text fill="#111111" font-family="monospace" font-size="10" text-anchor="middle" x="622.94025" y="128.6938">
ColE1 ori
</text>
</svg>