<svg xmlns="http://www.w3.org/2000/svg" width="690" height="585" viewBox="0 0 690 585">
  <defs>
    <style>
      text {
        font-family: "Helvetica Neue", Arial, sans-serif;
        fill: #24313d;
      }
      .panelTitle {
        font-size: 26px;
        font-weight: 700;
      }
      .body {
        font-size: 18px;
        fill: #55626f;
      }
      .small {
        font-size: 15px;
        fill: #6b7884;
      }
      .badge {
        fill: #24313d;
      }
      .badgeText {
        font-size: 18px;
        font-weight: 700;
        fill: #ffffff;
        text-anchor: middle;
        dominant-baseline: middle;
      }
      .axis {
        stroke: #33424f;
        stroke-width: 4;
        stroke-linecap: round;
      }
      .transcript {
        fill: #2e6fda;
      }
      .transcriptAlt {
        fill: #8cb2f0;
      }
      .transcriptArrow {
        stroke: none;
      }
      .insert {
        fill: #43aaa1;
        fill-opacity: 0.88;
      }
      .insertLabel {
        font-size: 18px;
        font-weight: 700;
        fill: #ffffff;
      }
      .muted {
        fill: #d8dcdf;
      }
      .snp {
        fill: #ef8f2f;
        stroke: #b05b00;
        stroke-width: 2;
      }
      .callout {
        fill: #edf3f6;
        stroke: #d8e4eb;
        stroke-width: 1.5;
        rx: 18;
      }
    </style>
  </defs>

  <rect x="0" y="0" width="690" height="585" fill="#fffdf9"/>

  <circle cx="44" cy="48" r="22" class="badge"/>
  <text x="44" y="48" class="badgeText">1</text>
  <text x="84" y="52" class="panelTitle" font-size="22">Isolation of promoter region of VKORC1</text>
  <text x="84" y="82" class="panelTitle" font-size="22">entailing the Warfarin-response locus</text>
  <text x="36" y="138" class="body">Promoter context lies right of the TSS.</text>

  <text x="36" y="188" class="small">Local GRCh38 view around rs9923231</text>
  <g transform="translate(0,28)">
    <text x="140" y="298" class="small">31,094,600</text>
    <text x="570" y="298" class="small" text-anchor="end">31,096,600</text>
    <text x="392" y="244" class="small" text-anchor="middle">Chromosome 16</text>
    <line x1="140" y1="270" x2="570" y2="270" class="axis"/>

    <path d="M176 214 H286 L304 226 L286 238 H176 Q164 238 164 226 Q164 214 176 214 Z" class="transcriptAlt transcriptArrow"/>
    <text x="236" y="192" class="small" text-anchor="middle">LOC124903680</text>

    <path d="M160 340 L178 326 H316 Q330 326 330 340 Q330 354 316 354 H178 Z" class="transcript transcriptArrow"/>
    <text x="244" y="344" font-size="18" font-weight="700" fill="#ffffff">VKORC1</text>

    <rect x="330" y="320" width="214" height="40" rx="18" class="insert"/>
    <text x="356" y="346" class="insertLabel">source interval</text>
    <text x="350" y="386" class="small">selected genomic coordinates</text>

    <rect x="548" y="330" width="22" height="20" rx="10" class="muted"/>
    <text x="452" y="406" class="small">keep 500 bp beyond rs9923231</text>

    <line x1="330" y1="220" x2="330" y2="404" stroke="#8fa3b5" stroke-width="3" stroke-dasharray="8 7"/>
    <text x="330" y="206" class="small" text-anchor="middle">VKORC1 TSS</text>

    <line x1="468" y1="224" x2="468" y2="316" stroke="#ef8f2f" stroke-width="5"/>
    <circle cx="468" cy="208" r="14" class="snp"/>
    <text x="426" y="182" class="body">rs9923231</text>
  </g>

  <rect x="36" y="456" width="618" height="108" class="callout"/>
  <text x="60" y="490" class="body">Figure rule for the default reporter insert</text>
  <text x="60" y="520" class="small">1. Keep a little transcribed VKORC1 context near the TSS.</text>
  <text x="60" y="542" class="small">2. Keep rs9923231 inside the insert, not at the edge.</text>
  <text x="60" y="564" class="small">3. After cloning, compare allele-matched luciferase reporters.</text>
</svg>
