<svg height="700" viewBox="0 0 1200 700" width="1200" xmlns="http://www.w3.org/2000/svg">
<rect fill="#ffffff" height="700" width="1200" x="0" y="0"/>
<line stroke="#000000" stroke-width="2" x1="60" x2="1140" y1="350" y2="350"/>
<rect fill="#6e6e6e" height="10" width="1.0798187" x="60" y="848"/>
<rect fill="#6e6e6e" height="10" width="1.9796715" x="60" y="835"/>
<rect fill="#6e6e6e" height="10" width="8.098648" x="60" y="822"/>
<rect fill="#6e6e6e" height="10" width="9.718384" x="60" y="666"/>
<rect fill="#6e6e6e" height="10" width="9.718384" x="60" y="679"/>
<rect fill="#6e6e6e" height="10" width="9.718384" x="60" y="692"/>
<rect fill="#6e6e6e" height="10" width="9.718384" x="60" y="705"/>
<rect fill="#6e6e6e" height="10" width="9.718384" x="60" y="718"/>
<rect fill="#6e6e6e" height="10" width="9.718384" x="60" y="731"/>
<rect fill="#6e6e6e" height="10" width="9.718384" x="60" y="744"/>
<rect fill="#6e6e6e" height="10" width="9.718384" x="60" y="757"/>
<rect fill="#6e6e6e" height="10" width="9.718384" x="60" y="770"/>
<rect fill="#6e6e6e" height="10" width="9.718384" x="60" y="783"/>
<rect fill="#6e6e6e" height="10" width="9.718384" x="60" y="796"/>
<rect fill="#6e6e6e" height="10" width="9.718384" x="60" y="809"/>
<rect fill="#6e6e6e" height="10" width="20.696548" x="60" y="640"/>
<rect fill="#6e6e6e" height="10" width="20.696548" x="60" y="653"/>
<rect fill="#b4640a" height="10" width="43.91268" x="60" y="614"/>
<rect fill="#6e6e6e" height="10" width="43.91268" x="60" y="627"/>
<rect fill="#b4640a" height="10" width="212.72455" x="60" y="601"/>
<rect fill="#b4640a" height="10" width="222.26294" x="60" y="588"/>
<rect fill="#1f4fcc" height="10" width="249.97833" x="60" y="323"/>
<path d="M309.97833,323 L315.97833,328 L309.97833,333 z" fill="#1f4fcc"/>
<rect fill="#b4640a" height="10" width="250.69821" x="60" y="575"/>
<rect fill="#b4640a" height="10" width="254.11765" x="60" y="562"/>
<rect fill="#b4640a" height="10" width="254.83752" x="60" y="549"/>
<rect fill="#b4640a" height="10" width="257.35712" x="60" y="497"/>
<rect fill="#b4640a" height="10" width="257.35712" x="60" y="510"/>
<rect fill="#b4640a" height="10" width="257.35712" x="60" y="523"/>
<rect fill="#b4640a" height="10" width="257.35712" x="60" y="536"/>
<rect fill="#b4640a" height="10" width="257.53708" x="60" y="484"/>
<rect fill="#b4640a" height="10" width="278.77353" x="60" y="471"/>
<rect fill="#b4640a" height="10" width="283.09283" x="60" y="458"/>
<rect fill="#1f4fcc" height="10" width="285.97232" x="60" y="432"/>
<path d="M60,432 L54,437 L60,442 z" fill="#1f4fcc"/>
<rect fill="#b4640a" height="10" width="285.97232" x="60" y="445"/>
<rect fill="#b4640a" height="10" width="287.05215" x="60" y="419"/>
<rect fill="#b4640a" height="10" width="288.132" x="60" y="406"/>
<rect fill="#b4640a" height="10" width="290.4716" x="60" y="393"/>
<rect fill="#b4640a" height="10" width="470.2616" x="60" y="367"/>
<rect fill="#1f4fcc" height="10" width="470.2616" x="60" y="380"/>
<path d="M60,380 L54,385 L60,390 z" fill="#1f4fcc"/>
<rect fill="#6e6e6e" height="10" width="399.1735" x="124.60923" y="310"/>
<rect fill="#1f4fcc" height="10" width="399.1735" x="124.60923" y="297"/>
<path d="M523.7827,297 L529.7827,302 L523.7827,307 z" fill="#1f4fcc"/>
<rect fill="#b4640a" height="10" width="399.1735" x="124.60923" y="284"/>
<rect fill="#6e6e6e" height="10" width="56.69055" x="216.034" y="614"/>
<rect fill="#6e6e6e" height="10" width="74.5076" x="273.6244" y="627"/>
<rect fill="#6e6e6e" height="10" width="8.278595" x="273.98434" y="887"/>
<rect fill="#6e6e6e" height="10" width="36.713867" x="273.98434" y="874"/>
<rect fill="#6e6e6e" height="10" width="40.1333" x="273.98434" y="861"/>
<rect fill="#6e6e6e" height="10" width="40.85318" x="273.98434" y="848"/>
<rect fill="#6e6e6e" height="10" width="43.372772" x="273.98434" y="809"/>
<rect fill="#6e6e6e" height="10" width="43.372772" x="273.98434" y="822"/>
<rect fill="#6e6e6e" height="10" width="43.372772" x="273.98434" y="835"/>
<rect fill="#b4640a" height="10" width="55.430756" x="273.98434" y="783"/>
<rect fill="#6e6e6e" height="10" width="55.430756" x="273.98434" y="796"/>
<rect fill="#6e6e6e" height="10" width="64.789185" x="273.98434" y="718"/>
<rect fill="#b4640a" height="10" width="64.789185" x="273.98434" y="731"/>
<rect fill="#b4640a" height="10" width="64.789185" x="273.98434" y="744"/>
<rect fill="#6e6e6e" height="10" width="64.789185" x="273.98434" y="757"/>
<rect fill="#6e6e6e" height="10" width="64.789185" x="273.98434" y="770"/>
<rect fill="#6e6e6e" height="10" width="69.10849" x="273.98434" y="705"/>
<rect fill="#6e6e6e" height="10" width="71.987976" x="273.98434" y="666"/>
<rect fill="#b4640a" height="10" width="71.987976" x="273.98434" y="679"/>
<rect fill="#6e6e6e" height="10" width="71.987976" x="273.98434" y="692"/>
<rect fill="#6e6e6e" height="10" width="73.06781" x="273.98434" y="653"/>
<rect fill="#6e6e6e" height="10" width="76.48724" x="273.98434" y="640"/>
<rect fill="#6e6e6e" height="10" width="33.83435" x="276.14398" y="271"/>
<rect fill="#b4640a" height="10" width="33.83435" x="276.14398" y="258"/>
<rect fill="#6e6e6e" height="10" width="36.17398" x="281.3631" y="601"/>
<rect fill="#b4640a" height="10" width="15.4774475" x="299.72003" y="614"/>
<rect fill="#6e6e6e" height="10" width="15.4774475" x="299.72003" y="887"/>
<rect fill="#6e6e6e" height="10" width="17.637085" x="299.72003" y="588"/>
<rect fill="#b4640a" height="10" width="48.59189" x="423.7194" y="406"/>
<rect fill="#6e6e6e" height="10" width="48.59189" x="423.7194" y="419"/>
<rect fill="#6e6e6e" height="10" width="106.542206" x="423.7194" y="393"/>
<rect fill="#6e6e6e" height="10" width="1" x="599.91003" y="323"/>
<text fill="#111111" font-family="monospace" font-size="10" text-anchor="start" x="60" y="869">
VKORC1
</text>
<text fill="#111111" font-family="monospace" font-size="10" text-anchor="start" x="60" y="856">
VKORC1
</text>
<text fill="#111111" font-family="monospace" font-size="10" text-anchor="start" x="60" y="843">
VKORC1
</text>
<text fill="#111111" font-family="monospace" font-size="10" text-anchor="start" x="60" y="687">
0..54
</text>
<text fill="#111111" font-family="monospace" font-size="10" text-anchor="start" x="60" y="700">
0..54
</text>
<text fill="#111111" font-family="monospace" font-size="10" text-anchor="start" x="60" y="713">
VKORC1
</text>
<text fill="#111111" font-family="monospace" font-size="10" text-anchor="start" x="60" y="726">
VKORC1
</text>
<text fill="#111111" font-family="monospace" font-size="10" text-anchor="start" x="60" y="739">
VKORC1
</text>
<text fill="#111111" font-family="monospace" font-size="10" text-anchor="start" x="60" y="752">
VKORC1
</text>
<text fill="#111111" font-family="monospace" font-size="10" text-anchor="start" x="60" y="765">
VKORC1
</text>
<text fill="#111111" font-family="monospace" font-size="10" text-anchor="start" x="60" y="778">
VKORC1
</text>
<text fill="#111111" font-family="monospace" font-size="10" text-anchor="start" x="60" y="791">
VKORC1
</text>
<text fill="#111111" font-family="monospace" font-size="10" text-anchor="start" x="60" y="804">
VKORC1
</text>
<text fill="#111111" font-family="monospace" font-size="10" text-anchor="start" x="60" y="817">
VKORC1
</text>
<text fill="#111111" font-family="monospace" font-size="10" text-anchor="start" x="60" y="830">
VKORC1
</text>
<text fill="#111111" font-family="monospace" font-size="10" text-anchor="start" x="60" y="661">
VKORC1
</text>
<text fill="#111111" font-family="monospace" font-size="10" text-anchor="start" x="60" y="674">
VKORC1
</text>
<text fill="#111111" font-family="monospace" font-size="10" text-anchor="start" x="60" y="635">
ENST00000472468
</text>
<text fill="#111111" font-family="monospace" font-size="10" text-anchor="start" x="60" y="648">
VKORC1
</text>
<text fill="#111111" font-family="monospace" font-size="10" text-anchor="start" x="60" y="622">
ENST00000394971
</text>
<text fill="#111111" font-family="monospace" font-size="10" text-anchor="start" x="60" y="609">
ENST00000533518
</text>
<text fill="#f8f8f8" font-family="monospace" font-size="10" text-anchor="middle" x="184.98917" y="331">
ENSG00000297437
</text>
<text fill="#111111" font-family="monospace" font-size="10" text-anchor="start" x="60" y="596">
ENST00000300851
</text>
<text fill="#111111" font-family="monospace" font-size="10" text-anchor="start" x="60" y="583">
ENST00000990848
</text>
<text fill="#111111" font-family="monospace" font-size="10" text-anchor="start" x="60" y="570">
ENST00001028609
</text>
<text fill="#111111" font-family="monospace" font-size="10" text-anchor="start" x="60" y="518">
ENST00000394975
</text>
<text fill="#111111" font-family="monospace" font-size="10" text-anchor="start" x="60" y="531">
ENST00001104753
</text>
<text fill="#111111" font-family="monospace" font-size="10" text-anchor="start" x="60" y="544">
ENST00001104754
</text>
<text fill="#111111" font-family="monospace" font-size="10" text-anchor="start" x="60" y="557">
ENST00001139928
</text>
<text fill="#111111" font-family="monospace" font-size="10" text-anchor="start" x="60" y="505">
ENST00001104752
</text>
<text fill="#111111" font-family="monospace" font-size="10" text-anchor="start" x="60" y="492">
ENST00001104751
</text>
<text fill="#111111" font-family="monospace" font-size="10" text-anchor="start" x="60" y="479">
ENST00000319788
</text>
<text fill="#f8f8f8" font-family="monospace" font-size="10" text-anchor="middle" x="202.98616" y="440">
ENSG00000255439
</text>
<text fill="#111111" font-family="monospace" font-size="10" text-anchor="start" x="60" y="466">
ENST00000529564
</text>
<text fill="#111111" font-family="monospace" font-size="10" text-anchor="start" x="60" y="440">
ENST00000879179
</text>
<text fill="#111111" font-family="monospace" font-size="10" text-anchor="start" x="60" y="427">
ENST00001104749
</text>
<text fill="#111111" font-family="monospace" font-size="10" text-anchor="start" x="60" y="414">
ENST00001028608
</text>
<text fill="#111111" font-family="monospace" font-size="10" text-anchor="start" x="60" y="388">
ENST00000498155
</text>
<text fill="#f8f8f8" font-family="monospace" font-size="10" text-anchor="middle" x="295.1308" y="388">
VKORC1
</text>
<text fill="#111111" font-family="monospace" font-size="10" text-anchor="start" x="124.60923" y="305">
359..2577
</text>
<text fill="#f8f8f8" font-family="monospace" font-size="10" text-anchor="middle" x="324.19598" y="305">
ENSG00000280160
</text>
<text fill="#111111" font-family="monospace" font-size="10" text-anchor="start" x="124.60923" y="279">
ENST00000624508
</text>
<text fill="#111111" font-family="monospace" font-size="10" text-anchor="start" x="216.034" y="635">
VKORC1
</text>
<text fill="#111111" font-family="monospace" font-size="10" text-anchor="start" x="273.6244" y="648">
VKORC1
</text>
<text fill="#111111" font-family="monospace" font-size="10" text-anchor="start" x="273.98434" y="908">
1189..1235
</text>
<text fill="#111111" font-family="monospace" font-size="10" text-anchor="start" x="273.98434" y="895">
VKORC1
</text>
<text fill="#111111" font-family="monospace" font-size="10" text-anchor="start" x="273.98434" y="882">
VKORC1
</text>
<text fill="#111111" font-family="monospace" font-size="10" text-anchor="start" x="273.98434" y="869">
VKORC1
</text>
<text fill="#111111" font-family="monospace" font-size="10" text-anchor="start" x="273.98434" y="830">
VKORC1
</text>
<text fill="#111111" font-family="monospace" font-size="10" text-anchor="start" x="273.98434" y="843">
VKORC1
</text>
<text fill="#111111" font-family="monospace" font-size="10" text-anchor="start" x="273.98434" y="856">
VKORC1
</text>
<text fill="#111111" font-family="monospace" font-size="10" text-anchor="start" x="273.98434" y="804">
ENST00000879180
</text>
<text fill="#111111" font-family="monospace" font-size="10" text-anchor="start" x="273.98434" y="817">
VKORC1
</text>
<text fill="#111111" font-family="monospace" font-size="10" text-anchor="start" x="273.98434" y="739">
1189..1549
</text>
<text fill="#111111" font-family="monospace" font-size="10" text-anchor="start" x="273.98434" y="752">
ENST00000532364
</text>
<text fill="#111111" font-family="monospace" font-size="10" text-anchor="start" x="273.98434" y="765">
ENST00001104750
</text>
<text fill="#111111" font-family="monospace" font-size="10" text-anchor="start" x="273.98434" y="778">
VKORC1
</text>
<text fill="#111111" font-family="monospace" font-size="10" text-anchor="start" x="273.98434" y="791">
VKORC1
</text>
<text fill="#111111" font-family="monospace" font-size="10" text-anchor="start" x="273.98434" y="726">
VKORC1
</text>
<text fill="#111111" font-family="monospace" font-size="10" text-anchor="start" x="273.98434" y="687">
1189..1589
</text>
<text fill="#111111" font-family="monospace" font-size="10" text-anchor="start" x="273.98434" y="700">
ENST00000354895
</text>
<text fill="#111111" font-family="monospace" font-size="10" text-anchor="start" x="273.98434" y="713">
VKORC1
</text>
<text fill="#111111" font-family="monospace" font-size="10" text-anchor="start" x="273.98434" y="674">
VKORC1
</text>
<text fill="#111111" font-family="monospace" font-size="10" text-anchor="start" x="273.98434" y="661">
VKORC1
</text>
<text fill="#111111" font-family="monospace" font-size="10" text-anchor="start" x="276.14398" y="266">
1201..1389
</text>
<text fill="#111111" font-family="monospace" font-size="10" text-anchor="start" x="276.14398" y="253">
ENST00000747910
</text>
<text fill="#111111" font-family="monospace" font-size="10" text-anchor="start" x="281.3631" y="622">
VKORC1
</text>
<text fill="#111111" font-family="monospace" font-size="10" text-anchor="start" x="299.72003" y="635">
ENST00001104755
</text>
<text fill="#111111" font-family="monospace" font-size="10" text-anchor="start" x="299.72003" y="908">
VKORC1
</text>
<text fill="#111111" font-family="monospace" font-size="10" text-anchor="start" x="299.72003" y="609">
VKORC1
</text>
<text fill="#111111" font-family="monospace" font-size="10" text-anchor="start" x="423.7194" y="427">
ENST00000420057
</text>
<text fill="#111111" font-family="monospace" font-size="10" text-anchor="start" x="423.7194" y="440">
VKORC1
</text>
<text fill="#111111" font-family="monospace" font-size="10" text-anchor="start" x="423.7194" y="414">
VKORC1
</text>
<text fill="#111111" font-family="monospace" font-size="10" text-anchor="start" x="599.91003" y="318">
rs9923231
</text>
<text fill="#111111" font-family="monospace" font-size="16" x="12" y="24">
vkorc1_rs9923231_context
</text>
<text fill="#444444" font-family="monospace" font-size="14" text-anchor="end" x="1188" y="24">
6001 bp
</text>
</svg>