<svg xmlns="http://www.w3.org/2000/svg" width="1360" height="616" viewBox="0 0 1360 616">
<rect x="0" y="0" width="100%" height="100%" fill="#fffdf8"/>
<text x="32.0" y="28" font-family="monospace" font-size="16" fill="#111827">Continuous TF motif score tracks</text>
<text x="32.0" y="45" font-family="monospace" font-size="11" fill="#475569">target=tp73_promoter_artifact_demo | span=60..158 | motifs=4 | score=llr_background_tail_log10</text>
<text x="32.0" y="60" font-family="monospace" font-size="10" fill="#64748b">forward strand = teal | reverse strand = amber</text>
<text x="32.0" y="73" font-family="monospace" font-size="10" fill="#64748b">normalization=uniform_random_dna 100000bp deterministic background | chance_model=quantized_iid_uniform_window_dp</text>
<text x="1332.0" y="60" text-anchor="end" font-family="monospace" font-size="10" fill="#64748b">score range 0.00 .. 5.42</text>
<rect x="32.0" y="100.0" width="1300.0" height="108.0" rx="6" fill="#fffaf0" stroke="#e2e8f0" stroke-width="1"/>
<g data-gentle-role="tfbs-score-track-logo"><rect x="44.0" y="130.0" width="111.5" height="48.0" rx="4" fill="#ffffff" stroke="#cbd5e1" stroke-width="1"/></g>
<line x1="48.0" y1="174.0" x2="151.5" y2="174.0" stroke="#cbd5e1" stroke-width="0.8"/>
<line x1="48.0" y1="134.0" x2="151.5" y2="134.0" stroke="#e2e8f0" stroke-width="0.8" stroke-dasharray="2 2"/>
<clipPath id="tfbs_logo_clip_440_1300_1_3"><rect x="48.46" y="140.00" width="10.58" height="32.40"/></clipPath>
<g clip-path="url(#tfbs_logo_clip_440_1300_1_3)"><text x="0" y="0" text-anchor="middle" font-family="Arial, Helvetica, sans-serif" font-size="13.00" font-weight="900" fill="#ff8c00" transform="translate(53.75 172.40) scale(1.313 2.492)" data-gentle-role="tfbs-score-track-logo-letter">G</text></g>
<clipPath id="tfbs_logo_clip_440_1300_2_3"><rect x="59.96" y="134.80" width="10.58" height="39.20"/></clipPath>
<g clip-path="url(#tfbs_logo_clip_440_1300_2_3)"><text x="0" y="0" text-anchor="middle" font-family="Arial, Helvetica, sans-serif" font-size="13.00" font-weight="900" fill="#ff8c00" transform="translate(65.25 174.00) scale(1.313 3.015)" data-gentle-role="tfbs-score-track-logo-letter">G</text></g>
<clipPath id="tfbs_logo_clip_440_1300_3_3"><rect x="71.46" y="134.80" width="10.58" height="39.20"/></clipPath>
<g clip-path="url(#tfbs_logo_clip_440_1300_3_3)"><text x="0" y="0" text-anchor="middle" font-family="Arial, Helvetica, sans-serif" font-size="13.00" font-weight="900" fill="#ff8c00" transform="translate(76.75 174.00) scale(1.313 3.015)" data-gentle-role="tfbs-score-track-logo-letter">G</text></g>
<clipPath id="tfbs_logo_clip_440_1300_4_3"><rect x="82.96" y="134.80" width="10.58" height="39.20"/></clipPath>
<g clip-path="url(#tfbs_logo_clip_440_1300_4_3)"><text x="0" y="0" text-anchor="middle" font-family="Arial, Helvetica, sans-serif" font-size="13.00" font-weight="900" fill="#ff8c00" transform="translate(88.25 174.00) scale(1.313 3.015)" data-gentle-role="tfbs-score-track-logo-letter">G</text></g>
<clipPath id="tfbs_logo_clip_440_1300_5_3"><rect x="94.46" y="151.23" width="10.58" height="16.68"/></clipPath>
<g clip-path="url(#tfbs_logo_clip_440_1300_5_3)"><text x="0" y="0" text-anchor="middle" font-family="Arial, Helvetica, sans-serif" font-size="13.00" font-weight="900" fill="#1e90ff" transform="translate(99.75 167.91) scale(1.313 1.283)" data-gentle-role="tfbs-score-track-logo-letter">C</text></g>
<clipPath id="tfbs_logo_clip_440_1300_6_3"><rect x="105.96" y="134.80" width="10.58" height="39.20"/></clipPath>
<g clip-path="url(#tfbs_logo_clip_440_1300_6_3)"><text x="0" y="0" text-anchor="middle" font-family="Arial, Helvetica, sans-serif" font-size="13.00" font-weight="900" fill="#ff8c00" transform="translate(111.25 174.00) scale(1.313 3.015)" data-gentle-role="tfbs-score-track-logo-letter">G</text></g>
<clipPath id="tfbs_logo_clip_440_1300_7_3"><rect x="117.46" y="142.91" width="10.58" height="28.44"/></clipPath>
<g clip-path="url(#tfbs_logo_clip_440_1300_7_3)"><text x="0" y="0" text-anchor="middle" font-family="Arial, Helvetica, sans-serif" font-size="13.00" font-weight="900" fill="#ff8c00" transform="translate(122.75 171.35) scale(1.313 2.188)" data-gentle-role="tfbs-score-track-logo-letter">G</text></g>
<clipPath id="tfbs_logo_clip_440_1300_8_3"><rect x="128.96" y="161.03" width="10.58" height="9.36"/></clipPath>
<g clip-path="url(#tfbs_logo_clip_440_1300_8_3)"><text x="0" y="0" text-anchor="middle" font-family="Arial, Helvetica, sans-serif" font-size="13.00" font-weight="900" fill="#ff8c00" transform="translate(134.25 170.39) scale(1.313 0.720)" data-gentle-role="tfbs-score-track-logo-letter">G</text></g>
<clipPath id="tfbs_logo_clip_440_1300_9_3"><rect x="140.46" y="147.24" width="10.58" height="22.44"/></clipPath>
<g clip-path="url(#tfbs_logo_clip_440_1300_9_3)"><text x="0" y="0" text-anchor="middle" font-family="Arial, Helvetica, sans-serif" font-size="13.00" font-weight="900" fill="#ff8c00" transform="translate(145.75 169.68) scale(1.313 1.726)" data-gentle-role="tfbs-score-track-logo-letter">G</text></g>
<text x="44.0" y="124.0" font-family="monospace" font-size="13" fill="#0f172a">SP1 (MA0079.5)</text>
<text x="167.5" y="146.0" font-family="monospace" font-size="10" fill="#64748b">9 bp motif | 90 windows | max 5.42 @ 80</text>
<text x="167.5" y="162.0" font-family="monospace" font-size="10" fill="#64748b">theory max 16.46 | peak q 0.999996 | -log10 tail 5.42</text>
<rect x="472.0" y="108.0" width="860.0" height="80.0" rx="4" fill="#ffffff" stroke="#cbd5e1" stroke-width="1"/>
<line x1="472.00" y1="168.00" x2="1332.00" y2="168.00" stroke="#f1f5f9" stroke-width="1"/>
<line x1="472.00" y1="148.00" x2="1332.00" y2="148.00" stroke="#f1f5f9" stroke-width="1"/>
<line x1="472.00" y1="128.00" x2="1332.00" y2="128.00" stroke="#f1f5f9" stroke-width="1"/>
<line x1="472.00" y1="188.00" x2="1332.00" y2="188.00" stroke="#94a3b8" stroke-width="1"/>
<polyline fill="none" stroke="#0e7490" stroke-width="1.8" stroke-linejoin="round" stroke-linecap="round" points="482.00,184.00 491.44,184.00 500.88,184.00 510.31,184.00 519.75,184.00 529.19,184.00 538.63,184.00 548.07,184.00 557.51,184.00 566.94,184.00 576.38,184.00 585.82,184.00 595.26,184.00 604.70,184.00 614.13,184.00 623.57,184.00 633.01,184.00 642.45,184.00 651.89,165.76 661.33,162.52 670.76,112.00 680.20,162.20 689.64,166.39 699.08,184.00 708.52,184.00 717.96,184.00 727.39,184.00 736.83,184.00 746.27,184.00 755.71,184.00 765.15,184.00 774.58,184.00 784.02,184.00 793.46,184.00 802.90,184.00 812.34,184.00 821.78,184.00 831.21,184.00 840.65,184.00 850.09,184.00 859.53,184.00 868.97,184.00 878.40,184.00 887.84,184.00 897.28,184.00 906.72,184.00 916.16,184.00 925.60,184.00 935.03,184.00 944.47,184.00 953.91,184.00 963.35,184.00 972.79,184.00 982.22,184.00 991.66,184.00 1001.10,184.00 1010.54,184.00 1019.98,184.00 1029.42,184.00 1038.85,184.00 1048.29,184.00 1057.73,184.00 1067.17,184.00 1076.61,184.00 1086.04,184.00 1095.48,184.00 1104.92,184.00 1114.36,162.52 1123.80,150.23 1133.24,134.34 1142.67,134.34 1152.11,134.34 1161.55,134.34 1170.99,134.34 1180.43,134.34 1189.87,134.34 1199.30,134.34 1208.74,134.34 1218.18,134.34 1227.62,134.34 1237.06,134.34 1246.49,139.48 1255.93,152.00 1265.37,156.08 1274.81,184.00 1284.25,146.20 1293.69,184.00 1303.12,184.00 1312.56,184.00 1322.00,184.00"/>
<polyline fill="none" stroke="#b45309" stroke-width="1.6" stroke-linejoin="round" stroke-linecap="round" points="482.00,134.34 491.44,134.34 500.88,134.34 510.31,134.34 519.75,134.34 529.19,134.34 538.63,134.34 548.07,134.34 557.51,134.34 566.94,134.34 576.38,134.34 585.82,134.34 595.26,150.23 604.70,162.52 614.13,184.00 623.57,184.00 633.01,163.38 642.45,184.00 651.89,184.00 661.33,184.00 670.76,184.00 680.20,184.00 689.64,184.00 699.08,184.00 708.52,184.00 717.96,184.00 727.39,184.00 736.83,184.00 746.27,184.00 755.71,184.00 765.15,184.00 774.58,184.00 784.02,184.00 793.46,184.00 802.90,184.00 812.34,184.00 821.78,184.00 831.21,184.00 840.65,184.00 850.09,184.00 859.53,184.00 868.97,184.00 878.40,184.00 887.84,184.00 897.28,184.00 906.72,184.00 916.16,165.83 925.60,155.69 935.03,149.95 944.47,134.34 953.91,134.34 963.35,134.34 972.79,134.34 982.22,134.34 991.66,134.34 1001.10,134.34 1010.54,134.34 1019.98,134.34 1029.42,134.34 1038.85,134.34 1048.29,134.34 1057.73,150.23 1067.17,162.52 1076.61,184.00 1086.04,184.00 1095.48,184.00 1104.92,184.00 1114.36,184.00 1123.80,184.00 1133.24,184.00 1142.67,184.00 1152.11,184.00 1161.55,184.00 1170.99,184.00 1180.43,184.00 1189.87,184.00 1199.30,184.00 1208.74,184.00 1218.18,184.00 1227.62,184.00 1237.06,184.00 1246.49,184.00 1255.93,184.00 1265.37,184.00 1274.81,184.00 1284.25,184.00 1293.69,184.00 1303.12,184.00 1312.56,184.00 1322.00,184.00"/>
<rect x="32.0" y="222.0" width="1300.0" height="108.0" rx="6" fill="#fffefb" stroke="#e2e8f0" stroke-width="1"/>
<g data-gentle-role="tfbs-score-track-logo"><rect x="44.0" y="252.0" width="215.0" height="48.0" rx="4" fill="#ffffff" stroke="#cbd5e1" stroke-width="1"/></g>
<line x1="48.0" y1="296.0" x2="255.0" y2="296.0" stroke="#cbd5e1" stroke-width="0.8"/>
<line x1="48.0" y1="256.0" x2="255.0" y2="256.0" stroke="#e2e8f0" stroke-width="0.8" stroke-dasharray="2 2"/>
<clipPath id="tfbs_logo_clip_440_2520_2_3"><rect x="59.96" y="276.64" width="10.58" height="14.88"/></clipPath>
<g clip-path="url(#tfbs_logo_clip_440_2520_2_3)"><text x="0" y="0" text-anchor="middle" font-family="Arial, Helvetica, sans-serif" font-size="13.00" font-weight="900" fill="#228b22" transform="translate(65.25 291.52) scale(1.313 1.145)" data-gentle-role="tfbs-score-track-logo-letter">A</text></g>
<clipPath id="tfbs_logo_clip_440_2520_3_3"><rect x="71.46" y="261.60" width="10.58" height="33.00"/></clipPath>
<g clip-path="url(#tfbs_logo_clip_440_2520_3_3)"><text x="0" y="0" text-anchor="middle" font-family="Arial, Helvetica, sans-serif" font-size="13.00" font-weight="900" fill="#1e90ff" transform="translate(76.75 294.60) scale(1.313 2.538)" data-gentle-role="tfbs-score-track-logo-letter">C</text></g>
<clipPath id="tfbs_logo_clip_440_2520_4_3"><rect x="82.96" y="270.22" width="10.58" height="23.09"/></clipPath>
<g clip-path="url(#tfbs_logo_clip_440_2520_4_3)"><text x="0" y="0" text-anchor="middle" font-family="Arial, Helvetica, sans-serif" font-size="13.00" font-weight="900" fill="#228b22" transform="translate(88.25 293.31) scale(1.313 1.776)" data-gentle-role="tfbs-score-track-logo-letter">A</text></g>
<clipPath id="tfbs_logo_clip_440_2520_5_3"><rect x="94.46" y="268.43" width="10.58" height="25.28"/></clipPath>
<g clip-path="url(#tfbs_logo_clip_440_2520_5_3)"><text x="0" y="0" text-anchor="middle" font-family="Arial, Helvetica, sans-serif" font-size="13.00" font-weight="900" fill="#dc143c" transform="translate(99.75 293.71) scale(1.313 1.945)" data-gentle-role="tfbs-score-track-logo-letter">T</text></g>
<clipPath id="tfbs_logo_clip_440_2520_6_3"><rect x="105.96" y="256.15" width="10.58" height="39.85"/></clipPath>
<g clip-path="url(#tfbs_logo_clip_440_2520_6_3)"><text x="0" y="0" text-anchor="middle" font-family="Arial, Helvetica, sans-serif" font-size="13.00" font-weight="900" fill="#ff8c00" transform="translate(111.25 296.00) scale(1.313 3.065)" data-gentle-role="tfbs-score-track-logo-letter">G</text></g>
<clipPath id="tfbs_logo_clip_440_2520_7_3"><rect x="117.46" y="277.97" width="10.58" height="11.33"/></clipPath>
<g clip-path="url(#tfbs_logo_clip_440_2520_7_3)"><text x="0" y="0" text-anchor="middle" font-family="Arial, Helvetica, sans-serif" font-size="13.00" font-weight="900" fill="#1e90ff" transform="translate(122.75 289.30) scale(1.313 0.872)" data-gentle-role="tfbs-score-track-logo-letter">C</text></g>
<clipPath id="tfbs_logo_clip_440_2520_8_3"><rect x="128.96" y="275.85" width="10.58" height="16.47"/></clipPath>
<g clip-path="url(#tfbs_logo_clip_440_2520_8_3)"><text x="0" y="0" text-anchor="middle" font-family="Arial, Helvetica, sans-serif" font-size="13.00" font-weight="900" fill="#1e90ff" transform="translate(134.25 292.31) scale(1.313 1.267)" data-gentle-role="tfbs-score-track-logo-letter">C</text></g>
<clipPath id="tfbs_logo_clip_440_2520_11_3"><rect x="163.46" y="279.27" width="10.58" height="12.99"/></clipPath>
<g clip-path="url(#tfbs_logo_clip_440_2520_11_3)"><text x="0" y="0" text-anchor="middle" font-family="Arial, Helvetica, sans-serif" font-size="13.00" font-weight="900" fill="#ff8c00" transform="translate(168.75 292.27) scale(1.313 0.999)" data-gentle-role="tfbs-score-track-logo-letter">G</text></g>
<clipPath id="tfbs_logo_clip_440_2520_12_2"><rect x="174.96" y="287.97" width="10.58" height="8.03"/></clipPath>
<g clip-path="url(#tfbs_logo_clip_440_2520_12_2)"><text x="0" y="0" text-anchor="middle" font-family="Arial, Helvetica, sans-serif" font-size="13.00" font-weight="900" fill="#228b22" transform="translate(180.25 296.00) scale(1.313 0.618)" data-gentle-role="tfbs-score-track-logo-letter">A</text></g>
<clipPath id="tfbs_logo_clip_440_2520_12_3"><rect x="174.96" y="278.00" width="10.58" height="9.97"/></clipPath>
<g clip-path="url(#tfbs_logo_clip_440_2520_12_3)"><text x="0" y="0" text-anchor="middle" font-family="Arial, Helvetica, sans-serif" font-size="13.00" font-weight="900" fill="#ff8c00" transform="translate(180.25 287.97) scale(1.313 0.767)" data-gentle-role="tfbs-score-track-logo-letter">G</text></g>
<clipPath id="tfbs_logo_clip_440_2520_13_3"><rect x="186.46" y="256.08" width="10.58" height="39.92"/></clipPath>
<g clip-path="url(#tfbs_logo_clip_440_2520_13_3)"><text x="0" y="0" text-anchor="middle" font-family="Arial, Helvetica, sans-serif" font-size="13.00" font-weight="900" fill="#1e90ff" transform="translate(191.75 296.00) scale(1.313 3.071)" data-gentle-role="tfbs-score-track-logo-letter">C</text></g>
<clipPath id="tfbs_logo_clip_440_2520_14_3"><rect x="197.96" y="268.97" width="10.58" height="24.81"/></clipPath>
<g clip-path="url(#tfbs_logo_clip_440_2520_14_3)"><text x="0" y="0" text-anchor="middle" font-family="Arial, Helvetica, sans-serif" font-size="13.00" font-weight="900" fill="#228b22" transform="translate(203.25 293.78) scale(1.313 1.908)" data-gentle-role="tfbs-score-track-logo-letter">A</text></g>
<clipPath id="tfbs_logo_clip_440_2520_15_3"><rect x="209.46" y="266.99" width="10.58" height="26.32"/></clipPath>
<g clip-path="url(#tfbs_logo_clip_440_2520_15_3)"><text x="0" y="0" text-anchor="middle" font-family="Arial, Helvetica, sans-serif" font-size="13.00" font-weight="900" fill="#dc143c" transform="translate(214.75 293.31) scale(1.313 2.024)" data-gentle-role="tfbs-score-track-logo-letter">T</text></g>
<clipPath id="tfbs_logo_clip_440_2520_16_3"><rect x="220.96" y="260.03" width="10.58" height="35.97"/></clipPath>
<g clip-path="url(#tfbs_logo_clip_440_2520_16_3)"><text x="0" y="0" text-anchor="middle" font-family="Arial, Helvetica, sans-serif" font-size="13.00" font-weight="900" fill="#ff8c00" transform="translate(226.25 296.00) scale(1.313 2.767)" data-gentle-role="tfbs-score-track-logo-letter">G</text></g>
<clipPath id="tfbs_logo_clip_440_2520_17_3"><rect x="232.46" y="273.86" width="10.58" height="17.91"/></clipPath>
<g clip-path="url(#tfbs_logo_clip_440_2520_17_3)"><text x="0" y="0" text-anchor="middle" font-family="Arial, Helvetica, sans-serif" font-size="13.00" font-weight="900" fill="#dc143c" transform="translate(237.75 291.77) scale(1.313 1.377)" data-gentle-role="tfbs-score-track-logo-letter">T</text></g>
<text x="44.0" y="246.0" font-family="monospace" font-size="13" fill="#0f172a">TP53 (MA0106.3)</text>
<text x="271.0" y="268.0" font-family="monospace" font-size="10" fill="#64748b">18 bp motif | 81 windows | max 1.49 @ 77</text>
<text x="271.0" y="284.0" font-family="monospace" font-size="10" fill="#64748b">theory max 24.67 | peak q 0.967714 | -log10 tail 1.49</text>
<rect x="472.0" y="230.0" width="860.0" height="80.0" rx="4" fill="#ffffff" stroke="#cbd5e1" stroke-width="1"/>
<line x1="472.00" y1="290.00" x2="1332.00" y2="290.00" stroke="#f1f5f9" stroke-width="1"/>
<line x1="472.00" y1="270.00" x2="1332.00" y2="270.00" stroke="#f1f5f9" stroke-width="1"/>
<line x1="472.00" y1="250.00" x2="1332.00" y2="250.00" stroke="#f1f5f9" stroke-width="1"/>
<line x1="472.00" y1="310.00" x2="1332.00" y2="310.00" stroke="#94a3b8" stroke-width="1"/>
<polyline fill="none" stroke="#0e7490" stroke-width="1.8" stroke-linejoin="round" stroke-linecap="round" points="482.00,306.00 492.50,306.00 503.00,306.00 513.50,306.00 524.00,306.00 534.50,306.00 545.00,306.00 555.50,306.00 566.00,306.00 576.50,306.00 587.00,306.00 597.50,306.00 608.00,306.00 618.50,306.00 629.00,306.00 639.50,306.00 650.00,306.00 660.50,286.19 671.00,306.00 681.50,306.00 692.00,306.00 702.50,306.00 713.00,306.00 723.50,306.00 734.00,306.00 744.50,306.00 755.00,306.00 765.50,306.00 776.00,306.00 786.50,306.00 797.00,306.00 807.50,306.00 818.00,306.00 828.50,306.00 839.00,306.00 849.50,306.00 860.00,306.00 870.50,306.00 881.00,306.00 891.50,306.00 902.00,306.00 912.50,306.00 923.00,306.00 933.50,306.00 944.00,306.00 954.50,306.00 965.00,306.00 975.50,306.00 986.00,306.00 996.50,306.00 1007.00,306.00 1017.50,306.00 1028.00,306.00 1038.50,306.00 1049.00,306.00 1059.50,306.00 1070.00,306.00 1080.50,306.00 1091.00,306.00 1101.50,306.00 1112.00,306.00 1122.50,306.00 1133.00,306.00 1143.50,306.00 1154.00,306.00 1164.50,306.00 1175.00,306.00 1185.50,306.00 1196.00,306.00 1206.50,306.00 1217.00,306.00 1227.50,306.00 1238.00,306.00 1248.50,306.00 1259.00,306.00 1269.50,306.00 1280.00,306.00 1290.50,306.00 1301.00,306.00 1311.50,306.00 1322.00,306.00"/>
<polyline fill="none" stroke="#b45309" stroke-width="1.6" stroke-linejoin="round" stroke-linecap="round" points="482.00,306.00 492.50,306.00 503.00,306.00 513.50,306.00 524.00,306.00 534.50,306.00 545.00,306.00 555.50,306.00 566.00,306.00 576.50,306.00 587.00,306.00 597.50,306.00 608.00,306.00 618.50,306.00 629.00,306.00 639.50,306.00 650.00,306.00 660.50,306.00 671.00,306.00 681.50,306.00 692.00,306.00 702.50,306.00 713.00,306.00 723.50,306.00 734.00,306.00 744.50,306.00 755.00,306.00 765.50,306.00 776.00,306.00 786.50,306.00 797.00,306.00 807.50,306.00 818.00,306.00 828.50,306.00 839.00,306.00 849.50,306.00 860.00,306.00 870.50,306.00 881.00,306.00 891.50,306.00 902.00,306.00 912.50,306.00 923.00,306.00 933.50,306.00 944.00,306.00 954.50,306.00 965.00,306.00 975.50,306.00 986.00,306.00 996.50,306.00 1007.00,306.00 1017.50,306.00 1028.00,306.00 1038.50,306.00 1049.00,306.00 1059.50,306.00 1070.00,306.00 1080.50,306.00 1091.00,306.00 1101.50,306.00 1112.00,306.00 1122.50,306.00 1133.00,306.00 1143.50,306.00 1154.00,306.00 1164.50,306.00 1175.00,306.00 1185.50,306.00 1196.00,306.00 1206.50,306.00 1217.00,306.00 1227.50,306.00 1238.00,306.00 1248.50,306.00 1259.00,306.00 1269.50,306.00 1280.00,306.00 1290.50,306.00 1301.00,306.00 1311.50,306.00 1322.00,306.00"/>
<rect x="32.0" y="344.0" width="1300.0" height="108.0" rx="6" fill="#fffaf0" stroke="#e2e8f0" stroke-width="1"/>
<g data-gentle-role="tfbs-score-track-logo"><rect x="44.0" y="374.0" width="215.0" height="48.0" rx="4" fill="#ffffff" stroke="#cbd5e1" stroke-width="1"/></g>
<line x1="48.0" y1="418.0" x2="255.0" y2="418.0" stroke="#cbd5e1" stroke-width="0.8"/>
<line x1="48.0" y1="378.0" x2="255.0" y2="378.0" stroke="#e2e8f0" stroke-width="0.8" stroke-dasharray="2 2"/>
<clipPath id="tfbs_logo_clip_440_3740_1_3"><rect x="48.46" y="403.62" width="10.58" height="8.83"/></clipPath>
<g clip-path="url(#tfbs_logo_clip_440_3740_1_3)"><text x="0" y="0" text-anchor="middle" font-family="Arial, Helvetica, sans-serif" font-size="13.00" font-weight="900" fill="#228b22" transform="translate(53.75 412.45) scale(1.313 0.679)" data-gentle-role="tfbs-score-track-logo-letter">A</text></g>
<clipPath id="tfbs_logo_clip_440_3740_2_3"><rect x="59.96" y="387.46" width="10.58" height="28.23"/></clipPath>
<g clip-path="url(#tfbs_logo_clip_440_3740_2_3)"><text x="0" y="0" text-anchor="middle" font-family="Arial, Helvetica, sans-serif" font-size="13.00" font-weight="900" fill="#228b22" transform="translate(65.25 415.69) scale(1.313 2.172)" data-gentle-role="tfbs-score-track-logo-letter">A</text></g>
<clipPath id="tfbs_logo_clip_440_3740_3_3"><rect x="71.46" y="378.00" width="10.58" height="40.00"/></clipPath>
<g clip-path="url(#tfbs_logo_clip_440_3740_3_3)"><text x="0" y="0" text-anchor="middle" font-family="Arial, Helvetica, sans-serif" font-size="13.00" font-weight="900" fill="#1e90ff" transform="translate(76.75 418.00) scale(1.313 3.077)" data-gentle-role="tfbs-score-track-logo-letter">C</text></g>
<clipPath id="tfbs_logo_clip_440_3740_4_3"><rect x="82.96" y="382.58" width="10.58" height="34.26"/></clipPath>
<g clip-path="url(#tfbs_logo_clip_440_3740_4_3)"><text x="0" y="0" text-anchor="middle" font-family="Arial, Helvetica, sans-serif" font-size="13.00" font-weight="900" fill="#228b22" transform="translate(88.25 416.84) scale(1.313 2.636)" data-gentle-role="tfbs-score-track-logo-letter">A</text></g>
<clipPath id="tfbs_logo_clip_440_3740_5_3"><rect x="94.46" y="395.26" width="10.58" height="17.58"/></clipPath>
<g clip-path="url(#tfbs_logo_clip_440_3740_5_3)"><text x="0" y="0" text-anchor="middle" font-family="Arial, Helvetica, sans-serif" font-size="13.00" font-weight="900" fill="#dc143c" transform="translate(99.75 412.83) scale(1.313 1.352)" data-gentle-role="tfbs-score-track-logo-letter">T</text></g>
<clipPath id="tfbs_logo_clip_440_3740_6_3"><rect x="105.96" y="378.00" width="10.58" height="40.00"/></clipPath>
<g clip-path="url(#tfbs_logo_clip_440_3740_6_3)"><text x="0" y="0" text-anchor="middle" font-family="Arial, Helvetica, sans-serif" font-size="13.00" font-weight="900" fill="#ff8c00" transform="translate(111.25 418.00) scale(1.313 3.077)" data-gentle-role="tfbs-score-track-logo-letter">G</text></g>
<clipPath id="tfbs_logo_clip_440_3740_7_3"><rect x="117.46" y="382.59" width="10.58" height="34.44"/></clipPath>
<g clip-path="url(#tfbs_logo_clip_440_3740_7_3)"><text x="0" y="0" text-anchor="middle" font-family="Arial, Helvetica, sans-serif" font-size="13.00" font-weight="900" fill="#dc143c" transform="translate(122.75 417.03) scale(1.313 2.650)" data-gentle-role="tfbs-score-track-logo-letter">T</text></g>
<clipPath id="tfbs_logo_clip_440_3740_8_3"><rect x="128.96" y="401.88" width="10.58" height="10.58"/></clipPath>
<g clip-path="url(#tfbs_logo_clip_440_3740_8_3)"><text x="0" y="0" text-anchor="middle" font-family="Arial, Helvetica, sans-serif" font-size="13.00" font-weight="900" fill="#dc143c" transform="translate(134.25 412.47) scale(1.313 0.814)" data-gentle-role="tfbs-score-track-logo-letter">T</text></g>
<clipPath id="tfbs_logo_clip_440_3740_9_3"><rect x="140.46" y="404.37" width="10.58" height="8.82"/></clipPath>
<g clip-path="url(#tfbs_logo_clip_440_3740_9_3)"><text x="0" y="0" text-anchor="middle" font-family="Arial, Helvetica, sans-serif" font-size="13.00" font-weight="900" fill="#ff8c00" transform="translate(145.75 413.20) scale(1.313 0.679)" data-gentle-role="tfbs-score-track-logo-letter">G</text></g>
<clipPath id="tfbs_logo_clip_440_3740_11_3"><rect x="163.46" y="398.37" width="10.58" height="13.39"/></clipPath>
<g clip-path="url(#tfbs_logo_clip_440_3740_11_3)"><text x="0" y="0" text-anchor="middle" font-family="Arial, Helvetica, sans-serif" font-size="13.00" font-weight="900" fill="#ff8c00" transform="translate(168.75 411.76) scale(1.313 1.030)" data-gentle-role="tfbs-score-track-logo-letter">G</text></g>
<clipPath id="tfbs_logo_clip_440_3740_12_3"><rect x="174.96" y="385.12" width="10.58" height="32.88"/></clipPath>
<g clip-path="url(#tfbs_logo_clip_440_3740_12_3)"><text x="0" y="0" text-anchor="middle" font-family="Arial, Helvetica, sans-serif" font-size="13.00" font-weight="900" fill="#228b22" transform="translate(180.25 418.00) scale(1.313 2.529)" data-gentle-role="tfbs-score-track-logo-letter">A</text></g>
<clipPath id="tfbs_logo_clip_440_3740_13_3"><rect x="186.46" y="378.00" width="10.58" height="40.00"/></clipPath>
<g clip-path="url(#tfbs_logo_clip_440_3740_13_3)"><text x="0" y="0" text-anchor="middle" font-family="Arial, Helvetica, sans-serif" font-size="13.00" font-weight="900" fill="#1e90ff" transform="translate(191.75 418.00) scale(1.313 3.077)" data-gentle-role="tfbs-score-track-logo-letter">C</text></g>
<clipPath id="tfbs_logo_clip_440_3740_14_3"><rect x="197.96" y="386.30" width="10.58" height="29.10"/></clipPath>
<g clip-path="url(#tfbs_logo_clip_440_3740_14_3)"><text x="0" y="0" text-anchor="middle" font-family="Arial, Helvetica, sans-serif" font-size="13.00" font-weight="900" fill="#228b22" transform="translate(203.25 415.40) scale(1.313 2.239)" data-gentle-role="tfbs-score-track-logo-letter">A</text></g>
<clipPath id="tfbs_logo_clip_440_3740_15_3"><rect x="209.46" y="395.24" width="10.58" height="18.68"/></clipPath>
<g clip-path="url(#tfbs_logo_clip_440_3740_15_3)"><text x="0" y="0" text-anchor="middle" font-family="Arial, Helvetica, sans-serif" font-size="13.00" font-weight="900" fill="#dc143c" transform="translate(214.75 413.92) scale(1.313 1.437)" data-gentle-role="tfbs-score-track-logo-letter">T</text></g>
<clipPath id="tfbs_logo_clip_440_3740_16_3"><rect x="220.96" y="378.00" width="10.58" height="40.00"/></clipPath>
<g clip-path="url(#tfbs_logo_clip_440_3740_16_3)"><text x="0" y="0" text-anchor="middle" font-family="Arial, Helvetica, sans-serif" font-size="13.00" font-weight="900" fill="#ff8c00" transform="translate(226.25 418.00) scale(1.313 3.077)" data-gentle-role="tfbs-score-track-logo-letter">G</text></g>
<clipPath id="tfbs_logo_clip_440_3740_17_3"><rect x="232.46" y="387.23" width="10.58" height="28.90"/></clipPath>
<g clip-path="url(#tfbs_logo_clip_440_3740_17_3)"><text x="0" y="0" text-anchor="middle" font-family="Arial, Helvetica, sans-serif" font-size="13.00" font-weight="900" fill="#dc143c" transform="translate(237.75 416.13) scale(1.313 2.223)" data-gentle-role="tfbs-score-track-logo-letter">T</text></g>
<text x="44.0" y="368.0" font-family="monospace" font-size="13" fill="#0f172a">TP63 (MA0525.2)</text>
<text x="271.0" y="390.0" font-family="monospace" font-size="10" fill="#64748b">18 bp motif | 81 windows | max 1.87 @ 138</text>
<text x="271.0" y="406.0" font-family="monospace" font-size="10" fill="#64748b">theory max 25.33 | peak q 0.986417 | -log10 tail 1.87</text>
<rect x="472.0" y="352.0" width="860.0" height="80.0" rx="4" fill="#ffffff" stroke="#cbd5e1" stroke-width="1"/>
<line x1="472.00" y1="412.00" x2="1332.00" y2="412.00" stroke="#f1f5f9" stroke-width="1"/>
<line x1="472.00" y1="392.00" x2="1332.00" y2="392.00" stroke="#f1f5f9" stroke-width="1"/>
<line x1="472.00" y1="372.00" x2="1332.00" y2="372.00" stroke="#f1f5f9" stroke-width="1"/>
<line x1="472.00" y1="432.00" x2="1332.00" y2="432.00" stroke="#94a3b8" stroke-width="1"/>
<polyline fill="none" stroke="#0e7490" stroke-width="1.8" stroke-linejoin="round" stroke-linecap="round" points="482.00,428.00 492.50,428.00 503.00,428.00 513.50,428.00 524.00,428.00 534.50,428.00 545.00,428.00 555.50,428.00 566.00,428.00 576.50,428.00 587.00,428.00 597.50,428.00 608.00,428.00 618.50,428.00 629.00,428.00 639.50,428.00 650.00,428.00 660.50,410.12 671.00,428.00 681.50,428.00 692.00,428.00 702.50,428.00 713.00,428.00 723.50,428.00 734.00,428.00 744.50,428.00 755.00,428.00 765.50,428.00 776.00,428.00 786.50,428.00 797.00,428.00 807.50,428.00 818.00,428.00 828.50,428.00 839.00,428.00 849.50,428.00 860.00,428.00 870.50,428.00 881.00,428.00 891.50,428.00 902.00,428.00 912.50,428.00 923.00,428.00 933.50,428.00 944.00,428.00 954.50,428.00 965.00,428.00 975.50,428.00 986.00,428.00 996.50,428.00 1007.00,428.00 1017.50,428.00 1028.00,428.00 1038.50,428.00 1049.00,428.00 1059.50,428.00 1070.00,428.00 1080.50,428.00 1091.00,428.00 1101.50,428.00 1112.00,428.00 1122.50,428.00 1133.00,428.00 1143.50,428.00 1154.00,428.00 1164.50,428.00 1175.00,428.00 1185.50,428.00 1196.00,428.00 1206.50,428.00 1217.00,428.00 1227.50,428.00 1238.00,428.00 1248.50,428.00 1259.00,428.00 1269.50,428.00 1280.00,405.48 1290.50,428.00 1301.00,403.19 1311.50,428.00 1322.00,428.00"/>
<polyline fill="none" stroke="#b45309" stroke-width="1.6" stroke-linejoin="round" stroke-linecap="round" points="482.00,428.00 492.50,428.00 503.00,428.00 513.50,428.00 524.00,428.00 534.50,428.00 545.00,428.00 555.50,428.00 566.00,428.00 576.50,428.00 587.00,428.00 597.50,428.00 608.00,428.00 618.50,428.00 629.00,428.00 639.50,428.00 650.00,428.00 660.50,428.00 671.00,428.00 681.50,428.00 692.00,428.00 702.50,428.00 713.00,428.00 723.50,428.00 734.00,428.00 744.50,428.00 755.00,428.00 765.50,428.00 776.00,428.00 786.50,428.00 797.00,428.00 807.50,428.00 818.00,428.00 828.50,428.00 839.00,428.00 849.50,428.00 860.00,428.00 870.50,428.00 881.00,428.00 891.50,428.00 902.00,428.00 912.50,428.00 923.00,428.00 933.50,428.00 944.00,428.00 954.50,428.00 965.00,428.00 975.50,428.00 986.00,428.00 996.50,428.00 1007.00,428.00 1017.50,428.00 1028.00,428.00 1038.50,428.00 1049.00,428.00 1059.50,428.00 1070.00,428.00 1080.50,428.00 1091.00,428.00 1101.50,428.00 1112.00,428.00 1122.50,428.00 1133.00,428.00 1143.50,428.00 1154.00,428.00 1164.50,428.00 1175.00,428.00 1185.50,428.00 1196.00,428.00 1206.50,428.00 1217.00,428.00 1227.50,428.00 1238.00,428.00 1248.50,428.00 1259.00,428.00 1269.50,428.00 1280.00,428.00 1290.50,428.00 1301.00,428.00 1311.50,428.00 1322.00,428.00"/>
<rect x="32.0" y="466.0" width="1300.0" height="108.0" rx="6" fill="#fffefb" stroke="#e2e8f0" stroke-width="1"/>
<g data-gentle-role="tfbs-score-track-logo"><rect x="44.0" y="496.0" width="215.0" height="48.0" rx="4" fill="#ffffff" stroke="#cbd5e1" stroke-width="1"/></g>
<line x1="48.0" y1="540.0" x2="255.0" y2="540.0" stroke="#cbd5e1" stroke-width="0.8"/>
<line x1="48.0" y1="500.0" x2="255.0" y2="500.0" stroke="#e2e8f0" stroke-width="0.8" stroke-dasharray="2 2"/>
<clipPath id="tfbs_logo_clip_440_4960_2_3"><rect x="59.96" y="526.29" width="10.58" height="8.94"/></clipPath>
<g clip-path="url(#tfbs_logo_clip_440_4960_2_3)"><text x="0" y="0" text-anchor="middle" font-family="Arial, Helvetica, sans-serif" font-size="13.00" font-weight="900" fill="#228b22" transform="translate(65.25 535.24) scale(1.313 0.688)" data-gentle-role="tfbs-score-track-logo-letter">A</text></g>
<clipPath id="tfbs_logo_clip_440_4960_3_3"><rect x="71.46" y="500.00" width="10.58" height="40.00"/></clipPath>
<g clip-path="url(#tfbs_logo_clip_440_4960_3_3)"><text x="0" y="0" text-anchor="middle" font-family="Arial, Helvetica, sans-serif" font-size="13.00" font-weight="900" fill="#1e90ff" transform="translate(76.75 540.00) scale(1.313 3.077)" data-gentle-role="tfbs-score-track-logo-letter">C</text></g>
<clipPath id="tfbs_logo_clip_440_4960_4_3"><rect x="82.96" y="512.14" width="10.58" height="26.19"/></clipPath>
<g clip-path="url(#tfbs_logo_clip_440_4960_4_3)"><text x="0" y="0" text-anchor="middle" font-family="Arial, Helvetica, sans-serif" font-size="13.00" font-weight="900" fill="#228b22" transform="translate(88.25 538.33) scale(1.313 2.015)" data-gentle-role="tfbs-score-track-logo-letter">A</text></g>
<clipPath id="tfbs_logo_clip_440_4960_5_3"><rect x="94.46" y="523.66" width="10.58" height="11.63"/></clipPath>
<g clip-path="url(#tfbs_logo_clip_440_4960_5_3)"><text x="0" y="0" text-anchor="middle" font-family="Arial, Helvetica, sans-serif" font-size="13.00" font-weight="900" fill="#dc143c" transform="translate(99.75 535.29) scale(1.313 0.895)" data-gentle-role="tfbs-score-track-logo-letter">T</text></g>
<clipPath id="tfbs_logo_clip_440_4960_6_3"><rect x="105.96" y="500.79" width="10.58" height="39.21"/></clipPath>
<g clip-path="url(#tfbs_logo_clip_440_4960_6_3)"><text x="0" y="0" text-anchor="middle" font-family="Arial, Helvetica, sans-serif" font-size="13.00" font-weight="900" fill="#ff8c00" transform="translate(111.25 540.00) scale(1.313 3.016)" data-gentle-role="tfbs-score-track-logo-letter">G</text></g>
<clipPath id="tfbs_logo_clip_440_4960_7_3"><rect x="117.46" y="516.26" width="10.58" height="19.50"/></clipPath>
<g clip-path="url(#tfbs_logo_clip_440_4960_7_3)"><text x="0" y="0" text-anchor="middle" font-family="Arial, Helvetica, sans-serif" font-size="13.00" font-weight="900" fill="#dc143c" transform="translate(122.75 535.75) scale(1.313 1.500)" data-gentle-role="tfbs-score-track-logo-letter">T</text></g>
<clipPath id="tfbs_logo_clip_440_4960_12_3"><rect x="174.96" y="517.34" width="10.58" height="19.00"/></clipPath>
<g clip-path="url(#tfbs_logo_clip_440_4960_12_3)"><text x="0" y="0" text-anchor="middle" font-family="Arial, Helvetica, sans-serif" font-size="13.00" font-weight="900" fill="#228b22" transform="translate(180.25 536.34) scale(1.313 1.462)" data-gentle-role="tfbs-score-track-logo-letter">A</text></g>
<clipPath id="tfbs_logo_clip_440_4960_13_3"><rect x="186.46" y="500.00" width="10.58" height="40.00"/></clipPath>
<g clip-path="url(#tfbs_logo_clip_440_4960_13_3)"><text x="0" y="0" text-anchor="middle" font-family="Arial, Helvetica, sans-serif" font-size="13.00" font-weight="900" fill="#1e90ff" transform="translate(191.75 540.00) scale(1.313 3.077)" data-gentle-role="tfbs-score-track-logo-letter">C</text></g>
<clipPath id="tfbs_logo_clip_440_4960_14_3"><rect x="197.96" y="518.87" width="10.58" height="17.22"/></clipPath>
<g clip-path="url(#tfbs_logo_clip_440_4960_14_3)"><text x="0" y="0" text-anchor="middle" font-family="Arial, Helvetica, sans-serif" font-size="13.00" font-weight="900" fill="#228b22" transform="translate(203.25 536.09) scale(1.313 1.324)" data-gentle-role="tfbs-score-track-logo-letter">A</text></g>
<clipPath id="tfbs_logo_clip_440_4960_15_3"><rect x="209.46" y="523.46" width="10.58" height="9.71"/></clipPath>
<g clip-path="url(#tfbs_logo_clip_440_4960_15_3)"><text x="0" y="0" text-anchor="middle" font-family="Arial, Helvetica, sans-serif" font-size="13.00" font-weight="900" fill="#dc143c" transform="translate(214.75 533.17) scale(1.313 0.747)" data-gentle-role="tfbs-score-track-logo-letter">T</text></g>
<clipPath id="tfbs_logo_clip_440_4960_16_3"><rect x="220.96" y="503.46" width="10.58" height="36.54"/></clipPath>
<g clip-path="url(#tfbs_logo_clip_440_4960_16_3)"><text x="0" y="0" text-anchor="middle" font-family="Arial, Helvetica, sans-serif" font-size="13.00" font-weight="900" fill="#ff8c00" transform="translate(226.25 540.00) scale(1.313 2.811)" data-gentle-role="tfbs-score-track-logo-letter">G</text></g>
<text x="44.0" y="490.0" font-family="monospace" font-size="13" fill="#0f172a">TP73 (MA0861.1)</text>
<text x="271.0" y="512.0" font-family="monospace" font-size="10" fill="#64748b">18 bp motif | 81 windows | max 1.37 @ 136</text>
<text x="271.0" y="528.0" font-family="monospace" font-size="10" fill="#64748b">theory max 20.47 | peak q 0.957592 | -log10 tail 1.37</text>
<rect x="472.0" y="474.0" width="860.0" height="80.0" rx="4" fill="#ffffff" stroke="#cbd5e1" stroke-width="1"/>
<line x1="472.00" y1="534.00" x2="1332.00" y2="534.00" stroke="#f1f5f9" stroke-width="1"/>
<line x1="472.00" y1="514.00" x2="1332.00" y2="514.00" stroke="#f1f5f9" stroke-width="1"/>
<line x1="472.00" y1="494.00" x2="1332.00" y2="494.00" stroke="#f1f5f9" stroke-width="1"/>
<line x1="472.00" y1="554.00" x2="1332.00" y2="554.00" stroke="#94a3b8" stroke-width="1"/>
<polyline fill="none" stroke="#0e7490" stroke-width="1.8" stroke-linejoin="round" stroke-linecap="round" points="482.00,550.00 492.50,550.00 503.00,550.00 513.50,550.00 524.00,550.00 534.50,550.00 545.00,550.00 555.50,550.00 566.00,550.00 576.50,550.00 587.00,550.00 597.50,550.00 608.00,550.00 618.50,550.00 629.00,550.00 639.50,550.00 650.00,550.00 660.50,550.00 671.00,550.00 681.50,550.00 692.00,550.00 702.50,550.00 713.00,550.00 723.50,550.00 734.00,550.00 744.50,550.00 755.00,550.00 765.50,550.00 776.00,550.00 786.50,550.00 797.00,550.00 807.50,550.00 818.00,550.00 828.50,550.00 839.00,550.00 849.50,550.00 860.00,550.00 870.50,550.00 881.00,550.00 891.50,550.00 902.00,550.00 912.50,550.00 923.00,550.00 933.50,550.00 944.00,550.00 954.50,550.00 965.00,550.00 975.50,550.00 986.00,550.00 996.50,550.00 1007.00,550.00 1017.50,550.00 1028.00,550.00 1038.50,550.00 1049.00,550.00 1059.50,550.00 1070.00,550.00 1080.50,550.00 1091.00,550.00 1101.50,550.00 1112.00,550.00 1122.50,550.00 1133.00,550.00 1143.50,550.00 1154.00,550.00 1164.50,550.00 1175.00,550.00 1185.50,550.00 1196.00,550.00 1206.50,550.00 1217.00,550.00 1227.50,550.00 1238.00,550.00 1248.50,550.00 1259.00,550.00 1269.50,550.00 1280.00,550.00 1290.50,550.00 1301.00,550.00 1311.50,550.00 1322.00,550.00"/>
<polyline fill="none" stroke="#b45309" stroke-width="1.6" stroke-linejoin="round" stroke-linecap="round" points="482.00,550.00 492.50,550.00 503.00,550.00 513.50,550.00 524.00,550.00 534.50,550.00 545.00,550.00 555.50,550.00 566.00,550.00 576.50,550.00 587.00,550.00 597.50,550.00 608.00,550.00 618.50,550.00 629.00,550.00 639.50,550.00 650.00,550.00 660.50,550.00 671.00,550.00 681.50,550.00 692.00,550.00 702.50,550.00 713.00,550.00 723.50,550.00 734.00,550.00 744.50,550.00 755.00,550.00 765.50,550.00 776.00,550.00 786.50,550.00 797.00,550.00 807.50,550.00 818.00,550.00 828.50,550.00 839.00,550.00 849.50,550.00 860.00,550.00 870.50,550.00 881.00,550.00 891.50,550.00 902.00,550.00 912.50,550.00 923.00,550.00 933.50,550.00 944.00,550.00 954.50,550.00 965.00,550.00 975.50,550.00 986.00,550.00 996.50,550.00 1007.00,550.00 1017.50,550.00 1028.00,550.00 1038.50,550.00 1049.00,550.00 1059.50,550.00 1070.00,550.00 1080.50,550.00 1091.00,550.00 1101.50,550.00 1112.00,550.00 1122.50,550.00 1133.00,550.00 1143.50,550.00 1154.00,550.00 1164.50,550.00 1175.00,550.00 1185.50,550.00 1196.00,550.00 1206.50,550.00 1217.00,550.00 1227.50,550.00 1238.00,550.00 1248.50,550.00 1259.00,550.00 1269.50,550.00 1280.00,531.76 1290.50,550.00 1301.00,550.00 1311.50,550.00 1322.00,550.00"/>
<line x1="482.00" y1="94.00" x2="482.00" y2="564.00" stroke="#0e7490" stroke-width="1.6" stroke-dasharray="6 4" opacity="0.95" data-gentle-role="tfbs-score-track-tss-line"/>
<path d="M482.00,94.00 L482.00,86.00 Q482.00,92.00 486.00,92.00 L496.00,92.00" fill="none" stroke="#0e7490" stroke-width="2.4" stroke-linecap="round" stroke-linejoin="round" data-gentle-role="tfbs-score-track-tss-arrow"/>
<path d="M498.20,92.00 L492.60,88.60 L492.60,95.40 z" fill="#0e7490" stroke="none" data-gentle-role="tfbs-score-track-tss-arrow"/>
<rect x="498.0" y="79.0" width="122.0" height="16" rx="3" fill="#fffdf8" fill-opacity="0.92" stroke="#0e7490" stroke-width="0.8" data-gentle-role="tfbs-score-track-tss-label-bg"/>
<text x="502.0" y="90.0" font-family="monospace" font-size="10" fill="#0e7490">TSS ENSTTP73DEMO1...</text>
<line x1="824.86" y1="94.00" x2="824.86" y2="564.00" stroke="#0e7490" stroke-width="1.6" stroke-dasharray="6 4" opacity="0.95" data-gentle-role="tfbs-score-track-tss-line"/>
<path d="M824.86,94.00 L824.86,86.00 Q824.86,92.00 828.86,92.00 L838.86,92.00" fill="none" stroke="#0e7490" stroke-width="2.4" stroke-linecap="round" stroke-linejoin="round" data-gentle-role="tfbs-score-track-tss-arrow"/>
<path d="M841.06,92.00 L835.46,88.60 L835.46,95.40 z" fill="#0e7490" stroke="none" data-gentle-role="tfbs-score-track-tss-arrow"/>
<rect x="840.9" y="79.0" width="122.0" height="16" rx="3" fill="#fffdf8" fill-opacity="0.92" stroke="#0e7490" stroke-width="0.8" data-gentle-role="tfbs-score-track-tss-label-bg"/>
<text x="844.9" y="90.0" font-family="monospace" font-size="10" fill="#0e7490">TSS TP73 syntheti...</text>
<line x1="1167.71" y1="94.00" x2="1167.71" y2="564.00" stroke="#0e7490" stroke-width="1.6" stroke-dasharray="6 4" opacity="0.95" data-gentle-role="tfbs-score-track-tss-line"/>
<path d="M1167.71,94.00 L1167.71,86.00 Q1167.71,92.00 1171.71,92.00 L1181.71,92.00" fill="none" stroke="#0e7490" stroke-width="2.4" stroke-linecap="round" stroke-linejoin="round" data-gentle-role="tfbs-score-track-tss-arrow"/>
<path d="M1183.91,92.00 L1178.31,88.60 L1178.31,95.40 z" fill="#0e7490" stroke="none" data-gentle-role="tfbs-score-track-tss-arrow"/>
<rect x="1183.7" y="79.0" width="104.0" height="16" rx="3" fill="#fffdf8" fill-opacity="0.92" stroke="#0e7490" stroke-width="0.8" data-gentle-role="tfbs-score-track-tss-label-bg"/>
<text x="1187.7" y="90.0" font-family="monospace" font-size="10" fill="#0e7490">TSS ENSTTP73DEMO3</text>
<line x1="472.0" y1="582.0" x2="1332.0" y2="582.0" stroke="#475569" stroke-width="1"/>
<text x="472.0" y="598.0" font-family="monospace" font-size="10" fill="#475569">60</text>
<text x="902.0" y="598.0" text-anchor="middle" font-family="monospace" font-size="10" fill="#475569">109</text>
<text x="1332.0" y="598.0" text-anchor="end" font-family="monospace" font-size="10" fill="#475569">158</text>
<text x="32.0" y="608.0" font-family="monospace" font-size="10" fill="#64748b">base-pair position in selected span</text>
</svg>
