<svg xmlns="http://www.w3.org/2000/svg" width="1180" height="568" viewBox="0 0 1180 568">
<rect x="0" y="0" width="100%" height="100%" fill="#fffdf8"/>
<text x="32.0" y="28" font-family="monospace" font-size="16" fill="#111827">Continuous TF motif score tracks</text>
<text x="32.0" y="45" font-family="monospace" font-size="11" fill="#475569">target=tp73_promoter_artifact_demo | span=60..158 | motifs=4 | score=llr_background_tail_log10</text>
<text x="32.0" y="60" font-family="monospace" font-size="10" fill="#64748b">forward strand = teal | reverse strand = amber</text>
<text x="32.0" y="73" font-family="monospace" font-size="10" fill="#64748b">normalization=uniform_random_dna 100000bp deterministic background | chance_model=quantized_iid_uniform_window_dp</text>
<text x="1152.0" y="60" text-anchor="end" font-family="monospace" font-size="10" fill="#64748b">score range 0.00 .. 5.42</text>
<rect x="32.0" y="100.0" width="1120.0" height="96.0" rx="6" fill="#fffaf0" stroke="#e2e8f0" stroke-width="1"/>
<g data-gentle-role="tfbs-score-track-logo"><rect x="44.0" y="130.0" width="84.0" height="24.0" rx="4" fill="#ffffff" stroke="#cbd5e1" stroke-width="1"/></g>
<line x1="48.0" y1="151.0" x2="124.0" y2="151.0" stroke="#cbd5e1" stroke-width="0.8"/>
<line x1="48.0" y1="133.0" x2="124.0" y2="133.0" stroke="#e2e8f0" stroke-width="0.8" stroke-dasharray="2 2"/>
<rect x="48.68" y="133.00" width="7.09" height="18.00" rx="1.5" fill="#cbd5e1" fill-opacity="0.62" stroke="#cbd5e1" stroke-opacity="0.50" stroke-width="0.4"/>
<text x="52.22" y="151.00" text-anchor="middle" font-family="monospace" font-size="18.00" font-weight="700" fill="#ff8c00" data-gentle-role="tfbs-score-track-logo-letter">G</text>
<rect x="57.12" y="133.00" width="7.09" height="18.00" rx="1.5" fill="#cbd5e1" fill-opacity="0.62" stroke="#cbd5e1" stroke-opacity="0.50" stroke-width="0.4"/>
<text x="60.67" y="151.00" text-anchor="middle" font-family="monospace" font-size="18.00" font-weight="700" fill="#ff8c00" data-gentle-role="tfbs-score-track-logo-letter">G</text>
<rect x="65.56" y="133.00" width="7.09" height="18.00" rx="1.5" fill="#cbd5e1" fill-opacity="0.62" stroke="#cbd5e1" stroke-opacity="0.50" stroke-width="0.4"/>
<text x="69.11" y="151.00" text-anchor="middle" font-family="monospace" font-size="18.00" font-weight="700" fill="#ff8c00" data-gentle-role="tfbs-score-track-logo-letter">G</text>
<rect x="74.01" y="133.00" width="7.09" height="18.00" rx="1.5" fill="#cbd5e1" fill-opacity="0.62" stroke="#cbd5e1" stroke-opacity="0.50" stroke-width="0.4"/>
<text x="77.56" y="151.00" text-anchor="middle" font-family="monospace" font-size="18.00" font-weight="700" fill="#ff8c00" data-gentle-role="tfbs-score-track-logo-letter">G</text>
<rect x="82.45" y="133.00" width="7.09" height="18.00" rx="1.5" fill="#cbd5e1" fill-opacity="0.62" stroke="#cbd5e1" stroke-opacity="0.50" stroke-width="0.4"/>
<text x="86.00" y="151.00" text-anchor="middle" font-family="monospace" font-size="18.00" font-weight="700" fill="#1e90ff" data-gentle-role="tfbs-score-track-logo-letter">C</text>
<rect x="90.90" y="133.00" width="7.09" height="18.00" rx="1.5" fill="#cbd5e1" fill-opacity="0.62" stroke="#cbd5e1" stroke-opacity="0.50" stroke-width="0.4"/>
<text x="94.44" y="151.00" text-anchor="middle" font-family="monospace" font-size="18.00" font-weight="700" fill="#ff8c00" data-gentle-role="tfbs-score-track-logo-letter">G</text>
<rect x="99.34" y="133.00" width="7.09" height="18.00" rx="1.5" fill="#cbd5e1" fill-opacity="0.62" stroke="#cbd5e1" stroke-opacity="0.50" stroke-width="0.4"/>
<text x="102.89" y="151.00" text-anchor="middle" font-family="monospace" font-size="18.00" font-weight="700" fill="#ff8c00" data-gentle-role="tfbs-score-track-logo-letter">G</text>
<rect x="107.79" y="133.00" width="7.09" height="18.00" rx="1.5" fill="#cbd5e1" fill-opacity="0.62" stroke="#cbd5e1" stroke-opacity="0.50" stroke-width="0.4"/>
<text x="111.33" y="151.00" text-anchor="middle" font-family="monospace" font-size="18.00" font-weight="700" fill="#ff8c00" data-gentle-role="tfbs-score-track-logo-letter">G</text>
<rect x="116.23" y="133.00" width="7.09" height="18.00" rx="1.5" fill="#cbd5e1" fill-opacity="0.62" stroke="#cbd5e1" stroke-opacity="0.50" stroke-width="0.4"/>
<text x="119.78" y="151.00" text-anchor="middle" font-family="monospace" font-size="18.00" font-weight="700" fill="#ff8c00" data-gentle-role="tfbs-score-track-logo-letter">G</text>
<text x="44.0" y="124.0" font-family="monospace" font-size="13" fill="#0f172a">SP1 (MA0079.5)</text>
<text x="140.0" y="146.0" font-family="monospace" font-size="10" fill="#64748b">9 bp motif | 90 windows | max 5.42 @ 80</text>
<text x="140.0" y="162.0" font-family="monospace" font-size="10" fill="#64748b">theory max 18.00 | peak q 0.999998 | -log10 tail 5.42</text>
<rect x="352.0" y="108.0" width="800.0" height="68.0" rx="4" fill="#ffffff" stroke="#cbd5e1" stroke-width="1"/>
<line x1="352.00" y1="159.00" x2="1152.00" y2="159.00" stroke="#f1f5f9" stroke-width="1"/>
<line x1="352.00" y1="142.00" x2="1152.00" y2="142.00" stroke="#f1f5f9" stroke-width="1"/>
<line x1="352.00" y1="125.00" x2="1152.00" y2="125.00" stroke="#f1f5f9" stroke-width="1"/>
<line x1="352.00" y1="176.00" x2="1152.00" y2="176.00" stroke="#94a3b8" stroke-width="1"/>
<polyline fill="none" stroke="#0e7490" stroke-width="1.8" stroke-linejoin="round" stroke-linecap="round" points="362.00,172.00 370.76,172.00 379.53,172.00 388.29,172.00 397.06,172.00 405.82,172.00 414.58,172.00 423.35,172.00 432.11,172.00 440.88,172.00 449.64,172.00 458.40,172.00 467.17,172.00 475.93,172.00 484.70,172.00 493.46,157.49 502.22,172.00 510.99,172.00 519.75,157.49 528.52,149.85 537.28,112.00 546.04,149.85 554.81,157.49 563.57,172.00 572.34,172.00 581.10,172.00 589.87,172.00 598.63,172.00 607.39,172.00 616.16,172.00 624.92,172.00 633.69,172.00 642.45,172.00 651.21,172.00 659.98,172.00 668.74,172.00 677.51,172.00 686.27,172.00 695.03,172.00 703.80,172.00 712.56,172.00 721.33,172.00 730.09,172.00 738.85,172.00 747.62,172.00 756.38,172.00 765.15,172.00 773.91,172.00 782.67,172.00 791.44,172.00 800.20,172.00 808.97,172.00 817.73,172.00 826.49,172.00 835.26,172.00 844.02,172.00 852.79,172.00 861.55,172.00 870.31,172.00 879.08,172.00 887.84,172.00 896.61,172.00 905.37,172.00 914.13,172.00 922.90,157.49 931.66,172.00 940.43,157.49 949.19,149.85 957.96,140.20 966.72,128.02 975.48,128.02 984.25,128.02 993.01,128.02 1001.78,128.02 1010.54,128.02 1019.30,128.02 1028.07,128.02 1036.83,128.02 1045.60,128.02 1054.36,128.02 1063.12,128.02 1071.89,140.20 1080.65,149.85 1089.42,149.85 1098.18,157.49 1106.94,149.85 1115.71,157.49 1124.47,172.00 1133.24,172.00 1142.00,172.00"/>
<polyline fill="none" stroke="#b45309" stroke-width="1.6" stroke-linejoin="round" stroke-linecap="round" points="362.00,128.02 370.76,128.02 379.53,128.02 388.29,128.02 397.06,128.02 405.82,128.02 414.58,128.02 423.35,128.02 432.11,128.02 440.88,128.02 449.64,128.02 458.40,128.02 467.17,140.20 475.93,149.85 484.70,157.49 493.46,172.00 502.22,149.85 510.99,157.49 519.75,172.00 528.52,172.00 537.28,172.00 546.04,172.00 554.81,172.00 563.57,172.00 572.34,172.00 581.10,172.00 589.87,172.00 598.63,172.00 607.39,172.00 616.16,172.00 624.92,172.00 633.69,172.00 642.45,172.00 651.21,172.00 659.98,172.00 668.74,172.00 677.51,172.00 686.27,172.00 695.03,172.00 703.80,172.00 712.56,172.00 721.33,172.00 730.09,172.00 738.85,172.00 747.62,172.00 756.38,172.00 765.15,157.49 773.91,149.85 782.67,140.20 791.44,128.02 800.20,128.02 808.97,128.02 817.73,128.02 826.49,128.02 835.26,128.02 844.02,128.02 852.79,128.02 861.55,128.02 870.31,128.02 879.08,128.02 887.84,128.02 896.61,140.20 905.37,149.85 914.13,157.49 922.90,172.00 931.66,157.49 940.43,172.00 949.19,172.00 957.96,172.00 966.72,172.00 975.48,172.00 984.25,172.00 993.01,172.00 1001.78,172.00 1010.54,172.00 1019.30,172.00 1028.07,172.00 1036.83,172.00 1045.60,172.00 1054.36,172.00 1063.12,172.00 1071.89,172.00 1080.65,172.00 1089.42,172.00 1098.18,172.00 1106.94,172.00 1115.71,172.00 1124.47,172.00 1133.24,172.00 1142.00,172.00"/>
<rect x="32.0" y="210.0" width="1120.0" height="96.0" rx="6" fill="#fffefb" stroke="#e2e8f0" stroke-width="1"/>
<g data-gentle-role="tfbs-score-track-logo"><rect x="44.0" y="240.0" width="84.0" height="24.0" rx="4" fill="#ffffff" stroke="#cbd5e1" stroke-width="1"/></g>
<line x1="48.0" y1="261.0" x2="124.0" y2="261.0" stroke="#cbd5e1" stroke-width="0.8"/>
<line x1="48.0" y1="243.0" x2="124.0" y2="243.0" stroke="#e2e8f0" stroke-width="0.8" stroke-dasharray="2 2"/>
<rect x="48.34" y="243.00" width="3.55" height="18.00" rx="1.5" fill="#cbd5e1" fill-opacity="0.62" stroke="#cbd5e1" stroke-opacity="0.50" stroke-width="0.4"/>
<text x="50.11" y="261.00" text-anchor="middle" font-family="monospace" font-size="18.00" font-weight="700" fill="#228b22" data-gentle-role="tfbs-score-track-logo-letter">A</text>
<rect x="52.56" y="243.00" width="3.55" height="18.00" rx="1.5" fill="#cbd5e1" fill-opacity="0.62" stroke="#cbd5e1" stroke-opacity="0.50" stroke-width="0.4"/>
<text x="54.33" y="261.00" text-anchor="middle" font-family="monospace" font-size="18.00" font-weight="700" fill="#228b22" data-gentle-role="tfbs-score-track-logo-letter">A</text>
<rect x="56.78" y="243.00" width="3.55" height="18.00" rx="1.5" fill="#cbd5e1" fill-opacity="0.62" stroke="#cbd5e1" stroke-opacity="0.50" stroke-width="0.4"/>
<text x="58.56" y="261.00" text-anchor="middle" font-family="monospace" font-size="18.00" font-weight="700" fill="#1e90ff" data-gentle-role="tfbs-score-track-logo-letter">C</text>
<rect x="61.00" y="243.00" width="3.55" height="18.00" rx="1.5" fill="#cbd5e1" fill-opacity="0.62" stroke="#cbd5e1" stroke-opacity="0.50" stroke-width="0.4"/>
<text x="62.78" y="261.00" text-anchor="middle" font-family="monospace" font-size="18.00" font-weight="700" fill="#228b22" data-gentle-role="tfbs-score-track-logo-letter">A</text>
<rect x="65.23" y="243.00" width="3.55" height="18.00" rx="1.5" fill="#cbd5e1" fill-opacity="0.62" stroke="#cbd5e1" stroke-opacity="0.50" stroke-width="0.4"/>
<text x="67.00" y="261.00" text-anchor="middle" font-family="monospace" font-size="18.00" font-weight="700" fill="#dc143c" data-gentle-role="tfbs-score-track-logo-letter">T</text>
<rect x="69.45" y="243.00" width="3.55" height="18.00" rx="1.5" fill="#cbd5e1" fill-opacity="0.62" stroke="#cbd5e1" stroke-opacity="0.50" stroke-width="0.4"/>
<text x="71.22" y="261.00" text-anchor="middle" font-family="monospace" font-size="18.00" font-weight="700" fill="#ff8c00" data-gentle-role="tfbs-score-track-logo-letter">G</text>
<rect x="73.67" y="243.00" width="3.55" height="18.00" rx="1.5" fill="#cbd5e1" fill-opacity="0.62" stroke="#cbd5e1" stroke-opacity="0.50" stroke-width="0.4"/>
<text x="75.44" y="261.00" text-anchor="middle" font-family="monospace" font-size="18.00" font-weight="700" fill="#1e90ff" data-gentle-role="tfbs-score-track-logo-letter">C</text>
<rect x="77.89" y="243.00" width="3.55" height="18.00" rx="1.5" fill="#cbd5e1" fill-opacity="0.62" stroke="#cbd5e1" stroke-opacity="0.50" stroke-width="0.4"/>
<text x="79.67" y="261.00" text-anchor="middle" font-family="monospace" font-size="18.00" font-weight="700" fill="#1e90ff" data-gentle-role="tfbs-score-track-logo-letter">C</text>
<rect x="82.12" y="243.00" width="3.55" height="18.00" rx="1.5" fill="#cbd5e1" fill-opacity="0.62" stroke="#cbd5e1" stroke-opacity="0.50" stroke-width="0.4"/>
<text x="83.89" y="261.00" text-anchor="middle" font-family="monospace" font-size="18.00" font-weight="700" fill="#1e90ff" data-gentle-role="tfbs-score-track-logo-letter">C</text>
<rect x="86.34" y="243.00" width="3.55" height="18.00" rx="1.5" fill="#cbd5e1" fill-opacity="0.62" stroke="#cbd5e1" stroke-opacity="0.50" stroke-width="0.4"/>
<text x="88.11" y="261.00" text-anchor="middle" font-family="monospace" font-size="18.00" font-weight="700" fill="#ff8c00" data-gentle-role="tfbs-score-track-logo-letter">G</text>
<rect x="90.56" y="243.00" width="3.55" height="18.00" rx="1.5" fill="#cbd5e1" fill-opacity="0.62" stroke="#cbd5e1" stroke-opacity="0.50" stroke-width="0.4"/>
<text x="92.33" y="261.00" text-anchor="middle" font-family="monospace" font-size="18.00" font-weight="700" fill="#ff8c00" data-gentle-role="tfbs-score-track-logo-letter">G</text>
<rect x="94.78" y="243.00" width="3.55" height="18.00" rx="1.5" fill="#cbd5e1" fill-opacity="0.62" stroke="#cbd5e1" stroke-opacity="0.50" stroke-width="0.4"/>
<text x="96.56" y="261.00" text-anchor="middle" font-family="monospace" font-size="18.00" font-weight="700" fill="#ff8c00" data-gentle-role="tfbs-score-track-logo-letter">G</text>
<rect x="99.00" y="243.00" width="3.55" height="18.00" rx="1.5" fill="#cbd5e1" fill-opacity="0.62" stroke="#cbd5e1" stroke-opacity="0.50" stroke-width="0.4"/>
<text x="100.78" y="261.00" text-anchor="middle" font-family="monospace" font-size="18.00" font-weight="700" fill="#1e90ff" data-gentle-role="tfbs-score-track-logo-letter">C</text>
<rect x="103.23" y="243.00" width="3.55" height="18.00" rx="1.5" fill="#cbd5e1" fill-opacity="0.62" stroke="#cbd5e1" stroke-opacity="0.50" stroke-width="0.4"/>
<text x="105.00" y="261.00" text-anchor="middle" font-family="monospace" font-size="18.00" font-weight="700" fill="#228b22" data-gentle-role="tfbs-score-track-logo-letter">A</text>
<rect x="107.45" y="243.00" width="3.55" height="18.00" rx="1.5" fill="#cbd5e1" fill-opacity="0.62" stroke="#cbd5e1" stroke-opacity="0.50" stroke-width="0.4"/>
<text x="109.22" y="261.00" text-anchor="middle" font-family="monospace" font-size="18.00" font-weight="700" fill="#dc143c" data-gentle-role="tfbs-score-track-logo-letter">T</text>
<rect x="111.67" y="243.00" width="3.55" height="18.00" rx="1.5" fill="#cbd5e1" fill-opacity="0.62" stroke="#cbd5e1" stroke-opacity="0.50" stroke-width="0.4"/>
<text x="113.44" y="261.00" text-anchor="middle" font-family="monospace" font-size="18.00" font-weight="700" fill="#ff8c00" data-gentle-role="tfbs-score-track-logo-letter">G</text>
<rect x="115.89" y="243.00" width="3.55" height="18.00" rx="1.5" fill="#cbd5e1" fill-opacity="0.62" stroke="#cbd5e1" stroke-opacity="0.50" stroke-width="0.4"/>
<text x="117.67" y="261.00" text-anchor="middle" font-family="monospace" font-size="18.00" font-weight="700" fill="#dc143c" data-gentle-role="tfbs-score-track-logo-letter">T</text>
<rect x="120.12" y="243.00" width="3.55" height="18.00" rx="1.5" fill="#cbd5e1" fill-opacity="0.62" stroke="#cbd5e1" stroke-opacity="0.50" stroke-width="0.4"/>
<text x="121.89" y="261.00" text-anchor="middle" font-family="monospace" font-size="18.00" font-weight="700" fill="#1e90ff" data-gentle-role="tfbs-score-track-logo-letter">C</text>
<text x="44.0" y="234.0" font-family="monospace" font-size="13" fill="#0f172a">TP53 (MA0106.3)</text>
<text x="140.0" y="256.0" font-family="monospace" font-size="10" fill="#64748b">18 bp motif | 81 windows | max 1.71 @ 72</text>
<text x="140.0" y="272.0" font-family="monospace" font-size="10" fill="#64748b">theory max 36.00 | peak q 0.980652 | -log10 tail 1.71</text>
<rect x="352.0" y="218.0" width="800.0" height="68.0" rx="4" fill="#ffffff" stroke="#cbd5e1" stroke-width="1"/>
<line x1="352.00" y1="269.00" x2="1152.00" y2="269.00" stroke="#f1f5f9" stroke-width="1"/>
<line x1="352.00" y1="252.00" x2="1152.00" y2="252.00" stroke="#f1f5f9" stroke-width="1"/>
<line x1="352.00" y1="235.00" x2="1152.00" y2="235.00" stroke="#f1f5f9" stroke-width="1"/>
<line x1="352.00" y1="286.00" x2="1152.00" y2="286.00" stroke="#94a3b8" stroke-width="1"/>
<polyline fill="none" stroke="#0e7490" stroke-width="1.8" stroke-linejoin="round" stroke-linecap="round" points="362.00,282.00 371.75,282.00 381.50,282.00 391.25,282.00 401.00,282.00 410.75,282.00 420.50,282.00 430.25,282.00 440.00,282.00 449.75,282.00 459.50,282.00 469.25,282.00 479.00,282.00 488.75,282.00 498.50,282.00 508.25,282.00 518.00,282.00 527.75,282.00 537.50,282.00 547.25,282.00 557.00,282.00 566.75,282.00 576.50,282.00 586.25,282.00 596.00,282.00 605.75,282.00 615.50,282.00 625.25,282.00 635.00,282.00 644.75,282.00 654.50,282.00 664.25,282.00 674.00,282.00 683.75,282.00 693.50,282.00 703.25,282.00 713.00,282.00 722.75,282.00 732.50,282.00 742.25,282.00 752.00,282.00 761.75,282.00 771.50,282.00 781.25,282.00 791.00,282.00 800.75,282.00 810.50,282.00 820.25,282.00 830.00,282.00 839.75,282.00 849.50,282.00 859.25,282.00 869.00,282.00 878.75,282.00 888.50,282.00 898.25,282.00 908.00,282.00 917.75,282.00 927.50,282.00 937.25,282.00 947.00,282.00 956.75,282.00 966.50,282.00 976.25,282.00 986.00,282.00 995.75,282.00 1005.50,282.00 1015.25,282.00 1025.00,282.00 1034.75,282.00 1044.50,282.00 1054.25,282.00 1064.00,282.00 1073.75,282.00 1083.50,282.00 1093.25,282.00 1103.00,282.00 1112.75,282.00 1122.50,282.00 1132.25,282.00 1142.00,282.00"/>
<polyline fill="none" stroke="#b45309" stroke-width="1.6" stroke-linejoin="round" stroke-linecap="round" points="362.00,282.00 371.75,282.00 381.50,282.00 391.25,282.00 401.00,282.00 410.75,282.00 420.50,282.00 430.25,282.00 440.00,282.00 449.75,282.00 459.50,282.00 469.25,282.00 479.00,263.03 488.75,282.00 498.50,282.00 508.25,282.00 518.00,263.03 527.75,263.03 537.50,282.00 547.25,282.00 557.00,282.00 566.75,282.00 576.50,282.00 586.25,282.00 596.00,282.00 605.75,282.00 615.50,282.00 625.25,282.00 635.00,282.00 644.75,282.00 654.50,282.00 664.25,282.00 674.00,282.00 683.75,282.00 693.50,282.00 703.25,282.00 713.00,282.00 722.75,282.00 732.50,282.00 742.25,282.00 752.00,282.00 761.75,282.00 771.50,282.00 781.25,282.00 791.00,282.00 800.75,282.00 810.50,282.00 820.25,282.00 830.00,282.00 839.75,282.00 849.50,282.00 859.25,282.00 869.00,282.00 878.75,282.00 888.50,282.00 898.25,282.00 908.00,282.00 917.75,282.00 927.50,282.00 937.25,282.00 947.00,282.00 956.75,282.00 966.50,282.00 976.25,282.00 986.00,282.00 995.75,282.00 1005.50,282.00 1015.25,282.00 1025.00,282.00 1034.75,282.00 1044.50,282.00 1054.25,282.00 1064.00,282.00 1073.75,282.00 1083.50,282.00 1093.25,282.00 1103.00,263.03 1112.75,282.00 1122.50,282.00 1132.25,282.00 1142.00,282.00"/>
<rect x="32.0" y="320.0" width="1120.0" height="96.0" rx="6" fill="#fffaf0" stroke="#e2e8f0" stroke-width="1"/>
<g data-gentle-role="tfbs-score-track-logo"><rect x="44.0" y="350.0" width="84.0" height="24.0" rx="4" fill="#ffffff" stroke="#cbd5e1" stroke-width="1"/></g>
<line x1="48.0" y1="371.0" x2="124.0" y2="371.0" stroke="#cbd5e1" stroke-width="0.8"/>
<line x1="48.0" y1="353.0" x2="124.0" y2="353.0" stroke="#e2e8f0" stroke-width="0.8" stroke-dasharray="2 2"/>
<rect x="48.34" y="353.00" width="3.55" height="18.00" rx="1.5" fill="#cbd5e1" fill-opacity="0.62" stroke="#cbd5e1" stroke-opacity="0.50" stroke-width="0.4"/>
<text x="50.11" y="371.00" text-anchor="middle" font-family="monospace" font-size="18.00" font-weight="700" fill="#228b22" data-gentle-role="tfbs-score-track-logo-letter">A</text>
<rect x="52.56" y="353.00" width="3.55" height="18.00" rx="1.5" fill="#cbd5e1" fill-opacity="0.62" stroke="#cbd5e1" stroke-opacity="0.50" stroke-width="0.4"/>
<text x="54.33" y="371.00" text-anchor="middle" font-family="monospace" font-size="18.00" font-weight="700" fill="#228b22" data-gentle-role="tfbs-score-track-logo-letter">A</text>
<rect x="56.78" y="353.00" width="3.55" height="18.00" rx="1.5" fill="#cbd5e1" fill-opacity="0.62" stroke="#cbd5e1" stroke-opacity="0.50" stroke-width="0.4"/>
<text x="58.56" y="371.00" text-anchor="middle" font-family="monospace" font-size="18.00" font-weight="700" fill="#1e90ff" data-gentle-role="tfbs-score-track-logo-letter">C</text>
<rect x="61.00" y="353.00" width="3.55" height="18.00" rx="1.5" fill="#cbd5e1" fill-opacity="0.62" stroke="#cbd5e1" stroke-opacity="0.50" stroke-width="0.4"/>
<text x="62.78" y="371.00" text-anchor="middle" font-family="monospace" font-size="18.00" font-weight="700" fill="#228b22" data-gentle-role="tfbs-score-track-logo-letter">A</text>
<rect x="65.23" y="353.00" width="3.55" height="18.00" rx="1.5" fill="#cbd5e1" fill-opacity="0.62" stroke="#cbd5e1" stroke-opacity="0.50" stroke-width="0.4"/>
<text x="67.00" y="371.00" text-anchor="middle" font-family="monospace" font-size="18.00" font-weight="700" fill="#dc143c" data-gentle-role="tfbs-score-track-logo-letter">T</text>
<rect x="69.45" y="353.00" width="3.55" height="18.00" rx="1.5" fill="#cbd5e1" fill-opacity="0.62" stroke="#cbd5e1" stroke-opacity="0.50" stroke-width="0.4"/>
<text x="71.22" y="371.00" text-anchor="middle" font-family="monospace" font-size="18.00" font-weight="700" fill="#ff8c00" data-gentle-role="tfbs-score-track-logo-letter">G</text>
<rect x="73.67" y="353.00" width="3.55" height="18.00" rx="1.5" fill="#cbd5e1" fill-opacity="0.62" stroke="#cbd5e1" stroke-opacity="0.50" stroke-width="0.4"/>
<text x="75.44" y="371.00" text-anchor="middle" font-family="monospace" font-size="18.00" font-weight="700" fill="#dc143c" data-gentle-role="tfbs-score-track-logo-letter">T</text>
<rect x="77.89" y="353.00" width="3.55" height="18.00" rx="1.5" fill="#cbd5e1" fill-opacity="0.62" stroke="#cbd5e1" stroke-opacity="0.50" stroke-width="0.4"/>
<text x="79.67" y="371.00" text-anchor="middle" font-family="monospace" font-size="18.00" font-weight="700" fill="#dc143c" data-gentle-role="tfbs-score-track-logo-letter">T</text>
<rect x="82.12" y="353.00" width="3.55" height="18.00" rx="1.5" fill="#cbd5e1" fill-opacity="0.62" stroke="#cbd5e1" stroke-opacity="0.50" stroke-width="0.4"/>
<text x="83.89" y="371.00" text-anchor="middle" font-family="monospace" font-size="18.00" font-weight="700" fill="#ff8c00" data-gentle-role="tfbs-score-track-logo-letter">G</text>
<rect x="86.34" y="353.00" width="3.55" height="18.00" rx="1.5" fill="#cbd5e1" fill-opacity="0.62" stroke="#cbd5e1" stroke-opacity="0.50" stroke-width="0.4"/>
<text x="88.11" y="371.00" text-anchor="middle" font-family="monospace" font-size="18.00" font-weight="700" fill="#ff8c00" data-gentle-role="tfbs-score-track-logo-letter">G</text>
<rect x="90.56" y="353.00" width="3.55" height="18.00" rx="1.5" fill="#cbd5e1" fill-opacity="0.62" stroke="#cbd5e1" stroke-opacity="0.50" stroke-width="0.4"/>
<text x="92.33" y="371.00" text-anchor="middle" font-family="monospace" font-size="18.00" font-weight="700" fill="#ff8c00" data-gentle-role="tfbs-score-track-logo-letter">G</text>
<rect x="94.78" y="353.00" width="3.55" height="18.00" rx="1.5" fill="#cbd5e1" fill-opacity="0.62" stroke="#cbd5e1" stroke-opacity="0.50" stroke-width="0.4"/>
<text x="96.56" y="371.00" text-anchor="middle" font-family="monospace" font-size="18.00" font-weight="700" fill="#228b22" data-gentle-role="tfbs-score-track-logo-letter">A</text>
<rect x="99.00" y="353.00" width="3.55" height="18.00" rx="1.5" fill="#cbd5e1" fill-opacity="0.62" stroke="#cbd5e1" stroke-opacity="0.50" stroke-width="0.4"/>
<text x="100.78" y="371.00" text-anchor="middle" font-family="monospace" font-size="18.00" font-weight="700" fill="#1e90ff" data-gentle-role="tfbs-score-track-logo-letter">C</text>
<rect x="103.23" y="353.00" width="3.55" height="18.00" rx="1.5" fill="#cbd5e1" fill-opacity="0.62" stroke="#cbd5e1" stroke-opacity="0.50" stroke-width="0.4"/>
<text x="105.00" y="371.00" text-anchor="middle" font-family="monospace" font-size="18.00" font-weight="700" fill="#228b22" data-gentle-role="tfbs-score-track-logo-letter">A</text>
<rect x="107.45" y="353.00" width="3.55" height="18.00" rx="1.5" fill="#cbd5e1" fill-opacity="0.62" stroke="#cbd5e1" stroke-opacity="0.50" stroke-width="0.4"/>
<text x="109.22" y="371.00" text-anchor="middle" font-family="monospace" font-size="18.00" font-weight="700" fill="#dc143c" data-gentle-role="tfbs-score-track-logo-letter">T</text>
<rect x="111.67" y="353.00" width="3.55" height="18.00" rx="1.5" fill="#cbd5e1" fill-opacity="0.62" stroke="#cbd5e1" stroke-opacity="0.50" stroke-width="0.4"/>
<text x="113.44" y="371.00" text-anchor="middle" font-family="monospace" font-size="18.00" font-weight="700" fill="#ff8c00" data-gentle-role="tfbs-score-track-logo-letter">G</text>
<rect x="115.89" y="353.00" width="3.55" height="18.00" rx="1.5" fill="#cbd5e1" fill-opacity="0.62" stroke="#cbd5e1" stroke-opacity="0.50" stroke-width="0.4"/>
<text x="117.67" y="371.00" text-anchor="middle" font-family="monospace" font-size="18.00" font-weight="700" fill="#dc143c" data-gentle-role="tfbs-score-track-logo-letter">T</text>
<rect x="120.12" y="353.00" width="3.55" height="18.00" rx="1.5" fill="#cbd5e1" fill-opacity="0.62" stroke="#cbd5e1" stroke-opacity="0.50" stroke-width="0.4"/>
<text x="121.89" y="371.00" text-anchor="middle" font-family="monospace" font-size="18.00" font-weight="700" fill="#1e90ff" data-gentle-role="tfbs-score-track-logo-letter">C</text>
<text x="44.0" y="344.0" font-family="monospace" font-size="13" fill="#0f172a">TP63 (MA0525.2)</text>
<text x="140.0" y="366.0" font-family="monospace" font-size="10" fill="#64748b">18 bp motif | 81 windows | max 0.00</text>
<text x="140.0" y="382.0" font-family="monospace" font-size="10" fill="#64748b">theory max 36.00 | peak q 0.943052 | -log10 tail 1.24</text>
<rect x="352.0" y="328.0" width="800.0" height="68.0" rx="4" fill="#ffffff" stroke="#cbd5e1" stroke-width="1"/>
<line x1="352.00" y1="379.00" x2="1152.00" y2="379.00" stroke="#f1f5f9" stroke-width="1"/>
<line x1="352.00" y1="362.00" x2="1152.00" y2="362.00" stroke="#f1f5f9" stroke-width="1"/>
<line x1="352.00" y1="345.00" x2="1152.00" y2="345.00" stroke="#f1f5f9" stroke-width="1"/>
<line x1="352.00" y1="396.00" x2="1152.00" y2="396.00" stroke="#94a3b8" stroke-width="1"/>
<polyline fill="none" stroke="#0e7490" stroke-width="1.8" stroke-linejoin="round" stroke-linecap="round" points="362.00,392.00 371.75,392.00 381.50,392.00 391.25,392.00 401.00,392.00 410.75,392.00 420.50,392.00 430.25,392.00 440.00,392.00 449.75,392.00 459.50,392.00 469.25,392.00 479.00,392.00 488.75,392.00 498.50,392.00 508.25,392.00 518.00,392.00 527.75,392.00 537.50,392.00 547.25,392.00 557.00,392.00 566.75,392.00 576.50,392.00 586.25,392.00 596.00,392.00 605.75,392.00 615.50,392.00 625.25,392.00 635.00,392.00 644.75,392.00 654.50,392.00 664.25,392.00 674.00,392.00 683.75,392.00 693.50,392.00 703.25,392.00 713.00,392.00 722.75,392.00 732.50,392.00 742.25,392.00 752.00,392.00 761.75,392.00 771.50,392.00 781.25,392.00 791.00,392.00 800.75,392.00 810.50,392.00 820.25,392.00 830.00,392.00 839.75,392.00 849.50,392.00 859.25,392.00 869.00,392.00 878.75,392.00 888.50,392.00 898.25,392.00 908.00,392.00 917.75,392.00 927.50,392.00 937.25,392.00 947.00,392.00 956.75,392.00 966.50,392.00 976.25,392.00 986.00,392.00 995.75,392.00 1005.50,392.00 1015.25,392.00 1025.00,392.00 1034.75,392.00 1044.50,392.00 1054.25,392.00 1064.00,392.00 1073.75,392.00 1083.50,392.00 1093.25,392.00 1103.00,392.00 1112.75,392.00 1122.50,392.00 1132.25,392.00 1142.00,392.00"/>
<polyline fill="none" stroke="#b45309" stroke-width="1.6" stroke-linejoin="round" stroke-linecap="round" points="362.00,392.00 371.75,392.00 381.50,392.00 391.25,392.00 401.00,392.00 410.75,392.00 420.50,392.00 430.25,392.00 440.00,392.00 449.75,392.00 459.50,392.00 469.25,392.00 479.00,392.00 488.75,392.00 498.50,392.00 508.25,392.00 518.00,392.00 527.75,392.00 537.50,392.00 547.25,392.00 557.00,392.00 566.75,392.00 576.50,392.00 586.25,392.00 596.00,392.00 605.75,392.00 615.50,392.00 625.25,392.00 635.00,392.00 644.75,392.00 654.50,392.00 664.25,392.00 674.00,392.00 683.75,392.00 693.50,392.00 703.25,392.00 713.00,392.00 722.75,392.00 732.50,392.00 742.25,392.00 752.00,392.00 761.75,392.00 771.50,392.00 781.25,392.00 791.00,392.00 800.75,392.00 810.50,392.00 820.25,392.00 830.00,392.00 839.75,392.00 849.50,392.00 859.25,392.00 869.00,392.00 878.75,392.00 888.50,392.00 898.25,392.00 908.00,392.00 917.75,392.00 927.50,392.00 937.25,392.00 947.00,392.00 956.75,392.00 966.50,392.00 976.25,392.00 986.00,392.00 995.75,392.00 1005.50,392.00 1015.25,392.00 1025.00,392.00 1034.75,392.00 1044.50,392.00 1054.25,392.00 1064.00,392.00 1073.75,392.00 1083.50,392.00 1093.25,392.00 1103.00,392.00 1112.75,392.00 1122.50,392.00 1132.25,392.00 1142.00,392.00"/>
<rect x="32.0" y="430.0" width="1120.0" height="96.0" rx="6" fill="#fffefb" stroke="#e2e8f0" stroke-width="1"/>
<g data-gentle-role="tfbs-score-track-logo"><rect x="44.0" y="460.0" width="84.0" height="24.0" rx="4" fill="#ffffff" stroke="#cbd5e1" stroke-width="1"/></g>
<line x1="48.0" y1="481.0" x2="124.0" y2="481.0" stroke="#cbd5e1" stroke-width="0.8"/>
<line x1="48.0" y1="463.0" x2="124.0" y2="463.0" stroke="#e2e8f0" stroke-width="0.8" stroke-dasharray="2 2"/>
<rect x="48.38" y="463.00" width="3.99" height="18.00" rx="1.5" fill="#cbd5e1" fill-opacity="0.62" stroke="#cbd5e1" stroke-opacity="0.50" stroke-width="0.4"/>
<text x="50.38" y="481.00" text-anchor="middle" font-family="monospace" font-size="18.00" font-weight="700" fill="#228b22" data-gentle-role="tfbs-score-track-logo-letter">A</text>
<rect x="53.13" y="463.00" width="3.99" height="18.00" rx="1.5" fill="#cbd5e1" fill-opacity="0.62" stroke="#cbd5e1" stroke-opacity="0.50" stroke-width="0.4"/>
<text x="55.12" y="481.00" text-anchor="middle" font-family="monospace" font-size="18.00" font-weight="700" fill="#1e90ff" data-gentle-role="tfbs-score-track-logo-letter">C</text>
<rect x="57.88" y="463.00" width="3.99" height="18.00" rx="1.5" fill="#cbd5e1" fill-opacity="0.62" stroke="#cbd5e1" stroke-opacity="0.50" stroke-width="0.4"/>
<text x="59.88" y="481.00" text-anchor="middle" font-family="monospace" font-size="18.00" font-weight="700" fill="#228b22" data-gentle-role="tfbs-score-track-logo-letter">A</text>
<rect x="62.63" y="463.00" width="3.99" height="18.00" rx="1.5" fill="#cbd5e1" fill-opacity="0.62" stroke="#cbd5e1" stroke-opacity="0.50" stroke-width="0.4"/>
<text x="64.62" y="481.00" text-anchor="middle" font-family="monospace" font-size="18.00" font-weight="700" fill="#dc143c" data-gentle-role="tfbs-score-track-logo-letter">T</text>
<rect x="67.38" y="463.00" width="3.99" height="18.00" rx="1.5" fill="#cbd5e1" fill-opacity="0.62" stroke="#cbd5e1" stroke-opacity="0.50" stroke-width="0.4"/>
<text x="69.38" y="481.00" text-anchor="middle" font-family="monospace" font-size="18.00" font-weight="700" fill="#ff8c00" data-gentle-role="tfbs-score-track-logo-letter">G</text>
<rect x="72.13" y="463.00" width="3.99" height="18.00" rx="1.5" fill="#cbd5e1" fill-opacity="0.62" stroke="#cbd5e1" stroke-opacity="0.50" stroke-width="0.4"/>
<text x="74.12" y="481.00" text-anchor="middle" font-family="monospace" font-size="18.00" font-weight="700" fill="#dc143c" data-gentle-role="tfbs-score-track-logo-letter">T</text>
<rect x="76.88" y="463.00" width="3.99" height="18.00" rx="1.5" fill="#cbd5e1" fill-opacity="0.62" stroke="#cbd5e1" stroke-opacity="0.50" stroke-width="0.4"/>
<text x="78.88" y="481.00" text-anchor="middle" font-family="monospace" font-size="18.00" font-weight="700" fill="#1e90ff" data-gentle-role="tfbs-score-track-logo-letter">C</text>
<rect x="81.63" y="463.00" width="3.99" height="18.00" rx="1.5" fill="#cbd5e1" fill-opacity="0.62" stroke="#cbd5e1" stroke-opacity="0.50" stroke-width="0.4"/>
<text x="83.62" y="481.00" text-anchor="middle" font-family="monospace" font-size="18.00" font-weight="700" fill="#dc143c" data-gentle-role="tfbs-score-track-logo-letter">T</text>
<rect x="86.38" y="463.00" width="3.99" height="18.00" rx="1.5" fill="#cbd5e1" fill-opacity="0.62" stroke="#cbd5e1" stroke-opacity="0.50" stroke-width="0.4"/>
<text x="88.38" y="481.00" text-anchor="middle" font-family="monospace" font-size="18.00" font-weight="700" fill="#ff8c00" data-gentle-role="tfbs-score-track-logo-letter">G</text>
<rect x="91.13" y="463.00" width="3.99" height="18.00" rx="1.5" fill="#cbd5e1" fill-opacity="0.62" stroke="#cbd5e1" stroke-opacity="0.50" stroke-width="0.4"/>
<text x="93.12" y="481.00" text-anchor="middle" font-family="monospace" font-size="18.00" font-weight="700" fill="#ff8c00" data-gentle-role="tfbs-score-track-logo-letter">G</text>
<rect x="95.88" y="463.00" width="3.99" height="18.00" rx="1.5" fill="#cbd5e1" fill-opacity="0.62" stroke="#cbd5e1" stroke-opacity="0.50" stroke-width="0.4"/>
<text x="97.88" y="481.00" text-anchor="middle" font-family="monospace" font-size="18.00" font-weight="700" fill="#228b22" data-gentle-role="tfbs-score-track-logo-letter">A</text>
<rect x="100.63" y="463.00" width="3.99" height="18.00" rx="1.5" fill="#cbd5e1" fill-opacity="0.62" stroke="#cbd5e1" stroke-opacity="0.50" stroke-width="0.4"/>
<text x="102.62" y="481.00" text-anchor="middle" font-family="monospace" font-size="18.00" font-weight="700" fill="#1e90ff" data-gentle-role="tfbs-score-track-logo-letter">C</text>
<rect x="105.38" y="463.00" width="3.99" height="18.00" rx="1.5" fill="#cbd5e1" fill-opacity="0.62" stroke="#cbd5e1" stroke-opacity="0.50" stroke-width="0.4"/>
<text x="107.38" y="481.00" text-anchor="middle" font-family="monospace" font-size="18.00" font-weight="700" fill="#228b22" data-gentle-role="tfbs-score-track-logo-letter">A</text>
<rect x="110.13" y="463.00" width="3.99" height="18.00" rx="1.5" fill="#cbd5e1" fill-opacity="0.62" stroke="#cbd5e1" stroke-opacity="0.50" stroke-width="0.4"/>
<text x="112.12" y="481.00" text-anchor="middle" font-family="monospace" font-size="18.00" font-weight="700" fill="#dc143c" data-gentle-role="tfbs-score-track-logo-letter">T</text>
<rect x="114.88" y="463.00" width="3.99" height="18.00" rx="1.5" fill="#cbd5e1" fill-opacity="0.62" stroke="#cbd5e1" stroke-opacity="0.50" stroke-width="0.4"/>
<text x="116.88" y="481.00" text-anchor="middle" font-family="monospace" font-size="18.00" font-weight="700" fill="#ff8c00" data-gentle-role="tfbs-score-track-logo-letter">G</text>
<rect x="119.63" y="463.00" width="3.99" height="18.00" rx="1.5" fill="#cbd5e1" fill-opacity="0.62" stroke="#cbd5e1" stroke-opacity="0.50" stroke-width="0.4"/>
<text x="121.62" y="481.00" text-anchor="middle" font-family="monospace" font-size="18.00" font-weight="700" fill="#dc143c" data-gentle-role="tfbs-score-track-logo-letter">T</text>
<text x="44.0" y="454.0" font-family="monospace" font-size="13" fill="#0f172a">TP73 (MA0861.2)</text>
<text x="140.0" y="476.0" font-family="monospace" font-size="10" fill="#64748b">16 bp motif | 83 windows | max 0.00</text>
<text x="140.0" y="492.0" font-family="monospace" font-size="10" fill="#64748b">theory max 32.00 | peak q 0.920443 | -log10 tail 1.10</text>
<rect x="352.0" y="438.0" width="800.0" height="68.0" rx="4" fill="#ffffff" stroke="#cbd5e1" stroke-width="1"/>
<line x1="352.00" y1="489.00" x2="1152.00" y2="489.00" stroke="#f1f5f9" stroke-width="1"/>
<line x1="352.00" y1="472.00" x2="1152.00" y2="472.00" stroke="#f1f5f9" stroke-width="1"/>
<line x1="352.00" y1="455.00" x2="1152.00" y2="455.00" stroke="#f1f5f9" stroke-width="1"/>
<line x1="352.00" y1="506.00" x2="1152.00" y2="506.00" stroke="#94a3b8" stroke-width="1"/>
<polyline fill="none" stroke="#0e7490" stroke-width="1.8" stroke-linejoin="round" stroke-linecap="round" points="362.00,502.00 371.51,502.00 381.02,502.00 390.54,502.00 400.05,502.00 409.56,502.00 419.07,502.00 428.59,502.00 438.10,502.00 447.61,502.00 457.12,502.00 466.63,502.00 476.15,502.00 485.66,502.00 495.17,502.00 504.68,502.00 514.20,502.00 523.71,502.00 533.22,502.00 542.73,502.00 552.24,502.00 561.76,502.00 571.27,502.00 580.78,502.00 590.29,502.00 599.80,502.00 609.32,502.00 618.83,502.00 628.34,502.00 637.85,502.00 647.37,502.00 656.88,502.00 666.39,502.00 675.90,502.00 685.41,502.00 694.93,502.00 704.44,502.00 713.95,502.00 723.46,502.00 732.98,502.00 742.49,502.00 752.00,502.00 761.51,502.00 771.02,502.00 780.54,502.00 790.05,502.00 799.56,502.00 809.07,502.00 818.59,502.00 828.10,502.00 837.61,502.00 847.12,502.00 856.63,502.00 866.15,502.00 875.66,502.00 885.17,502.00 894.68,502.00 904.20,502.00 913.71,502.00 923.22,502.00 932.73,502.00 942.24,502.00 951.76,502.00 961.27,502.00 970.78,502.00 980.29,502.00 989.80,502.00 999.32,502.00 1008.83,502.00 1018.34,502.00 1027.85,502.00 1037.37,502.00 1046.88,502.00 1056.39,502.00 1065.90,502.00 1075.41,502.00 1084.93,502.00 1094.44,502.00 1103.95,502.00 1113.46,502.00 1122.98,502.00 1132.49,502.00 1142.00,502.00"/>
<polyline fill="none" stroke="#b45309" stroke-width="1.6" stroke-linejoin="round" stroke-linecap="round" points="362.00,502.00 371.51,502.00 381.02,502.00 390.54,502.00 400.05,502.00 409.56,502.00 419.07,502.00 428.59,502.00 438.10,502.00 447.61,502.00 457.12,502.00 466.63,502.00 476.15,502.00 485.66,502.00 495.17,502.00 504.68,502.00 514.20,502.00 523.71,502.00 533.22,502.00 542.73,502.00 552.24,502.00 561.76,502.00 571.27,502.00 580.78,502.00 590.29,502.00 599.80,502.00 609.32,502.00 618.83,502.00 628.34,502.00 637.85,502.00 647.37,502.00 656.88,502.00 666.39,502.00 675.90,502.00 685.41,502.00 694.93,502.00 704.44,502.00 713.95,502.00 723.46,502.00 732.98,502.00 742.49,502.00 752.00,502.00 761.51,502.00 771.02,502.00 780.54,502.00 790.05,502.00 799.56,502.00 809.07,502.00 818.59,502.00 828.10,502.00 837.61,502.00 847.12,502.00 856.63,502.00 866.15,502.00 875.66,502.00 885.17,502.00 894.68,502.00 904.20,502.00 913.71,502.00 923.22,502.00 932.73,502.00 942.24,502.00 951.76,502.00 961.27,502.00 970.78,502.00 980.29,502.00 989.80,502.00 999.32,502.00 1008.83,502.00 1018.34,502.00 1027.85,502.00 1037.37,502.00 1046.88,502.00 1056.39,502.00 1065.90,502.00 1075.41,502.00 1084.93,502.00 1094.44,502.00 1103.95,502.00 1113.46,502.00 1122.98,502.00 1132.49,502.00 1142.00,502.00"/>
<line x1="362.00" y1="94.00" x2="362.00" y2="516.00" stroke="#0e7490" stroke-width="1.6" stroke-dasharray="6 4" opacity="0.95" data-gentle-role="tfbs-score-track-tss-line"/>
<path d="M362.00,94.00 L362.00,86.00 Q362.00,92.00 366.00,92.00 L376.00,92.00" fill="none" stroke="#0e7490" stroke-width="2.4" stroke-linecap="round" stroke-linejoin="round" data-gentle-role="tfbs-score-track-tss-arrow"/>
<path d="M378.20,92.00 L372.60,88.60 L372.60,95.40 z" fill="#0e7490" stroke="none" data-gentle-role="tfbs-score-track-tss-arrow"/>
<rect x="378.0" y="79.0" width="122.0" height="16" rx="3" fill="#fffdf8" fill-opacity="0.92" stroke="#0e7490" stroke-width="0.8" data-gentle-role="tfbs-score-track-tss-label-bg"/>
<text x="382.0" y="90.0" font-family="monospace" font-size="10" fill="#0e7490">TSS ENSTTP73DEMO1...</text>
<line x1="680.37" y1="94.00" x2="680.37" y2="516.00" stroke="#0e7490" stroke-width="1.6" stroke-dasharray="6 4" opacity="0.95" data-gentle-role="tfbs-score-track-tss-line"/>
<path d="M680.37,94.00 L680.37,86.00 Q680.37,92.00 684.37,92.00 L694.37,92.00" fill="none" stroke="#0e7490" stroke-width="2.4" stroke-linecap="round" stroke-linejoin="round" data-gentle-role="tfbs-score-track-tss-arrow"/>
<path d="M696.57,92.00 L690.97,88.60 L690.97,95.40 z" fill="#0e7490" stroke="none" data-gentle-role="tfbs-score-track-tss-arrow"/>
<rect x="696.4" y="79.0" width="122.0" height="16" rx="3" fill="#fffdf8" fill-opacity="0.92" stroke="#0e7490" stroke-width="0.8" data-gentle-role="tfbs-score-track-tss-label-bg"/>
<text x="700.4" y="90.0" font-family="monospace" font-size="10" fill="#0e7490">TSS TP73 syntheti...</text>
<line x1="998.73" y1="94.00" x2="998.73" y2="516.00" stroke="#0e7490" stroke-width="1.6" stroke-dasharray="6 4" opacity="0.95" data-gentle-role="tfbs-score-track-tss-line"/>
<path d="M998.73,94.00 L998.73,86.00 Q998.73,92.00 1002.73,92.00 L1012.73,92.00" fill="none" stroke="#0e7490" stroke-width="2.4" stroke-linecap="round" stroke-linejoin="round" data-gentle-role="tfbs-score-track-tss-arrow"/>
<path d="M1014.93,92.00 L1009.33,88.60 L1009.33,95.40 z" fill="#0e7490" stroke="none" data-gentle-role="tfbs-score-track-tss-arrow"/>
<rect x="1014.7" y="79.0" width="104.0" height="16" rx="3" fill="#fffdf8" fill-opacity="0.92" stroke="#0e7490" stroke-width="0.8" data-gentle-role="tfbs-score-track-tss-label-bg"/>
<text x="1018.7" y="90.0" font-family="monospace" font-size="10" fill="#0e7490">TSS ENSTTP73DEMO3</text>
<line x1="352.0" y1="534.0" x2="1152.0" y2="534.0" stroke="#475569" stroke-width="1"/>
<text x="352.0" y="550.0" font-family="monospace" font-size="10" fill="#475569">60</text>
<text x="752.0" y="550.0" text-anchor="middle" font-family="monospace" font-size="10" fill="#475569">109</text>
<text x="1152.0" y="550.0" text-anchor="end" font-family="monospace" font-size="10" fill="#475569">158</text>
<text x="32.0" y="560.0" font-family="monospace" font-size="10" fill="#64748b">base-pair position in selected span</text>
</svg>
