<svg height="760" viewBox="0 0 1040 760" width="1040" xmlns="http://www.w3.org/2000/svg">
<rect fill="#f9fafb" height="760" width="1040" x="0" y="0"/>
<rect fill="#111315" height="560" rx="10" ry="10" width="680" x="90" y="90"/>
<line stroke="#2d3238" stroke-width="1" x1="90" x2="770" y1="118.27821" y2="118.27821"/>
<text fill="#374151" font-family="monospace" font-size="12" x="782" y="122.27821">
10002 bp
</text>
<line stroke="#2d3238" stroke-width="1" x1="90" x2="770" y1="142.3344" y2="142.3344"/>
<text fill="#374151" font-family="monospace" font-size="12" x="782" y="146.3344">
8001 bp
</text>
<line stroke="#2d3238" stroke-width="1" x1="90" x2="770" y1="173.33328" y2="173.33328"/>
<text fill="#374151" font-family="monospace" font-size="12" x="782" y="177.33328">
6001 bp
</text>
<line stroke="#2d3238" stroke-width="1" x1="90" x2="770" y1="192.97842" y2="192.97842"/>
<text fill="#374151" font-family="monospace" font-size="12" x="782" y="196.97842">
5001 bp
</text>
<line stroke="#2d3238" stroke-width="1" x1="90" x2="770" y1="217.02115" y2="217.02115"/>
<text fill="#374151" font-family="monospace" font-size="12" x="782" y="221.02115">
4001 bp
</text>
<line stroke="#2d3238" stroke-width="1" x1="90" x2="770" y1="248.01555" y2="248.01555"/>
<text fill="#374151" font-family="monospace" font-size="12" x="782" y="252.01555">
3001 bp
</text>
<line stroke="#2d3238" stroke-width="1" x1="90" x2="770" y1="291.7483" y2="291.7483"/>
<text fill="#374151" font-family="monospace" font-size="12" x="782" y="295.7483">
2000 bp
</text>
<line stroke="#2d3238" stroke-width="1" x1="90" x2="770" y1="321.53717" y2="321.53717"/>
<text fill="#374151" font-family="monospace" font-size="12" x="782" y="325.53717">
1517 bp
</text>
<line stroke="#2d3238" stroke-width="1" x1="90" x2="770" y1="346.79977" y2="346.79977"/>
<text fill="#374151" font-family="monospace" font-size="12" x="782" y="350.79977">
1200 bp
</text>
<line stroke="#2d3238" stroke-width="1" x1="90" x2="770" y1="366.4485" y2="366.4485"/>
<text fill="#374151" font-family="monospace" font-size="12" x="782" y="370.4485">
1000 bp
</text>
<line stroke="#2d3238" stroke-width="1" x1="90" x2="770" y1="390.49658" y2="390.49658"/>
<text fill="#374151" font-family="monospace" font-size="12" x="782" y="394.49658">
800 bp
</text>
<line stroke="#2d3238" stroke-width="1" x1="90" x2="770" y1="421.49997" y2="421.49997"/>
<text fill="#374151" font-family="monospace" font-size="12" x="782" y="425.49997">
600 bp
</text>
<line stroke="#2d3238" stroke-width="1" x1="90" x2="770" y1="437.54547" y2="437.54547"/>
<text fill="#374151" font-family="monospace" font-size="12" x="782" y="441.54547">
517 bp
</text>
<line stroke="#2d3238" stroke-width="1" x1="90" x2="770" y1="465.1968" y2="465.1968"/>
<text fill="#374151" font-family="monospace" font-size="12" x="782" y="469.1968">
400 bp
</text>
<line stroke="#2d3238" stroke-width="1" x1="90" x2="770" y1="496.20023" y2="496.20023"/>
<text fill="#374151" font-family="monospace" font-size="12" x="782" y="500.20023">
300 bp
</text>
<line stroke="#2d3238" stroke-width="1" x1="90" x2="770" y1="539.897" y2="539.897"/>
<text fill="#374151" font-family="monospace" font-size="12" x="782" y="543.897">
200 bp
</text>
<line stroke="#2d3238" stroke-width="1" x1="90" x2="770" y1="614.5972" y2="614.5972"/>
<text fill="#374151" font-family="monospace" font-size="12" x="782" y="618.5972">
100 bp
</text>
<rect fill="#1a2028" height="540" rx="6" ry="6" width="68" x="226" y="100"/>
<text fill="#0f172a" font-family="monospace" font-size="13" text-anchor="middle" x="260" y="676">
NEB 100bp DNA Ladder
</text>
<rect fill="#e5e7eb" height="3.402062" opacity="0.6292783" rx="2" ry="2" width="38.494846" x="240.75258" y="322.25928"/>
<rect fill="#e5e7eb" height="4.948454" opacity="0.98804116" rx="2" ry="2" width="49.62887" x="235.18556" y="345.48557"/>
<rect fill="#e5e7eb" height="3.1958761" opacity="0.5814433" rx="2" ry="2" width="37.010307" x="241.49484" y="365.02814"/>
<rect fill="#e5e7eb" height="3.1185567" opacity="0.5635052" rx="2" ry="2" width="36.45361" x="241.7732" y="375.85376"/>
<rect fill="#e5e7eb" height="3.041237" opacity="0.545567" rx="2" ry="2" width="35.896908" x="242.05154" y="387.95114"/>
<rect fill="#e5e7eb" height="2.9639175" opacity="0.52762884" rx="2" ry="2" width="35.340206" x="242.3299" y="401.6609"/>
<rect fill="#e5e7eb" height="5" opacity="1" rx="2" ry="2" width="50" x="235" y="416.425"/>
<rect fill="#e5e7eb" height="3.4793816" opacity="0.64721644" rx="2" ry="2" width="39.051544" x="240.47423" y="432.42853"/>
<rect fill="#e5e7eb" height="5" opacity="1" rx="2" ry="2" width="50" x="235" y="435.09128"/>
<rect fill="#e5e7eb" height="3.2474227" opacity="0.593402" rx="2" ry="2" width="37.381443" x="241.30928" y="458.81323"/>
<rect fill="#e5e7eb" height="3.1443298" opacity="0.56948453" rx="2" ry="2" width="36.639175" x="241.68042" y="488.31802"/>
<rect fill="#e5e7eb" height="3.7371135" opacity="0.70701027" rx="2" ry="2" width="40.907215" x="239.54639" y="529.5336"/>
<rect fill="#e5e7eb" height="2.95" opacity="0.5244" rx="2" ry="2" width="35.24" x="242.38" y="600.89246"/>
<rect fill="#1f252e" height="540" rx="6" ry="6" width="68" x="396" y="100"/>
<text fill="#0f172a" font-family="monospace" font-size="13" text-anchor="middle" x="430" y="676">
Pool (n=3)
</text>
<rect fill="#f59e0b" height="4.86" opacity="0.77959996" rx="2" ry="2" width="52.88" x="403.56" y="312.92615"/>
<text fill="#111827" font-family="monospace" font-size="11" x="474" y="319.35614">
1650 bp
</text>
<rect fill="#f59e0b" height="4.86" opacity="0.77959996" rx="2" ry="2" width="52.88" x="403.56" y="384.51373"/>
<text fill="#111827" font-family="monospace" font-size="11" x="474" y="390.94373">
820 bp
</text>
<rect fill="#f59e0b" height="4.86" opacity="0.77959996" rx="2" ry="2" width="52.88" x="403.56" y="471.6781"/>
<text fill="#111827" font-family="monospace" font-size="11" x="474" y="478.1081">
350 bp
</text>
<rect fill="#1a2028" height="540" rx="6" ry="6" width="68" x="566" y="100"/>
<text fill="#0f172a" font-family="monospace" font-size="13" text-anchor="middle" x="600" y="676">
NEB 1kb DNA Ladder
</text>
<rect fill="#e5e7eb" height="3.34" opacity="0.61487997" rx="2" ry="2" width="38.048" x="580.976" y="129.1943"/>
<rect fill="#e5e7eb" height="3.5" opacity="0.65199995" rx="2" ry="2" width="39.2" x="580.4" y="151.96768"/>
<rect fill="#e5e7eb" height="3.34" opacity="0.61487997" rx="2" ry="2" width="38.048" x="580.976" y="181.49663"/>
<rect fill="#e5e7eb" height="3.1599998" opacity="0.57312" rx="2" ry="2" width="36.752" x="581.624" y="200.2495"/>
<rect fill="#e5e7eb" height="5" opacity="1" rx="2" ry="2" width="50" x="575" y="222.17007"/>
<rect fill="#e5e7eb" height="3.46" opacity="0.64272" rx="2" ry="2" width="38.912" x="580.544" y="252.38478"/>
<rect fill="#e5e7eb" height="3.22" opacity="0.58703995" rx="2" ry="2" width="37.184" x="581.408" y="294.0509"/>
<rect fill="#e5e7eb" height="3.34" opacity="0.61487997" rx="2" ry="2" width="38.048" x="580.976" y="323.44406"/>
<rect fill="#e5e7eb" height="2.95" opacity="0.5244" rx="2" ry="2" width="35.24" x="582.38" y="365.15106"/>
<rect fill="#e5e7eb" height="2.95" opacity="0.5244" rx="2" ry="2" width="35.24" x="582.38" y="432.6932"/>
<rect fill="#e5e7eb" height="2.95" opacity="0.5244" rx="2" ry="2" width="35.24" x="582.38" y="436.11627"/>
<text fill="#0f172a" font-family="monospace" font-size="16" x="90" y="42">
Serial Gel Preview (1 sample lane(s), 3 member(s)) | ladders: NEB 100bp DNA Ladder + NEB 1kb DNA Ladder
</text>
<text fill="#334155" font-family="monospace" font-size="12" x="90" y="62">
range 72..13003 bp | lanes: 3
</text>
<line opacity="0.25" stroke="#f59e0b" stroke-width="1.5" x1="430" x2="430" y1="90" y2="650"/>
</svg>