<svg height="377" viewBox="0 0 1200 377" width="1200" xmlns="http://www.w3.org/2000/svg">
<rect fill="#ffffff" height="377" width="1200" x="0" y="0"/>
<line stroke="#000000" stroke-width="2" x1="60" x2="1140" y1="99" y2="99"/>
<rect fill="#43aaa1" height="10" width="53.688766" x="60" y="324"/>
<path d="M60,324 L54,329 L60,334 z" fill="#43aaa1"/>
<path d="M60,329 L60,337 Q60,342.85,56.92,342.85 L46,342.85" data-gentle-role="linear-transcription-start-tick" fill="none" stroke="#43aaa1" stroke-linecap="round" stroke-linejoin="round" stroke-width="2"/>
<path d="M44.04,342.85 L48.52,338.35 L48.52,347.35 z" data-gentle-role="linear-transcription-start-arrow" fill="#43aaa1" stroke="none"/>
<rect fill="#b4640a" height="10" width="138.50143" x="60" y="311"/>
<path d="M60,311 L54,316 L60,321 z" fill="#b4640a"/>
<path d="M198.50143,316 L198.50143,324 Q198.50143,329.85,195.42143,329.85 L184.50143,329.85" data-gentle-role="linear-transcription-start-tick" fill="none" stroke="#b4640a" stroke-linecap="round" stroke-linejoin="round" stroke-width="2"/>
<path d="M182.54143,329.85 L187.02144,325.35 L187.02144,334.35 z" data-gentle-role="linear-transcription-start-arrow" fill="#b4640a" stroke="none"/>
<rect fill="#43aaa1" height="10" width="217.86743" x="60" y="298"/>
<path d="M60,298 L54,303 L60,308 z" fill="#43aaa1"/>
<path d="M60,303 L60,311 Q60,316.85,56.92,316.85 L46,316.85" data-gentle-role="linear-transcription-start-tick" fill="none" stroke="#43aaa1" stroke-linecap="round" stroke-linejoin="round" stroke-width="2"/>
<path d="M44.04,316.85 L48.52,312.35 L48.52,321.35 z" data-gentle-role="linear-transcription-start-arrow" fill="#43aaa1" stroke="none"/>
<rect fill="#43aaa1" height="10" width="232.6513" x="60" y="285"/>
<path d="M60,285 L54,290 L60,295 z" fill="#43aaa1"/>
<path d="M60,290 L60,298 Q60,303.85,56.92,303.85 L46,303.85" data-gentle-role="linear-transcription-start-tick" fill="none" stroke="#43aaa1" stroke-linecap="round" stroke-linejoin="round" stroke-width="2"/>
<path d="M44.04,303.85 L48.52,299.35 L48.52,308.35 z" data-gentle-role="linear-transcription-start-arrow" fill="#43aaa1" stroke="none"/>
<rect fill="#43aaa1" height="10" width="235.76367" x="60" y="272"/>
<path d="M60,272 L54,277 L60,282 z" fill="#43aaa1"/>
<path d="M60,277 L60,285 Q60,290.85,56.92,290.85 L46,290.85" data-gentle-role="linear-transcription-start-tick" fill="none" stroke="#43aaa1" stroke-linecap="round" stroke-linejoin="round" stroke-width="2"/>
<path d="M44.04,290.85 L48.52,286.35 L48.52,295.35 z" data-gentle-role="linear-transcription-start-arrow" fill="#43aaa1" stroke="none"/>
<rect fill="#43aaa1" height="10" width="237.31989" x="60" y="259"/>
<path d="M60,259 L54,264 L60,269 z" fill="#43aaa1"/>
<path d="M60,264 L60,272 Q60,277.85,56.92,277.85 L46,277.85" data-gentle-role="linear-transcription-start-tick" fill="none" stroke="#43aaa1" stroke-linecap="round" stroke-linejoin="round" stroke-width="2"/>
<path d="M44.04,277.85 L48.52,273.35 L48.52,282.35 z" data-gentle-role="linear-transcription-start-arrow" fill="#43aaa1" stroke="none"/>
<rect fill="#43aaa1" height="10" width="246.65704" x="60" y="246"/>
<path d="M60,246 L54,251 L60,256 z" fill="#43aaa1"/>
<path d="M60,251 L60,259 Q60,264.85,56.92,264.85 L46,264.85" data-gentle-role="linear-transcription-start-tick" fill="none" stroke="#43aaa1" stroke-linecap="round" stroke-linejoin="round" stroke-width="2"/>
<path d="M44.04,264.85 L48.52,260.35 L48.52,269.35 z" data-gentle-role="linear-transcription-start-arrow" fill="#43aaa1" stroke="none"/>
<rect fill="#43aaa1" height="10" width="247.43518" x="60" y="233"/>
<path d="M60,233 L54,238 L60,243 z" fill="#43aaa1"/>
<path d="M60,238 L60,246 Q60,251.85,56.92,251.85 L46,251.85" data-gentle-role="linear-transcription-start-tick" fill="none" stroke="#43aaa1" stroke-linecap="round" stroke-linejoin="round" stroke-width="2"/>
<path d="M44.04,251.85 L48.52,247.35 L48.52,256.35 z" data-gentle-role="linear-transcription-start-arrow" fill="#43aaa1" stroke="none"/>
<rect fill="#43aaa1" height="10" width="298.78964" x="60" y="220"/>
<path d="M60,220 L54,225 L60,230 z" fill="#43aaa1"/>
<path d="M60,225 L60,233 Q60,238.85,56.92,238.85 L46,238.85" data-gentle-role="linear-transcription-start-tick" fill="none" stroke="#43aaa1" stroke-linecap="round" stroke-linejoin="round" stroke-width="2"/>
<path d="M44.04,238.85 L48.52,234.35 L48.52,243.35 z" data-gentle-role="linear-transcription-start-arrow" fill="#43aaa1" stroke="none"/>
<rect fill="#43aaa1" height="10" width="339.25073" x="60" y="207"/>
<path d="M60,207 L54,212 L60,217 z" fill="#43aaa1"/>
<path d="M60,212 L60,220 Q60,225.85,56.92,225.85 L46,225.85" data-gentle-role="linear-transcription-start-tick" fill="none" stroke="#43aaa1" stroke-linecap="round" stroke-linejoin="round" stroke-width="2"/>
<path d="M44.04,225.85 L48.52,221.35 L48.52,230.35 z" data-gentle-role="linear-transcription-start-arrow" fill="#43aaa1" stroke="none"/>
<rect fill="#43aaa1" height="10" width="357.92508" x="60" y="194"/>
<path d="M60,194 L54,199 L60,204 z" fill="#43aaa1"/>
<path d="M60,199 L60,207 Q60,212.85,56.92,212.85 L46,212.85" data-gentle-role="linear-transcription-start-tick" fill="none" stroke="#43aaa1" stroke-linecap="round" stroke-linejoin="round" stroke-width="2"/>
<path d="M44.04,212.85 L48.52,208.35 L48.52,217.35 z" data-gentle-role="linear-transcription-start-arrow" fill="#43aaa1" stroke="none"/>
<rect fill="#1f4fcc" height="10" width="361.03748" x="60" y="72"/>
<path d="M421.03748,72 L427.03748,77 L421.03748,82 z" fill="#1f4fcc"/>
<path d="M60,77 L60,69 Q60,63.15,63.08,63.15 L74,63.15" data-gentle-role="linear-transcription-start-tick" fill="none" stroke="#1f4fcc" stroke-linecap="round" stroke-linejoin="round" stroke-width="2"/>
<path d="M75.96,63.15 L71.48,58.65 L71.48,67.65 z" data-gentle-role="linear-transcription-start-arrow" fill="#1f4fcc" stroke="none"/>
<rect fill="#6e6e6e" height="10" width="361.03748" x="60" y="59"/>
<rect fill="#43aaa1" height="10" width="370.37466" x="60" y="181"/>
<path d="M60,181 L54,186 L60,191 z" fill="#43aaa1"/>
<path d="M60,186 L60,194 Q60,199.85,56.92,199.85 L46,199.85" data-gentle-role="linear-transcription-start-tick" fill="none" stroke="#43aaa1" stroke-linecap="round" stroke-linejoin="round" stroke-width="2"/>
<path d="M44.04,199.85 L48.52,195.35 L48.52,204.35 z" data-gentle-role="linear-transcription-start-arrow" fill="#43aaa1" stroke="none"/>
<rect fill="#43aaa1" height="10" width="375.0432" x="60" y="168"/>
<path d="M60,168 L54,173 L60,178 z" fill="#43aaa1"/>
<path d="M60,173 L60,181 Q60,186.85,56.92,186.85 L46,186.85" data-gentle-role="linear-transcription-start-tick" fill="none" stroke="#43aaa1" stroke-linecap="round" stroke-linejoin="round" stroke-width="2"/>
<path d="M44.04,186.85 L48.52,182.35 L48.52,191.35 z" data-gentle-role="linear-transcription-start-arrow" fill="#43aaa1" stroke="none"/>
<rect fill="#43aaa1" height="10" width="379.7118" x="60" y="155"/>
<path d="M60,155 L54,160 L60,165 z" fill="#43aaa1"/>
<path d="M60,160 L60,168 Q60,173.85,56.92,173.85 L46,173.85" data-gentle-role="linear-transcription-start-tick" fill="none" stroke="#43aaa1" stroke-linecap="round" stroke-linejoin="round" stroke-width="2"/>
<path d="M44.04,173.85 L48.52,169.35 L48.52,178.35 z" data-gentle-role="linear-transcription-start-arrow" fill="#43aaa1" stroke="none"/>
<rect fill="#1f4fcc" height="10" width="389.04898" x="60" y="142"/>
<path d="M60,142 L54,147 L60,152 z" fill="#1f4fcc"/>
<path d="M449.04898,147 L449.04898,155 Q449.04898,160.85,445.969,160.85 L435.04898,160.85" data-gentle-role="linear-transcription-start-tick" fill="none" stroke="#1f4fcc" stroke-linecap="round" stroke-linejoin="round" stroke-width="2"/>
<path d="M433.089,160.85 L437.56897,156.35 L437.56897,165.35 z" data-gentle-role="linear-transcription-start-arrow" fill="#1f4fcc" stroke="none"/>
<rect fill="#43aaa1" height="10" width="389.8271" x="60" y="129"/>
<path d="M60,129 L54,134 L60,139 z" fill="#43aaa1"/>
<path d="M60,134 L60,142 Q60,147.85,56.92,147.85 L46,147.85" data-gentle-role="linear-transcription-start-tick" fill="none" stroke="#43aaa1" stroke-linecap="round" stroke-linejoin="round" stroke-width="2"/>
<path d="M44.04,147.85 L48.52,143.35 L48.52,152.35 z" data-gentle-role="linear-transcription-start-arrow" fill="#43aaa1" stroke="none"/>
<rect fill="#43aaa1" height="10" width="916.5994" x="60" y="116"/>
<path d="M60,116 L54,121 L60,126 z" fill="#43aaa1"/>
<path d="M60,121 L60,129 Q60,134.85,56.92,134.85 L46,134.85" data-gentle-role="linear-transcription-start-tick" fill="none" stroke="#43aaa1" stroke-linecap="round" stroke-linejoin="round" stroke-width="2"/>
<path d="M44.04,134.85 L48.52,130.35 L48.52,139.35 z" data-gentle-role="linear-transcription-start-arrow" fill="#43aaa1" stroke="none"/>
<rect fill="#43aaa1" height="10" width="846.5706" x="292.6513" y="298"/>
<path d="M292.6513,298 L286.6513,303 L292.6513,308 z" fill="#43aaa1"/>
<path d="M292.6513,303 L292.6513,311 Q292.6513,316.85,289.57132,316.85 L278.6513,316.85" data-gentle-role="linear-transcription-start-tick" fill="none" stroke="#43aaa1" stroke-linecap="round" stroke-linejoin="round" stroke-width="2"/>
<path d="M276.6913,316.85 L281.1713,312.35 L281.1713,321.35 z" data-gentle-role="linear-transcription-start-arrow" fill="#43aaa1" stroke="none"/>
<line stroke="#e17f0f" stroke-width="2" x1="750.6729" x2="750.6729" y1="94" y2="104"/>
<circle cx="750.6729" cy="99" fill="#ffffff" r="2.5" stroke="#e17f0f" stroke-width="1.5"/>
<text fill="#111111" font-family="monospace" font-size="10" text-anchor="start" x="60" y="345">
VKORC1 promoter window
</text>
<text fill="#111111" font-family="monospace" font-size="10" text-anchor="start" x="60" y="332">
VKORC1
</text>
<text fill="#f8f8f8" font-family="monospace" font-size="10" text-anchor="middle" x="254.52449" y="150">
VKORC1
</text>
<text fill="#111111" font-family="monospace" font-size="10" text-anchor="start" x="292.6513" y="319">
VKORC1 promoter window
</text>
<text fill="#111111" font-family="monospace" font-size="9" text-anchor="middle" x="750.6729" y="89">
rs9923231
</text>
<text fill="#111111" font-family="monospace" font-size="16" x="12" y="24">
vkorc1_rs9923231_context
</text>
<text fill="#444444" font-family="monospace" font-size="14" text-anchor="end" x="1188" y="24">
2114..3501 (1388 bp view of 6001 bp)
</text>
</svg>